G04 EAGLE Gerber RS-274X export*
G75*
%MOMM*%
%FSLAX34Y34*%
%LPD*%
%INTop Copper*%
%IPPOS*%
%AMOC8*
5,1,8,0,0,1.08239X$1,22.5*%
G01*
%ADD10R,1.800000X1.600000*%
%ADD11R,2.800000X2.400000*%
%ADD12R,1.300000X1.500000*%
%ADD13P,1.649562X8X202.500000*%
%ADD14R,1.500000X1.300000*%
%ADD15R,1.000000X1.400000*%
%ADD16R,1.549400X0.533400*%
%ADD17R,2.200000X0.600000*%
%ADD18R,2.550000X2.550000*%
%ADD19P,2.760095X8X292.500000*%
%ADD20P,2.760095X8X202.500000*%
%ADD21R,1.600200X1.600200*%
%ADD22P,1.732040X8X112.500000*%
%ADD23R,1.524000X1.524000*%
%ADD24P,1.649562X8X112.500000*%
%ADD25C,0.940000*%
%ADD26C,0.160000*%
%ADD27P,2.760095X8X112.500000*%
%ADD28C,1.524000*%
%ADD29R,1.168400X1.600200*%
%ADD30C,1.778000*%
%ADD31C,1.524000*%
%ADD32R,0.500000X0.700000*%
%ADD33R,1.200000X1.200000*%
%ADD34R,0.635000X1.270000*%
%ADD35P,1.649562X8X22.500000*%
%ADD36R,0.900000X1.600000*%
%ADD37R,1.300000X1.300000*%
%ADD38R,2.000000X1.600000*%
%ADD39C,1.108000*%
%ADD40C,1.308000*%
%ADD41C,1.208000*%
%ADD42C,1.158000*%
%ADD43C,0.508000*%
%ADD44C,3.516000*%
%ADD45C,1.270000*%
%ADD46C,2.000000*%
%ADD47C,1.600000*%
%ADD48C,1.800000*%
%ADD49C,1.016000*%
%ADD50C,1.508000*%
%ADD51C,1.016000*%
%ADD52C,0.406400*%
%ADD53C,0.812800*%
%ADD54C,2.540000*%
%ADD55C,0.304800*%

G36*
X64972Y4079D02*
X64972Y4079D01*
X65152Y4086D01*
X65218Y4099D01*
X65284Y4105D01*
X65459Y4148D01*
X65636Y4184D01*
X65698Y4207D01*
X65763Y4223D01*
X65928Y4295D01*
X66097Y4358D01*
X66155Y4392D01*
X66216Y4418D01*
X66368Y4515D01*
X66525Y4605D01*
X66576Y4647D01*
X66632Y4683D01*
X66767Y4803D01*
X66906Y4918D01*
X66950Y4967D01*
X67000Y5012D01*
X67113Y5152D01*
X67233Y5287D01*
X67268Y5344D01*
X67310Y5396D01*
X67399Y5552D01*
X67495Y5705D01*
X67521Y5767D01*
X67554Y5824D01*
X67617Y5993D01*
X67687Y6160D01*
X67702Y6225D01*
X67726Y6287D01*
X67760Y6464D01*
X67802Y6639D01*
X67807Y6706D01*
X67820Y6771D01*
X67826Y6951D01*
X67839Y7131D01*
X67833Y7198D01*
X67836Y7264D01*
X67812Y7443D01*
X67796Y7623D01*
X67782Y7674D01*
X67771Y7753D01*
X67629Y8225D01*
X67614Y8256D01*
X67607Y8278D01*
X67055Y9611D01*
X67055Y113350D01*
X67046Y113464D01*
X67047Y113578D01*
X67026Y113709D01*
X67015Y113842D01*
X66988Y113952D01*
X66970Y114065D01*
X66929Y114191D01*
X66897Y114320D01*
X66852Y114425D01*
X66816Y114534D01*
X66754Y114652D01*
X66702Y114774D01*
X66641Y114870D01*
X66588Y114971D01*
X66529Y115045D01*
X66437Y115190D01*
X66221Y115432D01*
X66163Y115505D01*
X65288Y116380D01*
X65230Y116429D01*
X65177Y116485D01*
X65042Y116589D01*
X64912Y116699D01*
X64846Y116739D01*
X64786Y116785D01*
X64636Y116866D01*
X64489Y116954D01*
X64418Y116982D01*
X64351Y117018D01*
X64190Y117074D01*
X64031Y117137D01*
X63957Y117153D01*
X63885Y117178D01*
X63716Y117207D01*
X63549Y117244D01*
X63473Y117248D01*
X63398Y117261D01*
X63227Y117262D01*
X63057Y117271D01*
X62981Y117263D01*
X62905Y117264D01*
X62736Y117237D01*
X62566Y117219D01*
X62493Y117199D01*
X62418Y117187D01*
X62255Y117134D01*
X62091Y117088D01*
X62021Y117057D01*
X61949Y117033D01*
X61797Y116954D01*
X61642Y116883D01*
X61579Y116840D01*
X61511Y116805D01*
X61429Y116739D01*
X61233Y116607D01*
X61060Y116445D01*
X60978Y116380D01*
X59503Y114904D01*
X58009Y114285D01*
X30891Y114285D01*
X29397Y114904D01*
X28254Y116047D01*
X27635Y117541D01*
X27635Y144659D01*
X28254Y146153D01*
X29397Y147296D01*
X30891Y147915D01*
X36099Y147915D01*
X36137Y147918D01*
X36175Y147916D01*
X36383Y147938D01*
X36591Y147955D01*
X36628Y147964D01*
X36666Y147968D01*
X36867Y148023D01*
X37069Y148073D01*
X37105Y148088D01*
X37141Y148099D01*
X37331Y148186D01*
X37523Y148268D01*
X37555Y148288D01*
X37590Y148304D01*
X37763Y148421D01*
X37939Y148533D01*
X37967Y148558D01*
X37999Y148580D01*
X38151Y148723D01*
X38307Y148862D01*
X38331Y148891D01*
X38359Y148917D01*
X38486Y149083D01*
X38617Y149246D01*
X38636Y149279D01*
X38659Y149309D01*
X38758Y149493D01*
X38861Y149674D01*
X38874Y149710D01*
X38892Y149744D01*
X38960Y149941D01*
X39032Y150137D01*
X39040Y150174D01*
X39052Y150210D01*
X39087Y150417D01*
X39127Y150621D01*
X39128Y150659D01*
X39135Y150697D01*
X39136Y150906D01*
X39142Y151114D01*
X39137Y151152D01*
X39138Y151190D01*
X39105Y151396D01*
X39078Y151603D01*
X39067Y151640D01*
X39061Y151677D01*
X38996Y151876D01*
X38935Y152075D01*
X38919Y152110D01*
X38907Y152146D01*
X38810Y152331D01*
X38719Y152519D01*
X38697Y152550D01*
X38679Y152584D01*
X38621Y152656D01*
X38433Y152921D01*
X38312Y153043D01*
X38254Y153117D01*
X27635Y163735D01*
X27635Y177665D01*
X38316Y188345D01*
X38365Y188403D01*
X38421Y188455D01*
X38524Y188591D01*
X38635Y188721D01*
X38675Y188787D01*
X38721Y188847D01*
X38801Y188997D01*
X38890Y189144D01*
X38918Y189215D01*
X38954Y189282D01*
X39009Y189443D01*
X39073Y189602D01*
X39089Y189676D01*
X39114Y189748D01*
X39143Y189917D01*
X39180Y190083D01*
X39184Y190160D01*
X39197Y190235D01*
X39198Y190406D01*
X39207Y190576D01*
X39199Y190652D01*
X39200Y190728D01*
X39173Y190897D01*
X39155Y191067D01*
X39135Y191140D01*
X39123Y191215D01*
X39070Y191378D01*
X39024Y191542D01*
X38993Y191612D01*
X38969Y191684D01*
X38890Y191835D01*
X38819Y191991D01*
X38776Y192054D01*
X38741Y192122D01*
X38675Y192204D01*
X38543Y192400D01*
X38381Y192573D01*
X38316Y192655D01*
X27635Y203335D01*
X27635Y217265D01*
X38316Y227945D01*
X38365Y228003D01*
X38421Y228055D01*
X38524Y228191D01*
X38635Y228321D01*
X38675Y228387D01*
X38721Y228447D01*
X38801Y228597D01*
X38890Y228744D01*
X38918Y228815D01*
X38954Y228882D01*
X39009Y229043D01*
X39073Y229202D01*
X39089Y229276D01*
X39114Y229348D01*
X39143Y229517D01*
X39180Y229683D01*
X39184Y229760D01*
X39197Y229835D01*
X39198Y230006D01*
X39207Y230176D01*
X39199Y230252D01*
X39200Y230328D01*
X39173Y230497D01*
X39155Y230667D01*
X39135Y230740D01*
X39123Y230815D01*
X39070Y230978D01*
X39024Y231142D01*
X38993Y231212D01*
X38969Y231284D01*
X38890Y231435D01*
X38819Y231591D01*
X38776Y231654D01*
X38741Y231722D01*
X38675Y231804D01*
X38543Y232000D01*
X38381Y232173D01*
X38316Y232255D01*
X27635Y242935D01*
X27635Y256865D01*
X37485Y266715D01*
X52214Y266715D01*
X52311Y266693D01*
X52635Y266675D01*
X52727Y266665D01*
X176095Y266665D01*
X182257Y264112D01*
X187401Y258968D01*
X188332Y258037D01*
X188419Y257963D01*
X188499Y257882D01*
X188606Y257804D01*
X188708Y257718D01*
X188805Y257659D01*
X188898Y257592D01*
X189016Y257532D01*
X189130Y257463D01*
X189236Y257421D01*
X189338Y257369D01*
X189465Y257329D01*
X189588Y257280D01*
X189700Y257255D01*
X189809Y257221D01*
X189902Y257211D01*
X190070Y257173D01*
X190394Y257155D01*
X190486Y257145D01*
X217388Y257145D01*
X217464Y257151D01*
X217540Y257149D01*
X217709Y257171D01*
X217880Y257185D01*
X217954Y257203D01*
X218029Y257213D01*
X218193Y257262D01*
X218359Y257303D01*
X218428Y257333D01*
X218502Y257355D01*
X218655Y257431D01*
X218812Y257498D01*
X218876Y257539D01*
X218945Y257572D01*
X219084Y257671D01*
X219228Y257763D01*
X219285Y257814D01*
X219347Y257858D01*
X219468Y257978D01*
X219596Y258092D01*
X219644Y258151D01*
X219698Y258205D01*
X219799Y258343D01*
X219906Y258476D01*
X219943Y258542D01*
X219988Y258603D01*
X220065Y258756D01*
X220150Y258904D01*
X220176Y258976D01*
X220211Y259044D01*
X220262Y259207D01*
X220321Y259367D01*
X220336Y259442D01*
X220359Y259514D01*
X220371Y259619D01*
X220416Y259851D01*
X220423Y260087D01*
X220435Y260192D01*
X220435Y272864D01*
X220418Y273083D01*
X220404Y273300D01*
X220398Y273328D01*
X220395Y273356D01*
X220343Y273568D01*
X220294Y273781D01*
X220283Y273807D01*
X220277Y273835D01*
X220191Y274035D01*
X220108Y274238D01*
X220093Y274262D01*
X220082Y274288D01*
X219965Y274472D01*
X219851Y274659D01*
X219832Y274681D01*
X219817Y274704D01*
X219672Y274867D01*
X219529Y275033D01*
X219507Y275051D01*
X219488Y275072D01*
X219319Y275209D01*
X219151Y275350D01*
X219130Y275361D01*
X219104Y275382D01*
X218676Y275626D01*
X218600Y275654D01*
X218554Y275680D01*
X214849Y277214D01*
X212412Y279652D01*
X212354Y279701D01*
X212302Y279757D01*
X212166Y279861D01*
X212036Y279971D01*
X211971Y280011D01*
X211910Y280057D01*
X211759Y280138D01*
X211613Y280226D01*
X211543Y280254D01*
X211475Y280290D01*
X211314Y280346D01*
X211155Y280409D01*
X211081Y280425D01*
X211009Y280450D01*
X210840Y280479D01*
X210674Y280516D01*
X210598Y280520D01*
X210522Y280533D01*
X210352Y280534D01*
X210181Y280543D01*
X210105Y280535D01*
X210029Y280536D01*
X209860Y280509D01*
X209690Y280491D01*
X209617Y280471D01*
X209542Y280459D01*
X209379Y280406D01*
X209215Y280361D01*
X209146Y280329D01*
X209073Y280305D01*
X208922Y280226D01*
X208766Y280155D01*
X208703Y280112D01*
X208636Y280077D01*
X208553Y280011D01*
X208357Y279879D01*
X208185Y279718D01*
X208102Y279652D01*
X205567Y277116D01*
X200398Y274975D01*
X194802Y274975D01*
X189633Y277116D01*
X186270Y280480D01*
X186212Y280529D01*
X186160Y280585D01*
X186130Y280608D01*
X186110Y280627D01*
X186013Y280698D01*
X185894Y280799D01*
X185829Y280838D01*
X185768Y280885D01*
X185723Y280909D01*
X185711Y280918D01*
X185639Y280954D01*
X185617Y280966D01*
X185471Y281054D01*
X185401Y281082D01*
X185333Y281118D01*
X185274Y281139D01*
X185271Y281140D01*
X185256Y281145D01*
X185172Y281173D01*
X185013Y281237D01*
X184939Y281253D01*
X184867Y281278D01*
X184698Y281307D01*
X184532Y281344D01*
X184456Y281348D01*
X184380Y281361D01*
X184210Y281362D01*
X184039Y281371D01*
X183963Y281363D01*
X183887Y281364D01*
X183718Y281337D01*
X183548Y281319D01*
X183475Y281299D01*
X183400Y281287D01*
X183237Y281234D01*
X183073Y281188D01*
X183004Y281157D01*
X182931Y281133D01*
X182780Y281054D01*
X182736Y281034D01*
X182683Y281011D01*
X182675Y281006D01*
X182624Y280983D01*
X182561Y280940D01*
X182494Y280905D01*
X182411Y280839D01*
X182372Y280813D01*
X182267Y280746D01*
X182251Y280731D01*
X182215Y280707D01*
X182045Y280547D01*
X182042Y280545D01*
X181960Y280480D01*
X178788Y277307D01*
X174027Y275335D01*
X168873Y275335D01*
X164112Y277307D01*
X160905Y280515D01*
X160847Y280564D01*
X160794Y280619D01*
X160659Y280723D01*
X160529Y280834D01*
X160464Y280873D01*
X160403Y280920D01*
X160253Y281000D01*
X160106Y281089D01*
X160035Y281117D01*
X159968Y281153D01*
X159807Y281208D01*
X159648Y281272D01*
X159574Y281288D01*
X159502Y281313D01*
X159333Y281342D01*
X159166Y281378D01*
X159090Y281383D01*
X159015Y281395D01*
X158844Y281397D01*
X158674Y281406D01*
X158598Y281398D01*
X158522Y281399D01*
X158353Y281372D01*
X158183Y281354D01*
X158110Y281334D01*
X158035Y281322D01*
X157872Y281268D01*
X157708Y281223D01*
X157638Y281191D01*
X157566Y281168D01*
X157415Y281089D01*
X157259Y281018D01*
X157196Y280975D01*
X157128Y280940D01*
X157046Y280874D01*
X156850Y280742D01*
X156678Y280580D01*
X156595Y280515D01*
X153388Y277307D01*
X148627Y275335D01*
X143473Y275335D01*
X138712Y277307D01*
X135067Y280952D01*
X133095Y285713D01*
X133095Y287050D01*
X133086Y287164D01*
X133087Y287278D01*
X133066Y287409D01*
X133055Y287542D01*
X133028Y287652D01*
X133010Y287765D01*
X132969Y287892D01*
X132937Y288020D01*
X132892Y288125D01*
X132856Y288234D01*
X132794Y288352D01*
X132742Y288474D01*
X132681Y288570D01*
X132628Y288671D01*
X132569Y288745D01*
X132477Y288890D01*
X132261Y289132D01*
X132203Y289205D01*
X122885Y298523D01*
X122798Y298597D01*
X122717Y298678D01*
X122610Y298756D01*
X122509Y298842D01*
X122411Y298901D01*
X122319Y298968D01*
X122200Y299028D01*
X122086Y299097D01*
X121980Y299139D01*
X121878Y299191D01*
X121751Y299231D01*
X121628Y299280D01*
X121517Y299305D01*
X121408Y299339D01*
X121314Y299349D01*
X121146Y299387D01*
X120822Y299405D01*
X120730Y299415D01*
X104841Y299415D01*
X103347Y300034D01*
X102204Y301177D01*
X101585Y302671D01*
X101585Y329789D01*
X102204Y331283D01*
X103347Y332426D01*
X104841Y333045D01*
X131959Y333045D01*
X133453Y332426D01*
X134596Y331283D01*
X135215Y329789D01*
X135215Y324581D01*
X135218Y324543D01*
X135216Y324505D01*
X135238Y324297D01*
X135255Y324089D01*
X135264Y324052D01*
X135268Y324014D01*
X135323Y323813D01*
X135373Y323611D01*
X135388Y323575D01*
X135399Y323539D01*
X135486Y323349D01*
X135568Y323157D01*
X135588Y323125D01*
X135604Y323090D01*
X135721Y322917D01*
X135833Y322741D01*
X135858Y322713D01*
X135880Y322681D01*
X136023Y322529D01*
X136162Y322373D01*
X136191Y322349D01*
X136217Y322321D01*
X136383Y322194D01*
X136546Y322063D01*
X136579Y322044D01*
X136609Y322021D01*
X136793Y321922D01*
X136974Y321819D01*
X137010Y321806D01*
X137044Y321788D01*
X137241Y321720D01*
X137437Y321648D01*
X137474Y321640D01*
X137510Y321628D01*
X137717Y321593D01*
X137921Y321553D01*
X137959Y321552D01*
X137997Y321545D01*
X138206Y321544D01*
X138414Y321538D01*
X138452Y321543D01*
X138490Y321542D01*
X138697Y321575D01*
X138903Y321602D01*
X138940Y321613D01*
X138977Y321619D01*
X139176Y321684D01*
X139375Y321745D01*
X139410Y321761D01*
X139446Y321773D01*
X139631Y321870D01*
X139819Y321961D01*
X139850Y321983D01*
X139884Y322001D01*
X139956Y322059D01*
X140221Y322247D01*
X140343Y322368D01*
X140417Y322426D01*
X151035Y333045D01*
X164965Y333045D01*
X175645Y322364D01*
X175703Y322315D01*
X175755Y322259D01*
X175891Y322156D01*
X176021Y322045D01*
X176087Y322005D01*
X176147Y321959D01*
X176297Y321879D01*
X176444Y321790D01*
X176515Y321762D01*
X176582Y321726D01*
X176743Y321671D01*
X176902Y321607D01*
X176976Y321591D01*
X177048Y321566D01*
X177217Y321537D01*
X177383Y321500D01*
X177460Y321496D01*
X177535Y321483D01*
X177706Y321482D01*
X177876Y321473D01*
X177952Y321481D01*
X178028Y321480D01*
X178197Y321507D01*
X178367Y321525D01*
X178440Y321545D01*
X178515Y321557D01*
X178678Y321610D01*
X178842Y321656D01*
X178912Y321687D01*
X178984Y321711D01*
X179135Y321790D01*
X179291Y321861D01*
X179354Y321904D01*
X179422Y321939D01*
X179504Y322005D01*
X179700Y322137D01*
X179873Y322299D01*
X179955Y322364D01*
X190635Y333045D01*
X204565Y333045D01*
X215245Y322364D01*
X215303Y322315D01*
X215355Y322259D01*
X215491Y322156D01*
X215621Y322045D01*
X215687Y322005D01*
X215747Y321959D01*
X215897Y321879D01*
X216044Y321790D01*
X216115Y321762D01*
X216182Y321726D01*
X216343Y321671D01*
X216502Y321607D01*
X216576Y321591D01*
X216648Y321566D01*
X216817Y321537D01*
X216983Y321500D01*
X217060Y321496D01*
X217135Y321483D01*
X217306Y321482D01*
X217476Y321473D01*
X217552Y321481D01*
X217628Y321480D01*
X217797Y321507D01*
X217967Y321525D01*
X218040Y321545D01*
X218115Y321557D01*
X218278Y321610D01*
X218442Y321656D01*
X218512Y321687D01*
X218584Y321711D01*
X218735Y321790D01*
X218891Y321861D01*
X218954Y321904D01*
X219022Y321939D01*
X219104Y322005D01*
X219300Y322137D01*
X219473Y322299D01*
X219555Y322364D01*
X230235Y333045D01*
X244165Y333045D01*
X254015Y323195D01*
X254015Y308466D01*
X253993Y308370D01*
X253975Y308045D01*
X253965Y307953D01*
X253965Y248142D01*
X253971Y248066D01*
X253969Y247990D01*
X253991Y247821D01*
X254005Y247650D01*
X254023Y247576D01*
X254033Y247501D01*
X254082Y247337D01*
X254123Y247171D01*
X254153Y247102D01*
X254175Y247028D01*
X254251Y246875D01*
X254318Y246718D01*
X254359Y246654D01*
X254392Y246585D01*
X254491Y246446D01*
X254583Y246302D01*
X254634Y246245D01*
X254678Y246183D01*
X254798Y246062D01*
X254912Y245934D01*
X254971Y245886D01*
X255025Y245832D01*
X255163Y245731D01*
X255296Y245624D01*
X255362Y245587D01*
X255423Y245542D01*
X255576Y245465D01*
X255724Y245380D01*
X255796Y245354D01*
X255864Y245319D01*
X256027Y245268D01*
X256187Y245209D01*
X256262Y245194D01*
X256334Y245171D01*
X256439Y245159D01*
X256671Y245114D01*
X256907Y245107D01*
X257012Y245095D01*
X288438Y245095D01*
X288476Y245098D01*
X288514Y245096D01*
X288722Y245118D01*
X288930Y245135D01*
X288967Y245144D01*
X289005Y245148D01*
X289206Y245203D01*
X289409Y245253D01*
X289444Y245268D01*
X289481Y245279D01*
X289671Y245366D01*
X289862Y245448D01*
X289894Y245468D01*
X289929Y245484D01*
X290103Y245601D01*
X290278Y245713D01*
X290307Y245738D01*
X290338Y245760D01*
X290490Y245903D01*
X290646Y246042D01*
X290670Y246071D01*
X290698Y246097D01*
X290825Y246263D01*
X290956Y246426D01*
X290975Y246459D01*
X290998Y246489D01*
X291097Y246673D01*
X291200Y246854D01*
X291213Y246890D01*
X291231Y246924D01*
X291299Y247121D01*
X291372Y247317D01*
X291379Y247354D01*
X291391Y247390D01*
X291426Y247597D01*
X291466Y247801D01*
X291468Y247839D01*
X291474Y247877D01*
X291475Y248086D01*
X291482Y248294D01*
X291477Y248332D01*
X291477Y248370D01*
X291445Y248577D01*
X291417Y248783D01*
X291406Y248820D01*
X291400Y248857D01*
X291335Y249056D01*
X291275Y249255D01*
X291258Y249290D01*
X291246Y249326D01*
X291150Y249511D01*
X291058Y249699D01*
X291036Y249730D01*
X291018Y249764D01*
X290960Y249836D01*
X290772Y250101D01*
X290652Y250223D01*
X290593Y250297D01*
X290069Y250821D01*
X289982Y250895D01*
X289902Y250976D01*
X289794Y251054D01*
X289693Y251140D01*
X289595Y251199D01*
X289503Y251266D01*
X289385Y251326D01*
X289271Y251395D01*
X289164Y251437D01*
X289063Y251489D01*
X288936Y251529D01*
X288812Y251578D01*
X288701Y251603D01*
X288592Y251637D01*
X288499Y251647D01*
X288331Y251685D01*
X288007Y251703D01*
X287914Y251713D01*
X283267Y251713D01*
X281026Y252641D01*
X279311Y254356D01*
X278383Y256597D01*
X278383Y331413D01*
X279311Y333654D01*
X281026Y335369D01*
X283267Y336297D01*
X424123Y336297D01*
X426364Y335369D01*
X429349Y332384D01*
X430277Y330143D01*
X430277Y306988D01*
X430283Y306912D01*
X430281Y306836D01*
X430303Y306667D01*
X430317Y306496D01*
X430335Y306422D01*
X430345Y306347D01*
X430394Y306183D01*
X430435Y306017D01*
X430465Y305948D01*
X430487Y305874D01*
X430563Y305721D01*
X430630Y305564D01*
X430671Y305500D01*
X430704Y305431D01*
X430803Y305292D01*
X430895Y305148D01*
X430946Y305091D01*
X430990Y305029D01*
X431110Y304908D01*
X431224Y304780D01*
X431283Y304732D01*
X431337Y304678D01*
X431475Y304577D01*
X431608Y304470D01*
X431674Y304433D01*
X431735Y304388D01*
X431888Y304311D01*
X432036Y304226D01*
X432108Y304200D01*
X432176Y304165D01*
X432339Y304114D01*
X432499Y304055D01*
X432574Y304040D01*
X432646Y304017D01*
X432751Y304005D01*
X432983Y303960D01*
X433219Y303953D01*
X433324Y303941D01*
X437961Y303941D01*
X437961Y294352D01*
X437967Y294276D01*
X437965Y294200D01*
X437987Y294031D01*
X438001Y293860D01*
X438019Y293787D01*
X438029Y293711D01*
X438078Y293547D01*
X438119Y293382D01*
X438149Y293312D01*
X438171Y293239D01*
X438247Y293085D01*
X438314Y292928D01*
X438355Y292864D01*
X438388Y292796D01*
X438487Y292656D01*
X438579Y292512D01*
X438630Y292455D01*
X438674Y292393D01*
X438794Y292272D01*
X438908Y292144D01*
X438967Y292096D01*
X439020Y292042D01*
X439159Y291942D01*
X439291Y291834D01*
X439358Y291797D01*
X439419Y291752D01*
X439572Y291675D01*
X439720Y291590D01*
X439792Y291564D01*
X439860Y291530D01*
X440023Y291478D01*
X440183Y291419D01*
X440257Y291404D01*
X440330Y291381D01*
X440435Y291369D01*
X440667Y291324D01*
X440903Y291317D01*
X441008Y291305D01*
X442912Y291305D01*
X442988Y291311D01*
X443064Y291309D01*
X443233Y291331D01*
X443404Y291345D01*
X443478Y291363D01*
X443553Y291373D01*
X443717Y291423D01*
X443883Y291464D01*
X443952Y291494D01*
X444026Y291516D01*
X444179Y291591D01*
X444336Y291658D01*
X444400Y291699D01*
X444469Y291733D01*
X444608Y291831D01*
X444752Y291923D01*
X444809Y291974D01*
X444871Y292018D01*
X444992Y292138D01*
X445120Y292252D01*
X445168Y292311D01*
X445222Y292365D01*
X445323Y292503D01*
X445430Y292636D01*
X445467Y292702D01*
X445512Y292764D01*
X445589Y292916D01*
X445674Y293065D01*
X445700Y293136D01*
X445735Y293204D01*
X445786Y293367D01*
X445845Y293527D01*
X445860Y293602D01*
X445883Y293674D01*
X445895Y293779D01*
X445940Y294011D01*
X445947Y294247D01*
X445959Y294352D01*
X445959Y303941D01*
X451295Y303941D01*
X452002Y303751D01*
X452078Y303711D01*
X452149Y303686D01*
X452218Y303654D01*
X452382Y303606D01*
X452544Y303551D01*
X452619Y303538D01*
X452629Y303535D01*
X452629Y274921D01*
X452644Y274831D01*
X452651Y274740D01*
X452663Y274711D01*
X452669Y274679D01*
X452711Y274598D01*
X452747Y274514D01*
X452773Y274482D01*
X452784Y274461D01*
X452807Y274439D01*
X452852Y274383D01*
X452993Y274242D01*
X452993Y269240D01*
X452996Y269220D01*
X452994Y269201D01*
X453016Y269099D01*
X453032Y268997D01*
X453042Y268980D01*
X453046Y268960D01*
X453099Y268871D01*
X453148Y268780D01*
X453162Y268766D01*
X453172Y268749D01*
X453251Y268682D01*
X453326Y268611D01*
X453344Y268602D01*
X453359Y268589D01*
X453455Y268550D01*
X453549Y268507D01*
X453569Y268505D01*
X453587Y268497D01*
X453754Y268479D01*
X483894Y268479D01*
X483901Y268472D01*
X484039Y268371D01*
X484172Y268264D01*
X484238Y268227D01*
X484299Y268182D01*
X484452Y268105D01*
X484600Y268020D01*
X484672Y267994D01*
X484740Y267959D01*
X484903Y267908D01*
X485063Y267849D01*
X485138Y267834D01*
X485210Y267811D01*
X485315Y267799D01*
X485547Y267754D01*
X485783Y267747D01*
X485888Y267735D01*
X489109Y267735D01*
X490603Y267116D01*
X491746Y265973D01*
X491909Y265579D01*
X491926Y265545D01*
X491939Y265509D01*
X492038Y265326D01*
X492134Y265140D01*
X492157Y265109D01*
X492175Y265076D01*
X492303Y264911D01*
X492427Y264743D01*
X492454Y264717D01*
X492478Y264686D01*
X492631Y264544D01*
X492780Y264399D01*
X492811Y264377D01*
X492839Y264351D01*
X493013Y264235D01*
X493184Y264116D01*
X493218Y264099D01*
X493250Y264078D01*
X493441Y263992D01*
X493629Y263902D01*
X493665Y263891D01*
X493700Y263875D01*
X493901Y263821D01*
X494102Y263762D01*
X494140Y263757D01*
X494177Y263748D01*
X494384Y263727D01*
X494591Y263701D01*
X494629Y263702D01*
X494668Y263698D01*
X494876Y263712D01*
X495084Y263719D01*
X495122Y263727D01*
X495160Y263729D01*
X495363Y263776D01*
X495568Y263817D01*
X495604Y263831D01*
X495641Y263839D01*
X495834Y263918D01*
X496029Y263992D01*
X496062Y264011D01*
X496098Y264025D01*
X496276Y264134D01*
X496457Y264238D01*
X496486Y264263D01*
X496519Y264282D01*
X496677Y264418D01*
X496838Y264551D01*
X496864Y264579D01*
X496893Y264604D01*
X497027Y264764D01*
X497165Y264921D01*
X497185Y264953D01*
X497210Y264982D01*
X497255Y265064D01*
X497427Y265338D01*
X497494Y265497D01*
X497540Y265579D01*
X497558Y265624D01*
X498916Y266982D01*
X500690Y267717D01*
X500842Y267717D01*
X500852Y267718D01*
X500862Y267717D01*
X501066Y267735D01*
X504712Y267735D01*
X504788Y267741D01*
X504864Y267739D01*
X505033Y267761D01*
X505204Y267775D01*
X505278Y267793D01*
X505353Y267803D01*
X505517Y267852D01*
X505683Y267893D01*
X505752Y267923D01*
X505826Y267945D01*
X505979Y268021D01*
X506136Y268088D01*
X506200Y268129D01*
X506269Y268162D01*
X506408Y268261D01*
X506552Y268353D01*
X506609Y268404D01*
X506671Y268448D01*
X506702Y268479D01*
X538480Y268479D01*
X538500Y268482D01*
X538519Y268480D01*
X538621Y268502D01*
X538723Y268519D01*
X538740Y268528D01*
X538760Y268532D01*
X538849Y268585D01*
X538940Y268634D01*
X538954Y268648D01*
X538971Y268658D01*
X539038Y268737D01*
X539110Y268812D01*
X539118Y268830D01*
X539131Y268845D01*
X539170Y268941D01*
X539213Y269035D01*
X539215Y269055D01*
X539223Y269073D01*
X539241Y269240D01*
X539241Y293511D01*
X539356Y293510D01*
X539564Y293504D01*
X539602Y293509D01*
X539640Y293509D01*
X539847Y293541D01*
X540053Y293568D01*
X540090Y293579D01*
X540127Y293585D01*
X540325Y293651D01*
X540525Y293711D01*
X540560Y293728D01*
X540596Y293740D01*
X540781Y293836D01*
X540969Y293928D01*
X541000Y293950D01*
X541034Y293967D01*
X541106Y294025D01*
X541371Y294213D01*
X541493Y294334D01*
X541567Y294393D01*
X542096Y294922D01*
X542644Y295149D01*
X584200Y295149D01*
X584220Y295152D01*
X584239Y295150D01*
X584341Y295172D01*
X584443Y295189D01*
X584460Y295198D01*
X584480Y295202D01*
X584569Y295255D01*
X584660Y295304D01*
X584674Y295318D01*
X584691Y295328D01*
X584758Y295407D01*
X584830Y295482D01*
X584838Y295500D01*
X584851Y295515D01*
X584890Y295611D01*
X584911Y295657D01*
X587700Y295657D01*
X589474Y294922D01*
X590832Y293564D01*
X591567Y291790D01*
X591567Y291592D01*
X591573Y291516D01*
X591571Y291440D01*
X591593Y291271D01*
X591607Y291100D01*
X591625Y291026D01*
X591635Y290951D01*
X591684Y290787D01*
X591725Y290621D01*
X591755Y290552D01*
X591777Y290478D01*
X591853Y290325D01*
X591920Y290168D01*
X591961Y290104D01*
X591994Y290035D01*
X592093Y289896D01*
X592185Y289752D01*
X592236Y289695D01*
X592280Y289633D01*
X592400Y289512D01*
X592514Y289384D01*
X592573Y289336D01*
X592627Y289282D01*
X592765Y289181D01*
X592898Y289074D01*
X592964Y289037D01*
X593025Y288992D01*
X593178Y288915D01*
X593326Y288830D01*
X593398Y288804D01*
X593466Y288769D01*
X593629Y288718D01*
X593789Y288659D01*
X593864Y288644D01*
X593936Y288621D01*
X594041Y288609D01*
X594273Y288564D01*
X594509Y288557D01*
X594614Y288545D01*
X636819Y288545D01*
X640180Y287153D01*
X643181Y284151D01*
X662535Y264797D01*
X662622Y264723D01*
X662703Y264642D01*
X662810Y264564D01*
X662911Y264478D01*
X663009Y264419D01*
X663101Y264352D01*
X663220Y264292D01*
X663334Y264223D01*
X663440Y264181D01*
X663542Y264129D01*
X663669Y264089D01*
X663792Y264040D01*
X663903Y264015D01*
X664012Y263981D01*
X664106Y263971D01*
X664274Y263933D01*
X664598Y263915D01*
X664690Y263905D01*
X666169Y263905D01*
X667663Y263286D01*
X668806Y262143D01*
X669425Y260649D01*
X669425Y246031D01*
X669000Y245006D01*
X668965Y244898D01*
X668921Y244792D01*
X668889Y244663D01*
X668849Y244537D01*
X668832Y244424D01*
X668805Y244313D01*
X668795Y244180D01*
X668775Y244049D01*
X668777Y243935D01*
X668768Y243821D01*
X668780Y243688D01*
X668781Y243555D01*
X668801Y243443D01*
X668811Y243329D01*
X668837Y243239D01*
X668867Y243070D01*
X668974Y242763D01*
X669000Y242674D01*
X669425Y241649D01*
X669425Y227031D01*
X668806Y225537D01*
X668522Y225253D01*
X668380Y225087D01*
X668236Y224923D01*
X668221Y224899D01*
X668202Y224877D01*
X668089Y224689D01*
X667973Y224505D01*
X667962Y224479D01*
X667948Y224455D01*
X667866Y224252D01*
X667782Y224051D01*
X667775Y224023D01*
X667764Y223997D01*
X667717Y223784D01*
X667666Y223571D01*
X667664Y223543D01*
X667658Y223515D01*
X667645Y223297D01*
X667629Y223079D01*
X667632Y223051D01*
X667630Y223022D01*
X667653Y222805D01*
X667672Y222588D01*
X667679Y222565D01*
X667682Y222532D01*
X667813Y222056D01*
X667846Y221983D01*
X667861Y221932D01*
X667925Y221779D01*
X667925Y208161D01*
X667306Y206668D01*
X666183Y205545D01*
X666073Y205415D01*
X665955Y205290D01*
X665913Y205227D01*
X665864Y205169D01*
X665776Y205023D01*
X665680Y204880D01*
X665648Y204811D01*
X665609Y204746D01*
X665546Y204587D01*
X665474Y204432D01*
X665454Y204359D01*
X665426Y204288D01*
X665389Y204121D01*
X665344Y203956D01*
X665336Y203881D01*
X665319Y203807D01*
X665310Y203636D01*
X665292Y203466D01*
X665296Y203390D01*
X665292Y203314D01*
X665310Y203144D01*
X665319Y202973D01*
X665336Y202899D01*
X665344Y202823D01*
X665389Y202659D01*
X665426Y202492D01*
X665450Y202437D01*
X665474Y202348D01*
X665680Y201899D01*
X665693Y201881D01*
X665699Y201866D01*
X666228Y200951D01*
X666401Y200305D01*
X666401Y197017D01*
X657860Y197017D01*
X657784Y197011D01*
X657708Y197014D01*
X657539Y196991D01*
X657369Y196977D01*
X657295Y196959D01*
X657219Y196949D01*
X657055Y196900D01*
X656890Y196859D01*
X656820Y196829D01*
X656747Y196807D01*
X656593Y196732D01*
X656436Y196664D01*
X656372Y196623D01*
X656304Y196590D01*
X656164Y196491D01*
X656020Y196399D01*
X655964Y196348D01*
X655901Y196304D01*
X655780Y196184D01*
X655652Y196070D01*
X655605Y196011D01*
X655550Y195958D01*
X655450Y195819D01*
X655343Y195687D01*
X655305Y195620D01*
X655260Y195559D01*
X655183Y195406D01*
X655099Y195258D01*
X655072Y195186D01*
X655038Y195118D01*
X654986Y194956D01*
X654927Y194795D01*
X654912Y194721D01*
X654889Y194648D01*
X654878Y194543D01*
X654832Y194311D01*
X654825Y194075D01*
X654813Y193970D01*
X654819Y193894D01*
X654817Y193818D01*
X654839Y193648D01*
X654853Y193478D01*
X654871Y193404D01*
X654881Y193329D01*
X654931Y193165D01*
X654972Y192999D01*
X655002Y192929D01*
X655024Y192856D01*
X655099Y192703D01*
X655166Y192546D01*
X655207Y192482D01*
X655241Y192413D01*
X655340Y192274D01*
X655431Y192130D01*
X655482Y192073D01*
X655526Y192011D01*
X655646Y191889D01*
X655760Y191762D01*
X655819Y191714D01*
X655873Y191660D01*
X656011Y191559D01*
X656144Y191452D01*
X656210Y191414D01*
X656272Y191369D01*
X656424Y191293D01*
X656573Y191208D01*
X656644Y191181D01*
X656712Y191147D01*
X656875Y191096D01*
X657035Y191036D01*
X657110Y191022D01*
X657183Y190999D01*
X657287Y190987D01*
X657519Y190942D01*
X657755Y190934D01*
X657860Y190923D01*
X666401Y190923D01*
X666401Y187636D01*
X666258Y187105D01*
X666255Y187086D01*
X666249Y187068D01*
X666211Y186843D01*
X666170Y186619D01*
X666169Y186600D01*
X666166Y186581D01*
X666165Y186354D01*
X666161Y186126D01*
X666163Y186107D01*
X666163Y186088D01*
X666198Y185864D01*
X666231Y185638D01*
X666237Y185619D01*
X666240Y185601D01*
X666311Y185385D01*
X666379Y185167D01*
X666388Y185150D01*
X666394Y185132D01*
X666499Y184930D01*
X666602Y184727D01*
X666613Y184711D01*
X666622Y184694D01*
X666663Y184643D01*
X666892Y184328D01*
X666995Y184227D01*
X667047Y184161D01*
X667306Y183902D01*
X667925Y182409D01*
X667925Y168791D01*
X667306Y167298D01*
X666183Y166175D01*
X666073Y166045D01*
X665955Y165920D01*
X665913Y165857D01*
X665864Y165799D01*
X665776Y165653D01*
X665680Y165510D01*
X665648Y165441D01*
X665609Y165376D01*
X665546Y165217D01*
X665474Y165062D01*
X665454Y164989D01*
X665426Y164918D01*
X665389Y164751D01*
X665344Y164586D01*
X665336Y164511D01*
X665319Y164437D01*
X665310Y164266D01*
X665292Y164096D01*
X665296Y164020D01*
X665292Y163944D01*
X665310Y163774D01*
X665319Y163603D01*
X665336Y163529D01*
X665344Y163453D01*
X665389Y163289D01*
X665426Y163122D01*
X665450Y163067D01*
X665474Y162978D01*
X665680Y162529D01*
X665693Y162511D01*
X665699Y162496D01*
X666228Y161581D01*
X666401Y160935D01*
X666401Y157647D01*
X657860Y157647D01*
X649319Y157647D01*
X649319Y160935D01*
X649492Y161581D01*
X650021Y162496D01*
X650094Y162651D01*
X650175Y162802D01*
X650200Y162874D01*
X650232Y162942D01*
X650280Y163107D01*
X650335Y163268D01*
X650348Y163343D01*
X650369Y163416D01*
X650389Y163586D01*
X650418Y163755D01*
X650418Y163831D01*
X650427Y163906D01*
X650420Y164077D01*
X650421Y164248D01*
X650409Y164323D01*
X650406Y164399D01*
X650371Y164566D01*
X650344Y164735D01*
X650320Y164808D01*
X650305Y164882D01*
X650243Y165041D01*
X650190Y165204D01*
X650155Y165271D01*
X650128Y165342D01*
X650041Y165490D01*
X649962Y165642D01*
X649925Y165688D01*
X649878Y165768D01*
X649563Y166148D01*
X649547Y166163D01*
X649537Y166175D01*
X648331Y167381D01*
X648302Y167405D01*
X648276Y167434D01*
X648114Y167565D01*
X647955Y167700D01*
X647922Y167720D01*
X647892Y167744D01*
X647712Y167847D01*
X647532Y167955D01*
X647497Y167969D01*
X647464Y167988D01*
X647268Y168061D01*
X647074Y168138D01*
X647037Y168146D01*
X647001Y168160D01*
X646796Y168200D01*
X646592Y168245D01*
X646554Y168247D01*
X646517Y168254D01*
X646309Y168261D01*
X646100Y168272D01*
X646062Y168268D01*
X646024Y168270D01*
X645817Y168242D01*
X645609Y168220D01*
X645573Y168210D01*
X645535Y168205D01*
X645335Y168145D01*
X645134Y168090D01*
X645099Y168074D01*
X645062Y168063D01*
X644875Y167971D01*
X644685Y167884D01*
X644653Y167863D01*
X644619Y167846D01*
X644449Y167725D01*
X644276Y167608D01*
X644248Y167582D01*
X644217Y167560D01*
X644068Y167414D01*
X643916Y167271D01*
X643893Y167240D01*
X643866Y167214D01*
X643743Y167045D01*
X643616Y166879D01*
X643598Y166846D01*
X643576Y166815D01*
X643482Y166629D01*
X643383Y166445D01*
X643371Y166408D01*
X643353Y166374D01*
X643290Y166175D01*
X643223Y165978D01*
X643217Y165940D01*
X643205Y165904D01*
X643195Y165812D01*
X643140Y165491D01*
X643139Y165319D01*
X643129Y165226D01*
X643129Y144329D01*
X643138Y144216D01*
X643137Y144101D01*
X643158Y143970D01*
X643169Y143838D01*
X643196Y143727D01*
X643214Y143614D01*
X643255Y143488D01*
X643287Y143359D01*
X643332Y143254D01*
X643368Y143145D01*
X643429Y143028D01*
X643482Y142905D01*
X643543Y142809D01*
X643596Y142708D01*
X643655Y142634D01*
X643747Y142489D01*
X643926Y142289D01*
X643933Y142279D01*
X643951Y142261D01*
X643963Y142247D01*
X644021Y142175D01*
X646618Y139577D01*
X646706Y139503D01*
X646786Y139422D01*
X646893Y139344D01*
X646994Y139258D01*
X647092Y139199D01*
X647185Y139132D01*
X647303Y139072D01*
X647417Y139003D01*
X647523Y138961D01*
X647625Y138909D01*
X647752Y138869D01*
X647875Y138820D01*
X647986Y138795D01*
X648095Y138761D01*
X648189Y138751D01*
X648357Y138713D01*
X648681Y138695D01*
X648773Y138685D01*
X652540Y138685D01*
X659385Y131840D01*
X659385Y122160D01*
X659007Y121783D01*
X658933Y121696D01*
X658852Y121615D01*
X658774Y121508D01*
X658688Y121407D01*
X658629Y121309D01*
X658562Y121217D01*
X658502Y121098D01*
X658433Y120984D01*
X658391Y120878D01*
X658339Y120776D01*
X658299Y120649D01*
X658250Y120526D01*
X658225Y120415D01*
X658191Y120306D01*
X658181Y120212D01*
X658143Y120044D01*
X658125Y119720D01*
X658115Y119628D01*
X658115Y113436D01*
X658124Y113322D01*
X658123Y113208D01*
X658144Y113076D01*
X658155Y112944D01*
X658182Y112833D01*
X658200Y112721D01*
X658241Y112594D01*
X658273Y112465D01*
X658318Y112360D01*
X658354Y112252D01*
X658416Y112134D01*
X658468Y112012D01*
X658529Y111916D01*
X658582Y111814D01*
X658641Y111741D01*
X658733Y111596D01*
X658738Y111591D01*
X659385Y110029D01*
X659385Y93171D01*
X658766Y91677D01*
X657623Y90534D01*
X656129Y89915D01*
X639271Y89915D01*
X637777Y90534D01*
X636634Y91677D01*
X636015Y93171D01*
X636015Y95496D01*
X636009Y95568D01*
X636011Y95634D01*
X636003Y95699D01*
X636002Y95780D01*
X635984Y95883D01*
X635975Y95987D01*
X635953Y96077D01*
X635947Y96123D01*
X635934Y96168D01*
X635916Y96266D01*
X635882Y96365D01*
X635857Y96466D01*
X635813Y96568D01*
X635805Y96596D01*
X635792Y96622D01*
X635753Y96732D01*
X635703Y96824D01*
X635662Y96920D01*
X635593Y97029D01*
X635588Y97039D01*
X635581Y97048D01*
X635517Y97165D01*
X635453Y97248D01*
X635397Y97336D01*
X635302Y97442D01*
X635215Y97555D01*
X635138Y97626D01*
X635068Y97704D01*
X634957Y97793D01*
X634853Y97890D01*
X634766Y97948D01*
X634684Y98014D01*
X634561Y98084D01*
X634442Y98163D01*
X634347Y98206D01*
X634256Y98258D01*
X634122Y98307D01*
X633992Y98366D01*
X633891Y98393D01*
X633793Y98429D01*
X633653Y98456D01*
X633516Y98493D01*
X633411Y98504D01*
X633309Y98524D01*
X633167Y98528D01*
X633025Y98542D01*
X632920Y98536D01*
X632816Y98539D01*
X632675Y98521D01*
X632532Y98512D01*
X632430Y98488D01*
X632327Y98475D01*
X632190Y98434D01*
X632051Y98402D01*
X631955Y98362D01*
X631855Y98332D01*
X631726Y98270D01*
X631594Y98216D01*
X631505Y98161D01*
X631411Y98115D01*
X631295Y98033D01*
X631174Y97959D01*
X631094Y97890D01*
X631009Y97830D01*
X630908Y97730D01*
X630800Y97637D01*
X630732Y97557D01*
X630658Y97483D01*
X630574Y97368D01*
X630483Y97259D01*
X630460Y97217D01*
X630445Y97199D01*
X630422Y97159D01*
X630368Y97084D01*
X630274Y96900D01*
X630201Y96770D01*
X630177Y96707D01*
X630172Y96697D01*
X630153Y96662D01*
X630052Y96420D01*
X619637Y86005D01*
X619563Y85918D01*
X619482Y85837D01*
X619404Y85730D01*
X619318Y85629D01*
X619259Y85531D01*
X619192Y85439D01*
X619132Y85320D01*
X619063Y85206D01*
X619021Y85100D01*
X618969Y84998D01*
X618929Y84871D01*
X618880Y84748D01*
X618855Y84637D01*
X618821Y84528D01*
X618811Y84434D01*
X618773Y84266D01*
X618755Y83942D01*
X618745Y83850D01*
X618745Y9611D01*
X618193Y8278D01*
X618137Y8106D01*
X618074Y7937D01*
X618062Y7872D01*
X618041Y7809D01*
X618014Y7630D01*
X617980Y7453D01*
X617978Y7387D01*
X617968Y7321D01*
X617970Y7140D01*
X617964Y6960D01*
X617973Y6894D01*
X617974Y6827D01*
X618005Y6650D01*
X618029Y6471D01*
X618048Y6407D01*
X618060Y6342D01*
X618119Y6171D01*
X618171Y5998D01*
X618201Y5939D01*
X618223Y5876D01*
X618309Y5718D01*
X618388Y5555D01*
X618427Y5501D01*
X618459Y5443D01*
X618569Y5300D01*
X618674Y5153D01*
X618720Y5106D01*
X618761Y5053D01*
X618894Y4930D01*
X619020Y4802D01*
X619074Y4763D01*
X619123Y4718D01*
X619273Y4618D01*
X619419Y4512D01*
X619478Y4482D01*
X619534Y4445D01*
X619699Y4371D01*
X619860Y4289D01*
X619923Y4269D01*
X619984Y4242D01*
X620158Y4195D01*
X620330Y4141D01*
X620383Y4135D01*
X620460Y4114D01*
X620951Y4065D01*
X620985Y4067D01*
X621008Y4065D01*
X672888Y4065D01*
X672964Y4071D01*
X673040Y4069D01*
X673209Y4091D01*
X673380Y4105D01*
X673454Y4123D01*
X673529Y4133D01*
X673693Y4182D01*
X673859Y4223D01*
X673928Y4253D01*
X674002Y4275D01*
X674155Y4351D01*
X674312Y4418D01*
X674376Y4459D01*
X674445Y4492D01*
X674584Y4591D01*
X674728Y4683D01*
X674785Y4734D01*
X674847Y4778D01*
X674968Y4898D01*
X675096Y5012D01*
X675144Y5071D01*
X675198Y5125D01*
X675299Y5263D01*
X675406Y5396D01*
X675443Y5462D01*
X675488Y5523D01*
X675565Y5676D01*
X675650Y5824D01*
X675676Y5896D01*
X675711Y5964D01*
X675762Y6127D01*
X675821Y6287D01*
X675836Y6362D01*
X675859Y6434D01*
X675871Y6539D01*
X675916Y6771D01*
X675923Y7007D01*
X675935Y7112D01*
X675935Y352888D01*
X675929Y352964D01*
X675931Y353040D01*
X675909Y353209D01*
X675895Y353380D01*
X675877Y353454D01*
X675867Y353529D01*
X675818Y353693D01*
X675777Y353859D01*
X675747Y353928D01*
X675725Y354002D01*
X675649Y354155D01*
X675582Y354312D01*
X675541Y354376D01*
X675508Y354445D01*
X675409Y354584D01*
X675317Y354728D01*
X675266Y354785D01*
X675222Y354847D01*
X675102Y354968D01*
X674988Y355096D01*
X674929Y355144D01*
X674875Y355198D01*
X674737Y355299D01*
X674604Y355406D01*
X674538Y355443D01*
X674477Y355488D01*
X674324Y355565D01*
X674176Y355650D01*
X674104Y355676D01*
X674036Y355711D01*
X673873Y355762D01*
X673713Y355821D01*
X673638Y355836D01*
X673566Y355859D01*
X673461Y355871D01*
X673229Y355916D01*
X672993Y355923D01*
X672888Y355935D01*
X7112Y355935D01*
X7036Y355929D01*
X6960Y355931D01*
X6791Y355909D01*
X6620Y355895D01*
X6546Y355877D01*
X6471Y355867D01*
X6307Y355818D01*
X6141Y355777D01*
X6072Y355747D01*
X5998Y355725D01*
X5845Y355649D01*
X5688Y355582D01*
X5624Y355541D01*
X5555Y355508D01*
X5416Y355409D01*
X5272Y355317D01*
X5215Y355266D01*
X5153Y355222D01*
X5032Y355102D01*
X4904Y354988D01*
X4856Y354929D01*
X4802Y354875D01*
X4701Y354737D01*
X4594Y354604D01*
X4557Y354538D01*
X4512Y354477D01*
X4435Y354324D01*
X4350Y354176D01*
X4324Y354104D01*
X4289Y354036D01*
X4238Y353873D01*
X4179Y353713D01*
X4164Y353638D01*
X4141Y353566D01*
X4129Y353461D01*
X4084Y353229D01*
X4077Y352993D01*
X4065Y352888D01*
X4065Y7112D01*
X4071Y7036D01*
X4069Y6960D01*
X4091Y6791D01*
X4105Y6620D01*
X4123Y6546D01*
X4133Y6471D01*
X4182Y6307D01*
X4223Y6141D01*
X4253Y6071D01*
X4275Y5998D01*
X4351Y5845D01*
X4418Y5688D01*
X4459Y5624D01*
X4492Y5555D01*
X4591Y5416D01*
X4683Y5272D01*
X4734Y5215D01*
X4778Y5153D01*
X4898Y5032D01*
X5012Y4904D01*
X5071Y4856D01*
X5125Y4802D01*
X5263Y4701D01*
X5396Y4594D01*
X5462Y4557D01*
X5523Y4512D01*
X5676Y4435D01*
X5824Y4350D01*
X5896Y4324D01*
X5964Y4289D01*
X6127Y4238D01*
X6287Y4179D01*
X6362Y4164D01*
X6434Y4141D01*
X6539Y4129D01*
X6771Y4084D01*
X7007Y4077D01*
X7112Y4065D01*
X64792Y4065D01*
X64972Y4079D01*
G37*
G36*
X304744Y151236D02*
X304744Y151236D01*
X303414Y152566D01*
X303393Y152583D01*
X303376Y152604D01*
X303237Y152711D01*
X303102Y152821D01*
X303079Y152834D01*
X303058Y152850D01*
X302901Y152928D01*
X302747Y153010D01*
X302721Y153018D01*
X302697Y153030D01*
X302528Y153075D01*
X302361Y153125D01*
X302334Y153127D01*
X302308Y153134D01*
X301978Y153161D01*
X299847Y153161D01*
X299829Y153159D01*
X299811Y153161D01*
X299629Y153140D01*
X299446Y153121D01*
X299429Y153116D01*
X299412Y153114D01*
X299237Y153057D01*
X299061Y153003D01*
X299046Y152995D01*
X299029Y152989D01*
X298869Y152899D01*
X298707Y152811D01*
X298694Y152800D01*
X298678Y152791D01*
X298539Y152671D01*
X298398Y152554D01*
X298387Y152540D01*
X298373Y152528D01*
X298261Y152383D01*
X298146Y152240D01*
X298138Y152224D01*
X298127Y152210D01*
X298045Y152045D01*
X297960Y151883D01*
X297955Y151866D01*
X297947Y151850D01*
X297900Y151671D01*
X297849Y151496D01*
X297847Y151478D01*
X297843Y151461D01*
X297816Y151130D01*
X297816Y138891D01*
X297421Y137937D01*
X297417Y137924D01*
X297410Y137913D01*
X297359Y137733D01*
X297304Y137552D01*
X297303Y137539D01*
X297299Y137526D01*
X297284Y137338D01*
X297266Y137151D01*
X297267Y137138D01*
X297266Y137124D01*
X297288Y136938D01*
X297308Y136751D01*
X297312Y136738D01*
X297313Y136725D01*
X297315Y136720D01*
X297266Y136689D01*
X297079Y136575D01*
X297058Y136556D01*
X297034Y136541D01*
X296871Y136396D01*
X296706Y136253D01*
X296687Y136231D01*
X296666Y136212D01*
X296529Y136043D01*
X296388Y135875D01*
X296377Y135854D01*
X296356Y135828D01*
X296112Y135400D01*
X296084Y135324D01*
X296059Y135278D01*
X295124Y133021D01*
X293699Y131596D01*
X291837Y130825D01*
X129803Y130825D01*
X127941Y131596D01*
X121436Y138101D01*
X120665Y139963D01*
X120665Y229918D01*
X120659Y229994D01*
X120661Y230070D01*
X120639Y230239D01*
X120625Y230410D01*
X120607Y230484D01*
X120597Y230559D01*
X120548Y230723D01*
X120507Y230889D01*
X120477Y230958D01*
X120455Y231032D01*
X120379Y231185D01*
X120312Y231342D01*
X120271Y231406D01*
X120238Y231475D01*
X120139Y231614D01*
X120047Y231758D01*
X119996Y231815D01*
X119952Y231877D01*
X119832Y231998D01*
X119718Y232126D01*
X119659Y232174D01*
X119605Y232228D01*
X119467Y232329D01*
X119334Y232436D01*
X119268Y232473D01*
X119207Y232518D01*
X119054Y232595D01*
X118906Y232680D01*
X118834Y232706D01*
X118766Y232741D01*
X118603Y232792D01*
X118443Y232851D01*
X118368Y232866D01*
X118296Y232889D01*
X118191Y232901D01*
X117959Y232946D01*
X117723Y232953D01*
X117618Y232965D01*
X87626Y232965D01*
X87408Y232948D01*
X87190Y232934D01*
X87163Y232928D01*
X87134Y232925D01*
X86922Y232873D01*
X86710Y232824D01*
X86683Y232813D01*
X86656Y232807D01*
X86455Y232721D01*
X86253Y232638D01*
X86228Y232623D01*
X86202Y232612D01*
X86019Y232495D01*
X85832Y232381D01*
X85810Y232362D01*
X85786Y232347D01*
X85624Y232202D01*
X85458Y232059D01*
X85440Y232037D01*
X85418Y232018D01*
X85281Y231848D01*
X85141Y231681D01*
X85129Y231661D01*
X85108Y231634D01*
X84864Y231206D01*
X84836Y231130D01*
X84811Y231084D01*
X83373Y227612D01*
X80950Y225190D01*
X80901Y225132D01*
X80845Y225079D01*
X80741Y224944D01*
X80631Y224814D01*
X80592Y224749D01*
X80545Y224688D01*
X80464Y224537D01*
X80376Y224391D01*
X80348Y224320D01*
X80312Y224253D01*
X80257Y224091D01*
X80193Y223933D01*
X80177Y223859D01*
X80152Y223787D01*
X80123Y223618D01*
X80086Y223451D01*
X80082Y223375D01*
X80069Y223300D01*
X80068Y223129D01*
X80059Y222959D01*
X80067Y222883D01*
X80066Y222807D01*
X80093Y222638D01*
X80111Y222468D01*
X80131Y222395D01*
X80143Y222320D01*
X80196Y222157D01*
X80242Y221993D01*
X80273Y221923D01*
X80297Y221851D01*
X80376Y221699D01*
X80447Y221544D01*
X80490Y221481D01*
X80525Y221413D01*
X80591Y221331D01*
X80723Y221135D01*
X80885Y220962D01*
X80950Y220880D01*
X84314Y217517D01*
X86455Y212348D01*
X86455Y206752D01*
X84314Y201583D01*
X80950Y198220D01*
X80901Y198162D01*
X80845Y198110D01*
X80741Y197974D01*
X80631Y197844D01*
X80592Y197779D01*
X80545Y197718D01*
X80464Y197567D01*
X80376Y197421D01*
X80348Y197351D01*
X80312Y197283D01*
X80257Y197122D01*
X80193Y196963D01*
X80177Y196889D01*
X80152Y196817D01*
X80123Y196648D01*
X80086Y196482D01*
X80082Y196406D01*
X80069Y196330D01*
X80068Y196160D01*
X80059Y195989D01*
X80067Y195913D01*
X80066Y195837D01*
X80093Y195668D01*
X80111Y195498D01*
X80131Y195425D01*
X80143Y195350D01*
X80196Y195187D01*
X80242Y195023D01*
X80273Y194954D01*
X80297Y194881D01*
X80376Y194730D01*
X80447Y194574D01*
X80490Y194511D01*
X80525Y194444D01*
X80591Y194361D01*
X80723Y194165D01*
X80777Y194107D01*
X80795Y194083D01*
X80890Y193986D01*
X80950Y193910D01*
X83373Y191488D01*
X85345Y186727D01*
X85345Y181573D01*
X83373Y176812D01*
X80165Y173605D01*
X80116Y173547D01*
X80061Y173494D01*
X79957Y173359D01*
X79846Y173229D01*
X79807Y173164D01*
X79760Y173103D01*
X79680Y172953D01*
X79591Y172806D01*
X79563Y172735D01*
X79527Y172668D01*
X79472Y172507D01*
X79408Y172348D01*
X79392Y172274D01*
X79367Y172202D01*
X79338Y172033D01*
X79302Y171866D01*
X79297Y171790D01*
X79285Y171715D01*
X79283Y171544D01*
X79274Y171374D01*
X79282Y171298D01*
X79281Y171222D01*
X79308Y171053D01*
X79326Y170883D01*
X79346Y170810D01*
X79358Y170735D01*
X79412Y170572D01*
X79457Y170408D01*
X79489Y170338D01*
X79512Y170266D01*
X79591Y170115D01*
X79662Y169959D01*
X79705Y169896D01*
X79740Y169828D01*
X79806Y169746D01*
X79938Y169550D01*
X80100Y169378D01*
X80165Y169295D01*
X83373Y166088D01*
X85345Y161327D01*
X85345Y156173D01*
X83373Y151412D01*
X82427Y150466D01*
X82353Y150380D01*
X82272Y150299D01*
X82194Y150192D01*
X82108Y150091D01*
X82049Y149993D01*
X81982Y149900D01*
X81922Y149782D01*
X81853Y149668D01*
X81811Y149562D01*
X81759Y149460D01*
X81719Y149333D01*
X81670Y149210D01*
X81645Y149099D01*
X81611Y148990D01*
X81601Y148896D01*
X81563Y148728D01*
X81545Y148404D01*
X81535Y148312D01*
X81535Y145791D01*
X80143Y142430D01*
X74777Y137065D01*
X74728Y137007D01*
X74672Y136954D01*
X74568Y136819D01*
X74458Y136689D01*
X74418Y136623D01*
X74372Y136563D01*
X74292Y136413D01*
X74203Y136266D01*
X74175Y136195D01*
X74139Y136128D01*
X74083Y135967D01*
X74020Y135808D01*
X74004Y135734D01*
X73979Y135662D01*
X73950Y135493D01*
X73913Y135326D01*
X73909Y135250D01*
X73896Y135175D01*
X73895Y135004D01*
X73886Y134834D01*
X73894Y134758D01*
X73893Y134682D01*
X73920Y134513D01*
X73938Y134343D01*
X73958Y134270D01*
X73970Y134195D01*
X74023Y134032D01*
X74069Y133868D01*
X74100Y133798D01*
X74124Y133726D01*
X74203Y133575D01*
X74274Y133419D01*
X74317Y133356D01*
X74352Y133288D01*
X74418Y133206D01*
X74550Y133010D01*
X74712Y132838D01*
X74777Y132755D01*
X83953Y123580D01*
X85345Y120219D01*
X85345Y23622D01*
X85351Y23546D01*
X85349Y23470D01*
X85371Y23301D01*
X85385Y23130D01*
X85403Y23056D01*
X85413Y22981D01*
X85462Y22817D01*
X85503Y22651D01*
X85533Y22582D01*
X85555Y22508D01*
X85631Y22355D01*
X85698Y22198D01*
X85739Y22134D01*
X85772Y22065D01*
X85871Y21926D01*
X85963Y21782D01*
X86014Y21725D01*
X86058Y21663D01*
X86178Y21542D01*
X86292Y21414D01*
X86351Y21366D01*
X86405Y21312D01*
X86543Y21211D01*
X86676Y21104D01*
X86742Y21067D01*
X86803Y21022D01*
X86956Y20945D01*
X87104Y20860D01*
X87176Y20834D01*
X87244Y20799D01*
X87407Y20748D01*
X87567Y20689D01*
X87642Y20674D01*
X87714Y20651D01*
X87819Y20639D01*
X88051Y20594D01*
X88287Y20587D01*
X88392Y20575D01*
X121158Y20575D01*
X121234Y20581D01*
X121310Y20579D01*
X121479Y20601D01*
X121650Y20615D01*
X121724Y20633D01*
X121799Y20643D01*
X121963Y20692D01*
X122129Y20733D01*
X122198Y20763D01*
X122272Y20785D01*
X122425Y20861D01*
X122582Y20928D01*
X122646Y20969D01*
X122715Y21002D01*
X122854Y21101D01*
X122998Y21193D01*
X123055Y21244D01*
X123117Y21288D01*
X123238Y21408D01*
X123366Y21522D01*
X123414Y21581D01*
X123468Y21635D01*
X123569Y21773D01*
X123676Y21906D01*
X123713Y21972D01*
X123758Y22033D01*
X123835Y22186D01*
X123920Y22334D01*
X123946Y22406D01*
X123981Y22474D01*
X124032Y22637D01*
X124091Y22797D01*
X124106Y22872D01*
X124129Y22944D01*
X124141Y23049D01*
X124186Y23281D01*
X124193Y23517D01*
X124205Y23622D01*
X124205Y31204D01*
X124202Y31242D01*
X124204Y31280D01*
X124182Y31488D01*
X124165Y31696D01*
X124156Y31733D01*
X124152Y31771D01*
X124097Y31972D01*
X124047Y32175D01*
X124032Y32210D01*
X124021Y32247D01*
X123935Y32436D01*
X123852Y32628D01*
X123832Y32660D01*
X123816Y32695D01*
X123699Y32868D01*
X123587Y33044D01*
X123562Y33073D01*
X123540Y33104D01*
X123397Y33256D01*
X123258Y33412D01*
X123229Y33436D01*
X123203Y33464D01*
X123037Y33591D01*
X122874Y33722D01*
X122841Y33741D01*
X122811Y33764D01*
X122681Y33834D01*
X122681Y90335D01*
X122715Y90351D01*
X122879Y90467D01*
X123046Y90579D01*
X123080Y90610D01*
X123117Y90636D01*
X123260Y90778D01*
X123407Y90915D01*
X123435Y90951D01*
X123468Y90983D01*
X123586Y91146D01*
X123710Y91305D01*
X123731Y91345D01*
X123758Y91382D01*
X123849Y91561D01*
X123945Y91738D01*
X123960Y91782D01*
X123981Y91822D01*
X124041Y92014D01*
X124107Y92204D01*
X124115Y92249D01*
X124129Y92293D01*
X124140Y92391D01*
X124192Y92690D01*
X124193Y92723D01*
X125211Y95181D01*
X127069Y97039D01*
X129496Y98045D01*
X227374Y98045D01*
X229801Y97039D01*
X231659Y95181D01*
X232713Y92637D01*
X232796Y92476D01*
X232871Y92312D01*
X232908Y92257D01*
X232938Y92198D01*
X233045Y92053D01*
X233146Y91903D01*
X233192Y91854D01*
X233231Y91801D01*
X233361Y91675D01*
X233484Y91543D01*
X233537Y91503D01*
X233584Y91456D01*
X233732Y91353D01*
X233875Y91243D01*
X233934Y91211D01*
X233989Y91173D01*
X234151Y91095D01*
X234310Y91010D01*
X234373Y90988D01*
X234433Y90959D01*
X234606Y90908D01*
X234777Y90850D01*
X234842Y90838D01*
X234906Y90820D01*
X235085Y90797D01*
X235263Y90767D01*
X235330Y90767D01*
X235396Y90758D01*
X235576Y90765D01*
X235757Y90764D01*
X235823Y90774D01*
X235889Y90777D01*
X236065Y90813D01*
X236244Y90841D01*
X236307Y90861D01*
X236372Y90875D01*
X236541Y90939D01*
X236713Y90995D01*
X236771Y91026D01*
X236834Y91049D01*
X236990Y91140D01*
X237150Y91223D01*
X237191Y91256D01*
X237261Y91296D01*
X237643Y91608D01*
X237665Y91633D01*
X237683Y91648D01*
X238491Y92456D01*
X242786Y94235D01*
X247434Y94235D01*
X251729Y92456D01*
X255016Y89169D01*
X256795Y84874D01*
X256795Y78853D01*
X256796Y78844D01*
X256795Y78834D01*
X256815Y78599D01*
X256835Y78362D01*
X256837Y78352D01*
X256838Y78343D01*
X256849Y78304D01*
X256953Y77883D01*
X257005Y77763D01*
X257027Y77687D01*
X257175Y77330D01*
X257175Y64312D01*
X257181Y64236D01*
X257179Y64160D01*
X257201Y63991D01*
X257215Y63820D01*
X257233Y63746D01*
X257243Y63671D01*
X257292Y63507D01*
X257333Y63341D01*
X257363Y63272D01*
X257385Y63198D01*
X257461Y63045D01*
X257528Y62888D01*
X257569Y62824D01*
X257602Y62755D01*
X257701Y62616D01*
X257793Y62472D01*
X257844Y62415D01*
X257888Y62353D01*
X258008Y62232D01*
X258122Y62104D01*
X258181Y62056D01*
X258235Y62002D01*
X258373Y61901D01*
X258506Y61794D01*
X258572Y61757D01*
X258633Y61712D01*
X258786Y61635D01*
X258934Y61550D01*
X259006Y61524D01*
X259074Y61489D01*
X259237Y61438D01*
X259397Y61379D01*
X259472Y61364D01*
X259544Y61341D01*
X259649Y61329D01*
X259881Y61284D01*
X260117Y61277D01*
X260222Y61265D01*
X261959Y61265D01*
X263453Y60646D01*
X264596Y59503D01*
X265215Y58009D01*
X265215Y30891D01*
X264596Y29397D01*
X263453Y28254D01*
X261959Y27635D01*
X235712Y27635D01*
X235636Y27629D01*
X235560Y27631D01*
X235391Y27609D01*
X235220Y27595D01*
X235146Y27577D01*
X235071Y27567D01*
X234907Y27518D01*
X234741Y27477D01*
X234672Y27447D01*
X234598Y27425D01*
X234445Y27349D01*
X234288Y27282D01*
X234224Y27241D01*
X234155Y27208D01*
X234016Y27109D01*
X233872Y27017D01*
X233815Y26966D01*
X233753Y26922D01*
X233632Y26802D01*
X233504Y26688D01*
X233456Y26629D01*
X233402Y26575D01*
X233301Y26437D01*
X233194Y26304D01*
X233157Y26238D01*
X233112Y26177D01*
X233035Y26024D01*
X232950Y25876D01*
X232924Y25804D01*
X232889Y25736D01*
X232838Y25573D01*
X232779Y25413D01*
X232764Y25338D01*
X232741Y25266D01*
X232729Y25161D01*
X232684Y24929D01*
X232677Y24693D01*
X232665Y24588D01*
X232665Y23622D01*
X232671Y23546D01*
X232669Y23470D01*
X232691Y23301D01*
X232705Y23130D01*
X232723Y23056D01*
X232733Y22981D01*
X232782Y22817D01*
X232823Y22651D01*
X232853Y22582D01*
X232875Y22508D01*
X232951Y22355D01*
X233018Y22198D01*
X233059Y22134D01*
X233092Y22065D01*
X233191Y21926D01*
X233283Y21782D01*
X233334Y21725D01*
X233378Y21663D01*
X233498Y21542D01*
X233612Y21414D01*
X233671Y21366D01*
X233725Y21312D01*
X233863Y21211D01*
X233996Y21104D01*
X234062Y21067D01*
X234123Y21022D01*
X234276Y20945D01*
X234424Y20860D01*
X234496Y20834D01*
X234564Y20799D01*
X234727Y20748D01*
X234887Y20689D01*
X234962Y20674D01*
X235034Y20651D01*
X235139Y20639D01*
X235371Y20594D01*
X235607Y20587D01*
X235712Y20575D01*
X305340Y20575D01*
X305378Y20578D01*
X305416Y20576D01*
X305624Y20598D01*
X305832Y20615D01*
X305869Y20624D01*
X305907Y20628D01*
X306108Y20683D01*
X306311Y20733D01*
X306346Y20748D01*
X306383Y20759D01*
X306572Y20845D01*
X306764Y20928D01*
X306796Y20948D01*
X306831Y20964D01*
X307005Y21081D01*
X307180Y21193D01*
X307209Y21218D01*
X307240Y21240D01*
X307393Y21383D01*
X307548Y21522D01*
X307572Y21551D01*
X307600Y21578D01*
X307727Y21743D01*
X307858Y21906D01*
X307877Y21939D01*
X307900Y21969D01*
X307999Y22153D01*
X308102Y22334D01*
X308115Y22370D01*
X308133Y22404D01*
X308201Y22601D01*
X308274Y22797D01*
X308281Y22834D01*
X308293Y22870D01*
X308328Y23076D01*
X308368Y23281D01*
X308370Y23319D01*
X308376Y23357D01*
X308377Y23566D01*
X308384Y23774D01*
X308379Y23812D01*
X308379Y23850D01*
X308347Y24057D01*
X308319Y24263D01*
X308308Y24300D01*
X308302Y24337D01*
X308237Y24535D01*
X308177Y24735D01*
X308160Y24770D01*
X308148Y24806D01*
X308052Y24991D01*
X307960Y25179D01*
X307938Y25210D01*
X307920Y25244D01*
X307862Y25316D01*
X307674Y25581D01*
X307554Y25703D01*
X307495Y25777D01*
X307158Y26114D01*
X307158Y27433D01*
X317700Y27433D01*
X317776Y27439D01*
X317852Y27436D01*
X318021Y27459D01*
X318191Y27473D01*
X318265Y27491D01*
X318341Y27501D01*
X318505Y27550D01*
X318670Y27591D01*
X318740Y27621D01*
X318813Y27643D01*
X318967Y27718D01*
X319124Y27786D01*
X319188Y27827D01*
X319256Y27860D01*
X319396Y27959D01*
X319540Y28051D01*
X319596Y28102D01*
X319659Y28146D01*
X319780Y28266D01*
X319908Y28380D01*
X319956Y28439D01*
X320010Y28492D01*
X320010Y28493D01*
X320111Y28631D01*
X320218Y28764D01*
X320256Y28830D01*
X320300Y28892D01*
X320377Y29044D01*
X320462Y29193D01*
X320488Y29264D01*
X320523Y29332D01*
X320574Y29495D01*
X320634Y29655D01*
X320648Y29730D01*
X320671Y29803D01*
X320683Y29907D01*
X320728Y30139D01*
X320736Y30375D01*
X320747Y30480D01*
X320747Y41022D01*
X322067Y41022D01*
X325432Y37656D01*
X325461Y37631D01*
X325487Y37603D01*
X325649Y37472D01*
X325808Y37336D01*
X325841Y37317D01*
X325871Y37293D01*
X326052Y37190D01*
X326231Y37082D01*
X326266Y37068D01*
X326299Y37049D01*
X326495Y36976D01*
X326689Y36899D01*
X326726Y36891D01*
X326762Y36877D01*
X326967Y36837D01*
X327171Y36792D01*
X327209Y36790D01*
X327246Y36783D01*
X327454Y36776D01*
X327663Y36764D01*
X327701Y36768D01*
X327739Y36767D01*
X327946Y36794D01*
X328154Y36817D01*
X328190Y36827D01*
X328228Y36832D01*
X328428Y36892D01*
X328629Y36947D01*
X328664Y36963D01*
X328701Y36974D01*
X328888Y37066D01*
X329078Y37153D01*
X329109Y37174D01*
X329144Y37191D01*
X329314Y37312D01*
X329487Y37428D01*
X329515Y37455D01*
X329546Y37477D01*
X329694Y37623D01*
X329847Y37766D01*
X329870Y37796D01*
X329897Y37823D01*
X330020Y37992D01*
X330147Y38158D01*
X330165Y38191D01*
X330187Y38222D01*
X330281Y38408D01*
X330380Y38592D01*
X330393Y38629D01*
X330410Y38662D01*
X330472Y38861D01*
X330540Y39059D01*
X330541Y39065D01*
X331253Y40784D01*
X332396Y41927D01*
X333890Y42546D01*
X351510Y42546D01*
X353004Y41927D01*
X354413Y40517D01*
X354500Y40443D01*
X354580Y40362D01*
X354688Y40284D01*
X354789Y40198D01*
X354887Y40139D01*
X354979Y40072D01*
X355098Y40012D01*
X355212Y39943D01*
X355318Y39901D01*
X355420Y39849D01*
X355546Y39809D01*
X355670Y39760D01*
X355781Y39735D01*
X355890Y39701D01*
X355984Y39691D01*
X356151Y39653D01*
X356476Y39635D01*
X356568Y39625D01*
X394608Y39625D01*
X394684Y39631D01*
X394760Y39629D01*
X394929Y39651D01*
X395100Y39665D01*
X395174Y39683D01*
X395249Y39693D01*
X395413Y39742D01*
X395579Y39783D01*
X395648Y39813D01*
X395722Y39835D01*
X395875Y39911D01*
X396032Y39978D01*
X396096Y40019D01*
X396165Y40052D01*
X396304Y40151D01*
X396448Y40243D01*
X396505Y40294D01*
X396567Y40338D01*
X396688Y40458D01*
X396816Y40572D01*
X396864Y40631D01*
X396918Y40685D01*
X397019Y40823D01*
X397126Y40956D01*
X397163Y41022D01*
X397208Y41083D01*
X397285Y41236D01*
X397370Y41384D01*
X397396Y41456D01*
X397431Y41524D01*
X397482Y41687D01*
X397541Y41847D01*
X397556Y41922D01*
X397579Y41994D01*
X397591Y42099D01*
X397636Y42331D01*
X397643Y42567D01*
X397655Y42672D01*
X397655Y69529D01*
X398439Y71422D01*
X398442Y71431D01*
X398447Y71440D01*
X398518Y71667D01*
X398591Y71891D01*
X398592Y71901D01*
X398595Y71910D01*
X398599Y71951D01*
X398664Y72379D01*
X398662Y72510D01*
X398671Y72588D01*
X398671Y81662D01*
X398654Y81879D01*
X398640Y82098D01*
X398634Y82125D01*
X398631Y82154D01*
X398579Y82365D01*
X398530Y82579D01*
X398519Y82605D01*
X398513Y82632D01*
X398426Y82834D01*
X398344Y83035D01*
X398329Y83060D01*
X398318Y83086D01*
X398201Y83270D01*
X398087Y83456D01*
X398068Y83478D01*
X398053Y83502D01*
X397908Y83665D01*
X397765Y83830D01*
X397743Y83849D01*
X397724Y83870D01*
X397555Y84007D01*
X397387Y84147D01*
X397366Y84159D01*
X397340Y84180D01*
X397158Y84284D01*
X395944Y85497D01*
X395325Y86991D01*
X395325Y101907D01*
X395316Y102020D01*
X395317Y102135D01*
X395296Y102266D01*
X395285Y102398D01*
X395258Y102509D01*
X395240Y102622D01*
X395199Y102748D01*
X395167Y102877D01*
X395122Y102982D01*
X395086Y103091D01*
X395024Y103209D01*
X394972Y103331D01*
X394911Y103427D01*
X394858Y103528D01*
X394799Y103602D01*
X394707Y103747D01*
X394491Y103989D01*
X394433Y104061D01*
X389851Y108643D01*
X389765Y108717D01*
X389684Y108798D01*
X389577Y108876D01*
X389476Y108962D01*
X389378Y109021D01*
X389285Y109088D01*
X389167Y109148D01*
X389053Y109217D01*
X388947Y109259D01*
X388845Y109311D01*
X388718Y109351D01*
X388595Y109400D01*
X388484Y109425D01*
X388374Y109459D01*
X388281Y109469D01*
X388113Y109507D01*
X387789Y109525D01*
X387697Y109535D01*
X385291Y109535D01*
X385158Y109524D01*
X385025Y109524D01*
X384912Y109505D01*
X384799Y109495D01*
X384670Y109463D01*
X384538Y109441D01*
X384431Y109404D01*
X384320Y109377D01*
X384198Y109324D01*
X384072Y109281D01*
X383971Y109227D01*
X383867Y109182D01*
X383754Y109111D01*
X383637Y109048D01*
X383547Y108978D01*
X383451Y108917D01*
X383351Y108828D01*
X383246Y108747D01*
X383168Y108664D01*
X383083Y108588D01*
X382999Y108485D01*
X382908Y108388D01*
X382844Y108293D01*
X382773Y108204D01*
X382707Y108089D01*
X382633Y107978D01*
X382585Y107875D01*
X382529Y107776D01*
X382482Y107651D01*
X382427Y107530D01*
X382397Y107420D01*
X382357Y107313D01*
X382332Y107183D01*
X382296Y107054D01*
X382284Y106941D01*
X382262Y106829D01*
X382258Y106696D01*
X382244Y106564D01*
X382251Y106450D01*
X382247Y106336D01*
X382264Y106204D01*
X382272Y106071D01*
X382297Y105960D01*
X382311Y105847D01*
X382350Y105719D01*
X382379Y105589D01*
X382412Y105512D01*
X382454Y105375D01*
X382625Y105024D01*
X382652Y104964D01*
X382758Y104781D01*
X382931Y104135D01*
X382931Y98847D01*
X378937Y98847D01*
X378937Y106681D01*
X378968Y106694D01*
X379000Y106714D01*
X379035Y106730D01*
X379209Y106847D01*
X379384Y106959D01*
X379413Y106984D01*
X379444Y107006D01*
X379596Y107148D01*
X379752Y107288D01*
X379776Y107317D01*
X379804Y107344D01*
X379931Y107509D01*
X380062Y107671D01*
X380081Y107705D01*
X380104Y107735D01*
X380203Y107919D01*
X380306Y108100D01*
X380319Y108136D01*
X380337Y108170D01*
X380405Y108367D01*
X380478Y108563D01*
X380485Y108600D01*
X380497Y108637D01*
X380532Y108843D01*
X380572Y109047D01*
X380573Y109085D01*
X380580Y109123D01*
X380581Y109332D01*
X380588Y109540D01*
X380583Y109578D01*
X380583Y109616D01*
X380550Y109823D01*
X380523Y110029D01*
X380512Y110066D01*
X380506Y110104D01*
X380441Y110302D01*
X380381Y110501D01*
X380364Y110536D01*
X380352Y110572D01*
X380256Y110757D01*
X380164Y110945D01*
X380142Y110976D01*
X380124Y111010D01*
X380066Y111082D01*
X379987Y111194D01*
X379325Y112791D01*
X379325Y128015D01*
X379320Y128079D01*
X379323Y128170D01*
X379315Y128228D01*
X379315Y128286D01*
X379293Y128416D01*
X379285Y128506D01*
X379271Y128564D01*
X379258Y128659D01*
X379242Y128715D01*
X379232Y128772D01*
X379187Y128902D01*
X379167Y128985D01*
X379145Y129036D01*
X379116Y129132D01*
X379090Y129184D01*
X379071Y129239D01*
X379004Y129364D01*
X378972Y129439D01*
X378944Y129482D01*
X378899Y129575D01*
X378865Y129622D01*
X378838Y129674D01*
X378748Y129790D01*
X378707Y129855D01*
X378675Y129891D01*
X378614Y129977D01*
X378573Y130018D01*
X378537Y130065D01*
X378428Y130167D01*
X378378Y130223D01*
X378342Y130252D01*
X378267Y130328D01*
X378220Y130362D01*
X378177Y130402D01*
X378051Y130487D01*
X377994Y130532D01*
X377956Y130555D01*
X377868Y130618D01*
X377816Y130645D01*
X377768Y130677D01*
X377628Y130741D01*
X377566Y130776D01*
X377525Y130792D01*
X377428Y130841D01*
X377372Y130858D01*
X377319Y130882D01*
X377171Y130923D01*
X377103Y130948D01*
X377060Y130956D01*
X376957Y130989D01*
X376911Y130994D01*
X376843Y131013D01*
X376691Y131029D01*
X376619Y131043D01*
X376532Y131045D01*
X376353Y131064D01*
X376309Y131062D01*
X376279Y131065D01*
X375231Y131065D01*
X373716Y131693D01*
X373662Y131748D01*
X373554Y131826D01*
X373453Y131912D01*
X373355Y131971D01*
X373263Y132038D01*
X373144Y132098D01*
X373030Y132167D01*
X372924Y132209D01*
X372822Y132261D01*
X372696Y132301D01*
X372572Y132350D01*
X372461Y132375D01*
X372352Y132409D01*
X372258Y132419D01*
X372091Y132457D01*
X371766Y132475D01*
X371674Y132485D01*
X362580Y132485D01*
X362466Y132476D01*
X362352Y132477D01*
X362221Y132456D01*
X362088Y132445D01*
X361978Y132418D01*
X361865Y132400D01*
X361739Y132359D01*
X361610Y132327D01*
X361505Y132282D01*
X361396Y132246D01*
X361278Y132185D01*
X361156Y132132D01*
X361060Y132071D01*
X360959Y132018D01*
X360885Y131959D01*
X360740Y131867D01*
X360498Y131651D01*
X360425Y131593D01*
X356209Y127377D01*
X356185Y127348D01*
X356156Y127322D01*
X356025Y127160D01*
X355890Y127001D01*
X355870Y126968D01*
X355846Y126938D01*
X355743Y126757D01*
X355635Y126578D01*
X355621Y126543D01*
X355602Y126510D01*
X355529Y126314D01*
X355452Y126120D01*
X355444Y126083D01*
X355431Y126047D01*
X355391Y125842D01*
X355345Y125638D01*
X355343Y125600D01*
X355336Y125563D01*
X355329Y125355D01*
X355318Y125146D01*
X355322Y125108D01*
X355321Y125070D01*
X355348Y124863D01*
X355370Y124655D01*
X355380Y124619D01*
X355385Y124581D01*
X355446Y124380D01*
X355501Y124180D01*
X355516Y124145D01*
X355527Y124108D01*
X355619Y123920D01*
X355706Y123731D01*
X355728Y123700D01*
X355744Y123665D01*
X355865Y123495D01*
X355982Y123322D01*
X356008Y123294D01*
X356030Y123263D01*
X356176Y123115D01*
X356320Y122962D01*
X356350Y122939D01*
X356377Y122912D01*
X356545Y122789D01*
X356711Y122662D01*
X356744Y122644D01*
X356775Y122622D01*
X356961Y122528D01*
X357146Y122429D01*
X357182Y122416D01*
X357216Y122399D01*
X357415Y122337D01*
X357612Y122269D01*
X357650Y122263D01*
X357686Y122251D01*
X357760Y122243D01*
X362219Y120396D01*
X365506Y117109D01*
X367285Y112814D01*
X367285Y109302D01*
X367303Y109074D01*
X367319Y108847D01*
X367323Y108829D01*
X367325Y108810D01*
X367379Y108589D01*
X367432Y108367D01*
X367439Y108349D01*
X367443Y108331D01*
X367533Y108122D01*
X367620Y107911D01*
X367630Y107895D01*
X367638Y107878D01*
X367760Y107686D01*
X367880Y107492D01*
X367893Y107478D01*
X367903Y107462D01*
X368055Y107292D01*
X368204Y107120D01*
X368219Y107108D01*
X368232Y107094D01*
X368408Y106951D01*
X368584Y106805D01*
X368601Y106796D01*
X368616Y106784D01*
X368812Y106672D01*
X369010Y106556D01*
X369028Y106549D01*
X369044Y106540D01*
X369258Y106461D01*
X369470Y106379D01*
X369489Y106375D01*
X369507Y106368D01*
X369729Y106325D01*
X369953Y106278D01*
X369973Y106277D01*
X369991Y106274D01*
X370218Y106266D01*
X370446Y106257D01*
X370462Y106259D01*
X370484Y106258D01*
X370973Y106323D01*
X371033Y106341D01*
X372843Y106341D01*
X372843Y95800D01*
X372843Y85259D01*
X371055Y85259D01*
X370409Y85432D01*
X369830Y85767D01*
X369446Y86151D01*
X369308Y86268D01*
X369176Y86390D01*
X369121Y86427D01*
X369070Y86470D01*
X368915Y86564D01*
X368765Y86663D01*
X368705Y86690D01*
X368648Y86725D01*
X368479Y86792D01*
X368315Y86866D01*
X368251Y86883D01*
X368190Y86908D01*
X368013Y86947D01*
X367839Y86994D01*
X367773Y87000D01*
X367708Y87015D01*
X367527Y87025D01*
X367348Y87043D01*
X367282Y87039D01*
X367215Y87042D01*
X367035Y87023D01*
X366856Y87012D01*
X366791Y86997D01*
X366725Y86990D01*
X366550Y86942D01*
X366375Y86902D01*
X366313Y86877D01*
X366249Y86860D01*
X366085Y86784D01*
X365918Y86716D01*
X365861Y86682D01*
X365801Y86654D01*
X365651Y86553D01*
X365497Y86459D01*
X365446Y86416D01*
X365391Y86378D01*
X365260Y86255D01*
X365123Y86137D01*
X365080Y86086D01*
X365032Y86041D01*
X364922Y85897D01*
X364806Y85759D01*
X364780Y85713D01*
X364731Y85649D01*
X364498Y85215D01*
X364487Y85183D01*
X364476Y85162D01*
X363353Y82450D01*
X356239Y75337D01*
X356165Y75250D01*
X356084Y75169D01*
X356006Y75062D01*
X355920Y74961D01*
X355861Y74863D01*
X355794Y74771D01*
X355734Y74652D01*
X355665Y74538D01*
X355623Y74432D01*
X355571Y74330D01*
X355531Y74203D01*
X355482Y74080D01*
X355457Y73969D01*
X355423Y73860D01*
X355413Y73766D01*
X355375Y73598D01*
X355357Y73274D01*
X355347Y73182D01*
X355347Y68660D01*
X354728Y67166D01*
X353585Y66023D01*
X352091Y65404D01*
X338764Y65404D01*
X338643Y65433D01*
X338517Y65474D01*
X338404Y65491D01*
X338293Y65518D01*
X338160Y65528D01*
X338029Y65548D01*
X337914Y65546D01*
X337801Y65555D01*
X337668Y65543D01*
X337535Y65541D01*
X337423Y65522D01*
X337309Y65512D01*
X337219Y65486D01*
X337050Y65456D01*
X336902Y65404D01*
X323524Y65404D01*
X323403Y65433D01*
X323277Y65474D01*
X323164Y65491D01*
X323053Y65518D01*
X322920Y65528D01*
X322789Y65548D01*
X322674Y65546D01*
X322561Y65555D01*
X322428Y65543D01*
X322295Y65541D01*
X322183Y65522D01*
X322069Y65512D01*
X321979Y65486D01*
X321810Y65456D01*
X321662Y65404D01*
X308309Y65404D01*
X306815Y66023D01*
X305672Y67166D01*
X305053Y68660D01*
X305053Y73182D01*
X305044Y73296D01*
X305045Y73410D01*
X305024Y73541D01*
X305013Y73674D01*
X304986Y73784D01*
X304968Y73897D01*
X304927Y74024D01*
X304895Y74152D01*
X304850Y74257D01*
X304814Y74366D01*
X304752Y74484D01*
X304700Y74606D01*
X304639Y74702D01*
X304586Y74803D01*
X304527Y74877D01*
X304435Y75022D01*
X304219Y75264D01*
X304161Y75337D01*
X297047Y82450D01*
X295655Y85811D01*
X295655Y101848D01*
X295646Y101961D01*
X295647Y102076D01*
X295626Y102207D01*
X295615Y102340D01*
X295588Y102450D01*
X295570Y102563D01*
X295529Y102689D01*
X295497Y102818D01*
X295452Y102923D01*
X295416Y103032D01*
X295354Y103150D01*
X295302Y103272D01*
X295241Y103368D01*
X295188Y103469D01*
X295129Y103543D01*
X295037Y103688D01*
X294912Y103827D01*
X293115Y108166D01*
X293115Y112814D01*
X294894Y117109D01*
X298181Y120396D01*
X302476Y122175D01*
X307124Y122175D01*
X311419Y120396D01*
X314709Y117105D01*
X314715Y117090D01*
X314814Y116907D01*
X314910Y116721D01*
X314932Y116690D01*
X314951Y116657D01*
X315079Y116491D01*
X315203Y116324D01*
X315230Y116297D01*
X315253Y116267D01*
X315407Y116125D01*
X315556Y115980D01*
X315587Y115958D01*
X315615Y115932D01*
X315789Y115816D01*
X315960Y115697D01*
X315994Y115680D01*
X316026Y115659D01*
X316216Y115573D01*
X316404Y115483D01*
X316441Y115472D01*
X316476Y115456D01*
X316678Y115402D01*
X316878Y115343D01*
X316915Y115338D01*
X316952Y115328D01*
X317160Y115308D01*
X317367Y115282D01*
X317405Y115283D01*
X317443Y115279D01*
X317651Y115292D01*
X317860Y115300D01*
X317898Y115308D01*
X317936Y115310D01*
X318139Y115356D01*
X318344Y115398D01*
X318379Y115411D01*
X318417Y115420D01*
X318610Y115498D01*
X318805Y115572D01*
X318838Y115591D01*
X318874Y115606D01*
X319051Y115714D01*
X319232Y115819D01*
X319262Y115843D01*
X319294Y115863D01*
X319453Y115999D01*
X319614Y116131D01*
X319639Y116160D01*
X319668Y116185D01*
X319803Y116345D01*
X319941Y116501D01*
X319961Y116534D01*
X319985Y116563D01*
X320030Y116644D01*
X320203Y116919D01*
X320270Y117077D01*
X320278Y117093D01*
X321865Y118680D01*
X321871Y118687D01*
X321878Y118693D01*
X322030Y118874D01*
X322184Y119055D01*
X322189Y119064D01*
X322195Y119071D01*
X322215Y119106D01*
X322429Y119462D01*
X325449Y122481D01*
X348261Y145293D01*
X348285Y145322D01*
X348314Y145348D01*
X348445Y145510D01*
X348580Y145669D01*
X348600Y145702D01*
X348624Y145732D01*
X348727Y145912D01*
X348835Y146092D01*
X348849Y146127D01*
X348868Y146160D01*
X348940Y146356D01*
X349018Y146550D01*
X349026Y146587D01*
X349039Y146623D01*
X349079Y146828D01*
X349125Y147032D01*
X349127Y147070D01*
X349134Y147107D01*
X349141Y147315D01*
X349152Y147524D01*
X349148Y147562D01*
X349149Y147600D01*
X349122Y147807D01*
X349100Y148015D01*
X349090Y148051D01*
X349085Y148089D01*
X349025Y148289D01*
X348969Y148490D01*
X348954Y148525D01*
X348943Y148562D01*
X348851Y148749D01*
X348764Y148939D01*
X348742Y148971D01*
X348726Y149005D01*
X348605Y149174D01*
X348488Y149348D01*
X348462Y149376D01*
X348440Y149407D01*
X348294Y149555D01*
X348150Y149708D01*
X348120Y149731D01*
X348093Y149758D01*
X347925Y149881D01*
X347759Y150008D01*
X347726Y150026D01*
X347695Y150048D01*
X347508Y150142D01*
X347324Y150241D01*
X347288Y150253D01*
X347254Y150271D01*
X347055Y150333D01*
X346858Y150401D01*
X346820Y150407D01*
X346784Y150419D01*
X346691Y150429D01*
X346371Y150484D01*
X346199Y150485D01*
X346106Y150495D01*
X306532Y150495D01*
X304744Y151236D01*
G37*
G36*
X290148Y134900D02*
X290148Y134900D01*
X290212Y134899D01*
X290287Y134920D01*
X290363Y134931D01*
X290422Y134957D01*
X290484Y134974D01*
X290550Y135015D01*
X290620Y135047D01*
X290669Y135089D01*
X290724Y135122D01*
X290776Y135180D01*
X290834Y135230D01*
X290870Y135284D01*
X290913Y135332D01*
X290946Y135401D01*
X290989Y135466D01*
X291008Y135528D01*
X291036Y135585D01*
X291047Y135655D01*
X291071Y135736D01*
X291072Y135821D01*
X291083Y135890D01*
X291083Y152343D01*
X291753Y153960D01*
X291764Y154000D01*
X291782Y154038D01*
X291795Y154123D01*
X291823Y154233D01*
X291821Y154292D01*
X291829Y154342D01*
X291829Y240030D01*
X291820Y240094D01*
X291821Y240158D01*
X291800Y240233D01*
X291789Y240309D01*
X291763Y240368D01*
X291746Y240430D01*
X291705Y240496D01*
X291673Y240566D01*
X291631Y240615D01*
X291598Y240670D01*
X291540Y240722D01*
X291490Y240780D01*
X291436Y240816D01*
X291388Y240859D01*
X291319Y240892D01*
X291254Y240935D01*
X291192Y240954D01*
X291135Y240982D01*
X291065Y240993D01*
X290984Y241017D01*
X290899Y241018D01*
X290830Y241029D01*
X125730Y241029D01*
X125666Y241020D01*
X125602Y241021D01*
X125527Y241000D01*
X125451Y240989D01*
X125392Y240963D01*
X125330Y240946D01*
X125264Y240905D01*
X125194Y240873D01*
X125145Y240831D01*
X125090Y240798D01*
X125038Y240740D01*
X124980Y240690D01*
X124944Y240636D01*
X124901Y240588D01*
X124868Y240519D01*
X124825Y240454D01*
X124806Y240392D01*
X124778Y240335D01*
X124767Y240265D01*
X124743Y240184D01*
X124742Y240099D01*
X124731Y240030D01*
X124731Y140970D01*
X124744Y140875D01*
X124749Y140779D01*
X124764Y140736D01*
X124771Y140691D01*
X124810Y140603D01*
X124842Y140512D01*
X124867Y140478D01*
X124887Y140434D01*
X124970Y140337D01*
X125023Y140263D01*
X130103Y135183D01*
X130180Y135126D01*
X130252Y135061D01*
X130293Y135041D01*
X130329Y135014D01*
X130419Y134980D01*
X130505Y134938D01*
X130547Y134932D01*
X130593Y134915D01*
X130721Y134905D01*
X130810Y134891D01*
X290084Y134891D01*
X290148Y134900D01*
G37*
G36*
X421667Y255781D02*
X421667Y255781D01*
X421693Y255779D01*
X421867Y255801D01*
X422041Y255819D01*
X422066Y255827D01*
X422093Y255830D01*
X422258Y255886D01*
X422426Y255937D01*
X422449Y255950D01*
X422474Y255958D01*
X422626Y256045D01*
X422780Y256129D01*
X422800Y256146D01*
X422823Y256159D01*
X423076Y256374D01*
X425616Y258914D01*
X425633Y258934D01*
X425654Y258952D01*
X425761Y259090D01*
X425871Y259225D01*
X425884Y259249D01*
X425900Y259270D01*
X425978Y259427D01*
X426060Y259581D01*
X426068Y259606D01*
X426080Y259631D01*
X426125Y259800D01*
X426175Y259967D01*
X426177Y259993D01*
X426184Y260019D01*
X426211Y260350D01*
X426211Y328930D01*
X426211Y328936D01*
X426211Y328939D01*
X426209Y328958D01*
X426211Y328983D01*
X426189Y329157D01*
X426171Y329331D01*
X426164Y329356D01*
X426160Y329383D01*
X426105Y329548D01*
X426053Y329716D01*
X426040Y329739D01*
X426032Y329764D01*
X425945Y329916D01*
X425861Y330070D01*
X425844Y330090D01*
X425831Y330113D01*
X425616Y330366D01*
X424346Y331636D01*
X424326Y331653D01*
X424308Y331674D01*
X424170Y331781D01*
X424035Y331891D01*
X424011Y331904D01*
X423990Y331920D01*
X423833Y331998D01*
X423679Y332080D01*
X423654Y332088D01*
X423630Y332100D01*
X423460Y332145D01*
X423293Y332195D01*
X423267Y332197D01*
X423241Y332204D01*
X422910Y332231D01*
X284480Y332231D01*
X284462Y332229D01*
X284444Y332231D01*
X284262Y332210D01*
X284079Y332191D01*
X284062Y332186D01*
X284045Y332184D01*
X283870Y332127D01*
X283694Y332073D01*
X283679Y332065D01*
X283662Y332059D01*
X283502Y331969D01*
X283340Y331881D01*
X283327Y331870D01*
X283311Y331861D01*
X283172Y331741D01*
X283031Y331624D01*
X283020Y331610D01*
X283007Y331598D01*
X282894Y331453D01*
X282779Y331310D01*
X282771Y331294D01*
X282760Y331280D01*
X282678Y331115D01*
X282593Y330953D01*
X282588Y330936D01*
X282580Y330920D01*
X282533Y330741D01*
X282482Y330566D01*
X282480Y330548D01*
X282476Y330531D01*
X282449Y330200D01*
X282449Y257810D01*
X282451Y257792D01*
X282449Y257774D01*
X282470Y257592D01*
X282489Y257409D01*
X282494Y257392D01*
X282496Y257375D01*
X282553Y257200D01*
X282607Y257024D01*
X282615Y257009D01*
X282621Y256992D01*
X282711Y256832D01*
X282799Y256670D01*
X282810Y256657D01*
X282819Y256641D01*
X282939Y256502D01*
X283056Y256361D01*
X283070Y256350D01*
X283082Y256337D01*
X283227Y256224D01*
X283370Y256109D01*
X283386Y256101D01*
X283400Y256090D01*
X283565Y256008D01*
X283727Y255923D01*
X283744Y255918D01*
X283761Y255910D01*
X283939Y255863D01*
X284114Y255812D01*
X284132Y255810D01*
X284149Y255806D01*
X284480Y255779D01*
X421640Y255779D01*
X421667Y255781D01*
G37*
G36*
X455244Y145803D02*
X455244Y145803D01*
X455320Y145801D01*
X455489Y145823D01*
X455660Y145837D01*
X455734Y145855D01*
X455809Y145865D01*
X455973Y145914D01*
X456139Y145955D01*
X456208Y145985D01*
X456282Y146007D01*
X456435Y146083D01*
X456592Y146150D01*
X456656Y146191D01*
X456725Y146224D01*
X456864Y146323D01*
X457008Y146415D01*
X457065Y146466D01*
X457127Y146510D01*
X457248Y146630D01*
X457376Y146744D01*
X457424Y146803D01*
X457478Y146857D01*
X457579Y146995D01*
X457686Y147128D01*
X457723Y147194D01*
X457768Y147255D01*
X457845Y147408D01*
X457930Y147556D01*
X457956Y147628D01*
X457991Y147696D01*
X458042Y147859D01*
X458101Y148019D01*
X458116Y148094D01*
X458139Y148166D01*
X458151Y148271D01*
X458196Y148503D01*
X458203Y148739D01*
X458215Y148844D01*
X458215Y157240D01*
X465060Y164085D01*
X470982Y164085D01*
X471096Y164094D01*
X471210Y164093D01*
X471342Y164114D01*
X471474Y164125D01*
X471585Y164152D01*
X471697Y164170D01*
X471824Y164211D01*
X471953Y164243D01*
X472057Y164288D01*
X472166Y164324D01*
X472284Y164386D01*
X472406Y164438D01*
X472502Y164499D01*
X472604Y164552D01*
X472677Y164611D01*
X472822Y164703D01*
X473064Y164919D01*
X473137Y164977D01*
X477643Y169483D01*
X477717Y169570D01*
X477798Y169651D01*
X477876Y169758D01*
X477962Y169859D01*
X478021Y169957D01*
X478088Y170049D01*
X478148Y170168D01*
X478217Y170282D01*
X478259Y170388D01*
X478311Y170490D01*
X478351Y170617D01*
X478400Y170740D01*
X478425Y170851D01*
X478459Y170960D01*
X478469Y171054D01*
X478507Y171222D01*
X478511Y171295D01*
X478516Y171322D01*
X478521Y171473D01*
X478525Y171546D01*
X478535Y171638D01*
X478535Y194818D01*
X478529Y194894D01*
X478531Y194970D01*
X478509Y195139D01*
X478495Y195310D01*
X478477Y195384D01*
X478467Y195459D01*
X478418Y195623D01*
X478377Y195789D01*
X478347Y195858D01*
X478325Y195932D01*
X478249Y196085D01*
X478182Y196242D01*
X478141Y196306D01*
X478108Y196375D01*
X478009Y196514D01*
X477917Y196658D01*
X477866Y196715D01*
X477822Y196777D01*
X477702Y196898D01*
X477588Y197026D01*
X477529Y197074D01*
X477475Y197128D01*
X477337Y197229D01*
X477204Y197336D01*
X477138Y197373D01*
X477077Y197418D01*
X476924Y197495D01*
X476776Y197580D01*
X476704Y197606D01*
X476636Y197641D01*
X476473Y197692D01*
X476313Y197751D01*
X476238Y197766D01*
X476166Y197789D01*
X476061Y197801D01*
X475829Y197846D01*
X475593Y197853D01*
X475488Y197865D01*
X473075Y197865D01*
X472999Y197859D01*
X472923Y197861D01*
X472754Y197839D01*
X472583Y197825D01*
X472509Y197807D01*
X472434Y197797D01*
X472270Y197748D01*
X472104Y197707D01*
X472035Y197677D01*
X471961Y197655D01*
X471808Y197579D01*
X471651Y197512D01*
X471587Y197471D01*
X471518Y197438D01*
X471379Y197339D01*
X471235Y197247D01*
X471178Y197196D01*
X471116Y197152D01*
X470995Y197032D01*
X470867Y196918D01*
X470819Y196859D01*
X470765Y196805D01*
X470664Y196667D01*
X470557Y196534D01*
X470520Y196468D01*
X470475Y196407D01*
X470398Y196254D01*
X470313Y196106D01*
X470287Y196034D01*
X470252Y195966D01*
X470201Y195803D01*
X470142Y195643D01*
X470127Y195568D01*
X470104Y195496D01*
X470092Y195391D01*
X470047Y195159D01*
X470040Y194923D01*
X470028Y194818D01*
X470028Y193374D01*
X469409Y191880D01*
X468884Y191356D01*
X468773Y191225D01*
X468656Y191101D01*
X468614Y191038D01*
X468565Y190980D01*
X468476Y190833D01*
X468381Y190691D01*
X468349Y190623D01*
X468310Y190557D01*
X468247Y190398D01*
X468175Y190243D01*
X468155Y190170D01*
X468127Y190099D01*
X468090Y189933D01*
X468045Y189767D01*
X468037Y189692D01*
X468020Y189618D01*
X468011Y189447D01*
X467993Y189277D01*
X467997Y189201D01*
X467993Y189125D01*
X468011Y188955D01*
X468020Y188784D01*
X468037Y188710D01*
X468045Y188634D01*
X468090Y188470D01*
X468127Y188303D01*
X468151Y188248D01*
X468176Y188159D01*
X468316Y187853D01*
X468491Y187197D01*
X458216Y187197D01*
X447928Y187197D01*
X447928Y187253D01*
X447950Y187365D01*
X447951Y187384D01*
X447954Y187403D01*
X447958Y187631D01*
X447966Y187858D01*
X447963Y187877D01*
X447963Y187896D01*
X447931Y188121D01*
X447901Y188347D01*
X447896Y188365D01*
X447893Y188384D01*
X447825Y188600D01*
X447759Y188820D01*
X447750Y188837D01*
X447745Y188855D01*
X447642Y189057D01*
X447542Y189263D01*
X447531Y189278D01*
X447522Y189295D01*
X447388Y189479D01*
X447256Y189665D01*
X447243Y189678D01*
X447232Y189694D01*
X447070Y189854D01*
X446910Y190016D01*
X446894Y190027D01*
X446881Y190040D01*
X446696Y190172D01*
X446511Y190306D01*
X446494Y190315D01*
X446478Y190326D01*
X446274Y190426D01*
X446070Y190529D01*
X446052Y190534D01*
X446035Y190543D01*
X445818Y190608D01*
X445600Y190677D01*
X445584Y190679D01*
X445563Y190685D01*
X445074Y190749D01*
X444981Y190747D01*
X444922Y190753D01*
X431637Y190753D01*
X431419Y190736D01*
X431201Y190722D01*
X431174Y190716D01*
X431145Y190713D01*
X430933Y190661D01*
X430720Y190612D01*
X430694Y190601D01*
X430667Y190595D01*
X430465Y190508D01*
X430264Y190426D01*
X430239Y190411D01*
X430213Y190400D01*
X430029Y190283D01*
X429843Y190169D01*
X429821Y190150D01*
X429797Y190135D01*
X429634Y189990D01*
X429469Y189847D01*
X429450Y189825D01*
X429429Y189806D01*
X429292Y189637D01*
X429152Y189469D01*
X429140Y189448D01*
X429119Y189422D01*
X428875Y188994D01*
X428847Y188918D01*
X428822Y188872D01*
X427242Y185059D01*
X424541Y182357D01*
X421011Y180895D01*
X417189Y180895D01*
X413659Y182357D01*
X410957Y185059D01*
X409495Y188589D01*
X409495Y192411D01*
X410957Y195941D01*
X410977Y195960D01*
X411026Y196018D01*
X411082Y196070D01*
X411186Y196206D01*
X411296Y196336D01*
X411336Y196401D01*
X411382Y196462D01*
X411463Y196612D01*
X411551Y196758D01*
X411579Y196829D01*
X411615Y196896D01*
X411671Y197058D01*
X411734Y197216D01*
X411751Y197291D01*
X411775Y197363D01*
X411804Y197532D01*
X411841Y197698D01*
X411845Y197774D01*
X411858Y197849D01*
X411859Y198020D01*
X411868Y198191D01*
X411860Y198266D01*
X411861Y198343D01*
X411834Y198512D01*
X411816Y198681D01*
X411796Y198755D01*
X411784Y198830D01*
X411731Y198992D01*
X411686Y199157D01*
X411654Y199226D01*
X411630Y199299D01*
X411551Y199450D01*
X411480Y199605D01*
X411437Y199669D01*
X411402Y199736D01*
X411336Y199819D01*
X411205Y200015D01*
X411043Y200187D01*
X410977Y200269D01*
X409259Y201987D01*
X406742Y204504D01*
X405852Y206654D01*
X405752Y206848D01*
X405656Y207045D01*
X405639Y207068D01*
X405627Y207093D01*
X405497Y207269D01*
X405370Y207447D01*
X405350Y207467D01*
X405334Y207490D01*
X405177Y207643D01*
X405024Y207798D01*
X405001Y207815D01*
X404980Y207835D01*
X404801Y207960D01*
X404625Y208088D01*
X404600Y208101D01*
X404576Y208117D01*
X404379Y208212D01*
X404185Y208311D01*
X404158Y208319D01*
X404132Y208332D01*
X403922Y208393D01*
X403714Y208459D01*
X403691Y208462D01*
X403659Y208471D01*
X403183Y208531D01*
X401978Y209030D01*
X401806Y209085D01*
X401637Y209148D01*
X401572Y209160D01*
X401509Y209181D01*
X401330Y209208D01*
X401153Y209242D01*
X401087Y209244D01*
X401021Y209254D01*
X400840Y209252D01*
X400660Y209258D01*
X400594Y209249D01*
X400527Y209248D01*
X400350Y209217D01*
X400171Y209193D01*
X400107Y209174D01*
X400042Y209163D01*
X399872Y209103D01*
X399698Y209051D01*
X399639Y209022D01*
X399576Y209000D01*
X399417Y208913D01*
X399255Y208834D01*
X399201Y208796D01*
X399143Y208764D01*
X399000Y208653D01*
X398853Y208548D01*
X398806Y208502D01*
X398753Y208461D01*
X398630Y208328D01*
X398502Y208202D01*
X398463Y208148D01*
X398418Y208099D01*
X398318Y207949D01*
X398212Y207803D01*
X398182Y207744D01*
X398145Y207688D01*
X398071Y207524D01*
X397989Y207363D01*
X397969Y207299D01*
X397942Y207238D01*
X397895Y207064D01*
X397841Y206892D01*
X397835Y206839D01*
X397814Y206762D01*
X397765Y206271D01*
X397767Y206238D01*
X397765Y206214D01*
X397765Y194127D01*
X397766Y194117D01*
X397765Y194108D01*
X397785Y193872D01*
X397805Y193635D01*
X397807Y193626D01*
X397808Y193616D01*
X397819Y193578D01*
X397923Y193157D01*
X397975Y193036D01*
X397997Y192961D01*
X398225Y192411D01*
X398225Y188589D01*
X396763Y185059D01*
X394061Y182357D01*
X390531Y180895D01*
X386709Y180895D01*
X383179Y182357D01*
X380477Y185059D01*
X379015Y188589D01*
X379015Y192411D01*
X379243Y192961D01*
X379246Y192970D01*
X379251Y192979D01*
X379323Y193207D01*
X379395Y193431D01*
X379396Y193440D01*
X379399Y193449D01*
X379403Y193490D01*
X379468Y193918D01*
X379466Y194049D01*
X379475Y194127D01*
X379475Y207234D01*
X379466Y207348D01*
X379467Y207462D01*
X379446Y207594D01*
X379435Y207726D01*
X379408Y207837D01*
X379390Y207949D01*
X379349Y208076D01*
X379317Y208205D01*
X379272Y208310D01*
X379236Y208418D01*
X379174Y208536D01*
X379122Y208658D01*
X379061Y208754D01*
X379008Y208856D01*
X378949Y208929D01*
X378857Y209074D01*
X378641Y209316D01*
X378583Y209389D01*
X377674Y210297D01*
X377055Y211791D01*
X377055Y226409D01*
X377480Y227434D01*
X377515Y227542D01*
X377559Y227648D01*
X377591Y227777D01*
X377631Y227903D01*
X377648Y228016D01*
X377675Y228127D01*
X377685Y228260D01*
X377705Y228391D01*
X377703Y228505D01*
X377712Y228619D01*
X377700Y228752D01*
X377699Y228885D01*
X377679Y228997D01*
X377669Y229111D01*
X377643Y229201D01*
X377613Y229370D01*
X377506Y229677D01*
X377480Y229766D01*
X377055Y230791D01*
X377055Y245409D01*
X377811Y247234D01*
X377856Y247309D01*
X377871Y247345D01*
X377890Y247378D01*
X377963Y247574D01*
X378040Y247767D01*
X378048Y247804D01*
X378062Y247841D01*
X378102Y248045D01*
X378147Y248248D01*
X378149Y248287D01*
X378156Y248325D01*
X378163Y248532D01*
X378175Y248741D01*
X378170Y248780D01*
X378172Y248818D01*
X378145Y249024D01*
X378123Y249231D01*
X378112Y249269D01*
X378107Y249307D01*
X378047Y249506D01*
X377992Y249707D01*
X377976Y249742D01*
X377965Y249780D01*
X377873Y249966D01*
X377787Y250156D01*
X377765Y250188D01*
X377748Y250223D01*
X377628Y250392D01*
X377511Y250565D01*
X377485Y250593D01*
X377462Y250625D01*
X377316Y250773D01*
X377174Y250925D01*
X377143Y250948D01*
X377116Y250976D01*
X376947Y251099D01*
X376782Y251225D01*
X376748Y251244D01*
X376717Y251266D01*
X376531Y251360D01*
X376348Y251459D01*
X376311Y251471D01*
X376276Y251489D01*
X376078Y251551D01*
X375881Y251619D01*
X375843Y251625D01*
X375806Y251637D01*
X375713Y251647D01*
X375395Y251702D01*
X375222Y251703D01*
X375128Y251713D01*
X321686Y251713D01*
X321572Y251704D01*
X321458Y251705D01*
X321326Y251684D01*
X321194Y251673D01*
X321083Y251646D01*
X320970Y251628D01*
X320844Y251587D01*
X320715Y251555D01*
X320610Y251510D01*
X320502Y251474D01*
X320384Y251412D01*
X320262Y251360D01*
X320166Y251299D01*
X320064Y251246D01*
X319991Y251187D01*
X319846Y251095D01*
X319604Y250879D01*
X319531Y250821D01*
X317061Y248350D01*
X309105Y245055D01*
X306456Y245055D01*
X306324Y245045D01*
X306190Y245044D01*
X306078Y245025D01*
X305964Y245015D01*
X305835Y244983D01*
X305704Y244961D01*
X305596Y244924D01*
X305486Y244897D01*
X305363Y244844D01*
X305237Y244801D01*
X305137Y244747D01*
X305032Y244702D01*
X304920Y244631D01*
X304803Y244568D01*
X304712Y244498D01*
X304616Y244437D01*
X304517Y244348D01*
X304516Y244347D01*
X298450Y244347D01*
X298374Y244341D01*
X298298Y244343D01*
X298129Y244321D01*
X297958Y244307D01*
X297884Y244289D01*
X297809Y244279D01*
X297645Y244230D01*
X297479Y244189D01*
X297410Y244159D01*
X297337Y244137D01*
X297183Y244061D01*
X297026Y243994D01*
X296962Y243953D01*
X296893Y243920D01*
X296754Y243821D01*
X296610Y243729D01*
X296553Y243678D01*
X296491Y243634D01*
X296370Y243514D01*
X296242Y243400D01*
X296194Y243341D01*
X296140Y243287D01*
X296039Y243149D01*
X295932Y243016D01*
X295895Y242950D01*
X295850Y242889D01*
X295773Y242736D01*
X295688Y242588D01*
X295662Y242516D01*
X295627Y242448D01*
X295576Y242285D01*
X295517Y242125D01*
X295502Y242050D01*
X295479Y241978D01*
X295467Y241873D01*
X295422Y241641D01*
X295419Y241536D01*
X295414Y241510D01*
X295414Y241396D01*
X295403Y241300D01*
X295403Y241245D01*
X295408Y241184D01*
X295407Y241148D01*
X295412Y241108D01*
X295411Y241017D01*
X295432Y240886D01*
X295443Y240753D01*
X295470Y240643D01*
X295488Y240530D01*
X295529Y240404D01*
X295561Y240275D01*
X295606Y240170D01*
X295642Y240061D01*
X295704Y239943D01*
X295756Y239821D01*
X295784Y239778D01*
X295784Y225035D01*
X295721Y224931D01*
X295679Y224825D01*
X295627Y224723D01*
X295587Y224596D01*
X295538Y224473D01*
X295513Y224362D01*
X295479Y224253D01*
X295469Y224159D01*
X295431Y223991D01*
X295413Y223667D01*
X295403Y223575D01*
X295403Y196795D01*
X295412Y196681D01*
X295411Y196567D01*
X295432Y196436D01*
X295443Y196303D01*
X295470Y196193D01*
X295488Y196080D01*
X295529Y195954D01*
X295561Y195825D01*
X295606Y195720D01*
X295642Y195611D01*
X295704Y195493D01*
X295756Y195371D01*
X295784Y195328D01*
X295784Y180585D01*
X295721Y180481D01*
X295679Y180375D01*
X295627Y180273D01*
X295587Y180146D01*
X295538Y180023D01*
X295513Y179912D01*
X295479Y179803D01*
X295469Y179709D01*
X295431Y179541D01*
X295425Y179426D01*
X295422Y179411D01*
X295419Y179326D01*
X295413Y179217D01*
X295403Y179125D01*
X295403Y179070D01*
X295404Y179055D01*
X295404Y179049D01*
X295407Y179018D01*
X295409Y178994D01*
X295407Y178918D01*
X295429Y178749D01*
X295443Y178578D01*
X295461Y178504D01*
X295471Y178429D01*
X295520Y178265D01*
X295561Y178099D01*
X295591Y178030D01*
X295613Y177957D01*
X295689Y177803D01*
X295756Y177646D01*
X295797Y177582D01*
X295830Y177513D01*
X295929Y177374D01*
X296021Y177230D01*
X296072Y177173D01*
X296116Y177111D01*
X296236Y176990D01*
X296350Y176862D01*
X296409Y176814D01*
X296463Y176760D01*
X296601Y176659D01*
X296734Y176552D01*
X296800Y176515D01*
X296861Y176470D01*
X297014Y176393D01*
X297162Y176308D01*
X297234Y176282D01*
X297302Y176247D01*
X297465Y176196D01*
X297625Y176137D01*
X297700Y176122D01*
X297772Y176099D01*
X297877Y176087D01*
X298109Y176042D01*
X298345Y176035D01*
X298450Y176023D01*
X303195Y176023D01*
X303207Y176005D01*
X303278Y175881D01*
X303345Y175800D01*
X303403Y175714D01*
X303500Y175610D01*
X303591Y175499D01*
X303669Y175430D01*
X303741Y175354D01*
X303854Y175267D01*
X303961Y175173D01*
X304049Y175117D01*
X304132Y175054D01*
X304258Y174986D01*
X304378Y174910D01*
X304474Y174870D01*
X304567Y174820D01*
X304702Y174774D01*
X304833Y174719D01*
X304934Y174694D01*
X305033Y174660D01*
X305174Y174637D01*
X305313Y174603D01*
X305417Y174595D01*
X305520Y174578D01*
X305662Y174577D01*
X305805Y174566D01*
X305909Y174575D01*
X306013Y174575D01*
X306154Y174597D01*
X306296Y174609D01*
X306349Y174625D01*
X346868Y174625D01*
X348656Y173884D01*
X349943Y172597D01*
X350029Y172523D01*
X350110Y172442D01*
X350217Y172364D01*
X350318Y172278D01*
X350416Y172219D01*
X350509Y172152D01*
X350627Y172092D01*
X350741Y172023D01*
X350847Y171981D01*
X350949Y171929D01*
X351076Y171889D01*
X351199Y171840D01*
X351310Y171815D01*
X351420Y171781D01*
X351513Y171771D01*
X351681Y171733D01*
X352005Y171715D01*
X352097Y171705D01*
X410434Y171705D01*
X410548Y171714D01*
X410662Y171713D01*
X410794Y171734D01*
X410926Y171745D01*
X411037Y171772D01*
X411149Y171790D01*
X411276Y171831D01*
X411405Y171863D01*
X411510Y171908D01*
X411618Y171944D01*
X411736Y172006D01*
X411858Y172058D01*
X411954Y172119D01*
X412056Y172172D01*
X412129Y172231D01*
X412274Y172323D01*
X412516Y172539D01*
X412589Y172597D01*
X413497Y173506D01*
X414991Y174125D01*
X429609Y174125D01*
X431102Y173506D01*
X431283Y173325D01*
X431298Y173313D01*
X431310Y173298D01*
X431485Y173154D01*
X431659Y173006D01*
X431675Y172996D01*
X431690Y172984D01*
X431887Y172868D01*
X432081Y172751D01*
X432099Y172744D01*
X432116Y172734D01*
X432328Y172653D01*
X432540Y172568D01*
X432559Y172564D01*
X432576Y172557D01*
X432798Y172511D01*
X433021Y172461D01*
X433040Y172460D01*
X433059Y172456D01*
X433286Y172447D01*
X433514Y172434D01*
X433533Y172436D01*
X433552Y172435D01*
X433617Y172445D01*
X434004Y172486D01*
X434143Y172524D01*
X434227Y172537D01*
X434466Y172601D01*
X438051Y172601D01*
X438051Y162762D01*
X438057Y162686D01*
X438055Y162610D01*
X438077Y162441D01*
X438091Y162270D01*
X438109Y162197D01*
X438119Y162121D01*
X438168Y161957D01*
X438209Y161792D01*
X438239Y161722D01*
X438261Y161649D01*
X438337Y161495D01*
X438404Y161338D01*
X438445Y161274D01*
X438478Y161206D01*
X438577Y161066D01*
X438669Y160922D01*
X438720Y160865D01*
X438764Y160803D01*
X438884Y160682D01*
X438998Y160554D01*
X439057Y160506D01*
X439110Y160452D01*
X439151Y160423D01*
X439168Y160399D01*
X439288Y160277D01*
X439402Y160150D01*
X439461Y160102D01*
X439515Y160048D01*
X439653Y159947D01*
X439786Y159840D01*
X439852Y159803D01*
X439914Y159758D01*
X440066Y159681D01*
X440215Y159596D01*
X440286Y159570D01*
X440354Y159535D01*
X440517Y159484D01*
X440677Y159425D01*
X440752Y159410D01*
X440824Y159387D01*
X440929Y159375D01*
X441161Y159330D01*
X441397Y159323D01*
X441502Y159311D01*
X450341Y159311D01*
X450341Y154725D01*
X450168Y154079D01*
X450056Y153886D01*
X449983Y153732D01*
X449902Y153581D01*
X449877Y153509D01*
X449845Y153441D01*
X449798Y153276D01*
X449742Y153114D01*
X449729Y153039D01*
X449708Y152966D01*
X449688Y152797D01*
X449659Y152628D01*
X449659Y152552D01*
X449650Y152477D01*
X449658Y152306D01*
X449656Y152135D01*
X449668Y152060D01*
X449672Y151984D01*
X449707Y151816D01*
X449733Y151647D01*
X449757Y151575D01*
X449772Y151501D01*
X449834Y151341D01*
X449887Y151179D01*
X449922Y151111D01*
X449950Y151040D01*
X450036Y150893D01*
X450115Y150741D01*
X450152Y150695D01*
X450199Y150615D01*
X450514Y150235D01*
X450531Y150220D01*
X450540Y150208D01*
X451246Y149503D01*
X452002Y147678D01*
X452102Y147483D01*
X452197Y147287D01*
X452214Y147264D01*
X452227Y147239D01*
X452357Y147063D01*
X452483Y146885D01*
X452503Y146865D01*
X452520Y146842D01*
X452676Y146689D01*
X452830Y146534D01*
X452853Y146517D01*
X452873Y146497D01*
X453052Y146372D01*
X453228Y146244D01*
X453254Y146231D01*
X453277Y146215D01*
X453474Y146120D01*
X453669Y146021D01*
X453696Y146013D01*
X453721Y146000D01*
X453930Y145939D01*
X454139Y145873D01*
X454163Y145870D01*
X454195Y145861D01*
X454684Y145800D01*
X454764Y145803D01*
X454817Y145797D01*
X455168Y145797D01*
X455244Y145803D01*
G37*
G36*
X226095Y22864D02*
X226095Y22864D01*
X226129Y22862D01*
X226318Y22884D01*
X226509Y22901D01*
X226542Y22910D01*
X226576Y22914D01*
X226759Y22969D01*
X226943Y23019D01*
X226974Y23034D01*
X227007Y23044D01*
X227178Y23131D01*
X227350Y23213D01*
X227378Y23233D01*
X227409Y23248D01*
X227561Y23364D01*
X227716Y23475D01*
X227740Y23500D01*
X227767Y23520D01*
X227896Y23661D01*
X228030Y23797D01*
X228049Y23826D01*
X228073Y23852D01*
X228175Y24013D01*
X228282Y24170D01*
X228296Y24202D01*
X228314Y24231D01*
X228387Y24408D01*
X228464Y24582D01*
X228472Y24616D01*
X228485Y24648D01*
X228525Y24835D01*
X228571Y25020D01*
X228573Y25054D01*
X228580Y25088D01*
X228599Y25400D01*
X228599Y91440D01*
X228597Y91467D01*
X228598Y91490D01*
X228598Y91496D01*
X228598Y91509D01*
X228576Y91698D01*
X228559Y91889D01*
X228550Y91922D01*
X228546Y91956D01*
X228491Y92139D01*
X228441Y92323D01*
X228426Y92354D01*
X228416Y92387D01*
X228329Y92558D01*
X228247Y92730D01*
X228227Y92758D01*
X228212Y92789D01*
X228096Y92941D01*
X227985Y93096D01*
X227960Y93120D01*
X227940Y93147D01*
X227800Y93276D01*
X227663Y93410D01*
X227634Y93429D01*
X227608Y93453D01*
X227447Y93555D01*
X227290Y93662D01*
X227258Y93676D01*
X227229Y93694D01*
X227052Y93767D01*
X226878Y93844D01*
X226844Y93852D01*
X226812Y93865D01*
X226625Y93905D01*
X226440Y93951D01*
X226406Y93953D01*
X226372Y93960D01*
X226060Y93979D01*
X130810Y93979D01*
X130776Y93976D01*
X130741Y93978D01*
X130552Y93956D01*
X130362Y93939D01*
X130328Y93930D01*
X130294Y93926D01*
X130111Y93871D01*
X129927Y93821D01*
X129896Y93806D01*
X129863Y93796D01*
X129692Y93709D01*
X129521Y93627D01*
X129492Y93607D01*
X129461Y93592D01*
X129309Y93476D01*
X129154Y93365D01*
X129130Y93340D01*
X129103Y93320D01*
X128974Y93180D01*
X128840Y93043D01*
X128821Y93014D01*
X128798Y92988D01*
X128695Y92827D01*
X128588Y92670D01*
X128574Y92638D01*
X128556Y92609D01*
X128483Y92432D01*
X128406Y92258D01*
X128398Y92224D01*
X128385Y92192D01*
X128345Y92005D01*
X128299Y91820D01*
X128297Y91786D01*
X128290Y91752D01*
X128271Y91440D01*
X128271Y25400D01*
X128274Y25366D01*
X128272Y25331D01*
X128294Y25142D01*
X128311Y24952D01*
X128320Y24918D01*
X128324Y24884D01*
X128379Y24701D01*
X128429Y24517D01*
X128444Y24486D01*
X128454Y24453D01*
X128541Y24282D01*
X128623Y24111D01*
X128643Y24082D01*
X128658Y24051D01*
X128774Y23899D01*
X128885Y23744D01*
X128910Y23720D01*
X128930Y23693D01*
X129071Y23564D01*
X129207Y23430D01*
X129236Y23411D01*
X129262Y23388D01*
X129423Y23285D01*
X129580Y23178D01*
X129612Y23164D01*
X129641Y23146D01*
X129818Y23073D01*
X129992Y22996D01*
X130026Y22988D01*
X130058Y22975D01*
X130245Y22935D01*
X130430Y22889D01*
X130464Y22887D01*
X130498Y22880D01*
X130810Y22861D01*
X226060Y22861D01*
X226095Y22864D01*
G37*
G36*
X558482Y39931D02*
X558482Y39931D01*
X558520Y39931D01*
X558727Y39964D01*
X558933Y39991D01*
X558970Y40002D01*
X559007Y40008D01*
X559205Y40073D01*
X559405Y40133D01*
X559440Y40150D01*
X559476Y40162D01*
X559661Y40258D01*
X559849Y40350D01*
X559880Y40372D01*
X559914Y40390D01*
X559986Y40448D01*
X560251Y40636D01*
X560373Y40757D01*
X560447Y40815D01*
X561178Y41546D01*
X562671Y42165D01*
X565988Y42165D01*
X566064Y42171D01*
X566140Y42169D01*
X566309Y42191D01*
X566480Y42205D01*
X566554Y42223D01*
X566629Y42233D01*
X566793Y42282D01*
X566959Y42323D01*
X567028Y42353D01*
X567102Y42375D01*
X567255Y42451D01*
X567412Y42518D01*
X567476Y42559D01*
X567545Y42592D01*
X567684Y42691D01*
X567828Y42783D01*
X567885Y42834D01*
X567947Y42878D01*
X568068Y42998D01*
X568196Y43112D01*
X568244Y43171D01*
X568298Y43225D01*
X568399Y43363D01*
X568506Y43496D01*
X568543Y43562D01*
X568588Y43623D01*
X568665Y43776D01*
X568750Y43924D01*
X568776Y43996D01*
X568811Y44064D01*
X568862Y44227D01*
X568921Y44387D01*
X568936Y44462D01*
X568959Y44534D01*
X568971Y44639D01*
X569016Y44871D01*
X569023Y45107D01*
X569035Y45212D01*
X569035Y70300D01*
X569018Y70518D01*
X569004Y70736D01*
X568998Y70763D01*
X568995Y70792D01*
X568943Y71003D01*
X568894Y71217D01*
X568883Y71243D01*
X568877Y71271D01*
X568790Y71472D01*
X568708Y71674D01*
X568693Y71698D01*
X568682Y71724D01*
X568565Y71908D01*
X568451Y72094D01*
X568432Y72116D01*
X568417Y72140D01*
X568272Y72303D01*
X568129Y72468D01*
X568107Y72487D01*
X568088Y72508D01*
X567919Y72645D01*
X567751Y72785D01*
X567730Y72797D01*
X567704Y72818D01*
X567276Y73062D01*
X567200Y73090D01*
X567154Y73115D01*
X565877Y73644D01*
X564734Y74787D01*
X564115Y76281D01*
X564115Y93899D01*
X564734Y95393D01*
X565877Y96536D01*
X566691Y96873D01*
X566818Y96938D01*
X566948Y96994D01*
X567037Y97050D01*
X567130Y97098D01*
X567244Y97183D01*
X567365Y97259D01*
X567442Y97329D01*
X567527Y97391D01*
X567626Y97493D01*
X567732Y97588D01*
X567798Y97669D01*
X567871Y97744D01*
X567953Y97861D01*
X568042Y97972D01*
X568094Y98062D01*
X568154Y98148D01*
X568216Y98277D01*
X568286Y98400D01*
X568323Y98498D01*
X568368Y98592D01*
X568408Y98729D01*
X568458Y98863D01*
X568478Y98965D01*
X568508Y99066D01*
X568525Y99207D01*
X568553Y99347D01*
X568556Y99451D01*
X568569Y99555D01*
X568564Y99698D01*
X568568Y99840D01*
X568554Y99944D01*
X568550Y100048D01*
X568522Y100188D01*
X568504Y100329D01*
X568473Y100429D01*
X568453Y100532D01*
X568402Y100665D01*
X568361Y100802D01*
X568315Y100896D01*
X568278Y100993D01*
X568207Y101116D01*
X568144Y101245D01*
X568084Y101330D01*
X568031Y101420D01*
X567941Y101531D01*
X567859Y101647D01*
X567785Y101721D01*
X567719Y101802D01*
X567612Y101897D01*
X567512Y101998D01*
X567427Y102059D01*
X567349Y102129D01*
X567229Y102204D01*
X567113Y102288D01*
X567020Y102335D01*
X566931Y102391D01*
X566800Y102446D01*
X566673Y102511D01*
X566573Y102542D01*
X566477Y102583D01*
X566338Y102616D01*
X566202Y102659D01*
X566124Y102668D01*
X565997Y102698D01*
X565564Y102731D01*
X565525Y102735D01*
X552151Y102735D01*
X550657Y103354D01*
X549514Y104497D01*
X548895Y105991D01*
X548895Y114808D01*
X548889Y114884D01*
X548891Y114960D01*
X548869Y115129D01*
X548855Y115300D01*
X548837Y115374D01*
X548827Y115449D01*
X548778Y115613D01*
X548737Y115779D01*
X548707Y115848D01*
X548685Y115922D01*
X548609Y116075D01*
X548542Y116232D01*
X548501Y116296D01*
X548468Y116365D01*
X548369Y116504D01*
X548277Y116648D01*
X548226Y116705D01*
X548182Y116767D01*
X548062Y116888D01*
X547948Y117016D01*
X547889Y117064D01*
X547835Y117118D01*
X547697Y117219D01*
X547564Y117326D01*
X547498Y117363D01*
X547437Y117408D01*
X547284Y117485D01*
X547136Y117570D01*
X547064Y117596D01*
X546996Y117631D01*
X546833Y117682D01*
X546673Y117741D01*
X546598Y117756D01*
X546526Y117779D01*
X546421Y117791D01*
X546189Y117836D01*
X545953Y117843D01*
X545848Y117855D01*
X544281Y117855D01*
X540920Y119247D01*
X538348Y121820D01*
X538247Y122063D01*
X538164Y122224D01*
X538089Y122388D01*
X538052Y122443D01*
X538022Y122502D01*
X537915Y122647D01*
X537814Y122797D01*
X537768Y122846D01*
X537729Y122899D01*
X537599Y123025D01*
X537476Y123157D01*
X537423Y123197D01*
X537375Y123244D01*
X537228Y123347D01*
X537084Y123457D01*
X537026Y123489D01*
X536971Y123527D01*
X536809Y123605D01*
X536650Y123690D01*
X536587Y123712D01*
X536527Y123741D01*
X536354Y123792D01*
X536183Y123850D01*
X536117Y123861D01*
X536054Y123880D01*
X535875Y123903D01*
X535697Y123933D01*
X535630Y123933D01*
X535564Y123942D01*
X535384Y123935D01*
X535203Y123936D01*
X535138Y123926D01*
X535071Y123923D01*
X534894Y123887D01*
X534716Y123859D01*
X534653Y123839D01*
X534588Y123825D01*
X534419Y123762D01*
X534247Y123705D01*
X534188Y123674D01*
X534126Y123651D01*
X533970Y123561D01*
X533810Y123477D01*
X533769Y123444D01*
X533699Y123404D01*
X533317Y123092D01*
X533295Y123067D01*
X533277Y123052D01*
X525540Y115315D01*
X515860Y115315D01*
X510155Y121021D01*
X510097Y121070D01*
X510045Y121125D01*
X509909Y121229D01*
X509779Y121340D01*
X509713Y121379D01*
X509653Y121426D01*
X509503Y121506D01*
X509356Y121595D01*
X509286Y121623D01*
X509218Y121659D01*
X509057Y121714D01*
X508898Y121778D01*
X508824Y121794D01*
X508752Y121819D01*
X508583Y121848D01*
X508417Y121885D01*
X508340Y121889D01*
X508265Y121902D01*
X508094Y121903D01*
X507924Y121912D01*
X507848Y121904D01*
X507772Y121905D01*
X507603Y121878D01*
X507433Y121860D01*
X507360Y121840D01*
X507285Y121828D01*
X507122Y121774D01*
X506958Y121729D01*
X506888Y121698D01*
X506816Y121674D01*
X506665Y121595D01*
X506509Y121524D01*
X506446Y121481D01*
X506378Y121446D01*
X506296Y121380D01*
X506100Y121248D01*
X505927Y121086D01*
X505845Y121021D01*
X500140Y115315D01*
X490460Y115315D01*
X483677Y122098D01*
X483619Y122148D01*
X483567Y122203D01*
X483431Y122307D01*
X483301Y122418D01*
X483236Y122457D01*
X483175Y122503D01*
X483025Y122584D01*
X482879Y122672D01*
X482808Y122701D01*
X482741Y122737D01*
X482579Y122792D01*
X482421Y122855D01*
X482346Y122872D01*
X482274Y122897D01*
X482105Y122925D01*
X481939Y122962D01*
X481863Y122966D01*
X481788Y122979D01*
X481617Y122980D01*
X481446Y122990D01*
X481371Y122982D01*
X481294Y122982D01*
X481125Y122956D01*
X480956Y122938D01*
X480882Y122917D01*
X480807Y122906D01*
X480645Y122852D01*
X480480Y122807D01*
X480411Y122775D01*
X480338Y122751D01*
X480187Y122672D01*
X480032Y122601D01*
X479968Y122559D01*
X479901Y122523D01*
X479819Y122458D01*
X479622Y122326D01*
X479450Y122164D01*
X479368Y122098D01*
X474109Y116839D01*
X472947Y116839D01*
X472947Y127000D01*
X472941Y127076D01*
X472944Y127152D01*
X472921Y127321D01*
X472907Y127491D01*
X472889Y127565D01*
X472879Y127641D01*
X472830Y127805D01*
X472789Y127970D01*
X472759Y128040D01*
X472737Y128113D01*
X472662Y128267D01*
X472594Y128424D01*
X472553Y128488D01*
X472520Y128556D01*
X472421Y128696D01*
X472329Y128840D01*
X472278Y128896D01*
X472234Y128959D01*
X472114Y129080D01*
X472000Y129208D01*
X471941Y129256D01*
X471888Y129310D01*
X471887Y129310D01*
X471749Y129411D01*
X471616Y129518D01*
X471550Y129556D01*
X471488Y129600D01*
X471336Y129677D01*
X471187Y129762D01*
X471116Y129788D01*
X471048Y129823D01*
X470885Y129874D01*
X470725Y129934D01*
X470650Y129948D01*
X470577Y129971D01*
X470473Y129983D01*
X470241Y130028D01*
X470005Y130036D01*
X469900Y130047D01*
X459739Y130047D01*
X459739Y130556D01*
X459733Y130632D01*
X459735Y130708D01*
X459713Y130877D01*
X459699Y131048D01*
X459681Y131122D01*
X459671Y131197D01*
X459622Y131361D01*
X459581Y131527D01*
X459551Y131596D01*
X459529Y131670D01*
X459453Y131823D01*
X459386Y131980D01*
X459345Y132044D01*
X459312Y132113D01*
X459213Y132252D01*
X459121Y132396D01*
X459070Y132453D01*
X459026Y132515D01*
X458906Y132636D01*
X458792Y132764D01*
X458733Y132812D01*
X458679Y132866D01*
X458541Y132967D01*
X458408Y133074D01*
X458342Y133111D01*
X458281Y133156D01*
X458128Y133233D01*
X457980Y133318D01*
X457908Y133344D01*
X457840Y133379D01*
X457677Y133430D01*
X457517Y133489D01*
X457442Y133504D01*
X457370Y133527D01*
X457265Y133539D01*
X457033Y133584D01*
X456797Y133591D01*
X456692Y133603D01*
X454817Y133603D01*
X454599Y133586D01*
X454381Y133572D01*
X454354Y133566D01*
X454325Y133563D01*
X454113Y133511D01*
X453900Y133462D01*
X453874Y133451D01*
X453846Y133445D01*
X453646Y133358D01*
X453443Y133276D01*
X453419Y133261D01*
X453393Y133250D01*
X453209Y133133D01*
X453023Y133019D01*
X453001Y133000D01*
X452977Y132985D01*
X452814Y132839D01*
X452649Y132697D01*
X452630Y132675D01*
X452609Y132656D01*
X452472Y132487D01*
X452332Y132319D01*
X452320Y132298D01*
X452299Y132272D01*
X452055Y131844D01*
X452027Y131768D01*
X452002Y131722D01*
X451246Y129897D01*
X450103Y128754D01*
X448609Y128135D01*
X438254Y128135D01*
X438216Y128132D01*
X438178Y128134D01*
X437970Y128112D01*
X437762Y128095D01*
X437725Y128086D01*
X437687Y128082D01*
X437486Y128027D01*
X437283Y127977D01*
X437248Y127962D01*
X437212Y127951D01*
X437022Y127864D01*
X436830Y127782D01*
X436798Y127762D01*
X436763Y127746D01*
X436590Y127629D01*
X436414Y127517D01*
X436386Y127492D01*
X436354Y127470D01*
X436202Y127327D01*
X436046Y127188D01*
X436022Y127159D01*
X435994Y127133D01*
X435867Y126967D01*
X435736Y126804D01*
X435717Y126771D01*
X435694Y126741D01*
X435595Y126557D01*
X435492Y126376D01*
X435479Y126340D01*
X435461Y126306D01*
X435393Y126109D01*
X435321Y125913D01*
X435313Y125876D01*
X435301Y125840D01*
X435266Y125633D01*
X435226Y125429D01*
X435225Y125391D01*
X435218Y125353D01*
X435217Y125144D01*
X435211Y124936D01*
X435216Y124898D01*
X435215Y124860D01*
X435248Y124653D01*
X435275Y124447D01*
X435286Y124410D01*
X435292Y124373D01*
X435357Y124174D01*
X435417Y123975D01*
X435434Y123940D01*
X435446Y123904D01*
X435543Y123719D01*
X435634Y123531D01*
X435656Y123500D01*
X435674Y123466D01*
X435732Y123394D01*
X435920Y123129D01*
X436041Y123007D01*
X436099Y122933D01*
X436551Y122481D01*
X436552Y122481D01*
X439553Y119480D01*
X440945Y116119D01*
X440945Y92583D01*
X440951Y92507D01*
X440949Y92431D01*
X440971Y92262D01*
X440985Y92091D01*
X441003Y92017D01*
X441013Y91942D01*
X441062Y91778D01*
X441103Y91612D01*
X441133Y91543D01*
X441155Y91469D01*
X441231Y91316D01*
X441298Y91159D01*
X441339Y91095D01*
X441372Y91026D01*
X441471Y90887D01*
X441563Y90743D01*
X441614Y90686D01*
X441658Y90624D01*
X441778Y90503D01*
X441892Y90375D01*
X441951Y90327D01*
X442005Y90273D01*
X442143Y90172D01*
X442276Y90065D01*
X442342Y90028D01*
X442403Y89983D01*
X442556Y89906D01*
X442704Y89821D01*
X442776Y89795D01*
X442844Y89760D01*
X443007Y89709D01*
X443167Y89650D01*
X443242Y89635D01*
X443314Y89612D01*
X443419Y89600D01*
X443651Y89555D01*
X443887Y89548D01*
X443992Y89536D01*
X453691Y89536D01*
X455185Y88917D01*
X456328Y87774D01*
X456947Y86280D01*
X456947Y81758D01*
X456956Y81644D01*
X456955Y81530D01*
X456976Y81399D01*
X456987Y81266D01*
X457014Y81156D01*
X457032Y81043D01*
X457073Y80916D01*
X457105Y80788D01*
X457150Y80683D01*
X457186Y80574D01*
X457248Y80456D01*
X457300Y80334D01*
X457361Y80238D01*
X457414Y80137D01*
X457473Y80063D01*
X457565Y79918D01*
X457781Y79676D01*
X457839Y79603D01*
X461551Y75891D01*
X461552Y75891D01*
X463905Y73537D01*
X463992Y73463D01*
X464073Y73382D01*
X464180Y73304D01*
X464281Y73218D01*
X464379Y73159D01*
X464471Y73092D01*
X464590Y73032D01*
X464704Y72963D01*
X464810Y72921D01*
X464912Y72869D01*
X465039Y72829D01*
X465162Y72780D01*
X465273Y72755D01*
X465382Y72721D01*
X465476Y72711D01*
X465644Y72673D01*
X465968Y72655D01*
X466060Y72645D01*
X508770Y72645D01*
X508995Y72663D01*
X509224Y72679D01*
X509242Y72683D01*
X509261Y72685D01*
X509482Y72739D01*
X509704Y72792D01*
X509722Y72799D01*
X509740Y72803D01*
X509950Y72894D01*
X510160Y72980D01*
X510176Y72990D01*
X510193Y72998D01*
X510386Y73120D01*
X510579Y73240D01*
X510594Y73253D01*
X510610Y73263D01*
X510780Y73415D01*
X510951Y73565D01*
X510963Y73579D01*
X510977Y73592D01*
X511120Y73768D01*
X511266Y73944D01*
X511276Y73961D01*
X511287Y73976D01*
X511400Y74173D01*
X511515Y74370D01*
X511522Y74388D01*
X511531Y74404D01*
X511611Y74618D01*
X511692Y74831D01*
X511696Y74849D01*
X511703Y74867D01*
X511747Y75090D01*
X511793Y75314D01*
X511794Y75333D01*
X511798Y75351D01*
X511805Y75578D01*
X511815Y75806D01*
X511812Y75822D01*
X511813Y75844D01*
X511749Y76333D01*
X511722Y76422D01*
X511713Y76481D01*
X511639Y76755D01*
X511639Y81091D01*
X523228Y81091D01*
X523304Y81097D01*
X523380Y81095D01*
X523549Y81117D01*
X523720Y81131D01*
X523793Y81149D01*
X523869Y81159D01*
X524033Y81208D01*
X524191Y81248D01*
X524307Y81205D01*
X524382Y81190D01*
X524454Y81167D01*
X524559Y81155D01*
X524791Y81110D01*
X525027Y81103D01*
X525132Y81091D01*
X536721Y81091D01*
X536721Y76756D01*
X536647Y76481D01*
X536606Y76255D01*
X536562Y76033D01*
X536562Y76014D01*
X536558Y75995D01*
X536554Y75766D01*
X536547Y75540D01*
X536550Y75521D01*
X536549Y75502D01*
X536582Y75277D01*
X536611Y75051D01*
X536617Y75033D01*
X536620Y75014D01*
X536688Y74797D01*
X536754Y74578D01*
X536762Y74561D01*
X536768Y74543D01*
X536871Y74340D01*
X536971Y74135D01*
X536982Y74120D01*
X536990Y74103D01*
X537125Y73919D01*
X537256Y73733D01*
X537270Y73719D01*
X537281Y73704D01*
X537443Y73544D01*
X537603Y73382D01*
X537618Y73371D01*
X537632Y73358D01*
X537818Y73225D01*
X538002Y73092D01*
X538019Y73083D01*
X538034Y73072D01*
X538240Y72972D01*
X538442Y72869D01*
X538460Y72864D01*
X538477Y72855D01*
X538696Y72789D01*
X538913Y72721D01*
X538928Y72719D01*
X538950Y72713D01*
X539439Y72649D01*
X539531Y72651D01*
X539591Y72645D01*
X547919Y72645D01*
X551280Y71253D01*
X553853Y68680D01*
X555245Y65319D01*
X555245Y42970D01*
X555248Y42932D01*
X555246Y42894D01*
X555268Y42686D01*
X555285Y42478D01*
X555294Y42441D01*
X555298Y42403D01*
X555353Y42202D01*
X555403Y41999D01*
X555418Y41964D01*
X555429Y41927D01*
X555515Y41738D01*
X555598Y41546D01*
X555618Y41514D01*
X555634Y41479D01*
X555751Y41305D01*
X555863Y41130D01*
X555888Y41101D01*
X555910Y41070D01*
X556053Y40917D01*
X556192Y40762D01*
X556221Y40738D01*
X556248Y40710D01*
X556413Y40583D01*
X556576Y40452D01*
X556609Y40433D01*
X556639Y40410D01*
X556823Y40311D01*
X557004Y40208D01*
X557040Y40195D01*
X557074Y40177D01*
X557271Y40109D01*
X557467Y40036D01*
X557504Y40029D01*
X557540Y40017D01*
X557747Y39982D01*
X557951Y39942D01*
X557989Y39941D01*
X558027Y39934D01*
X558236Y39933D01*
X558444Y39926D01*
X558482Y39931D01*
G37*
G36*
X567710Y216412D02*
X567710Y216412D01*
X567729Y216410D01*
X567831Y216432D01*
X567933Y216449D01*
X567950Y216458D01*
X567970Y216462D01*
X568059Y216515D01*
X568150Y216564D01*
X568164Y216578D01*
X568181Y216588D01*
X568248Y216667D01*
X568320Y216742D01*
X568328Y216760D01*
X568341Y216775D01*
X568380Y216871D01*
X568423Y216965D01*
X568425Y216985D01*
X568433Y217003D01*
X568451Y217170D01*
X568451Y245619D01*
X586740Y245619D01*
X586760Y245622D01*
X586779Y245620D01*
X586881Y245642D01*
X586983Y245659D01*
X587000Y245668D01*
X587020Y245672D01*
X587109Y245725D01*
X587200Y245774D01*
X587214Y245788D01*
X587231Y245798D01*
X587298Y245877D01*
X587370Y245952D01*
X587378Y245970D01*
X587391Y245985D01*
X587430Y246081D01*
X587473Y246175D01*
X587475Y246195D01*
X587483Y246213D01*
X587501Y246380D01*
X587501Y290830D01*
X587498Y290850D01*
X587500Y290869D01*
X587478Y290971D01*
X587462Y291073D01*
X587452Y291090D01*
X587448Y291110D01*
X587395Y291199D01*
X587346Y291290D01*
X587332Y291304D01*
X587322Y291321D01*
X587243Y291388D01*
X587168Y291460D01*
X587150Y291468D01*
X587135Y291481D01*
X587039Y291520D01*
X586945Y291563D01*
X586925Y291565D01*
X586907Y291573D01*
X586740Y291591D01*
X544830Y291591D01*
X544810Y291588D01*
X544791Y291590D01*
X544689Y291568D01*
X544587Y291552D01*
X544570Y291542D01*
X544550Y291538D01*
X544461Y291485D01*
X544370Y291436D01*
X544356Y291422D01*
X544339Y291412D01*
X544272Y291333D01*
X544201Y291258D01*
X544192Y291240D01*
X544179Y291225D01*
X544140Y291129D01*
X544097Y291035D01*
X544095Y291015D01*
X544087Y290997D01*
X544069Y290830D01*
X544069Y263651D01*
X501650Y263651D01*
X501630Y263648D01*
X501611Y263650D01*
X501509Y263628D01*
X501407Y263612D01*
X501390Y263602D01*
X501370Y263598D01*
X501281Y263545D01*
X501190Y263496D01*
X501176Y263482D01*
X501159Y263472D01*
X501092Y263393D01*
X501021Y263318D01*
X501012Y263300D01*
X500999Y263285D01*
X500960Y263189D01*
X500917Y263095D01*
X500915Y263075D01*
X500907Y263057D01*
X500889Y262890D01*
X500889Y217170D01*
X500892Y217150D01*
X500890Y217131D01*
X500912Y217029D01*
X500929Y216927D01*
X500938Y216910D01*
X500942Y216890D01*
X500995Y216801D01*
X501044Y216710D01*
X501058Y216696D01*
X501068Y216679D01*
X501147Y216612D01*
X501222Y216541D01*
X501240Y216532D01*
X501255Y216519D01*
X501351Y216480D01*
X501445Y216437D01*
X501465Y216435D01*
X501483Y216427D01*
X501650Y216409D01*
X567690Y216409D01*
X567710Y216412D01*
G37*
G36*
X597484Y20581D02*
X597484Y20581D01*
X597560Y20579D01*
X597729Y20601D01*
X597900Y20615D01*
X597974Y20633D01*
X598049Y20643D01*
X598213Y20692D01*
X598379Y20733D01*
X598448Y20763D01*
X598522Y20785D01*
X598675Y20861D01*
X598832Y20928D01*
X598896Y20969D01*
X598965Y21002D01*
X599104Y21101D01*
X599248Y21193D01*
X599305Y21244D01*
X599367Y21288D01*
X599488Y21408D01*
X599616Y21522D01*
X599664Y21581D01*
X599718Y21635D01*
X599819Y21773D01*
X599926Y21906D01*
X599963Y21972D01*
X600008Y22033D01*
X600085Y22186D01*
X600170Y22334D01*
X600196Y22406D01*
X600231Y22474D01*
X600282Y22637D01*
X600341Y22797D01*
X600356Y22872D01*
X600379Y22944D01*
X600391Y23049D01*
X600436Y23281D01*
X600443Y23517D01*
X600455Y23622D01*
X600455Y90719D01*
X601847Y94080D01*
X612263Y104495D01*
X612337Y104582D01*
X612418Y104663D01*
X612496Y104770D01*
X612582Y104871D01*
X612641Y104969D01*
X612708Y105061D01*
X612768Y105180D01*
X612837Y105294D01*
X612879Y105400D01*
X612931Y105502D01*
X612971Y105629D01*
X613020Y105752D01*
X613045Y105863D01*
X613079Y105972D01*
X613089Y106066D01*
X613127Y106234D01*
X613145Y106558D01*
X613155Y106650D01*
X613155Y156026D01*
X613156Y156031D01*
X613159Y156041D01*
X613163Y156081D01*
X613228Y156509D01*
X613226Y156640D01*
X613235Y156718D01*
X613235Y161909D01*
X613416Y162346D01*
X613472Y162518D01*
X613535Y162687D01*
X613547Y162752D01*
X613568Y162815D01*
X613595Y162994D01*
X613629Y163171D01*
X613631Y163237D01*
X613641Y163303D01*
X613639Y163484D01*
X613645Y163664D01*
X613636Y163730D01*
X613635Y163797D01*
X613604Y163974D01*
X613580Y164153D01*
X613561Y164217D01*
X613549Y164282D01*
X613490Y164452D01*
X613438Y164626D01*
X613408Y164685D01*
X613386Y164748D01*
X613300Y164907D01*
X613221Y165069D01*
X613182Y165123D01*
X613151Y165181D01*
X613040Y165324D01*
X612935Y165471D01*
X612889Y165518D01*
X612848Y165571D01*
X612715Y165694D01*
X612589Y165822D01*
X612535Y165861D01*
X612486Y165906D01*
X612336Y166006D01*
X612190Y166112D01*
X612130Y166142D01*
X612075Y166179D01*
X611911Y166253D01*
X611749Y166335D01*
X611686Y166355D01*
X611625Y166382D01*
X611451Y166429D01*
X611279Y166483D01*
X611226Y166489D01*
X611149Y166510D01*
X610658Y166559D01*
X610624Y166557D01*
X610601Y166559D01*
X607465Y166559D01*
X606819Y166732D01*
X606240Y167067D01*
X605767Y167540D01*
X605432Y168119D01*
X605259Y168765D01*
X605259Y173053D01*
X612800Y173053D01*
X612876Y173059D01*
X612952Y173056D01*
X613121Y173079D01*
X613291Y173093D01*
X613365Y173111D01*
X613441Y173121D01*
X613605Y173170D01*
X613770Y173211D01*
X613840Y173241D01*
X613913Y173263D01*
X614067Y173338D01*
X614224Y173406D01*
X614288Y173447D01*
X614356Y173480D01*
X614496Y173579D01*
X614640Y173671D01*
X614696Y173722D01*
X614759Y173766D01*
X614880Y173886D01*
X615008Y174000D01*
X615056Y174059D01*
X615110Y174112D01*
X615110Y174113D01*
X615211Y174251D01*
X615318Y174384D01*
X615356Y174450D01*
X615400Y174512D01*
X615477Y174664D01*
X615562Y174813D01*
X615588Y174884D01*
X615623Y174952D01*
X615674Y175115D01*
X615734Y175275D01*
X615748Y175350D01*
X615771Y175423D01*
X615783Y175527D01*
X615828Y175759D01*
X615836Y175995D01*
X615847Y176100D01*
X615847Y185641D01*
X616080Y185641D01*
X616118Y185644D01*
X616157Y185642D01*
X616364Y185664D01*
X616572Y185681D01*
X616609Y185690D01*
X616647Y185694D01*
X616849Y185749D01*
X617051Y185799D01*
X617086Y185814D01*
X617123Y185825D01*
X617313Y185912D01*
X617504Y185994D01*
X617537Y186014D01*
X617571Y186030D01*
X617744Y186147D01*
X617920Y186259D01*
X617949Y186284D01*
X617981Y186306D01*
X618133Y186449D01*
X618288Y186588D01*
X618312Y186617D01*
X618340Y186643D01*
X618467Y186809D01*
X618598Y186972D01*
X618617Y187005D01*
X618640Y187035D01*
X618739Y187219D01*
X618842Y187400D01*
X618856Y187436D01*
X618874Y187470D01*
X618941Y187667D01*
X619014Y187863D01*
X619021Y187900D01*
X619034Y187936D01*
X619069Y188143D01*
X619109Y188347D01*
X619110Y188385D01*
X619116Y188423D01*
X619117Y188632D01*
X619124Y188840D01*
X619119Y188878D01*
X619119Y188916D01*
X619087Y189123D01*
X619060Y189329D01*
X619049Y189366D01*
X619043Y189403D01*
X618977Y189602D01*
X618917Y189801D01*
X618900Y189836D01*
X618888Y189872D01*
X618792Y190057D01*
X618700Y190245D01*
X618678Y190276D01*
X618660Y190310D01*
X618602Y190382D01*
X618415Y190647D01*
X618294Y190769D01*
X618235Y190843D01*
X616135Y192943D01*
X616048Y193017D01*
X615968Y193098D01*
X615860Y193176D01*
X615759Y193262D01*
X615661Y193321D01*
X615569Y193388D01*
X615450Y193448D01*
X615337Y193517D01*
X615230Y193559D01*
X615129Y193611D01*
X615002Y193651D01*
X614879Y193700D01*
X614767Y193725D01*
X614658Y193759D01*
X614565Y193769D01*
X614397Y193807D01*
X614073Y193825D01*
X613980Y193835D01*
X610120Y193835D01*
X610006Y193826D01*
X609892Y193827D01*
X609760Y193806D01*
X609628Y193795D01*
X609517Y193768D01*
X609404Y193750D01*
X609278Y193709D01*
X609149Y193677D01*
X609044Y193632D01*
X608936Y193596D01*
X608818Y193534D01*
X608696Y193482D01*
X608599Y193421D01*
X608498Y193368D01*
X608424Y193309D01*
X608280Y193217D01*
X608037Y193001D01*
X607965Y192943D01*
X605865Y190843D01*
X605840Y190814D01*
X605812Y190788D01*
X605681Y190626D01*
X605545Y190467D01*
X605526Y190434D01*
X605502Y190404D01*
X605399Y190224D01*
X605291Y190044D01*
X605277Y190009D01*
X605258Y189976D01*
X605185Y189780D01*
X605108Y189586D01*
X605099Y189549D01*
X605086Y189513D01*
X605046Y189308D01*
X605001Y189104D01*
X604999Y189066D01*
X604991Y189029D01*
X604985Y188821D01*
X604973Y188612D01*
X604977Y188574D01*
X604976Y188536D01*
X605003Y188329D01*
X605025Y188121D01*
X605035Y188085D01*
X605040Y188047D01*
X605101Y187847D01*
X605156Y187646D01*
X605172Y187611D01*
X605183Y187574D01*
X605275Y187387D01*
X605362Y187197D01*
X605383Y187165D01*
X605400Y187131D01*
X605521Y186961D01*
X605637Y186788D01*
X605663Y186760D01*
X605685Y186729D01*
X605832Y186580D01*
X605975Y186428D01*
X606005Y186405D01*
X606032Y186378D01*
X606201Y186255D01*
X606366Y186128D01*
X606400Y186110D01*
X606431Y186088D01*
X606617Y185994D01*
X606801Y185895D01*
X606837Y185883D01*
X606871Y185865D01*
X607070Y185803D01*
X607268Y185735D01*
X607305Y185729D01*
X607342Y185717D01*
X607434Y185707D01*
X607754Y185652D01*
X607926Y185651D01*
X608020Y185641D01*
X609753Y185641D01*
X609753Y179147D01*
X605259Y179147D01*
X605259Y182880D01*
X605256Y182919D01*
X605258Y182957D01*
X605236Y183164D01*
X605219Y183372D01*
X605210Y183409D01*
X605206Y183447D01*
X605151Y183649D01*
X605101Y183851D01*
X605085Y183886D01*
X605075Y183923D01*
X604988Y184113D01*
X604906Y184304D01*
X604886Y184337D01*
X604870Y184372D01*
X604753Y184544D01*
X604641Y184720D01*
X604615Y184749D01*
X604594Y184781D01*
X604451Y184933D01*
X604312Y185088D01*
X604283Y185112D01*
X604256Y185140D01*
X604090Y185267D01*
X603929Y185398D01*
X603895Y185417D01*
X603865Y185441D01*
X603681Y185539D01*
X603500Y185642D01*
X603464Y185656D01*
X603430Y185674D01*
X603234Y185741D01*
X603037Y185814D01*
X602999Y185821D01*
X602963Y185834D01*
X602758Y185869D01*
X602553Y185909D01*
X602515Y185910D01*
X602477Y185916D01*
X602267Y185917D01*
X602060Y185924D01*
X602022Y185919D01*
X601984Y185919D01*
X601777Y185887D01*
X601571Y185860D01*
X601534Y185848D01*
X601496Y185842D01*
X601299Y185777D01*
X601099Y185717D01*
X601064Y185700D01*
X601028Y185688D01*
X600843Y185592D01*
X600655Y185500D01*
X600624Y185478D01*
X600590Y185460D01*
X600517Y185402D01*
X600507Y185395D01*
X598113Y184403D01*
X592072Y184403D01*
X591996Y184397D01*
X591920Y184399D01*
X591751Y184377D01*
X591580Y184363D01*
X591506Y184345D01*
X591431Y184335D01*
X591267Y184286D01*
X591101Y184245D01*
X591032Y184215D01*
X590958Y184193D01*
X590805Y184117D01*
X590648Y184050D01*
X590584Y184009D01*
X590515Y183976D01*
X590376Y183877D01*
X590232Y183785D01*
X590175Y183734D01*
X590113Y183690D01*
X589992Y183570D01*
X589864Y183456D01*
X589816Y183397D01*
X589762Y183343D01*
X589661Y183205D01*
X589554Y183072D01*
X589517Y183006D01*
X589472Y182945D01*
X589395Y182792D01*
X589310Y182644D01*
X589284Y182572D01*
X589249Y182504D01*
X589198Y182341D01*
X589139Y182181D01*
X589124Y182106D01*
X589101Y182034D01*
X589089Y181929D01*
X589044Y181697D01*
X589037Y181461D01*
X589025Y181356D01*
X589025Y174571D01*
X588406Y173077D01*
X587700Y172372D01*
X587590Y172242D01*
X587473Y172117D01*
X587430Y172054D01*
X587381Y171996D01*
X587293Y171849D01*
X587197Y171708D01*
X587166Y171639D01*
X587126Y171574D01*
X587063Y171415D01*
X586992Y171259D01*
X586971Y171186D01*
X586943Y171115D01*
X586906Y170949D01*
X586861Y170784D01*
X586853Y170708D01*
X586837Y170634D01*
X586827Y170463D01*
X586809Y170293D01*
X586813Y170217D01*
X586809Y170141D01*
X586827Y169971D01*
X586837Y169800D01*
X586853Y169726D01*
X586861Y169651D01*
X586906Y169486D01*
X586943Y169319D01*
X586967Y169264D01*
X586992Y169175D01*
X587197Y168727D01*
X587210Y168708D01*
X587216Y168694D01*
X587328Y168501D01*
X587501Y167855D01*
X587501Y163269D01*
X578662Y163269D01*
X578586Y163263D01*
X578510Y163265D01*
X578341Y163243D01*
X578170Y163229D01*
X578097Y163211D01*
X578021Y163201D01*
X577857Y163152D01*
X577692Y163111D01*
X577622Y163081D01*
X577549Y163059D01*
X577395Y162983D01*
X577238Y162916D01*
X577174Y162875D01*
X577106Y162842D01*
X576966Y162743D01*
X576822Y162651D01*
X576765Y162600D01*
X576703Y162556D01*
X576582Y162436D01*
X576454Y162322D01*
X576406Y162263D01*
X576352Y162209D01*
X576323Y162169D01*
X576299Y162152D01*
X576177Y162032D01*
X576050Y161918D01*
X576002Y161859D01*
X575948Y161805D01*
X575847Y161667D01*
X575740Y161534D01*
X575703Y161468D01*
X575658Y161406D01*
X575581Y161254D01*
X575496Y161105D01*
X575470Y161034D01*
X575435Y160966D01*
X575384Y160803D01*
X575325Y160643D01*
X575310Y160568D01*
X575287Y160496D01*
X575275Y160391D01*
X575230Y160159D01*
X575223Y159923D01*
X575211Y159818D01*
X575211Y137362D01*
X575217Y137286D01*
X575215Y137210D01*
X575237Y137041D01*
X575251Y136870D01*
X575269Y136797D01*
X575279Y136721D01*
X575328Y136557D01*
X575369Y136392D01*
X575399Y136322D01*
X575421Y136249D01*
X575497Y136095D01*
X575564Y135938D01*
X575605Y135874D01*
X575638Y135806D01*
X575737Y135666D01*
X575829Y135522D01*
X575880Y135465D01*
X575924Y135403D01*
X576044Y135282D01*
X576158Y135154D01*
X576217Y135106D01*
X576270Y135052D01*
X576311Y135023D01*
X576328Y134999D01*
X576448Y134877D01*
X576562Y134750D01*
X576621Y134702D01*
X576675Y134648D01*
X576813Y134547D01*
X576946Y134440D01*
X577012Y134403D01*
X577074Y134358D01*
X577226Y134281D01*
X577375Y134196D01*
X577446Y134170D01*
X577514Y134135D01*
X577677Y134084D01*
X577837Y134025D01*
X577912Y134010D01*
X577984Y133987D01*
X578089Y133975D01*
X578321Y133930D01*
X578557Y133923D01*
X578662Y133911D01*
X587501Y133911D01*
X587501Y129325D01*
X587328Y128679D01*
X587216Y128486D01*
X587143Y128332D01*
X587062Y128181D01*
X587037Y128109D01*
X587005Y128041D01*
X586958Y127876D01*
X586902Y127714D01*
X586889Y127639D01*
X586868Y127567D01*
X586848Y127397D01*
X586819Y127228D01*
X586819Y127152D01*
X586810Y127077D01*
X586817Y126906D01*
X586816Y126735D01*
X586828Y126659D01*
X586832Y126584D01*
X586866Y126417D01*
X586893Y126247D01*
X586917Y126175D01*
X586932Y126101D01*
X586994Y125941D01*
X587047Y125779D01*
X587082Y125711D01*
X587110Y125641D01*
X587196Y125493D01*
X587275Y125341D01*
X587312Y125295D01*
X587359Y125215D01*
X587674Y124835D01*
X587691Y124820D01*
X587700Y124808D01*
X588406Y124102D01*
X589025Y122609D01*
X589025Y105991D01*
X588397Y104476D01*
X588342Y104422D01*
X588264Y104314D01*
X588178Y104213D01*
X588119Y104115D01*
X588052Y104023D01*
X587992Y103904D01*
X587923Y103790D01*
X587881Y103684D01*
X587829Y103582D01*
X587789Y103456D01*
X587740Y103332D01*
X587715Y103221D01*
X587681Y103112D01*
X587671Y103018D01*
X587633Y102851D01*
X587615Y102526D01*
X587605Y102434D01*
X587605Y99764D01*
X587622Y99546D01*
X587636Y99328D01*
X587642Y99301D01*
X587645Y99272D01*
X587697Y99060D01*
X587746Y98847D01*
X587757Y98821D01*
X587763Y98794D01*
X587850Y98592D01*
X587932Y98391D01*
X587947Y98366D01*
X587958Y98340D01*
X588075Y98156D01*
X588189Y97970D01*
X588208Y97948D01*
X588223Y97924D01*
X588368Y97762D01*
X588511Y97596D01*
X588533Y97577D01*
X588552Y97556D01*
X588721Y97419D01*
X588889Y97279D01*
X588909Y97267D01*
X588936Y97246D01*
X589364Y97002D01*
X589440Y96974D01*
X589486Y96949D01*
X590483Y96536D01*
X591626Y95393D01*
X592245Y93899D01*
X592245Y76281D01*
X591626Y74787D01*
X590483Y73644D01*
X589486Y73231D01*
X589291Y73132D01*
X589095Y73036D01*
X589072Y73019D01*
X589047Y73006D01*
X588871Y72876D01*
X588693Y72750D01*
X588673Y72730D01*
X588650Y72713D01*
X588497Y72557D01*
X588342Y72403D01*
X588325Y72380D01*
X588305Y72360D01*
X588180Y72181D01*
X588052Y72005D01*
X588039Y71979D01*
X588022Y71956D01*
X587928Y71759D01*
X587829Y71564D01*
X587821Y71537D01*
X587808Y71511D01*
X587747Y71302D01*
X587681Y71094D01*
X587678Y71070D01*
X587669Y71038D01*
X587608Y70549D01*
X587611Y70468D01*
X587605Y70416D01*
X587605Y36021D01*
X586213Y32660D01*
X583677Y30125D01*
X583603Y30038D01*
X583522Y29957D01*
X583444Y29850D01*
X583358Y29749D01*
X583299Y29651D01*
X583232Y29559D01*
X583172Y29440D01*
X583103Y29326D01*
X583061Y29220D01*
X583009Y29118D01*
X582969Y28991D01*
X582920Y28868D01*
X582895Y28757D01*
X582861Y28648D01*
X582851Y28554D01*
X582813Y28386D01*
X582795Y28062D01*
X582785Y27970D01*
X582785Y23622D01*
X582791Y23546D01*
X582789Y23470D01*
X582811Y23301D01*
X582825Y23130D01*
X582843Y23056D01*
X582853Y22981D01*
X582902Y22817D01*
X582943Y22651D01*
X582973Y22582D01*
X582995Y22508D01*
X583071Y22355D01*
X583138Y22198D01*
X583179Y22134D01*
X583212Y22065D01*
X583311Y21926D01*
X583403Y21782D01*
X583454Y21725D01*
X583498Y21663D01*
X583618Y21542D01*
X583732Y21414D01*
X583791Y21366D01*
X583845Y21312D01*
X583983Y21211D01*
X584116Y21104D01*
X584182Y21067D01*
X584243Y21022D01*
X584396Y20945D01*
X584544Y20860D01*
X584616Y20834D01*
X584684Y20799D01*
X584847Y20748D01*
X585007Y20689D01*
X585082Y20674D01*
X585154Y20651D01*
X585259Y20639D01*
X585491Y20594D01*
X585727Y20587D01*
X585832Y20575D01*
X597408Y20575D01*
X597484Y20581D01*
G37*
G36*
X641531Y191821D02*
X641531Y191821D01*
X641540Y191821D01*
X641777Y191843D01*
X642013Y191864D01*
X642020Y191866D01*
X642031Y191867D01*
X642509Y191992D01*
X642583Y192025D01*
X646272Y192025D01*
X646348Y192031D01*
X646424Y192029D01*
X646593Y192051D01*
X646764Y192065D01*
X646838Y192083D01*
X646913Y192093D01*
X647077Y192142D01*
X647243Y192183D01*
X647312Y192213D01*
X647386Y192235D01*
X647539Y192311D01*
X647696Y192378D01*
X647760Y192419D01*
X647829Y192452D01*
X647968Y192551D01*
X648112Y192643D01*
X648169Y192694D01*
X648231Y192738D01*
X648352Y192858D01*
X648480Y192972D01*
X648528Y193031D01*
X648582Y193085D01*
X648683Y193223D01*
X648790Y193356D01*
X648827Y193422D01*
X648872Y193483D01*
X648949Y193635D01*
X649034Y193784D01*
X649060Y193856D01*
X649095Y193924D01*
X649146Y194087D01*
X649205Y194247D01*
X649220Y194322D01*
X649243Y194394D01*
X649255Y194499D01*
X649300Y194731D01*
X649307Y194967D01*
X649319Y195072D01*
X649319Y200305D01*
X649492Y200951D01*
X650021Y201866D01*
X650094Y202021D01*
X650175Y202172D01*
X650200Y202244D01*
X650232Y202312D01*
X650280Y202477D01*
X650335Y202638D01*
X650348Y202713D01*
X650369Y202786D01*
X650389Y202956D01*
X650418Y203125D01*
X650418Y203201D01*
X650427Y203276D01*
X650420Y203447D01*
X650421Y203618D01*
X650409Y203693D01*
X650406Y203769D01*
X650371Y203936D01*
X650344Y204105D01*
X650320Y204178D01*
X650305Y204252D01*
X650243Y204412D01*
X650190Y204574D01*
X650155Y204641D01*
X650128Y204712D01*
X650041Y204860D01*
X649962Y205012D01*
X649925Y205058D01*
X649878Y205138D01*
X649563Y205518D01*
X649547Y205532D01*
X649537Y205545D01*
X648414Y206668D01*
X647795Y208161D01*
X647795Y221779D01*
X647859Y221932D01*
X647926Y222139D01*
X647997Y222347D01*
X648002Y222375D01*
X648010Y222402D01*
X648043Y222617D01*
X648079Y222833D01*
X648080Y222862D01*
X648084Y222890D01*
X648081Y223108D01*
X648082Y223326D01*
X648078Y223355D01*
X648078Y223383D01*
X648040Y223598D01*
X648006Y223814D01*
X647997Y223841D01*
X647992Y223869D01*
X647920Y224075D01*
X647852Y224282D01*
X647838Y224308D01*
X647829Y224335D01*
X647724Y224526D01*
X647624Y224720D01*
X647609Y224738D01*
X647593Y224768D01*
X647290Y225157D01*
X647231Y225212D01*
X647198Y225253D01*
X646914Y225537D01*
X646295Y227031D01*
X646295Y241649D01*
X646720Y242674D01*
X646755Y242783D01*
X646799Y242888D01*
X646831Y243017D01*
X646871Y243143D01*
X646888Y243256D01*
X646915Y243367D01*
X646925Y243500D01*
X646945Y243631D01*
X646943Y243745D01*
X646952Y243859D01*
X646940Y243992D01*
X646939Y244125D01*
X646919Y244237D01*
X646909Y244351D01*
X646883Y244441D01*
X646853Y244610D01*
X646746Y244917D01*
X646720Y245006D01*
X646295Y246031D01*
X646295Y253910D01*
X646286Y254024D01*
X646287Y254138D01*
X646266Y254269D01*
X646255Y254402D01*
X646228Y254512D01*
X646210Y254625D01*
X646169Y254752D01*
X646137Y254880D01*
X646092Y254985D01*
X646056Y255094D01*
X645994Y255212D01*
X645942Y255334D01*
X645881Y255430D01*
X645828Y255531D01*
X645769Y255605D01*
X645677Y255750D01*
X645585Y255853D01*
X645553Y255898D01*
X645466Y255986D01*
X645461Y255992D01*
X645403Y256065D01*
X632105Y269363D01*
X632018Y269437D01*
X631937Y269518D01*
X631830Y269596D01*
X631729Y269682D01*
X631631Y269741D01*
X631539Y269808D01*
X631420Y269868D01*
X631306Y269937D01*
X631200Y269979D01*
X631098Y270031D01*
X630971Y270071D01*
X630848Y270120D01*
X630737Y270145D01*
X630628Y270179D01*
X630534Y270189D01*
X630366Y270227D01*
X630042Y270245D01*
X629950Y270255D01*
X594614Y270255D01*
X594538Y270249D01*
X594462Y270251D01*
X594293Y270229D01*
X594122Y270215D01*
X594048Y270197D01*
X593973Y270187D01*
X593809Y270138D01*
X593643Y270097D01*
X593574Y270067D01*
X593500Y270045D01*
X593347Y269969D01*
X593190Y269902D01*
X593126Y269861D01*
X593057Y269828D01*
X592918Y269729D01*
X592774Y269637D01*
X592717Y269586D01*
X592655Y269542D01*
X592534Y269422D01*
X592406Y269308D01*
X592358Y269249D01*
X592304Y269195D01*
X592203Y269057D01*
X592096Y268924D01*
X592059Y268858D01*
X592014Y268797D01*
X591937Y268644D01*
X591852Y268496D01*
X591826Y268424D01*
X591791Y268356D01*
X591740Y268193D01*
X591681Y268033D01*
X591666Y267958D01*
X591643Y267886D01*
X591631Y267781D01*
X591586Y267549D01*
X591579Y267313D01*
X591567Y267208D01*
X591567Y245420D01*
X590832Y243646D01*
X589474Y242288D01*
X588526Y241895D01*
X588500Y241882D01*
X588473Y241873D01*
X588281Y241770D01*
X588087Y241670D01*
X588064Y241653D01*
X588038Y241640D01*
X587866Y241507D01*
X587690Y241377D01*
X587670Y241357D01*
X587647Y241339D01*
X587497Y241180D01*
X587345Y241024D01*
X587329Y241001D01*
X587309Y240980D01*
X587187Y240798D01*
X587062Y240620D01*
X587050Y240594D01*
X587034Y240570D01*
X586943Y240372D01*
X586848Y240176D01*
X586840Y240148D01*
X586828Y240122D01*
X586771Y239912D01*
X586709Y239702D01*
X586705Y239674D01*
X586698Y239646D01*
X586675Y239429D01*
X586648Y239213D01*
X586649Y239184D01*
X586646Y239156D01*
X586658Y238938D01*
X586666Y238720D01*
X586672Y238692D01*
X586673Y238663D01*
X586720Y238451D01*
X586764Y238236D01*
X586774Y238209D01*
X586780Y238181D01*
X586813Y238106D01*
X586938Y237775D01*
X587017Y237638D01*
X587053Y237556D01*
X587328Y237081D01*
X587501Y236435D01*
X587501Y231849D01*
X578662Y231849D01*
X578586Y231843D01*
X578510Y231845D01*
X578341Y231823D01*
X578170Y231809D01*
X578097Y231791D01*
X578021Y231781D01*
X577857Y231732D01*
X577692Y231691D01*
X577622Y231661D01*
X577549Y231639D01*
X577395Y231563D01*
X577238Y231496D01*
X577174Y231455D01*
X577106Y231422D01*
X576966Y231323D01*
X576822Y231231D01*
X576765Y231180D01*
X576703Y231136D01*
X576582Y231016D01*
X576454Y230902D01*
X576406Y230843D01*
X576352Y230789D01*
X576323Y230749D01*
X576299Y230732D01*
X576177Y230612D01*
X576050Y230498D01*
X576002Y230439D01*
X575948Y230385D01*
X575847Y230247D01*
X575740Y230114D01*
X575703Y230048D01*
X575658Y229986D01*
X575581Y229834D01*
X575496Y229685D01*
X575470Y229614D01*
X575435Y229546D01*
X575384Y229383D01*
X575325Y229223D01*
X575310Y229148D01*
X575287Y229076D01*
X575275Y228971D01*
X575230Y228739D01*
X575223Y228503D01*
X575211Y228398D01*
X575211Y205942D01*
X575217Y205866D01*
X575215Y205790D01*
X575237Y205621D01*
X575251Y205450D01*
X575269Y205377D01*
X575279Y205301D01*
X575328Y205137D01*
X575369Y204972D01*
X575399Y204902D01*
X575421Y204829D01*
X575497Y204675D01*
X575564Y204518D01*
X575605Y204454D01*
X575638Y204386D01*
X575737Y204246D01*
X575829Y204102D01*
X575880Y204045D01*
X575924Y203983D01*
X576044Y203862D01*
X576158Y203734D01*
X576217Y203686D01*
X576270Y203632D01*
X576311Y203603D01*
X576328Y203579D01*
X576448Y203457D01*
X576562Y203330D01*
X576621Y203282D01*
X576675Y203228D01*
X576813Y203127D01*
X576946Y203020D01*
X577012Y202983D01*
X577074Y202938D01*
X577226Y202861D01*
X577375Y202776D01*
X577446Y202750D01*
X577514Y202715D01*
X577677Y202664D01*
X577837Y202605D01*
X577912Y202590D01*
X577984Y202567D01*
X578089Y202555D01*
X578321Y202510D01*
X578557Y202503D01*
X578662Y202491D01*
X587501Y202491D01*
X587501Y199644D01*
X587507Y199568D01*
X587505Y199492D01*
X587527Y199323D01*
X587541Y199152D01*
X587559Y199078D01*
X587569Y199003D01*
X587618Y198839D01*
X587659Y198673D01*
X587689Y198604D01*
X587711Y198530D01*
X587787Y198377D01*
X587854Y198220D01*
X587895Y198156D01*
X587928Y198087D01*
X588027Y197948D01*
X588119Y197804D01*
X588170Y197747D01*
X588214Y197685D01*
X588334Y197564D01*
X588448Y197436D01*
X588507Y197388D01*
X588561Y197334D01*
X588699Y197233D01*
X588832Y197126D01*
X588898Y197089D01*
X588959Y197044D01*
X589112Y196967D01*
X589260Y196882D01*
X589332Y196856D01*
X589400Y196821D01*
X589563Y196770D01*
X589723Y196711D01*
X589798Y196696D01*
X589870Y196673D01*
X589975Y196661D01*
X590207Y196616D01*
X590443Y196609D01*
X590548Y196597D01*
X593112Y196597D01*
X593226Y196606D01*
X593340Y196605D01*
X593472Y196626D01*
X593604Y196637D01*
X593715Y196664D01*
X593828Y196682D01*
X593954Y196723D01*
X594083Y196755D01*
X594188Y196800D01*
X594296Y196836D01*
X594414Y196898D01*
X594536Y196950D01*
X594633Y197011D01*
X594734Y197064D01*
X594808Y197123D01*
X594952Y197215D01*
X595194Y197431D01*
X595267Y197489D01*
X602843Y205065D01*
X602917Y205152D01*
X602998Y205232D01*
X603076Y205339D01*
X603162Y205441D01*
X603221Y205539D01*
X603288Y205631D01*
X603348Y205750D01*
X603417Y205863D01*
X603459Y205969D01*
X603511Y206071D01*
X603551Y206198D01*
X603600Y206321D01*
X603625Y206433D01*
X603659Y206542D01*
X603669Y206635D01*
X603707Y206803D01*
X603725Y207127D01*
X603735Y207220D01*
X603735Y212709D01*
X604354Y214203D01*
X605497Y215346D01*
X606991Y215965D01*
X610188Y215965D01*
X610264Y215971D01*
X610340Y215969D01*
X610509Y215991D01*
X610680Y216005D01*
X610754Y216023D01*
X610829Y216033D01*
X610993Y216082D01*
X611159Y216123D01*
X611228Y216153D01*
X611302Y216175D01*
X611455Y216251D01*
X611612Y216318D01*
X611676Y216359D01*
X611745Y216392D01*
X611884Y216491D01*
X612028Y216583D01*
X612085Y216634D01*
X612147Y216678D01*
X612268Y216798D01*
X612396Y216912D01*
X612444Y216971D01*
X612498Y217025D01*
X612599Y217163D01*
X612706Y217296D01*
X612743Y217362D01*
X612788Y217423D01*
X612865Y217576D01*
X612950Y217724D01*
X612976Y217796D01*
X613011Y217864D01*
X613062Y218027D01*
X613121Y218187D01*
X613136Y218262D01*
X613159Y218334D01*
X613171Y218439D01*
X613216Y218671D01*
X613223Y218907D01*
X613235Y219012D01*
X613235Y224282D01*
X613234Y224291D01*
X613235Y224301D01*
X613214Y224537D01*
X613195Y224773D01*
X613193Y224783D01*
X613192Y224793D01*
X613181Y224831D01*
X613155Y224935D01*
X613155Y255819D01*
X614547Y259180D01*
X617120Y261753D01*
X620481Y263145D01*
X624119Y263145D01*
X627480Y261753D01*
X630053Y259180D01*
X631445Y255819D01*
X631445Y224974D01*
X631444Y224969D01*
X631441Y224959D01*
X631437Y224919D01*
X631372Y224491D01*
X631374Y224360D01*
X631365Y224282D01*
X631365Y219091D01*
X631184Y218654D01*
X631128Y218482D01*
X631065Y218313D01*
X631053Y218248D01*
X631032Y218185D01*
X631005Y218005D01*
X630971Y217829D01*
X630969Y217763D01*
X630959Y217697D01*
X630961Y217516D01*
X630955Y217336D01*
X630964Y217270D01*
X630965Y217203D01*
X630996Y217026D01*
X631020Y216847D01*
X631039Y216783D01*
X631051Y216718D01*
X631110Y216548D01*
X631162Y216374D01*
X631192Y216315D01*
X631214Y216252D01*
X631300Y216093D01*
X631379Y215931D01*
X631418Y215877D01*
X631449Y215819D01*
X631560Y215676D01*
X631665Y215529D01*
X631711Y215482D01*
X631752Y215429D01*
X631885Y215306D01*
X632011Y215178D01*
X632065Y215139D01*
X632114Y215094D01*
X632264Y214994D01*
X632410Y214888D01*
X632470Y214858D01*
X632525Y214821D01*
X632689Y214747D01*
X632851Y214665D01*
X632914Y214645D01*
X632975Y214618D01*
X633149Y214571D01*
X633321Y214517D01*
X633374Y214511D01*
X633451Y214490D01*
X633942Y214441D01*
X633976Y214443D01*
X633999Y214441D01*
X637135Y214441D01*
X637781Y214268D01*
X638360Y213933D01*
X638833Y213460D01*
X639168Y212881D01*
X639341Y212235D01*
X639341Y207947D01*
X631800Y207947D01*
X631724Y207941D01*
X631648Y207944D01*
X631479Y207921D01*
X631309Y207907D01*
X631235Y207889D01*
X631159Y207879D01*
X630995Y207830D01*
X630830Y207789D01*
X630760Y207759D01*
X630687Y207737D01*
X630533Y207662D01*
X630376Y207594D01*
X630312Y207553D01*
X630244Y207520D01*
X630104Y207421D01*
X629960Y207329D01*
X629904Y207278D01*
X629841Y207234D01*
X629720Y207114D01*
X629592Y207000D01*
X629545Y206941D01*
X629490Y206888D01*
X629390Y206749D01*
X629283Y206617D01*
X629245Y206550D01*
X629200Y206489D01*
X629123Y206336D01*
X629039Y206188D01*
X629012Y206116D01*
X628978Y206048D01*
X628926Y205886D01*
X628867Y205725D01*
X628852Y205651D01*
X628829Y205578D01*
X628818Y205473D01*
X628772Y205241D01*
X628765Y205005D01*
X628753Y204900D01*
X628759Y204824D01*
X628757Y204748D01*
X628779Y204578D01*
X628793Y204408D01*
X628811Y204334D01*
X628821Y204259D01*
X628871Y204095D01*
X628912Y203929D01*
X628942Y203859D01*
X628964Y203786D01*
X629039Y203633D01*
X629106Y203476D01*
X629147Y203412D01*
X629181Y203343D01*
X629280Y203204D01*
X629371Y203060D01*
X629422Y203003D01*
X629466Y202941D01*
X629586Y202819D01*
X629700Y202692D01*
X629759Y202644D01*
X629813Y202590D01*
X629951Y202489D01*
X630084Y202382D01*
X630150Y202344D01*
X630212Y202299D01*
X630364Y202223D01*
X630513Y202138D01*
X630584Y202111D01*
X630652Y202077D01*
X630815Y202026D01*
X630975Y201966D01*
X631050Y201952D01*
X631123Y201929D01*
X631227Y201917D01*
X631459Y201872D01*
X631695Y201864D01*
X631800Y201853D01*
X639341Y201853D01*
X639341Y197565D01*
X639168Y196919D01*
X638863Y196391D01*
X638762Y196178D01*
X638658Y195963D01*
X638656Y195954D01*
X638651Y195945D01*
X638585Y195713D01*
X638519Y195490D01*
X638518Y195481D01*
X638515Y195471D01*
X638487Y195236D01*
X638457Y195000D01*
X638458Y194991D01*
X638457Y194982D01*
X638467Y194746D01*
X638476Y194507D01*
X638478Y194498D01*
X638478Y194489D01*
X638527Y194257D01*
X638574Y194024D01*
X638577Y194015D01*
X638579Y194006D01*
X638665Y193782D01*
X638748Y193562D01*
X638753Y193554D01*
X638756Y193545D01*
X638876Y193341D01*
X638995Y193135D01*
X639001Y193128D01*
X639006Y193120D01*
X639158Y192936D01*
X639307Y192753D01*
X639314Y192747D01*
X639320Y192740D01*
X639501Y192583D01*
X639677Y192427D01*
X639685Y192422D01*
X639692Y192416D01*
X639894Y192291D01*
X640095Y192165D01*
X640104Y192161D01*
X640112Y192156D01*
X640331Y192065D01*
X640550Y191973D01*
X640559Y191971D01*
X640568Y191967D01*
X640799Y191913D01*
X641029Y191857D01*
X641039Y191857D01*
X641048Y191854D01*
X641283Y191838D01*
X641521Y191821D01*
X641531Y191821D01*
G37*
G36*
X509317Y20578D02*
X509317Y20578D01*
X509355Y20576D01*
X509563Y20598D01*
X509771Y20615D01*
X509808Y20624D01*
X509846Y20628D01*
X510047Y20683D01*
X510250Y20733D01*
X510285Y20748D01*
X510322Y20759D01*
X510511Y20845D01*
X510703Y20928D01*
X510735Y20948D01*
X510770Y20964D01*
X510943Y21081D01*
X511119Y21193D01*
X511147Y21218D01*
X511179Y21240D01*
X511332Y21383D01*
X511487Y21522D01*
X511511Y21551D01*
X511539Y21578D01*
X511666Y21743D01*
X511797Y21906D01*
X511816Y21939D01*
X511839Y21969D01*
X511938Y22153D01*
X512041Y22334D01*
X512054Y22370D01*
X512072Y22404D01*
X512140Y22601D01*
X512213Y22797D01*
X512220Y22834D01*
X512232Y22870D01*
X512267Y23076D01*
X512307Y23281D01*
X512308Y23319D01*
X512315Y23357D01*
X512316Y23566D01*
X512323Y23774D01*
X512318Y23812D01*
X512318Y23850D01*
X512285Y24057D01*
X512258Y24263D01*
X512247Y24300D01*
X512241Y24337D01*
X512176Y24535D01*
X512116Y24735D01*
X512099Y24770D01*
X512087Y24806D01*
X511991Y24991D01*
X511899Y25179D01*
X511877Y25210D01*
X511859Y25244D01*
X511801Y25316D01*
X511613Y25581D01*
X511492Y25703D01*
X511434Y25777D01*
X510939Y26271D01*
X510939Y27433D01*
X521100Y27433D01*
X521176Y27439D01*
X521252Y27436D01*
X521421Y27459D01*
X521591Y27473D01*
X521665Y27491D01*
X521741Y27501D01*
X521905Y27550D01*
X522070Y27591D01*
X522140Y27621D01*
X522213Y27643D01*
X522367Y27718D01*
X522524Y27786D01*
X522588Y27827D01*
X522656Y27860D01*
X522796Y27959D01*
X522940Y28051D01*
X522996Y28102D01*
X523059Y28146D01*
X523180Y28266D01*
X523308Y28380D01*
X523356Y28439D01*
X523410Y28492D01*
X523410Y28493D01*
X523511Y28631D01*
X523618Y28764D01*
X523656Y28830D01*
X523700Y28892D01*
X523777Y29044D01*
X523862Y29193D01*
X523888Y29264D01*
X523923Y29332D01*
X523974Y29495D01*
X524034Y29655D01*
X524048Y29730D01*
X524071Y29803D01*
X524083Y29907D01*
X524128Y30139D01*
X524136Y30375D01*
X524147Y30480D01*
X524147Y40641D01*
X525309Y40641D01*
X530368Y35582D01*
X530426Y35532D01*
X530478Y35477D01*
X530613Y35373D01*
X530744Y35262D01*
X530809Y35223D01*
X530869Y35177D01*
X531020Y35096D01*
X531166Y35008D01*
X531237Y34979D01*
X531304Y34943D01*
X531466Y34888D01*
X531624Y34825D01*
X531698Y34808D01*
X531771Y34783D01*
X531939Y34755D01*
X532106Y34718D01*
X532182Y34714D01*
X532257Y34701D01*
X532428Y34700D01*
X532598Y34690D01*
X532674Y34698D01*
X532750Y34698D01*
X532919Y34724D01*
X533089Y34742D01*
X533162Y34763D01*
X533238Y34774D01*
X533400Y34828D01*
X533565Y34873D01*
X533634Y34905D01*
X533706Y34929D01*
X533858Y35008D01*
X534013Y35079D01*
X534076Y35121D01*
X534144Y35157D01*
X534226Y35222D01*
X534422Y35354D01*
X534595Y35516D01*
X534677Y35582D01*
X536063Y36967D01*
X536137Y37054D01*
X536218Y37135D01*
X536296Y37242D01*
X536382Y37343D01*
X536441Y37441D01*
X536508Y37533D01*
X536568Y37652D01*
X536637Y37766D01*
X536679Y37872D01*
X536731Y37974D01*
X536771Y38101D01*
X536820Y38224D01*
X536845Y38335D01*
X536879Y38444D01*
X536889Y38538D01*
X536927Y38706D01*
X536945Y39030D01*
X536955Y39122D01*
X536955Y51308D01*
X536949Y51384D01*
X536951Y51460D01*
X536929Y51629D01*
X536915Y51800D01*
X536897Y51874D01*
X536887Y51949D01*
X536838Y52113D01*
X536797Y52279D01*
X536767Y52348D01*
X536745Y52422D01*
X536669Y52575D01*
X536602Y52732D01*
X536561Y52796D01*
X536528Y52865D01*
X536429Y53004D01*
X536337Y53148D01*
X536286Y53205D01*
X536242Y53267D01*
X536122Y53388D01*
X536008Y53516D01*
X535949Y53564D01*
X535895Y53618D01*
X535757Y53719D01*
X535624Y53826D01*
X535558Y53863D01*
X535497Y53908D01*
X535344Y53985D01*
X535196Y54070D01*
X535124Y54096D01*
X535056Y54131D01*
X534893Y54182D01*
X534733Y54241D01*
X534658Y54256D01*
X534586Y54279D01*
X534481Y54291D01*
X534249Y54336D01*
X534013Y54343D01*
X533908Y54355D01*
X468992Y54355D01*
X468916Y54349D01*
X468840Y54351D01*
X468671Y54329D01*
X468500Y54315D01*
X468426Y54297D01*
X468351Y54287D01*
X468187Y54238D01*
X468021Y54197D01*
X467952Y54167D01*
X467878Y54145D01*
X467725Y54069D01*
X467568Y54002D01*
X467504Y53961D01*
X467435Y53928D01*
X467296Y53829D01*
X467152Y53737D01*
X467095Y53686D01*
X467033Y53642D01*
X466912Y53522D01*
X466784Y53408D01*
X466736Y53349D01*
X466682Y53295D01*
X466581Y53157D01*
X466474Y53024D01*
X466437Y52958D01*
X466392Y52897D01*
X466315Y52744D01*
X466230Y52596D01*
X466204Y52524D01*
X466169Y52456D01*
X466118Y52293D01*
X466059Y52133D01*
X466044Y52058D01*
X466021Y51986D01*
X466009Y51881D01*
X465964Y51649D01*
X465957Y51413D01*
X465945Y51308D01*
X465945Y43586D01*
X465949Y43535D01*
X465949Y43527D01*
X465951Y43507D01*
X465954Y43472D01*
X465953Y43358D01*
X465974Y43226D01*
X465985Y43094D01*
X466012Y42983D01*
X466030Y42870D01*
X466071Y42744D01*
X466103Y42615D01*
X466148Y42510D01*
X466184Y42402D01*
X466245Y42284D01*
X466298Y42162D01*
X466359Y42066D01*
X466412Y41964D01*
X466471Y41891D01*
X466563Y41746D01*
X466779Y41504D01*
X466837Y41431D01*
X467866Y40402D01*
X468485Y38909D01*
X468485Y23622D01*
X468491Y23546D01*
X468489Y23470D01*
X468511Y23301D01*
X468525Y23130D01*
X468543Y23056D01*
X468553Y22981D01*
X468602Y22817D01*
X468643Y22651D01*
X468673Y22582D01*
X468695Y22508D01*
X468771Y22355D01*
X468838Y22198D01*
X468879Y22134D01*
X468912Y22065D01*
X469011Y21926D01*
X469103Y21782D01*
X469154Y21725D01*
X469198Y21663D01*
X469318Y21542D01*
X469432Y21414D01*
X469491Y21366D01*
X469545Y21312D01*
X469683Y21211D01*
X469816Y21104D01*
X469882Y21067D01*
X469943Y21022D01*
X470096Y20945D01*
X470244Y20860D01*
X470316Y20834D01*
X470384Y20799D01*
X470547Y20748D01*
X470707Y20689D01*
X470782Y20674D01*
X470854Y20651D01*
X470959Y20639D01*
X471191Y20594D01*
X471427Y20587D01*
X471532Y20575D01*
X509279Y20575D01*
X509317Y20578D01*
G37*
%LPC*%
G36*
X641268Y305435D02*
X641268Y305435D01*
X634077Y308414D01*
X628574Y313917D01*
X625595Y321108D01*
X625595Y328892D01*
X628574Y336083D01*
X634077Y341586D01*
X641268Y344565D01*
X649052Y344565D01*
X656243Y341586D01*
X661746Y336083D01*
X664725Y328892D01*
X664725Y321108D01*
X661746Y313917D01*
X656243Y308414D01*
X649052Y305435D01*
X641268Y305435D01*
G37*
%LPD*%
%LPC*%
G36*
X31668Y305435D02*
X31668Y305435D01*
X24477Y308414D01*
X18974Y313917D01*
X15995Y321108D01*
X15995Y328892D01*
X18974Y336083D01*
X24477Y341586D01*
X31668Y344565D01*
X39452Y344565D01*
X46643Y341586D01*
X52146Y336083D01*
X55125Y328892D01*
X55125Y321108D01*
X52146Y313917D01*
X46643Y308414D01*
X39452Y305435D01*
X31668Y305435D01*
G37*
%LPD*%
%LPC*%
G36*
X641268Y18535D02*
X641268Y18535D01*
X634077Y21514D01*
X628574Y27017D01*
X625595Y34208D01*
X625595Y41992D01*
X628574Y49183D01*
X634077Y54686D01*
X641268Y57665D01*
X649052Y57665D01*
X656243Y54686D01*
X661746Y49183D01*
X664725Y41992D01*
X664725Y34208D01*
X661746Y27017D01*
X656243Y21514D01*
X649052Y18535D01*
X641268Y18535D01*
G37*
%LPD*%
%LPC*%
G36*
X31668Y18535D02*
X31668Y18535D01*
X24477Y21514D01*
X18974Y27017D01*
X15995Y34208D01*
X15995Y41992D01*
X18974Y49183D01*
X24477Y54686D01*
X31668Y57665D01*
X39452Y57665D01*
X46643Y54686D01*
X52146Y49183D01*
X55125Y41992D01*
X55125Y34208D01*
X52146Y27017D01*
X46643Y21514D01*
X39452Y18535D01*
X31668Y18535D01*
G37*
%LPD*%
%LPC*%
G36*
X457458Y293417D02*
X457458Y293417D01*
X456267Y294608D01*
X456267Y302292D01*
X457458Y303483D01*
X481142Y303483D01*
X482333Y302292D01*
X482333Y294608D01*
X481142Y293417D01*
X457458Y293417D01*
G37*
%LPD*%
%LPC*%
G36*
X509458Y293417D02*
X509458Y293417D01*
X508267Y294608D01*
X508267Y302292D01*
X509458Y303483D01*
X533142Y303483D01*
X534333Y302292D01*
X534333Y294608D01*
X533142Y293417D01*
X509458Y293417D01*
G37*
%LPD*%
%LPC*%
G36*
X572419Y330869D02*
X572419Y330869D01*
X572419Y339411D01*
X580755Y339411D01*
X581401Y339238D01*
X581980Y338903D01*
X582453Y338430D01*
X582788Y337851D01*
X582961Y337205D01*
X582961Y330869D01*
X572419Y330869D01*
G37*
%LPD*%
%LPC*%
G36*
X549879Y330869D02*
X549879Y330869D01*
X549879Y337205D01*
X550052Y337851D01*
X550387Y338430D01*
X550860Y338903D01*
X551439Y339238D01*
X552085Y339411D01*
X560421Y339411D01*
X560421Y330869D01*
X549879Y330869D01*
G37*
%LPD*%
%LPC*%
G36*
X581709Y208989D02*
X581709Y208989D01*
X581709Y225351D01*
X587501Y225351D01*
X587501Y220765D01*
X587328Y220119D01*
X586993Y219540D01*
X586778Y219325D01*
X586729Y219267D01*
X586673Y219215D01*
X586569Y219079D01*
X586458Y218949D01*
X586419Y218884D01*
X586373Y218823D01*
X586292Y218673D01*
X586204Y218526D01*
X586176Y218456D01*
X586140Y218388D01*
X586084Y218226D01*
X586021Y218068D01*
X586004Y217994D01*
X585980Y217922D01*
X585951Y217753D01*
X585914Y217587D01*
X585910Y217511D01*
X585897Y217435D01*
X585896Y217264D01*
X585886Y217094D01*
X585894Y217018D01*
X585894Y216942D01*
X585920Y216773D01*
X585938Y216603D01*
X585959Y216530D01*
X585971Y216455D01*
X586024Y216292D01*
X586069Y216128D01*
X586101Y216059D01*
X586125Y215986D01*
X586204Y215834D01*
X586275Y215679D01*
X586317Y215616D01*
X586353Y215548D01*
X586418Y215466D01*
X586550Y215270D01*
X586712Y215098D01*
X586778Y215015D01*
X586993Y214800D01*
X587328Y214221D01*
X587501Y213575D01*
X587501Y208989D01*
X581709Y208989D01*
G37*
%LPD*%
%LPC*%
G36*
X581709Y140409D02*
X581709Y140409D01*
X581709Y156771D01*
X587501Y156771D01*
X587501Y152185D01*
X587328Y151539D01*
X586993Y150960D01*
X586778Y150745D01*
X586729Y150687D01*
X586673Y150635D01*
X586569Y150499D01*
X586458Y150369D01*
X586419Y150304D01*
X586373Y150243D01*
X586292Y150093D01*
X586204Y149946D01*
X586176Y149876D01*
X586140Y149808D01*
X586084Y149646D01*
X586021Y149488D01*
X586004Y149414D01*
X585980Y149342D01*
X585951Y149173D01*
X585914Y149007D01*
X585910Y148931D01*
X585897Y148855D01*
X585896Y148684D01*
X585886Y148514D01*
X585894Y148438D01*
X585894Y148362D01*
X585920Y148193D01*
X585938Y148023D01*
X585959Y147950D01*
X585971Y147875D01*
X586024Y147712D01*
X586069Y147548D01*
X586101Y147479D01*
X586125Y147406D01*
X586204Y147254D01*
X586275Y147099D01*
X586317Y147036D01*
X586353Y146968D01*
X586418Y146886D01*
X586550Y146690D01*
X586712Y146518D01*
X586778Y146435D01*
X586993Y146220D01*
X587328Y145641D01*
X587501Y144995D01*
X587501Y140409D01*
X581709Y140409D01*
G37*
%LPD*%
%LPC*%
G36*
X117347Y117347D02*
X117347Y117347D01*
X117347Y124461D01*
X122255Y124461D01*
X122901Y124288D01*
X123480Y123953D01*
X123953Y123480D01*
X124288Y122901D01*
X124461Y122255D01*
X124461Y120787D01*
X124464Y120749D01*
X124462Y120711D01*
X124484Y120503D01*
X124501Y120295D01*
X124510Y120258D01*
X124514Y120220D01*
X124569Y120019D01*
X124619Y119816D01*
X124634Y119781D01*
X124645Y119745D01*
X124732Y119555D01*
X124814Y119363D01*
X124834Y119331D01*
X124850Y119296D01*
X124967Y119123D01*
X125079Y118947D01*
X125104Y118918D01*
X125126Y118887D01*
X125269Y118735D01*
X125408Y118579D01*
X125437Y118555D01*
X125463Y118527D01*
X125629Y118400D01*
X125792Y118269D01*
X125825Y118250D01*
X125855Y118227D01*
X126039Y118128D01*
X126220Y118025D01*
X126256Y118012D01*
X126290Y117994D01*
X126487Y117926D01*
X126683Y117853D01*
X126720Y117846D01*
X126756Y117834D01*
X126963Y117799D01*
X127167Y117759D01*
X127205Y117758D01*
X127243Y117751D01*
X127452Y117750D01*
X127660Y117743D01*
X127698Y117748D01*
X127736Y117748D01*
X127943Y117781D01*
X128149Y117808D01*
X128186Y117819D01*
X128223Y117825D01*
X128422Y117890D01*
X128621Y117950D01*
X128656Y117967D01*
X128692Y117979D01*
X128877Y118076D01*
X129065Y118167D01*
X129096Y118189D01*
X129130Y118207D01*
X129202Y118265D01*
X129467Y118453D01*
X129589Y118573D01*
X129663Y118632D01*
X135491Y124461D01*
X136653Y124461D01*
X136653Y117347D01*
X117347Y117347D01*
G37*
%LPD*%
%LPC*%
G36*
X117347Y104139D02*
X117347Y104139D01*
X117347Y111253D01*
X136653Y111253D01*
X136653Y104139D01*
X135491Y104139D01*
X129663Y109968D01*
X129634Y109993D01*
X129608Y110021D01*
X129446Y110152D01*
X129287Y110287D01*
X129254Y110307D01*
X129224Y110331D01*
X129043Y110434D01*
X128864Y110542D01*
X128829Y110556D01*
X128796Y110575D01*
X128600Y110648D01*
X128406Y110725D01*
X128369Y110733D01*
X128333Y110747D01*
X128128Y110787D01*
X127924Y110832D01*
X127886Y110834D01*
X127849Y110841D01*
X127641Y110848D01*
X127432Y110859D01*
X127394Y110855D01*
X127356Y110857D01*
X127149Y110829D01*
X126941Y110807D01*
X126905Y110797D01*
X126867Y110792D01*
X126667Y110732D01*
X126466Y110677D01*
X126431Y110661D01*
X126394Y110650D01*
X126207Y110558D01*
X126017Y110471D01*
X125985Y110449D01*
X125951Y110433D01*
X125782Y110312D01*
X125608Y110195D01*
X125580Y110169D01*
X125549Y110147D01*
X125401Y110001D01*
X125248Y109858D01*
X125225Y109827D01*
X125198Y109801D01*
X125075Y109632D01*
X124948Y109466D01*
X124930Y109433D01*
X124908Y109402D01*
X124814Y109216D01*
X124715Y109032D01*
X124702Y108995D01*
X124685Y108961D01*
X124623Y108763D01*
X124555Y108565D01*
X124549Y108527D01*
X124537Y108491D01*
X124527Y108398D01*
X124472Y108078D01*
X124471Y107906D01*
X124461Y107813D01*
X124461Y106345D01*
X124288Y105699D01*
X123953Y105120D01*
X123480Y104647D01*
X122901Y104312D01*
X122255Y104139D01*
X117347Y104139D01*
G37*
%LPD*%
%LPC*%
G36*
X528179Y89089D02*
X528179Y89089D01*
X528179Y95631D01*
X534515Y95631D01*
X535161Y95458D01*
X535740Y95123D01*
X536213Y94650D01*
X536548Y94071D01*
X536721Y93425D01*
X536721Y89089D01*
X528179Y89089D01*
G37*
%LPD*%
%LPC*%
G36*
X511639Y89089D02*
X511639Y89089D01*
X511639Y93425D01*
X511812Y94071D01*
X512147Y94650D01*
X512620Y95123D01*
X513199Y95458D01*
X513845Y95631D01*
X520181Y95631D01*
X520181Y89089D01*
X511639Y89089D01*
G37*
%LPD*%
%LPC*%
G36*
X104139Y117347D02*
X104139Y117347D01*
X104139Y122255D01*
X104312Y122901D01*
X104647Y123480D01*
X105120Y123953D01*
X105699Y124288D01*
X106345Y124461D01*
X111253Y124461D01*
X111253Y117347D01*
X104139Y117347D01*
G37*
%LPD*%
%LPC*%
G36*
X106345Y104139D02*
X106345Y104139D01*
X105699Y104312D01*
X105120Y104647D01*
X104647Y105120D01*
X104312Y105699D01*
X104139Y106345D01*
X104139Y111253D01*
X111253Y111253D01*
X111253Y104139D01*
X106345Y104139D01*
G37*
%LPD*%
%LPC*%
G36*
X444549Y165809D02*
X444549Y165809D01*
X444549Y172601D01*
X448135Y172601D01*
X448781Y172428D01*
X449360Y172093D01*
X449833Y171620D01*
X450168Y171041D01*
X450341Y170395D01*
X450341Y165809D01*
X444549Y165809D01*
G37*
%LPD*%
%LPC*%
G36*
X307158Y33527D02*
X307158Y33527D01*
X307158Y34847D01*
X313333Y41022D01*
X314653Y41022D01*
X314653Y33527D01*
X307158Y33527D01*
G37*
%LPD*%
%LPC*%
G36*
X178608Y117347D02*
X178608Y117347D01*
X178678Y117370D01*
X178842Y117415D01*
X178912Y117447D01*
X178984Y117471D01*
X179135Y117550D01*
X179291Y117621D01*
X179354Y117664D01*
X179422Y117699D01*
X179504Y117764D01*
X179700Y117897D01*
X179873Y118059D01*
X179955Y118124D01*
X186291Y124461D01*
X187453Y124461D01*
X187453Y117347D01*
X178608Y117347D01*
G37*
%LPD*%
%LPC*%
G36*
X204008Y117347D02*
X204008Y117347D01*
X204078Y117370D01*
X204242Y117415D01*
X204312Y117447D01*
X204384Y117471D01*
X204535Y117550D01*
X204691Y117621D01*
X204754Y117664D01*
X204822Y117699D01*
X204904Y117764D01*
X205100Y117897D01*
X205273Y118059D01*
X205355Y118124D01*
X211691Y124461D01*
X212853Y124461D01*
X212853Y117347D01*
X204008Y117347D01*
G37*
%LPD*%
%LPC*%
G36*
X153208Y117347D02*
X153208Y117347D01*
X153278Y117370D01*
X153442Y117415D01*
X153512Y117447D01*
X153584Y117471D01*
X153735Y117550D01*
X153891Y117621D01*
X153954Y117664D01*
X154022Y117699D01*
X154104Y117764D01*
X154300Y117897D01*
X154473Y118059D01*
X154555Y118124D01*
X160891Y124461D01*
X162053Y124461D01*
X162053Y117347D01*
X153208Y117347D01*
G37*
%LPD*%
%LPC*%
G36*
X142747Y104139D02*
X142747Y104139D01*
X142747Y111253D01*
X151592Y111253D01*
X151522Y111230D01*
X151358Y111185D01*
X151288Y111153D01*
X151216Y111129D01*
X151065Y111050D01*
X150909Y110979D01*
X150846Y110936D01*
X150778Y110901D01*
X150696Y110835D01*
X150500Y110703D01*
X150328Y110542D01*
X150245Y110476D01*
X143909Y104139D01*
X142747Y104139D01*
G37*
%LPD*%
%LPC*%
G36*
X193547Y104139D02*
X193547Y104139D01*
X193547Y111253D01*
X202392Y111253D01*
X202322Y111230D01*
X202158Y111185D01*
X202088Y111153D01*
X202016Y111129D01*
X201865Y111050D01*
X201709Y110979D01*
X201646Y110936D01*
X201578Y110901D01*
X201496Y110835D01*
X201300Y110703D01*
X201128Y110542D01*
X201045Y110476D01*
X194709Y104139D01*
X193547Y104139D01*
G37*
%LPD*%
%LPC*%
G36*
X168147Y104139D02*
X168147Y104139D01*
X168147Y111253D01*
X176992Y111253D01*
X176922Y111230D01*
X176758Y111185D01*
X176688Y111153D01*
X176616Y111129D01*
X176465Y111050D01*
X176309Y110979D01*
X176246Y110936D01*
X176178Y110901D01*
X176096Y110835D01*
X175900Y110703D01*
X175728Y110542D01*
X175645Y110476D01*
X169309Y104139D01*
X168147Y104139D01*
G37*
%LPD*%
%LPC*%
G36*
X193547Y117347D02*
X193547Y117347D01*
X193547Y124461D01*
X194709Y124461D01*
X201045Y118124D01*
X201103Y118075D01*
X201155Y118019D01*
X201291Y117915D01*
X201421Y117805D01*
X201487Y117765D01*
X201547Y117719D01*
X201697Y117638D01*
X201844Y117550D01*
X201914Y117522D01*
X201982Y117486D01*
X202143Y117430D01*
X202302Y117367D01*
X202376Y117351D01*
X202385Y117347D01*
X193547Y117347D01*
G37*
%LPD*%
%LPC*%
G36*
X168147Y117347D02*
X168147Y117347D01*
X168147Y124461D01*
X169309Y124461D01*
X175645Y118124D01*
X175703Y118075D01*
X175755Y118019D01*
X175891Y117915D01*
X176021Y117805D01*
X176087Y117765D01*
X176147Y117719D01*
X176297Y117638D01*
X176444Y117550D01*
X176514Y117522D01*
X176582Y117486D01*
X176743Y117430D01*
X176902Y117367D01*
X176976Y117351D01*
X176985Y117347D01*
X168147Y117347D01*
G37*
%LPD*%
%LPC*%
G36*
X142747Y117347D02*
X142747Y117347D01*
X142747Y124461D01*
X143909Y124461D01*
X150245Y118124D01*
X150303Y118075D01*
X150355Y118019D01*
X150491Y117915D01*
X150621Y117805D01*
X150687Y117765D01*
X150747Y117719D01*
X150897Y117638D01*
X151044Y117550D01*
X151114Y117522D01*
X151182Y117486D01*
X151343Y117430D01*
X151502Y117367D01*
X151576Y117351D01*
X151585Y117347D01*
X142747Y117347D01*
G37*
%LPD*%
%LPC*%
G36*
X186291Y104139D02*
X186291Y104139D01*
X179955Y110476D01*
X179897Y110525D01*
X179844Y110581D01*
X179709Y110685D01*
X179579Y110795D01*
X179513Y110835D01*
X179453Y110881D01*
X179303Y110962D01*
X179156Y111050D01*
X179085Y111078D01*
X179018Y111114D01*
X178857Y111170D01*
X178698Y111233D01*
X178624Y111249D01*
X178615Y111253D01*
X187453Y111253D01*
X187453Y104139D01*
X186291Y104139D01*
G37*
%LPD*%
%LPC*%
G36*
X211691Y104139D02*
X211691Y104139D01*
X205355Y110476D01*
X205297Y110525D01*
X205244Y110581D01*
X205109Y110685D01*
X204979Y110795D01*
X204913Y110835D01*
X204853Y110881D01*
X204703Y110962D01*
X204556Y111050D01*
X204485Y111078D01*
X204418Y111114D01*
X204257Y111170D01*
X204098Y111233D01*
X204024Y111249D01*
X204015Y111253D01*
X212853Y111253D01*
X212853Y104139D01*
X211691Y104139D01*
G37*
%LPD*%
%LPC*%
G36*
X160891Y104139D02*
X160891Y104139D01*
X154555Y110476D01*
X154497Y110525D01*
X154444Y110581D01*
X154309Y110685D01*
X154179Y110795D01*
X154113Y110835D01*
X154053Y110881D01*
X153903Y110962D01*
X153756Y111050D01*
X153685Y111078D01*
X153618Y111114D01*
X153457Y111170D01*
X153298Y111233D01*
X153224Y111249D01*
X153215Y111253D01*
X162053Y111253D01*
X162053Y104139D01*
X160891Y104139D01*
G37*
%LPD*%
%LPC*%
G36*
X218947Y117347D02*
X218947Y117347D01*
X218947Y124461D01*
X220109Y124461D01*
X226061Y118509D01*
X226061Y117347D01*
X218947Y117347D01*
G37*
%LPD*%
%LPC*%
G36*
X218947Y104139D02*
X218947Y104139D01*
X218947Y111253D01*
X226061Y111253D01*
X226061Y110091D01*
X220109Y104139D01*
X218947Y104139D01*
G37*
%LPD*%
%LPC*%
G36*
X510939Y33527D02*
X510939Y33527D01*
X510939Y34689D01*
X516891Y40641D01*
X518053Y40641D01*
X518053Y33527D01*
X510939Y33527D01*
G37*
%LPD*%
%LPC*%
G36*
X465691Y116839D02*
X465691Y116839D01*
X459739Y122791D01*
X459739Y123953D01*
X466853Y123953D01*
X466853Y116839D01*
X465691Y116839D01*
G37*
%LPD*%
%LPC*%
G36*
X660907Y146059D02*
X660907Y146059D01*
X660907Y151553D01*
X666401Y151553D01*
X666401Y148265D01*
X666228Y147619D01*
X665893Y147040D01*
X665420Y146567D01*
X664841Y146232D01*
X664195Y146059D01*
X660907Y146059D01*
G37*
%LPD*%
%LPC*%
G36*
X651525Y146059D02*
X651525Y146059D01*
X650879Y146232D01*
X650300Y146567D01*
X649827Y147040D01*
X649492Y147619D01*
X649319Y148265D01*
X649319Y151553D01*
X654813Y151553D01*
X654813Y146059D01*
X651525Y146059D01*
G37*
%LPD*%
%LPC*%
G36*
X378937Y85259D02*
X378937Y85259D01*
X378937Y92753D01*
X382931Y92753D01*
X382931Y87465D01*
X382758Y86819D01*
X382423Y86240D01*
X381950Y85767D01*
X381371Y85432D01*
X380725Y85259D01*
X378937Y85259D01*
G37*
%LPD*%
%LPC*%
G36*
X461263Y178942D02*
X461263Y178942D01*
X461263Y181103D01*
X468491Y181103D01*
X468331Y180502D01*
X467996Y179923D01*
X467523Y179450D01*
X466944Y179115D01*
X466298Y178942D01*
X461263Y178942D01*
G37*
%LPD*%
%LPC*%
G36*
X450134Y178942D02*
X450134Y178942D01*
X449488Y179115D01*
X448909Y179450D01*
X448436Y179923D01*
X448101Y180502D01*
X447941Y181103D01*
X455169Y181103D01*
X455169Y178942D01*
X450134Y178942D01*
G37*
%LPD*%
D10*
X441960Y265400D03*
X441960Y293400D03*
D11*
X566420Y261870D03*
X566420Y324870D03*
D12*
X559460Y228600D03*
X578460Y228600D03*
D13*
X520700Y152400D03*
X520700Y127000D03*
X495300Y152400D03*
X495300Y127000D03*
X469900Y152400D03*
X469900Y127000D03*
D12*
X578460Y160020D03*
X559460Y160020D03*
X578460Y182880D03*
X559460Y182880D03*
D14*
X434340Y238100D03*
X434340Y219100D03*
D15*
X622300Y154100D03*
X612800Y176100D03*
X631800Y176100D03*
D16*
X458216Y222250D03*
X458216Y209550D03*
X458216Y196850D03*
X458216Y184150D03*
X532384Y184150D03*
X532384Y196850D03*
X532384Y209550D03*
X532384Y222250D03*
D17*
X521300Y273050D03*
X469300Y273050D03*
X521300Y260350D03*
X521300Y285750D03*
X521300Y298450D03*
X469300Y260350D03*
X469300Y285750D03*
X469300Y298450D03*
D18*
X148070Y44450D03*
D19*
X108470Y44450D03*
D18*
X248400Y44450D03*
D19*
X208800Y44450D03*
D18*
X44450Y131100D03*
D20*
X44450Y170700D03*
X44450Y210300D03*
X44450Y249900D03*
D21*
X342700Y30480D03*
D22*
X317700Y30480D03*
D23*
X571100Y30480D03*
D24*
X546100Y30480D03*
X521100Y30480D03*
D23*
X456800Y30480D03*
D24*
X431800Y30480D03*
X406800Y30480D03*
D25*
X277000Y140660D02*
X277000Y235260D01*
X277000Y140660D02*
X192400Y140660D01*
X192400Y235260D01*
X277000Y235260D01*
X277000Y149590D02*
X192400Y149590D01*
X192400Y158520D02*
X277000Y158520D01*
X277000Y167450D02*
X192400Y167450D01*
X192400Y176380D02*
X277000Y176380D01*
X277000Y185310D02*
X192400Y185310D01*
X192400Y194240D02*
X277000Y194240D01*
X277000Y203170D02*
X192400Y203170D01*
X192400Y212100D02*
X277000Y212100D01*
X277000Y221030D02*
X192400Y221030D01*
X192400Y229960D02*
X277000Y229960D01*
D26*
X345900Y169760D02*
X345900Y155360D01*
X307500Y155360D01*
X307500Y169760D01*
X345900Y169760D01*
X345900Y156880D02*
X307500Y156880D01*
X307500Y158400D02*
X345900Y158400D01*
X345900Y159920D02*
X307500Y159920D01*
X307500Y161440D02*
X345900Y161440D01*
X345900Y162960D02*
X307500Y162960D01*
X307500Y164480D02*
X345900Y164480D01*
X345900Y166000D02*
X307500Y166000D01*
X307500Y167520D02*
X345900Y167520D01*
X345900Y169040D02*
X307500Y169040D01*
X345900Y206160D02*
X345900Y220560D01*
X345900Y206160D02*
X307500Y206160D01*
X307500Y220560D01*
X345900Y220560D01*
X345900Y207680D02*
X307500Y207680D01*
X307500Y209200D02*
X345900Y209200D01*
X345900Y210720D02*
X307500Y210720D01*
X307500Y212240D02*
X345900Y212240D01*
X345900Y213760D02*
X307500Y213760D01*
X307500Y215280D02*
X345900Y215280D01*
X345900Y216800D02*
X307500Y216800D01*
X307500Y218320D02*
X345900Y218320D01*
X345900Y219840D02*
X307500Y219840D01*
D14*
X383540Y160630D03*
X383540Y141630D03*
D12*
X441300Y162560D03*
X422300Y162560D03*
D14*
X411480Y238100D03*
X411480Y219100D03*
D12*
X559460Y205740D03*
X578460Y205740D03*
D14*
X388620Y219100D03*
X388620Y238100D03*
D12*
X422300Y139700D03*
X441300Y139700D03*
D18*
X118400Y316230D03*
D27*
X158000Y316230D03*
X197600Y316230D03*
X237200Y316230D03*
D15*
X622300Y226900D03*
X631800Y204900D03*
X612800Y204900D03*
D12*
X559460Y114300D03*
X578460Y114300D03*
X559460Y137160D03*
X578460Y137160D03*
D28*
X304800Y110490D03*
X330200Y110490D03*
X355600Y110490D03*
D29*
X314960Y77470D03*
X330200Y77470D03*
X345440Y77470D03*
D30*
X72390Y158750D03*
X72390Y184150D03*
X72390Y209550D03*
X72390Y234950D03*
X146050Y288290D03*
X171450Y288290D03*
X196850Y288290D03*
X222250Y288290D03*
D29*
X416560Y77470D03*
X431800Y77470D03*
X447040Y77470D03*
D31*
X138430Y82550D02*
X138430Y67310D01*
X113030Y67310D02*
X113030Y82550D01*
X245110Y82550D02*
X245110Y67310D01*
X219710Y67310D02*
X219710Y82550D01*
D32*
X495300Y288720D03*
X485800Y260170D03*
X504800Y260170D03*
D14*
X566420Y283870D03*
X566420Y302870D03*
D33*
X657860Y193970D03*
X657860Y214970D03*
X657860Y154600D03*
X657860Y175600D03*
D14*
X657860Y253340D03*
X657860Y234340D03*
D34*
X298704Y187960D03*
X290576Y187960D03*
X298704Y146050D03*
X290576Y146050D03*
X298704Y232410D03*
X290576Y232410D03*
D23*
X139700Y152400D03*
D35*
X139700Y177800D03*
X165100Y152400D03*
X165100Y177800D03*
D23*
X114300Y245110D03*
D24*
X139700Y245110D03*
X165100Y245110D03*
D23*
X335280Y294640D03*
D35*
X335280Y320040D03*
X360680Y294640D03*
X360680Y320040D03*
X386080Y294640D03*
X386080Y320040D03*
X411480Y294640D03*
X411480Y320040D03*
D23*
X647700Y101600D03*
D13*
X647700Y127000D03*
D23*
X114300Y114300D03*
D24*
X139700Y114300D03*
X165100Y114300D03*
X190500Y114300D03*
X215900Y114300D03*
D36*
X375890Y95800D03*
X403890Y95800D03*
D37*
X389890Y120100D03*
D38*
X524180Y85090D03*
X578180Y85090D03*
D39*
X450850Y113030D03*
X438150Y181610D03*
D40*
X495300Y275590D03*
D39*
X266700Y317500D03*
X439420Y321310D03*
X304800Y50800D03*
X330200Y50800D03*
D41*
X360680Y219710D03*
D39*
X15240Y138430D03*
X598170Y127000D03*
X598170Y217170D03*
X598170Y101600D03*
X598170Y148590D03*
X523240Y317500D03*
X544830Y300990D03*
X591820Y300990D03*
X459740Y171450D03*
X355600Y50800D03*
X374650Y50800D03*
X15240Y163830D03*
X15240Y189230D03*
X15240Y214630D03*
X15240Y240030D03*
X474980Y26670D03*
X598170Y171450D03*
X537210Y106680D03*
X463550Y97790D03*
X15240Y265430D03*
X15240Y290830D03*
X40640Y290830D03*
X66040Y290830D03*
X15240Y113030D03*
X15240Y87630D03*
X53340Y87630D03*
X495300Y303530D03*
X600710Y242570D03*
X266700Y292100D03*
X91440Y290830D03*
X78740Y278130D03*
X53340Y278130D03*
X27940Y278130D03*
D41*
X330200Y189230D03*
X314960Y189230D03*
X345440Y189230D03*
D39*
X78740Y303530D03*
X105410Y172720D03*
X105410Y147320D03*
X591820Y326390D03*
X638810Y229870D03*
X638810Y250190D03*
X668020Y128270D03*
X668020Y102870D03*
X664210Y77470D03*
X628650Y77470D03*
X664210Y280670D03*
X600710Y261620D03*
X266700Y266700D03*
X461010Y321310D03*
X113030Y283210D03*
D41*
X360680Y189230D03*
X314960Y234950D03*
X330200Y234950D03*
X345440Y234950D03*
X360680Y234950D03*
X360680Y204470D03*
D39*
X501650Y80010D03*
X473710Y80010D03*
X474980Y48260D03*
X502920Y48260D03*
X502920Y26670D03*
X276860Y109220D03*
X314960Y142240D03*
X334010Y142240D03*
X276860Y124460D03*
X374650Y63500D03*
X374650Y76200D03*
X387350Y76200D03*
X388620Y99060D03*
X77470Y344170D03*
X34290Y87630D03*
X646430Y77470D03*
X21590Y74930D03*
X46990Y74930D03*
X476250Y330200D03*
X514350Y330200D03*
X495300Y330200D03*
X533400Y330200D03*
X544830Y317500D03*
D42*
X179070Y85090D03*
X179070Y30480D03*
X179070Y59690D03*
D43*
X447010Y260350D02*
X469300Y260350D01*
X447010Y260350D02*
X441960Y265400D01*
D44*
X304800Y266700D03*
D45*
X304770Y265400D02*
X441960Y265400D01*
X304800Y265430D02*
X304800Y266700D01*
X304800Y265430D02*
X304770Y265400D01*
D46*
X197600Y289040D02*
X197600Y316230D01*
D45*
X197600Y289040D02*
X196850Y288290D01*
D46*
X72390Y209550D02*
X45200Y209550D01*
X44450Y210300D01*
D47*
X245110Y74930D02*
X245110Y47740D01*
D48*
X248400Y44450D01*
D43*
X469300Y260350D02*
X485620Y260350D01*
X485800Y260170D01*
D39*
X297180Y292100D03*
X297180Y325120D03*
X297180Y308610D03*
X336550Y269240D03*
X407670Y269240D03*
D49*
X434340Y238100D02*
X530200Y238100D01*
D50*
X538480Y245110D03*
D49*
X434340Y238100D02*
X388620Y238100D01*
X411480Y238100D02*
X434340Y238100D01*
X553970Y261870D02*
X566420Y261870D01*
X553970Y261870D02*
X530200Y238100D01*
X657860Y253340D02*
X657860Y256540D01*
X635000Y279400D01*
X583950Y279400D02*
X566420Y261870D01*
X583950Y279400D02*
X635000Y279400D01*
D43*
X545490Y196850D02*
X559460Y182880D01*
X545490Y196850D02*
X532384Y196850D01*
X514350Y196850D01*
X508000Y190500D01*
X508000Y165100D01*
X520700Y152400D01*
D49*
X314960Y77470D02*
X304800Y87630D01*
X304800Y110490D01*
D51*
X644420Y182880D03*
D52*
X532384Y196850D02*
X516018Y196850D01*
X511374Y192206D01*
D51*
X511374Y192206D03*
D43*
X651700Y175600D02*
X657860Y175600D01*
X651700Y175600D02*
X644420Y182880D01*
X495300Y190500D02*
X495300Y152400D01*
X514350Y209550D02*
X532384Y209550D01*
X514350Y209550D02*
X495300Y190500D01*
D52*
X495300Y152400D02*
X482600Y139700D01*
X441300Y139700D01*
D43*
X555650Y209550D02*
X559460Y205740D01*
X555650Y209550D02*
X532384Y209550D01*
D52*
X458216Y196850D02*
X425450Y196850D01*
X419100Y190500D01*
D39*
X419100Y190500D03*
D49*
X355600Y110490D02*
X355600Y87630D01*
X345440Y77470D01*
D43*
X437490Y222250D02*
X458216Y222250D01*
X437490Y222250D02*
X434340Y219100D01*
X458216Y222250D02*
X476250Y222250D01*
X485140Y213360D01*
X485140Y167640D01*
X469900Y152400D01*
D52*
X495300Y127000D02*
X508000Y139700D01*
X542290Y139700D01*
X542290Y174244D01*
X532384Y184150D01*
D49*
X383540Y162560D02*
X326700Y162560D01*
X383540Y162560D02*
X422300Y162560D01*
X383540Y162560D02*
X383540Y160630D01*
X447040Y77470D02*
X456800Y67710D01*
X456800Y63500D01*
X456800Y30480D01*
X546100Y30480D02*
X546100Y63500D01*
X456800Y63500D01*
X416560Y77470D02*
X406800Y67710D01*
X406800Y63500D02*
X406800Y30480D01*
X406800Y63500D02*
X406800Y67710D01*
X406800Y30480D02*
X342700Y30480D01*
D53*
X403890Y106100D02*
X389890Y120100D01*
X403890Y106100D02*
X403890Y95800D01*
X406800Y92890D01*
X406800Y63500D01*
D39*
X388620Y190500D03*
X406400Y139700D03*
D49*
X388620Y190500D02*
X388620Y219100D01*
X406400Y139700D02*
X422300Y139700D01*
X431800Y77470D02*
X431800Y30480D01*
X431800Y77470D02*
X431800Y114300D01*
X422300Y123800D02*
X422300Y139700D01*
X422300Y123800D02*
X431800Y114300D01*
X609600Y11430D02*
X76200Y11430D01*
X76200Y118400D01*
X63500Y131100D01*
X55880Y131100D01*
X44450Y131100D01*
X622300Y154100D02*
X622300Y101600D01*
X609600Y88900D01*
X609600Y11430D01*
X72390Y147610D02*
X72390Y158750D01*
X72390Y147610D02*
X55880Y131100D01*
D51*
X622300Y254000D03*
D49*
X622300Y226900D01*
X146050Y288290D02*
X118400Y315940D01*
X118400Y316230D01*
D54*
X224500Y198160D02*
X234700Y187960D01*
X179580Y243080D02*
X172760Y249900D01*
X179580Y243080D02*
X234700Y187960D01*
X148477Y249900D02*
X148307Y249730D01*
X148477Y249900D02*
X172760Y249900D01*
X148307Y249730D02*
X88900Y249730D01*
X234700Y187960D02*
X237200Y190460D01*
X237200Y241300D01*
X237200Y316230D01*
D45*
X72390Y234950D02*
X57440Y249900D01*
X44450Y249900D01*
D46*
X179580Y243080D02*
X235420Y243080D01*
X237200Y241300D01*
D54*
X88730Y249900D02*
X44450Y249900D01*
X88730Y249900D02*
X88900Y249730D01*
X44450Y249900D02*
X148137Y249900D01*
X148307Y249730D01*
D48*
X222250Y288290D02*
X237200Y303240D01*
X237200Y316230D01*
D39*
X83820Y254000D03*
D49*
X578460Y114300D02*
X578460Y37840D01*
X571100Y30480D01*
X578180Y85090D02*
X578180Y114020D01*
X578460Y114300D01*
X578180Y85090D02*
X578180Y37560D01*
X571100Y30480D01*
D55*
X411480Y207670D02*
X411480Y219100D01*
X411480Y207670D02*
X414426Y204724D01*
X446024Y204724D01*
X450850Y209550D02*
X458216Y209550D01*
X450850Y209550D02*
X446024Y204724D01*
D49*
X559460Y137160D02*
X559460Y127000D01*
D51*
X546100Y127000D03*
D49*
X559460Y127000D02*
X559460Y114300D01*
D52*
X471170Y209550D02*
X458216Y209550D01*
X471170Y209550D02*
X473710Y207010D01*
D51*
X473710Y207010D03*
D49*
X546100Y127000D02*
X559460Y127000D01*
X330200Y110490D02*
X330200Y77470D01*
X357530Y141630D02*
X383540Y141630D01*
X357530Y141630D02*
X330200Y114300D01*
X330200Y110490D01*
X57900Y184150D02*
X44450Y170700D01*
X57900Y184150D02*
X72390Y184150D01*
X171450Y288290D02*
X171450Y302780D01*
X158000Y316230D01*
X657860Y234340D02*
X657860Y214970D01*
D52*
X613180Y204900D02*
X612800Y204900D01*
X631800Y185900D01*
X631800Y176100D01*
X578790Y183210D02*
X578460Y182880D01*
X578790Y183210D02*
X586080Y190500D01*
X596900Y190500D01*
X613180Y206780D01*
X613180Y204900D01*
D55*
X578790Y183210D02*
X578790Y179350D01*
X568404Y168964D02*
X559460Y160020D01*
X568404Y168964D02*
X568404Y168993D01*
X570487Y171076D01*
X570516Y171076D01*
X578790Y179350D01*
D45*
X647700Y127000D02*
X647700Y101600D01*
D53*
X647700Y127000D02*
X635000Y139700D01*
X635000Y172900D02*
X631800Y176100D01*
X635000Y172900D02*
X635000Y139700D01*
M02*
