G04 EAGLE Gerber RS-274X export*
G75*
%MOMM*%
%FSLAX34Y34*%
%LPD*%
%INBottom Copper*%
%IPPOS*%
%AMOC8*
5,1,8,0,0,1.08239X$1,22.5*%
G01*
%ADD10P,1.649562X8X202.500000*%
%ADD11R,2.550000X2.550000*%
%ADD12P,2.760095X8X292.500000*%
%ADD13P,2.760095X8X202.500000*%
%ADD14R,1.600200X1.600200*%
%ADD15P,1.732040X8X112.500000*%
%ADD16R,1.524000X1.524000*%
%ADD17P,1.649562X8X112.500000*%
%ADD18P,2.760095X8X112.500000*%
%ADD19C,1.524000*%
%ADD20C,1.778000*%
%ADD21C,1.524000*%
%ADD22P,1.649562X8X22.500000*%
%ADD23C,1.108000*%
%ADD24C,1.308000*%
%ADD25C,1.208000*%
%ADD26C,1.158000*%
%ADD27C,3.516000*%
%ADD28C,2.540000*%
%ADD29C,1.508000*%
%ADD30C,0.406400*%
%ADD31C,0.508000*%
%ADD32C,1.016000*%
%ADD33C,1.016000*%
%ADD34C,1.800000*%
%ADD35C,2.000000*%
%ADD36C,1.500000*%
%ADD37C,1.270000*%

G36*
X271376Y4068D02*
X271376Y4068D01*
X271415Y4066D01*
X271622Y4088D01*
X271830Y4105D01*
X271867Y4114D01*
X271905Y4118D01*
X272106Y4173D01*
X272309Y4223D01*
X272344Y4239D01*
X272381Y4249D01*
X272570Y4335D01*
X272762Y4418D01*
X272794Y4439D01*
X272829Y4454D01*
X273002Y4571D01*
X273178Y4683D01*
X273207Y4708D01*
X273238Y4730D01*
X273391Y4873D01*
X273546Y5012D01*
X273570Y5042D01*
X273598Y5068D01*
X273725Y5233D01*
X273856Y5396D01*
X273875Y5429D01*
X273898Y5459D01*
X273997Y5643D01*
X274100Y5824D01*
X274113Y5860D01*
X274131Y5894D01*
X274199Y6091D01*
X274271Y6287D01*
X274279Y6324D01*
X274291Y6361D01*
X274326Y6567D01*
X274366Y6771D01*
X274367Y6809D01*
X274374Y6847D01*
X274375Y7057D01*
X274382Y7264D01*
X274377Y7302D01*
X274377Y7340D01*
X274344Y7547D01*
X274317Y7753D01*
X274306Y7790D01*
X274300Y7828D01*
X274235Y8026D01*
X274175Y8225D01*
X274158Y8260D01*
X274146Y8296D01*
X274049Y8481D01*
X273958Y8669D01*
X273936Y8700D01*
X273918Y8734D01*
X273868Y8796D01*
X272795Y11386D01*
X272795Y86404D01*
X273801Y88831D01*
X292223Y107253D01*
X292297Y107340D01*
X292378Y107421D01*
X292456Y107528D01*
X292542Y107629D01*
X292601Y107727D01*
X292668Y107819D01*
X292728Y107938D01*
X292797Y108052D01*
X292839Y108158D01*
X292891Y108260D01*
X292931Y108387D01*
X292980Y108510D01*
X293005Y108621D01*
X293039Y108730D01*
X293049Y108824D01*
X293087Y108991D01*
X293105Y109316D01*
X293115Y109408D01*
X293115Y112814D01*
X294894Y117109D01*
X298181Y120396D01*
X302476Y122175D01*
X307124Y122175D01*
X311419Y120396D01*
X314709Y117105D01*
X314715Y117090D01*
X314814Y116907D01*
X314910Y116721D01*
X314932Y116690D01*
X314951Y116657D01*
X315079Y116491D01*
X315203Y116324D01*
X315230Y116297D01*
X315253Y116267D01*
X315407Y116125D01*
X315556Y115980D01*
X315587Y115958D01*
X315615Y115932D01*
X315789Y115816D01*
X315960Y115697D01*
X315994Y115680D01*
X316026Y115659D01*
X316216Y115573D01*
X316404Y115483D01*
X316441Y115472D01*
X316476Y115456D01*
X316678Y115402D01*
X316878Y115343D01*
X316915Y115338D01*
X316952Y115328D01*
X317160Y115308D01*
X317367Y115282D01*
X317405Y115283D01*
X317443Y115279D01*
X317651Y115292D01*
X317860Y115300D01*
X317898Y115308D01*
X317936Y115310D01*
X318139Y115356D01*
X318344Y115398D01*
X318379Y115411D01*
X318417Y115420D01*
X318610Y115498D01*
X318805Y115572D01*
X318838Y115591D01*
X318874Y115606D01*
X319051Y115714D01*
X319232Y115819D01*
X319262Y115843D01*
X319294Y115863D01*
X319453Y115999D01*
X319614Y116131D01*
X319639Y116160D01*
X319668Y116185D01*
X319803Y116345D01*
X319941Y116501D01*
X319961Y116534D01*
X319985Y116563D01*
X320030Y116644D01*
X320203Y116919D01*
X320270Y117077D01*
X320278Y117093D01*
X323581Y120396D01*
X327876Y122175D01*
X332524Y122175D01*
X336819Y120396D01*
X340109Y117105D01*
X340115Y117090D01*
X340214Y116907D01*
X340310Y116721D01*
X340332Y116690D01*
X340351Y116657D01*
X340479Y116491D01*
X340603Y116324D01*
X340630Y116297D01*
X340653Y116267D01*
X340807Y116125D01*
X340956Y115980D01*
X340987Y115958D01*
X341015Y115932D01*
X341189Y115816D01*
X341360Y115697D01*
X341394Y115680D01*
X341426Y115659D01*
X341616Y115573D01*
X341804Y115483D01*
X341841Y115472D01*
X341876Y115456D01*
X342078Y115402D01*
X342278Y115343D01*
X342315Y115338D01*
X342352Y115328D01*
X342560Y115308D01*
X342767Y115282D01*
X342805Y115283D01*
X342843Y115279D01*
X343051Y115292D01*
X343260Y115300D01*
X343298Y115308D01*
X343336Y115310D01*
X343539Y115356D01*
X343744Y115398D01*
X343779Y115411D01*
X343817Y115420D01*
X344010Y115498D01*
X344205Y115572D01*
X344238Y115591D01*
X344274Y115606D01*
X344451Y115714D01*
X344632Y115819D01*
X344662Y115843D01*
X344694Y115863D01*
X344853Y115999D01*
X345014Y116131D01*
X345039Y116160D01*
X345068Y116185D01*
X345203Y116345D01*
X345341Y116501D01*
X345361Y116534D01*
X345385Y116563D01*
X345430Y116644D01*
X345603Y116919D01*
X345670Y117077D01*
X345678Y117093D01*
X348981Y120396D01*
X353276Y122175D01*
X357924Y122175D01*
X362219Y120396D01*
X364627Y117987D01*
X364715Y117913D01*
X364795Y117832D01*
X364902Y117754D01*
X365003Y117668D01*
X365101Y117609D01*
X365193Y117542D01*
X365312Y117482D01*
X365426Y117413D01*
X365532Y117371D01*
X365634Y117319D01*
X365761Y117279D01*
X365884Y117230D01*
X365995Y117205D01*
X366104Y117171D01*
X366198Y117161D01*
X366366Y117123D01*
X366690Y117105D01*
X366782Y117095D01*
X402402Y117095D01*
X402516Y117104D01*
X402630Y117103D01*
X402761Y117124D01*
X402894Y117135D01*
X403004Y117162D01*
X403117Y117180D01*
X403244Y117221D01*
X403373Y117253D01*
X403477Y117298D01*
X403586Y117334D01*
X403704Y117396D01*
X403826Y117448D01*
X403922Y117509D01*
X404024Y117562D01*
X404097Y117621D01*
X404242Y117713D01*
X404484Y117929D01*
X404557Y117987D01*
X411603Y125033D01*
X411677Y125120D01*
X411758Y125201D01*
X411836Y125308D01*
X411922Y125409D01*
X411981Y125507D01*
X412048Y125599D01*
X412108Y125718D01*
X412177Y125832D01*
X412219Y125938D01*
X412271Y126040D01*
X412311Y126167D01*
X412360Y126290D01*
X412385Y126401D01*
X412419Y126510D01*
X412429Y126604D01*
X412467Y126771D01*
X412483Y127059D01*
X412492Y127135D01*
X412492Y127156D01*
X412495Y127188D01*
X412495Y127268D01*
X412481Y127448D01*
X412474Y127628D01*
X412461Y127694D01*
X412455Y127760D01*
X412412Y127935D01*
X412376Y128112D01*
X412353Y128174D01*
X412337Y128239D01*
X412265Y128405D01*
X412202Y128573D01*
X412168Y128631D01*
X412142Y128692D01*
X412045Y128844D01*
X411955Y129001D01*
X411913Y129052D01*
X411877Y129108D01*
X411757Y129243D01*
X411642Y129382D01*
X411593Y129426D01*
X411548Y129476D01*
X411408Y129589D01*
X411272Y129709D01*
X411216Y129744D01*
X411164Y129786D01*
X411008Y129875D01*
X410855Y129971D01*
X410793Y129997D01*
X410736Y130030D01*
X410566Y130093D01*
X410400Y130163D01*
X410336Y130178D01*
X410273Y130202D01*
X410096Y130236D01*
X409921Y130279D01*
X409854Y130283D01*
X409789Y130296D01*
X409609Y130302D01*
X409429Y130315D01*
X409362Y130310D01*
X409296Y130312D01*
X409117Y130288D01*
X408937Y130272D01*
X408886Y130258D01*
X408807Y130247D01*
X408335Y130105D01*
X408315Y130095D01*
X404489Y130095D01*
X403939Y130323D01*
X403930Y130326D01*
X403921Y130331D01*
X403693Y130403D01*
X403469Y130475D01*
X403460Y130476D01*
X403451Y130479D01*
X403410Y130483D01*
X402982Y130548D01*
X402851Y130546D01*
X402773Y130555D01*
X391881Y130555D01*
X388520Y131947D01*
X380867Y139600D01*
X379475Y142961D01*
X379475Y186873D01*
X379474Y186883D01*
X379475Y186892D01*
X379455Y187128D01*
X379435Y187365D01*
X379433Y187374D01*
X379432Y187384D01*
X379421Y187422D01*
X379401Y187504D01*
X379396Y187541D01*
X379372Y187621D01*
X379317Y187843D01*
X379276Y187937D01*
X379253Y188013D01*
X379247Y188026D01*
X379243Y188039D01*
X379015Y188589D01*
X379015Y192411D01*
X380477Y195941D01*
X383179Y198643D01*
X386709Y200105D01*
X390531Y200105D01*
X394061Y198643D01*
X396763Y195941D01*
X398225Y192411D01*
X398225Y188589D01*
X397997Y188039D01*
X397994Y188030D01*
X397989Y188021D01*
X397931Y187837D01*
X397890Y187725D01*
X397881Y187679D01*
X397845Y187569D01*
X397844Y187560D01*
X397841Y187551D01*
X397837Y187510D01*
X397799Y187260D01*
X397795Y187241D01*
X397795Y187234D01*
X397772Y187082D01*
X397774Y186951D01*
X397765Y186873D01*
X397765Y151892D01*
X397771Y151816D01*
X397769Y151740D01*
X397791Y151571D01*
X397805Y151400D01*
X397823Y151326D01*
X397833Y151251D01*
X397882Y151087D01*
X397923Y150921D01*
X397953Y150852D01*
X397975Y150778D01*
X398051Y150625D01*
X398118Y150468D01*
X398159Y150404D01*
X398192Y150335D01*
X398291Y150196D01*
X398383Y150052D01*
X398434Y149995D01*
X398478Y149933D01*
X398598Y149812D01*
X398712Y149684D01*
X398771Y149636D01*
X398825Y149582D01*
X398963Y149481D01*
X399096Y149374D01*
X399162Y149337D01*
X399223Y149292D01*
X399376Y149215D01*
X399524Y149130D01*
X399596Y149104D01*
X399664Y149069D01*
X399827Y149018D01*
X399987Y148959D01*
X400062Y148944D01*
X400134Y148921D01*
X400239Y148909D01*
X400471Y148864D01*
X400707Y148857D01*
X400812Y148845D01*
X402773Y148845D01*
X402783Y148846D01*
X402792Y148845D01*
X403028Y148865D01*
X403265Y148885D01*
X403274Y148887D01*
X403284Y148888D01*
X403322Y148899D01*
X403743Y149003D01*
X403864Y149055D01*
X403939Y149077D01*
X404489Y149305D01*
X408319Y149305D01*
X408453Y149261D01*
X408623Y149198D01*
X408688Y149186D01*
X408751Y149165D01*
X408930Y149138D01*
X409107Y149104D01*
X409173Y149102D01*
X409239Y149092D01*
X409420Y149094D01*
X409600Y149088D01*
X409666Y149097D01*
X409732Y149098D01*
X409910Y149129D01*
X410089Y149153D01*
X410153Y149172D01*
X410218Y149184D01*
X410388Y149243D01*
X410562Y149295D01*
X410621Y149325D01*
X410684Y149347D01*
X410842Y149433D01*
X411005Y149512D01*
X411059Y149551D01*
X411117Y149582D01*
X411260Y149693D01*
X411407Y149798D01*
X411454Y149844D01*
X411507Y149885D01*
X411630Y150018D01*
X411758Y150144D01*
X411797Y150198D01*
X411842Y150247D01*
X411942Y150397D01*
X412048Y150543D01*
X412078Y150602D01*
X412115Y150658D01*
X412189Y150823D01*
X412271Y150984D01*
X412291Y151047D01*
X412318Y151108D01*
X412365Y151282D01*
X412419Y151454D01*
X412425Y151507D01*
X412446Y151584D01*
X412495Y152075D01*
X412493Y152109D01*
X412495Y152132D01*
X412495Y182259D01*
X412486Y182373D01*
X412487Y182487D01*
X412466Y182619D01*
X412455Y182751D01*
X412428Y182862D01*
X412410Y182975D01*
X412369Y183101D01*
X412337Y183230D01*
X412292Y183335D01*
X412256Y183443D01*
X412194Y183561D01*
X412142Y183683D01*
X412081Y183780D01*
X412028Y183881D01*
X411969Y183954D01*
X411877Y184099D01*
X411661Y184342D01*
X411603Y184414D01*
X410957Y185059D01*
X409495Y188589D01*
X409495Y192411D01*
X410957Y195941D01*
X413659Y198643D01*
X417189Y200105D01*
X421011Y200105D01*
X424541Y198643D01*
X427243Y195941D01*
X428705Y192411D01*
X428705Y188589D01*
X427243Y185059D01*
X426597Y184414D01*
X426523Y184327D01*
X426442Y184247D01*
X426364Y184140D01*
X426278Y184038D01*
X426219Y183940D01*
X426152Y183848D01*
X426092Y183730D01*
X426023Y183616D01*
X425981Y183509D01*
X425929Y183408D01*
X425889Y183281D01*
X425840Y183158D01*
X425815Y183046D01*
X425781Y182937D01*
X425771Y182844D01*
X425733Y182676D01*
X425715Y182352D01*
X425705Y182259D01*
X425705Y121876D01*
X424699Y119449D01*
X410141Y104891D01*
X407714Y103885D01*
X366782Y103885D01*
X366668Y103876D01*
X366554Y103877D01*
X366423Y103856D01*
X366290Y103845D01*
X366180Y103818D01*
X366067Y103800D01*
X365941Y103759D01*
X365812Y103727D01*
X365707Y103682D01*
X365598Y103646D01*
X365480Y103584D01*
X365358Y103532D01*
X365262Y103471D01*
X365161Y103418D01*
X365087Y103359D01*
X364942Y103267D01*
X364700Y103051D01*
X364627Y102993D01*
X362219Y100584D01*
X357924Y98805D01*
X353276Y98805D01*
X348981Y100584D01*
X345691Y103875D01*
X345685Y103890D01*
X345586Y104073D01*
X345490Y104259D01*
X345467Y104290D01*
X345449Y104323D01*
X345321Y104488D01*
X345197Y104656D01*
X345170Y104683D01*
X345146Y104713D01*
X344993Y104855D01*
X344844Y105001D01*
X344813Y105023D01*
X344785Y105048D01*
X344611Y105164D01*
X344440Y105283D01*
X344405Y105300D01*
X344374Y105321D01*
X344184Y105407D01*
X343995Y105498D01*
X343959Y105508D01*
X343924Y105524D01*
X343723Y105578D01*
X343522Y105637D01*
X343484Y105642D01*
X343447Y105652D01*
X343240Y105672D01*
X343033Y105698D01*
X342995Y105697D01*
X342957Y105701D01*
X342748Y105688D01*
X342540Y105680D01*
X342502Y105672D01*
X342464Y105670D01*
X342261Y105624D01*
X342056Y105582D01*
X342020Y105569D01*
X341983Y105560D01*
X341791Y105482D01*
X341595Y105408D01*
X341562Y105389D01*
X341526Y105374D01*
X341348Y105265D01*
X341168Y105161D01*
X341138Y105137D01*
X341105Y105117D01*
X340948Y104981D01*
X340786Y104849D01*
X340760Y104820D01*
X340732Y104795D01*
X340597Y104635D01*
X340459Y104479D01*
X340439Y104446D01*
X340414Y104417D01*
X340369Y104335D01*
X340197Y104061D01*
X340130Y103902D01*
X340121Y103887D01*
X336819Y100584D01*
X332524Y98805D01*
X327876Y98805D01*
X323581Y100584D01*
X320291Y103875D01*
X320285Y103890D01*
X320186Y104073D01*
X320090Y104259D01*
X320067Y104290D01*
X320049Y104323D01*
X319921Y104488D01*
X319797Y104656D01*
X319770Y104683D01*
X319746Y104713D01*
X319593Y104855D01*
X319444Y105001D01*
X319413Y105023D01*
X319385Y105048D01*
X319211Y105164D01*
X319040Y105283D01*
X319005Y105300D01*
X318974Y105321D01*
X318784Y105407D01*
X318595Y105498D01*
X318559Y105508D01*
X318524Y105524D01*
X318323Y105578D01*
X318122Y105637D01*
X318084Y105642D01*
X318047Y105652D01*
X317840Y105672D01*
X317633Y105698D01*
X317595Y105697D01*
X317557Y105701D01*
X317348Y105688D01*
X317140Y105680D01*
X317102Y105672D01*
X317064Y105670D01*
X316861Y105624D01*
X316656Y105582D01*
X316620Y105569D01*
X316583Y105560D01*
X316391Y105482D01*
X316195Y105408D01*
X316162Y105389D01*
X316126Y105374D01*
X315948Y105265D01*
X315768Y105161D01*
X315738Y105137D01*
X315705Y105117D01*
X315548Y104981D01*
X315386Y104849D01*
X315360Y104820D01*
X315332Y104795D01*
X315197Y104635D01*
X315059Y104479D01*
X315039Y104446D01*
X315014Y104417D01*
X314969Y104335D01*
X314797Y104061D01*
X314730Y103902D01*
X314721Y103887D01*
X311419Y100584D01*
X307124Y98805D01*
X303718Y98805D01*
X303604Y98796D01*
X303490Y98797D01*
X303359Y98776D01*
X303226Y98765D01*
X303116Y98738D01*
X303003Y98720D01*
X302876Y98679D01*
X302747Y98647D01*
X302643Y98602D01*
X302534Y98566D01*
X302416Y98504D01*
X302294Y98452D01*
X302198Y98391D01*
X302096Y98338D01*
X302023Y98279D01*
X301878Y98187D01*
X301636Y97971D01*
X301563Y97913D01*
X286897Y83247D01*
X286823Y83160D01*
X286742Y83079D01*
X286664Y82972D01*
X286578Y82871D01*
X286519Y82773D01*
X286452Y82681D01*
X286392Y82562D01*
X286323Y82448D01*
X286281Y82342D01*
X286229Y82240D01*
X286189Y82113D01*
X286140Y81990D01*
X286115Y81879D01*
X286081Y81770D01*
X286071Y81676D01*
X286033Y81509D01*
X286015Y81184D01*
X286005Y81092D01*
X286005Y22352D01*
X286011Y22276D01*
X286009Y22200D01*
X286031Y22031D01*
X286045Y21860D01*
X286063Y21786D01*
X286073Y21711D01*
X286122Y21547D01*
X286163Y21381D01*
X286193Y21312D01*
X286215Y21238D01*
X286291Y21085D01*
X286358Y20928D01*
X286399Y20864D01*
X286432Y20795D01*
X286531Y20656D01*
X286623Y20512D01*
X286674Y20455D01*
X286718Y20393D01*
X286838Y20272D01*
X286952Y20144D01*
X287011Y20096D01*
X287065Y20042D01*
X287203Y19941D01*
X287336Y19834D01*
X287402Y19797D01*
X287463Y19752D01*
X287616Y19675D01*
X287764Y19590D01*
X287836Y19564D01*
X287904Y19529D01*
X288067Y19478D01*
X288227Y19419D01*
X288302Y19404D01*
X288374Y19381D01*
X288479Y19369D01*
X288711Y19324D01*
X288947Y19317D01*
X289052Y19305D01*
X306610Y19305D01*
X306648Y19308D01*
X306686Y19306D01*
X306894Y19328D01*
X307102Y19345D01*
X307139Y19354D01*
X307177Y19358D01*
X307378Y19413D01*
X307581Y19463D01*
X307616Y19478D01*
X307653Y19489D01*
X307843Y19576D01*
X308034Y19658D01*
X308067Y19678D01*
X308101Y19694D01*
X308274Y19811D01*
X308450Y19923D01*
X308479Y19948D01*
X308510Y19970D01*
X308663Y20113D01*
X308818Y20252D01*
X308842Y20281D01*
X308870Y20307D01*
X308997Y20474D01*
X309128Y20636D01*
X309147Y20668D01*
X309170Y20699D01*
X309269Y20883D01*
X309372Y21064D01*
X309385Y21100D01*
X309403Y21134D01*
X309471Y21331D01*
X309544Y21527D01*
X309551Y21564D01*
X309563Y21600D01*
X309598Y21807D01*
X309638Y22011D01*
X309640Y22049D01*
X309646Y22087D01*
X309647Y22296D01*
X309654Y22504D01*
X309649Y22542D01*
X309649Y22580D01*
X309617Y22787D01*
X309589Y22993D01*
X309578Y23030D01*
X309572Y23067D01*
X309507Y23266D01*
X309447Y23465D01*
X309430Y23500D01*
X309418Y23536D01*
X309322Y23721D01*
X309230Y23909D01*
X309208Y23940D01*
X309190Y23974D01*
X309132Y24046D01*
X308944Y24311D01*
X308824Y24433D01*
X308765Y24507D01*
X307158Y26113D01*
X307158Y27433D01*
X317700Y27433D01*
X317776Y27439D01*
X317852Y27436D01*
X318021Y27459D01*
X318191Y27473D01*
X318265Y27491D01*
X318341Y27501D01*
X318505Y27550D01*
X318670Y27591D01*
X318740Y27621D01*
X318813Y27643D01*
X318967Y27718D01*
X319124Y27786D01*
X319188Y27827D01*
X319256Y27860D01*
X319396Y27959D01*
X319540Y28051D01*
X319596Y28102D01*
X319659Y28146D01*
X319780Y28266D01*
X319908Y28380D01*
X319956Y28439D01*
X320010Y28492D01*
X320010Y28493D01*
X320111Y28631D01*
X320218Y28764D01*
X320256Y28830D01*
X320300Y28892D01*
X320377Y29044D01*
X320462Y29193D01*
X320488Y29264D01*
X320523Y29332D01*
X320574Y29495D01*
X320634Y29655D01*
X320648Y29730D01*
X320671Y29803D01*
X320683Y29907D01*
X320728Y30139D01*
X320736Y30375D01*
X320747Y30480D01*
X320747Y41022D01*
X322067Y41022D01*
X325432Y37656D01*
X325461Y37631D01*
X325487Y37603D01*
X325649Y37472D01*
X325808Y37336D01*
X325841Y37317D01*
X325871Y37293D01*
X326052Y37190D01*
X326231Y37082D01*
X326266Y37068D01*
X326299Y37049D01*
X326495Y36976D01*
X326689Y36899D01*
X326726Y36891D01*
X326762Y36877D01*
X326967Y36837D01*
X327171Y36792D01*
X327209Y36790D01*
X327246Y36783D01*
X327454Y36776D01*
X327663Y36764D01*
X327701Y36768D01*
X327739Y36767D01*
X327946Y36794D01*
X328154Y36817D01*
X328190Y36827D01*
X328228Y36832D01*
X328428Y36892D01*
X328629Y36947D01*
X328664Y36963D01*
X328701Y36974D01*
X328888Y37066D01*
X329078Y37153D01*
X329109Y37174D01*
X329144Y37191D01*
X329314Y37312D01*
X329487Y37428D01*
X329515Y37455D01*
X329546Y37477D01*
X329694Y37623D01*
X329847Y37766D01*
X329870Y37796D01*
X329897Y37823D01*
X330020Y37992D01*
X330147Y38158D01*
X330165Y38191D01*
X330187Y38222D01*
X330281Y38408D01*
X330380Y38592D01*
X330393Y38629D01*
X330410Y38662D01*
X330472Y38861D01*
X330540Y39059D01*
X330541Y39065D01*
X331253Y40784D01*
X332396Y41927D01*
X333890Y42546D01*
X351510Y42546D01*
X353004Y41927D01*
X354147Y40784D01*
X354766Y39290D01*
X354766Y22352D01*
X354772Y22276D01*
X354770Y22200D01*
X354792Y22031D01*
X354806Y21860D01*
X354824Y21786D01*
X354834Y21711D01*
X354883Y21547D01*
X354924Y21381D01*
X354954Y21312D01*
X354976Y21238D01*
X355052Y21085D01*
X355119Y20928D01*
X355160Y20864D01*
X355193Y20795D01*
X355292Y20656D01*
X355384Y20512D01*
X355435Y20455D01*
X355479Y20393D01*
X355599Y20272D01*
X355713Y20144D01*
X355772Y20096D01*
X355826Y20042D01*
X355964Y19941D01*
X356097Y19834D01*
X356163Y19797D01*
X356224Y19752D01*
X356377Y19675D01*
X356525Y19590D01*
X356597Y19564D01*
X356665Y19529D01*
X356828Y19478D01*
X356988Y19419D01*
X357063Y19404D01*
X357135Y19381D01*
X357240Y19369D01*
X357472Y19324D01*
X357708Y19317D01*
X357813Y19305D01*
X394094Y19305D01*
X394132Y19308D01*
X394170Y19306D01*
X394378Y19328D01*
X394586Y19345D01*
X394623Y19354D01*
X394661Y19358D01*
X394862Y19413D01*
X395064Y19463D01*
X395099Y19478D01*
X395136Y19489D01*
X395326Y19576D01*
X395518Y19658D01*
X395550Y19678D01*
X395585Y19694D01*
X395758Y19811D01*
X395934Y19923D01*
X395962Y19948D01*
X395994Y19970D01*
X396146Y20113D01*
X396302Y20252D01*
X396326Y20281D01*
X396353Y20307D01*
X396481Y20473D01*
X396612Y20636D01*
X396631Y20669D01*
X396654Y20699D01*
X396753Y20883D01*
X396856Y21064D01*
X396869Y21100D01*
X396887Y21134D01*
X396955Y21331D01*
X397027Y21527D01*
X397035Y21564D01*
X397047Y21600D01*
X397082Y21807D01*
X397122Y22011D01*
X397123Y22049D01*
X397130Y22087D01*
X397131Y22296D01*
X397137Y22504D01*
X397132Y22542D01*
X397133Y22580D01*
X397100Y22787D01*
X397073Y22993D01*
X397062Y23030D01*
X397056Y23067D01*
X396991Y23266D01*
X396930Y23465D01*
X396914Y23500D01*
X396902Y23536D01*
X396805Y23721D01*
X396714Y23909D01*
X396691Y23940D01*
X396674Y23974D01*
X396616Y24046D01*
X396428Y24311D01*
X396307Y24433D01*
X396249Y24507D01*
X395115Y25640D01*
X395115Y35320D01*
X401960Y42165D01*
X411640Y42165D01*
X417145Y36659D01*
X417203Y36610D01*
X417256Y36555D01*
X417391Y36451D01*
X417521Y36340D01*
X417587Y36301D01*
X417647Y36254D01*
X417797Y36174D01*
X417944Y36085D01*
X418015Y36057D01*
X418082Y36021D01*
X418243Y35966D01*
X418402Y35902D01*
X418476Y35886D01*
X418548Y35861D01*
X418717Y35832D01*
X418884Y35795D01*
X418960Y35791D01*
X419035Y35778D01*
X419206Y35777D01*
X419376Y35768D01*
X419452Y35776D01*
X419528Y35775D01*
X419697Y35802D01*
X419867Y35820D01*
X419940Y35840D01*
X420015Y35852D01*
X420178Y35906D01*
X420342Y35951D01*
X420412Y35982D01*
X420484Y36006D01*
X420635Y36085D01*
X420791Y36156D01*
X420854Y36199D01*
X420922Y36234D01*
X421004Y36300D01*
X421200Y36432D01*
X421372Y36594D01*
X421455Y36659D01*
X426960Y42165D01*
X436640Y42165D01*
X440362Y38443D01*
X440447Y38371D01*
X440495Y38322D01*
X440536Y38292D01*
X440632Y38203D01*
X440687Y38166D01*
X440738Y38123D01*
X440892Y38030D01*
X441043Y37930D01*
X441103Y37903D01*
X441160Y37869D01*
X441328Y37802D01*
X441492Y37728D01*
X441557Y37710D01*
X441618Y37686D01*
X441794Y37647D01*
X441969Y37600D01*
X442035Y37593D01*
X442100Y37579D01*
X442280Y37569D01*
X442460Y37551D01*
X442526Y37555D01*
X442593Y37551D01*
X442772Y37570D01*
X442952Y37582D01*
X443017Y37596D01*
X443083Y37603D01*
X443257Y37651D01*
X443433Y37691D01*
X443495Y37717D01*
X443559Y37734D01*
X443723Y37809D01*
X443890Y37877D01*
X443947Y37912D01*
X444007Y37940D01*
X444157Y38041D01*
X444311Y38135D01*
X444361Y38178D01*
X444417Y38215D01*
X444548Y38339D01*
X444685Y38457D01*
X444728Y38507D01*
X444776Y38553D01*
X444886Y38696D01*
X445002Y38835D01*
X445028Y38881D01*
X445076Y38944D01*
X445262Y39291D01*
X445293Y39344D01*
X445296Y39355D01*
X445310Y39379D01*
X445321Y39411D01*
X445332Y39431D01*
X445734Y40403D01*
X446877Y41546D01*
X448371Y42165D01*
X465229Y42165D01*
X466723Y41546D01*
X467866Y40403D01*
X468485Y38909D01*
X468485Y22352D01*
X468491Y22276D01*
X468489Y22200D01*
X468511Y22031D01*
X468525Y21860D01*
X468543Y21786D01*
X468553Y21711D01*
X468602Y21547D01*
X468643Y21381D01*
X468673Y21312D01*
X468695Y21238D01*
X468771Y21085D01*
X468838Y20928D01*
X468879Y20864D01*
X468912Y20795D01*
X469011Y20656D01*
X469103Y20512D01*
X469154Y20455D01*
X469198Y20393D01*
X469318Y20272D01*
X469432Y20144D01*
X469491Y20096D01*
X469545Y20042D01*
X469683Y19941D01*
X469816Y19834D01*
X469882Y19797D01*
X469943Y19752D01*
X470096Y19675D01*
X470244Y19590D01*
X470316Y19564D01*
X470384Y19529D01*
X470547Y19478D01*
X470707Y19419D01*
X470782Y19404D01*
X470854Y19381D01*
X470959Y19369D01*
X471191Y19324D01*
X471427Y19317D01*
X471532Y19305D01*
X510549Y19305D01*
X510587Y19308D01*
X510625Y19306D01*
X510833Y19328D01*
X511041Y19345D01*
X511078Y19354D01*
X511116Y19358D01*
X511317Y19413D01*
X511520Y19463D01*
X511555Y19478D01*
X511592Y19489D01*
X511781Y19576D01*
X511973Y19658D01*
X512005Y19678D01*
X512040Y19694D01*
X512213Y19811D01*
X512389Y19923D01*
X512417Y19948D01*
X512449Y19970D01*
X512602Y20113D01*
X512757Y20252D01*
X512781Y20281D01*
X512809Y20307D01*
X512936Y20474D01*
X513067Y20636D01*
X513086Y20668D01*
X513109Y20699D01*
X513208Y20883D01*
X513311Y21064D01*
X513324Y21100D01*
X513342Y21134D01*
X513410Y21331D01*
X513483Y21527D01*
X513490Y21564D01*
X513502Y21600D01*
X513537Y21807D01*
X513577Y22011D01*
X513578Y22049D01*
X513585Y22087D01*
X513586Y22296D01*
X513593Y22504D01*
X513588Y22542D01*
X513588Y22580D01*
X513555Y22787D01*
X513528Y22993D01*
X513517Y23030D01*
X513511Y23067D01*
X513446Y23266D01*
X513386Y23465D01*
X513369Y23500D01*
X513357Y23536D01*
X513260Y23721D01*
X513169Y23909D01*
X513147Y23940D01*
X513129Y23974D01*
X513071Y24046D01*
X512883Y24311D01*
X512763Y24433D01*
X512704Y24507D01*
X510939Y26271D01*
X510939Y27433D01*
X521100Y27433D01*
X521176Y27439D01*
X521252Y27436D01*
X521421Y27459D01*
X521591Y27473D01*
X521665Y27491D01*
X521741Y27501D01*
X521905Y27550D01*
X522070Y27591D01*
X522140Y27621D01*
X522213Y27643D01*
X522367Y27718D01*
X522524Y27786D01*
X522588Y27827D01*
X522656Y27860D01*
X522796Y27959D01*
X522940Y28051D01*
X522996Y28102D01*
X523059Y28146D01*
X523180Y28266D01*
X523308Y28380D01*
X523356Y28439D01*
X523410Y28492D01*
X523410Y28493D01*
X523511Y28631D01*
X523618Y28764D01*
X523656Y28830D01*
X523700Y28892D01*
X523777Y29044D01*
X523862Y29193D01*
X523888Y29264D01*
X523923Y29332D01*
X523974Y29495D01*
X524034Y29655D01*
X524048Y29730D01*
X524071Y29803D01*
X524083Y29907D01*
X524128Y30139D01*
X524136Y30375D01*
X524147Y30480D01*
X524147Y40641D01*
X525309Y40641D01*
X530368Y35582D01*
X530426Y35533D01*
X530478Y35477D01*
X530613Y35373D01*
X530744Y35262D01*
X530809Y35223D01*
X530869Y35177D01*
X531019Y35096D01*
X531166Y35008D01*
X531237Y34979D01*
X531304Y34943D01*
X531466Y34888D01*
X531624Y34825D01*
X531698Y34808D01*
X531771Y34783D01*
X531939Y34755D01*
X532106Y34718D01*
X532182Y34714D01*
X532257Y34701D01*
X532428Y34700D01*
X532598Y34690D01*
X532674Y34698D01*
X532750Y34698D01*
X532919Y34724D01*
X533089Y34742D01*
X533162Y34763D01*
X533238Y34774D01*
X533400Y34828D01*
X533565Y34873D01*
X533634Y34905D01*
X533706Y34929D01*
X533858Y35008D01*
X534013Y35079D01*
X534076Y35121D01*
X534144Y35157D01*
X534226Y35222D01*
X534422Y35354D01*
X534595Y35516D01*
X534677Y35582D01*
X541260Y42165D01*
X550940Y42165D01*
X554662Y38443D01*
X554747Y38371D01*
X554795Y38322D01*
X554836Y38292D01*
X554932Y38203D01*
X554987Y38166D01*
X555038Y38123D01*
X555192Y38030D01*
X555343Y37930D01*
X555403Y37903D01*
X555460Y37869D01*
X555628Y37802D01*
X555792Y37728D01*
X555857Y37710D01*
X555918Y37686D01*
X556094Y37647D01*
X556269Y37600D01*
X556335Y37593D01*
X556400Y37579D01*
X556580Y37569D01*
X556760Y37551D01*
X556826Y37555D01*
X556893Y37551D01*
X557072Y37570D01*
X557252Y37582D01*
X557317Y37596D01*
X557383Y37603D01*
X557557Y37651D01*
X557733Y37691D01*
X557795Y37717D01*
X557859Y37734D01*
X558023Y37809D01*
X558190Y37877D01*
X558247Y37912D01*
X558307Y37940D01*
X558457Y38041D01*
X558611Y38135D01*
X558661Y38178D01*
X558717Y38215D01*
X558848Y38339D01*
X558985Y38457D01*
X559028Y38507D01*
X559076Y38553D01*
X559186Y38696D01*
X559302Y38835D01*
X559328Y38881D01*
X559376Y38944D01*
X559562Y39291D01*
X559593Y39344D01*
X559596Y39355D01*
X559610Y39379D01*
X559621Y39411D01*
X559632Y39431D01*
X560034Y40403D01*
X561177Y41546D01*
X562671Y42165D01*
X579529Y42165D01*
X581023Y41546D01*
X582166Y40403D01*
X582785Y38909D01*
X582785Y22352D01*
X582791Y22276D01*
X582789Y22200D01*
X582811Y22031D01*
X582825Y21860D01*
X582843Y21786D01*
X582853Y21711D01*
X582902Y21547D01*
X582943Y21381D01*
X582973Y21312D01*
X582995Y21238D01*
X583071Y21085D01*
X583138Y20928D01*
X583179Y20864D01*
X583212Y20795D01*
X583311Y20656D01*
X583403Y20512D01*
X583454Y20455D01*
X583498Y20393D01*
X583618Y20272D01*
X583732Y20144D01*
X583791Y20096D01*
X583845Y20042D01*
X583983Y19941D01*
X584116Y19834D01*
X584182Y19797D01*
X584243Y19752D01*
X584396Y19675D01*
X584544Y19590D01*
X584616Y19564D01*
X584684Y19529D01*
X584847Y19478D01*
X585007Y19419D01*
X585082Y19404D01*
X585154Y19381D01*
X585259Y19369D01*
X585491Y19324D01*
X585727Y19317D01*
X585832Y19305D01*
X599948Y19305D01*
X600024Y19311D01*
X600100Y19309D01*
X600269Y19331D01*
X600440Y19345D01*
X600514Y19363D01*
X600589Y19373D01*
X600753Y19422D01*
X600919Y19463D01*
X600988Y19493D01*
X601062Y19515D01*
X601215Y19591D01*
X601372Y19658D01*
X601436Y19699D01*
X601505Y19732D01*
X601644Y19831D01*
X601788Y19923D01*
X601845Y19974D01*
X601907Y20018D01*
X602028Y20138D01*
X602156Y20252D01*
X602204Y20311D01*
X602258Y20365D01*
X602359Y20503D01*
X602466Y20636D01*
X602503Y20702D01*
X602548Y20763D01*
X602625Y20916D01*
X602710Y21064D01*
X602736Y21136D01*
X602771Y21204D01*
X602822Y21367D01*
X602881Y21527D01*
X602896Y21602D01*
X602919Y21674D01*
X602931Y21779D01*
X602976Y22011D01*
X602983Y22247D01*
X602995Y22352D01*
X602995Y90214D01*
X604001Y92641D01*
X614803Y103443D01*
X614877Y103530D01*
X614958Y103611D01*
X615036Y103718D01*
X615122Y103819D01*
X615181Y103917D01*
X615248Y104009D01*
X615308Y104128D01*
X615377Y104242D01*
X615419Y104348D01*
X615471Y104450D01*
X615511Y104577D01*
X615560Y104700D01*
X615585Y104811D01*
X615619Y104920D01*
X615629Y105014D01*
X615667Y105181D01*
X615685Y105506D01*
X615695Y105598D01*
X615695Y182554D01*
X615689Y182630D01*
X615691Y182706D01*
X615669Y182875D01*
X615655Y183046D01*
X615637Y183119D01*
X615627Y183195D01*
X615578Y183359D01*
X615537Y183524D01*
X615507Y183594D01*
X615485Y183667D01*
X615409Y183821D01*
X615342Y183978D01*
X615301Y184042D01*
X615268Y184110D01*
X615169Y184250D01*
X615077Y184394D01*
X615026Y184451D01*
X614982Y184513D01*
X614862Y184634D01*
X614748Y184762D01*
X614689Y184810D01*
X614635Y184864D01*
X614497Y184964D01*
X614364Y185072D01*
X614298Y185109D01*
X614237Y185154D01*
X614084Y185231D01*
X613936Y185316D01*
X613864Y185342D01*
X613796Y185376D01*
X613633Y185428D01*
X613473Y185487D01*
X613398Y185502D01*
X613326Y185525D01*
X613221Y185537D01*
X612989Y185582D01*
X612753Y185589D01*
X612648Y185601D01*
X518964Y185601D01*
X518850Y185592D01*
X518736Y185592D01*
X518605Y185572D01*
X518473Y185561D01*
X518362Y185534D01*
X518249Y185516D01*
X518123Y185474D01*
X517994Y185442D01*
X517889Y185397D01*
X517780Y185362D01*
X517662Y185300D01*
X517540Y185248D01*
X517444Y185187D01*
X517343Y185134D01*
X517269Y185075D01*
X517124Y184983D01*
X516882Y184767D01*
X516809Y184708D01*
X516554Y184453D01*
X516111Y184270D01*
X515951Y184188D01*
X515786Y184112D01*
X515731Y184075D01*
X515672Y184045D01*
X515527Y183938D01*
X515377Y183837D01*
X515329Y183791D01*
X515275Y183752D01*
X515149Y183623D01*
X515018Y183499D01*
X514977Y183446D01*
X514931Y183399D01*
X514827Y183251D01*
X514717Y183107D01*
X514686Y183049D01*
X514648Y182994D01*
X514569Y182832D01*
X514484Y182673D01*
X514463Y182610D01*
X514434Y182550D01*
X514383Y182377D01*
X514324Y182206D01*
X514313Y182141D01*
X514294Y182077D01*
X514272Y181898D01*
X514241Y181720D01*
X514241Y181653D01*
X514233Y181587D01*
X514240Y181407D01*
X514238Y181226D01*
X514249Y181161D01*
X514251Y181094D01*
X514287Y180917D01*
X514315Y180739D01*
X514336Y180676D01*
X514349Y180611D01*
X514413Y180442D01*
X514469Y180270D01*
X514500Y180211D01*
X514524Y180149D01*
X514614Y179993D01*
X514697Y179833D01*
X514730Y179792D01*
X514770Y179722D01*
X515083Y179340D01*
X515108Y179318D01*
X515122Y179300D01*
X522333Y172089D01*
X522420Y172015D01*
X522500Y171934D01*
X522607Y171856D01*
X522709Y171770D01*
X522807Y171711D01*
X522899Y171644D01*
X523017Y171584D01*
X523131Y171515D01*
X523238Y171473D01*
X523339Y171421D01*
X523466Y171381D01*
X523589Y171332D01*
X523701Y171307D01*
X523810Y171273D01*
X523903Y171263D01*
X524071Y171225D01*
X524395Y171207D01*
X524488Y171197D01*
X534613Y171197D01*
X536854Y170269D01*
X551269Y155854D01*
X552197Y153613D01*
X552197Y135098D01*
X552204Y135007D01*
X552202Y134944D01*
X552206Y134919D01*
X552205Y134870D01*
X552226Y134739D01*
X552237Y134606D01*
X552258Y134520D01*
X552267Y134455D01*
X552275Y134428D01*
X552282Y134383D01*
X552323Y134256D01*
X552355Y134128D01*
X552389Y134049D01*
X552409Y133983D01*
X552423Y133955D01*
X552436Y133914D01*
X552498Y133796D01*
X552550Y133674D01*
X552594Y133604D01*
X552626Y133540D01*
X552645Y133513D01*
X552664Y133477D01*
X552723Y133403D01*
X552815Y133258D01*
X552868Y133199D01*
X552911Y133138D01*
X553030Y133018D01*
X553031Y133016D01*
X553089Y132943D01*
X553853Y132180D01*
X555245Y128819D01*
X555245Y125181D01*
X553853Y121820D01*
X551280Y119247D01*
X547919Y117855D01*
X544281Y117855D01*
X540920Y119247D01*
X538348Y121820D01*
X538247Y122063D01*
X538164Y122224D01*
X538089Y122388D01*
X538052Y122443D01*
X538022Y122502D01*
X537914Y122648D01*
X537814Y122797D01*
X537768Y122846D01*
X537729Y122899D01*
X537599Y123025D01*
X537476Y123157D01*
X537423Y123197D01*
X537375Y123244D01*
X537228Y123347D01*
X537084Y123457D01*
X537026Y123489D01*
X536971Y123527D01*
X536809Y123605D01*
X536650Y123690D01*
X536587Y123712D01*
X536527Y123741D01*
X536354Y123792D01*
X536183Y123850D01*
X536117Y123861D01*
X536054Y123880D01*
X535875Y123903D01*
X535697Y123933D01*
X535630Y123933D01*
X535564Y123942D01*
X535384Y123935D01*
X535203Y123936D01*
X535138Y123926D01*
X535071Y123923D01*
X534894Y123887D01*
X534716Y123859D01*
X534653Y123839D01*
X534588Y123825D01*
X534419Y123762D01*
X534247Y123705D01*
X534188Y123674D01*
X534126Y123651D01*
X533970Y123561D01*
X533810Y123477D01*
X533769Y123444D01*
X533699Y123404D01*
X533317Y123092D01*
X533295Y123067D01*
X533277Y123052D01*
X525540Y115315D01*
X515860Y115315D01*
X510155Y121021D01*
X510097Y121070D01*
X510045Y121125D01*
X509909Y121229D01*
X509779Y121340D01*
X509713Y121379D01*
X509653Y121426D01*
X509503Y121506D01*
X509356Y121595D01*
X509286Y121623D01*
X509218Y121659D01*
X509057Y121714D01*
X508898Y121778D01*
X508824Y121794D01*
X508752Y121819D01*
X508583Y121848D01*
X508417Y121885D01*
X508340Y121889D01*
X508265Y121902D01*
X508094Y121903D01*
X507924Y121912D01*
X507848Y121904D01*
X507772Y121905D01*
X507603Y121878D01*
X507433Y121860D01*
X507360Y121840D01*
X507285Y121828D01*
X507122Y121774D01*
X506958Y121729D01*
X506888Y121698D01*
X506816Y121674D01*
X506665Y121595D01*
X506509Y121524D01*
X506446Y121481D01*
X506378Y121446D01*
X506296Y121380D01*
X506100Y121248D01*
X505927Y121086D01*
X505845Y121021D01*
X500140Y115315D01*
X490460Y115315D01*
X483677Y122098D01*
X483619Y122148D01*
X483567Y122203D01*
X483431Y122307D01*
X483301Y122418D01*
X483236Y122457D01*
X483175Y122503D01*
X483025Y122584D01*
X482879Y122672D01*
X482808Y122701D01*
X482741Y122737D01*
X482579Y122792D01*
X482421Y122855D01*
X482346Y122872D01*
X482274Y122897D01*
X482105Y122925D01*
X481939Y122962D01*
X481863Y122966D01*
X481788Y122979D01*
X481617Y122980D01*
X481446Y122990D01*
X481371Y122982D01*
X481294Y122982D01*
X481125Y122956D01*
X480956Y122938D01*
X480882Y122917D01*
X480807Y122906D01*
X480645Y122852D01*
X480480Y122807D01*
X480411Y122775D01*
X480338Y122751D01*
X480187Y122672D01*
X480032Y122601D01*
X479968Y122559D01*
X479901Y122523D01*
X479819Y122458D01*
X479622Y122326D01*
X479450Y122164D01*
X479368Y122098D01*
X474109Y116839D01*
X472947Y116839D01*
X472947Y127000D01*
X472941Y127076D01*
X472944Y127152D01*
X472921Y127321D01*
X472907Y127491D01*
X472889Y127565D01*
X472879Y127641D01*
X472830Y127805D01*
X472789Y127970D01*
X472759Y128040D01*
X472737Y128113D01*
X472662Y128267D01*
X472594Y128424D01*
X472553Y128488D01*
X472520Y128556D01*
X472421Y128696D01*
X472329Y128840D01*
X472278Y128896D01*
X472234Y128959D01*
X472114Y129080D01*
X472000Y129208D01*
X471941Y129256D01*
X471888Y129310D01*
X471887Y129310D01*
X471749Y129411D01*
X471616Y129518D01*
X471550Y129556D01*
X471488Y129600D01*
X471336Y129677D01*
X471187Y129762D01*
X471116Y129788D01*
X471048Y129823D01*
X470885Y129874D01*
X470725Y129934D01*
X470650Y129948D01*
X470577Y129971D01*
X470473Y129983D01*
X470241Y130028D01*
X470005Y130036D01*
X469900Y130047D01*
X459739Y130047D01*
X459739Y131209D01*
X464998Y136468D01*
X465047Y136526D01*
X465103Y136578D01*
X465207Y136713D01*
X465318Y136844D01*
X465357Y136909D01*
X465403Y136969D01*
X465484Y137119D01*
X465572Y137266D01*
X465601Y137337D01*
X465637Y137404D01*
X465692Y137566D01*
X465755Y137724D01*
X465772Y137798D01*
X465797Y137871D01*
X465825Y138039D01*
X465862Y138206D01*
X465866Y138282D01*
X465879Y138357D01*
X465880Y138528D01*
X465890Y138698D01*
X465882Y138774D01*
X465882Y138850D01*
X465856Y139019D01*
X465838Y139189D01*
X465817Y139262D01*
X465806Y139338D01*
X465752Y139500D01*
X465707Y139665D01*
X465675Y139734D01*
X465651Y139806D01*
X465572Y139958D01*
X465501Y140113D01*
X465459Y140176D01*
X465423Y140244D01*
X465358Y140326D01*
X465226Y140522D01*
X465064Y140695D01*
X464998Y140777D01*
X458215Y147560D01*
X458215Y157240D01*
X465060Y164085D01*
X474740Y164085D01*
X480445Y158379D01*
X480503Y158330D01*
X480556Y158275D01*
X480691Y158171D01*
X480821Y158060D01*
X480887Y158021D01*
X480947Y157974D01*
X481097Y157894D01*
X481244Y157805D01*
X481315Y157777D01*
X481382Y157741D01*
X481543Y157686D01*
X481702Y157622D01*
X481776Y157606D01*
X481848Y157581D01*
X482017Y157552D01*
X482184Y157515D01*
X482260Y157511D01*
X482335Y157498D01*
X482506Y157497D01*
X482676Y157488D01*
X482752Y157496D01*
X482828Y157495D01*
X482997Y157522D01*
X483167Y157540D01*
X483240Y157560D01*
X483315Y157572D01*
X483478Y157626D01*
X483642Y157671D01*
X483712Y157702D01*
X483784Y157726D01*
X483935Y157805D01*
X484091Y157876D01*
X484154Y157919D01*
X484222Y157954D01*
X484304Y158020D01*
X484500Y158152D01*
X484672Y158314D01*
X484755Y158379D01*
X490460Y164085D01*
X493036Y164085D01*
X493074Y164088D01*
X493113Y164086D01*
X493320Y164108D01*
X493528Y164125D01*
X493565Y164134D01*
X493603Y164138D01*
X493804Y164193D01*
X494007Y164243D01*
X494042Y164258D01*
X494079Y164269D01*
X494268Y164355D01*
X494460Y164438D01*
X494493Y164458D01*
X494527Y164474D01*
X494701Y164591D01*
X494876Y164703D01*
X494905Y164728D01*
X494937Y164750D01*
X495089Y164893D01*
X495244Y165032D01*
X495268Y165061D01*
X495296Y165088D01*
X495423Y165253D01*
X495554Y165416D01*
X495573Y165449D01*
X495596Y165479D01*
X495695Y165663D01*
X495798Y165844D01*
X495812Y165880D01*
X495830Y165914D01*
X495897Y166111D01*
X495970Y166307D01*
X495977Y166344D01*
X495990Y166380D01*
X496025Y166587D01*
X496065Y166791D01*
X496066Y166829D01*
X496072Y166867D01*
X496073Y167076D01*
X496080Y167284D01*
X496075Y167322D01*
X496075Y167360D01*
X496043Y167567D01*
X496016Y167773D01*
X496005Y167810D01*
X495999Y167847D01*
X495933Y168045D01*
X495873Y168245D01*
X495856Y168280D01*
X495844Y168316D01*
X495748Y168501D01*
X495656Y168689D01*
X495634Y168720D01*
X495616Y168754D01*
X495558Y168826D01*
X495371Y169091D01*
X495250Y169213D01*
X495191Y169287D01*
X493667Y170811D01*
X493583Y170882D01*
X493540Y170926D01*
X493538Y170927D01*
X493500Y170966D01*
X493393Y171044D01*
X493291Y171130D01*
X493193Y171189D01*
X493101Y171256D01*
X492983Y171316D01*
X492869Y171385D01*
X492763Y171427D01*
X492661Y171479D01*
X492534Y171519D01*
X492411Y171568D01*
X492299Y171593D01*
X492190Y171627D01*
X492097Y171637D01*
X491929Y171675D01*
X491605Y171693D01*
X491512Y171703D01*
X468687Y171703D01*
X466446Y172631D01*
X452031Y187046D01*
X451103Y189287D01*
X451103Y229813D01*
X452031Y232054D01*
X466446Y246469D01*
X468687Y247397D01*
X524830Y247397D01*
X525048Y247414D01*
X525266Y247428D01*
X525293Y247434D01*
X525322Y247437D01*
X525534Y247489D01*
X525747Y247538D01*
X525773Y247549D01*
X525801Y247555D01*
X526001Y247641D01*
X526204Y247724D01*
X526228Y247739D01*
X526254Y247750D01*
X526438Y247867D01*
X526625Y247981D01*
X526646Y248000D01*
X526670Y248015D01*
X526833Y248160D01*
X526999Y248303D01*
X527017Y248325D01*
X527038Y248344D01*
X527175Y248513D01*
X527316Y248681D01*
X527327Y248702D01*
X527348Y248728D01*
X527592Y249156D01*
X527620Y249232D01*
X527645Y249278D01*
X528642Y251684D01*
X531906Y254948D01*
X536172Y256715D01*
X540788Y256715D01*
X545054Y254948D01*
X548318Y251684D01*
X550085Y247418D01*
X550085Y242802D01*
X548318Y238536D01*
X545054Y235272D01*
X540788Y233505D01*
X536172Y233505D01*
X532632Y234971D01*
X532623Y234974D01*
X532614Y234979D01*
X532386Y235051D01*
X532163Y235123D01*
X532153Y235124D01*
X532144Y235127D01*
X532104Y235131D01*
X531675Y235196D01*
X531544Y235194D01*
X531466Y235203D01*
X473688Y235203D01*
X473574Y235194D01*
X473460Y235195D01*
X473328Y235174D01*
X473196Y235163D01*
X473085Y235136D01*
X472972Y235118D01*
X472846Y235077D01*
X472717Y235045D01*
X472612Y235000D01*
X472504Y234964D01*
X472386Y234902D01*
X472264Y234850D01*
X472167Y234789D01*
X472066Y234736D01*
X471992Y234677D01*
X471848Y234585D01*
X471605Y234369D01*
X471533Y234311D01*
X464189Y226967D01*
X464115Y226880D01*
X464034Y226800D01*
X463956Y226693D01*
X463870Y226591D01*
X463811Y226493D01*
X463744Y226401D01*
X463684Y226283D01*
X463615Y226169D01*
X463573Y226062D01*
X463521Y225961D01*
X463481Y225834D01*
X463432Y225711D01*
X463407Y225599D01*
X463373Y225490D01*
X463363Y225397D01*
X463325Y225229D01*
X463307Y224905D01*
X463297Y224812D01*
X463297Y216886D01*
X463300Y216848D01*
X463298Y216810D01*
X463320Y216602D01*
X463337Y216394D01*
X463346Y216357D01*
X463350Y216319D01*
X463405Y216118D01*
X463455Y215915D01*
X463470Y215880D01*
X463481Y215844D01*
X463568Y215654D01*
X463650Y215462D01*
X463670Y215430D01*
X463686Y215395D01*
X463803Y215222D01*
X463915Y215046D01*
X463940Y215018D01*
X463962Y214986D01*
X464105Y214834D01*
X464244Y214678D01*
X464273Y214654D01*
X464300Y214626D01*
X464465Y214499D01*
X464628Y214368D01*
X464661Y214349D01*
X464691Y214326D01*
X464875Y214227D01*
X465056Y214124D01*
X465092Y214111D01*
X465126Y214093D01*
X465323Y214025D01*
X465519Y213953D01*
X465556Y213945D01*
X465592Y213933D01*
X465798Y213898D01*
X466003Y213858D01*
X466041Y213857D01*
X466079Y213850D01*
X466288Y213849D01*
X466496Y213843D01*
X466534Y213848D01*
X466572Y213847D01*
X466778Y213880D01*
X466985Y213907D01*
X467022Y213918D01*
X467059Y213924D01*
X467258Y213989D01*
X467457Y214049D01*
X467492Y214066D01*
X467528Y214078D01*
X467714Y214175D01*
X467901Y214266D01*
X467932Y214288D01*
X467966Y214306D01*
X468038Y214364D01*
X468303Y214552D01*
X468425Y214673D01*
X468499Y214731D01*
X468530Y214763D01*
X471891Y216155D01*
X475529Y216155D01*
X478890Y214763D01*
X480501Y213151D01*
X480509Y213145D01*
X480515Y213138D01*
X480696Y212986D01*
X480877Y212832D01*
X480886Y212827D01*
X480893Y212821D01*
X480928Y212801D01*
X481300Y212577D01*
X481421Y212529D01*
X481490Y212491D01*
X482244Y212179D01*
X498468Y195954D01*
X498605Y195837D01*
X498738Y195714D01*
X498793Y195678D01*
X498844Y195635D01*
X498999Y195541D01*
X499149Y195442D01*
X499210Y195414D01*
X499267Y195380D01*
X499434Y195313D01*
X499599Y195239D01*
X499663Y195222D01*
X499725Y195197D01*
X499901Y195158D01*
X500075Y195111D01*
X500141Y195104D01*
X500206Y195090D01*
X500387Y195080D01*
X500566Y195062D01*
X500632Y195066D01*
X500699Y195062D01*
X500879Y195082D01*
X501059Y195093D01*
X501123Y195108D01*
X501189Y195115D01*
X501363Y195162D01*
X501539Y195203D01*
X501601Y195228D01*
X501665Y195245D01*
X501829Y195320D01*
X501996Y195389D01*
X502053Y195423D01*
X502114Y195451D01*
X502263Y195552D01*
X502417Y195646D01*
X502468Y195689D01*
X502523Y195726D01*
X502654Y195850D01*
X502791Y195968D01*
X502834Y196019D01*
X502882Y196064D01*
X502992Y196207D01*
X503108Y196346D01*
X503134Y196392D01*
X503183Y196456D01*
X503416Y196890D01*
X503427Y196922D01*
X503438Y196943D01*
X503622Y197386D01*
X506194Y199958D01*
X509555Y201351D01*
X513193Y201351D01*
X516554Y199958D01*
X516809Y199703D01*
X516897Y199629D01*
X516977Y199548D01*
X517084Y199470D01*
X517185Y199384D01*
X517283Y199325D01*
X517376Y199257D01*
X517494Y199198D01*
X517608Y199129D01*
X517714Y199086D01*
X517816Y199035D01*
X517943Y198995D01*
X518066Y198946D01*
X518178Y198921D01*
X518287Y198887D01*
X518380Y198876D01*
X518548Y198839D01*
X518872Y198821D01*
X518964Y198811D01*
X619883Y198811D01*
X619892Y198811D01*
X619902Y198811D01*
X620138Y198831D01*
X620374Y198850D01*
X620384Y198853D01*
X620393Y198854D01*
X620432Y198865D01*
X620853Y198969D01*
X620964Y199017D01*
X636202Y199017D01*
X638629Y198011D01*
X643723Y192917D01*
X643810Y192843D01*
X643891Y192762D01*
X643998Y192684D01*
X644099Y192598D01*
X644197Y192539D01*
X644289Y192472D01*
X644408Y192412D01*
X644522Y192343D01*
X644628Y192301D01*
X644730Y192249D01*
X644857Y192209D01*
X644980Y192160D01*
X645091Y192135D01*
X645200Y192101D01*
X645294Y192091D01*
X645461Y192053D01*
X645786Y192035D01*
X645878Y192025D01*
X646239Y192025D01*
X649600Y190633D01*
X652173Y188060D01*
X653565Y184699D01*
X653565Y181061D01*
X652173Y177700D01*
X649600Y175127D01*
X646239Y173735D01*
X642601Y173735D01*
X639240Y175127D01*
X636667Y177700D01*
X635275Y181061D01*
X635275Y181422D01*
X635266Y181536D01*
X635267Y181650D01*
X635246Y181781D01*
X635235Y181914D01*
X635208Y182025D01*
X635190Y182137D01*
X635149Y182263D01*
X635117Y182393D01*
X635072Y182497D01*
X635036Y182606D01*
X634975Y182724D01*
X634922Y182846D01*
X634861Y182942D01*
X634808Y183043D01*
X634749Y183117D01*
X634657Y183262D01*
X634441Y183504D01*
X634383Y183577D01*
X634107Y183853D01*
X634078Y183877D01*
X634052Y183906D01*
X633890Y184037D01*
X633731Y184172D01*
X633698Y184192D01*
X633668Y184216D01*
X633488Y184319D01*
X633308Y184427D01*
X633273Y184441D01*
X633240Y184460D01*
X633044Y184532D01*
X632850Y184610D01*
X632813Y184618D01*
X632777Y184631D01*
X632573Y184671D01*
X632369Y184717D01*
X632330Y184719D01*
X632293Y184726D01*
X632085Y184733D01*
X631876Y184744D01*
X631838Y184740D01*
X631800Y184742D01*
X631593Y184714D01*
X631386Y184692D01*
X631349Y184682D01*
X631311Y184677D01*
X631111Y184617D01*
X630910Y184562D01*
X630875Y184546D01*
X630838Y184535D01*
X630651Y184443D01*
X630461Y184356D01*
X630430Y184335D01*
X630395Y184318D01*
X630225Y184197D01*
X630052Y184081D01*
X630024Y184054D01*
X629993Y184032D01*
X629845Y183886D01*
X629693Y183743D01*
X629669Y183712D01*
X629642Y183686D01*
X629519Y183517D01*
X629392Y183351D01*
X629374Y183318D01*
X629352Y183287D01*
X629258Y183101D01*
X629159Y182917D01*
X629147Y182880D01*
X629129Y182846D01*
X629067Y182647D01*
X628999Y182450D01*
X628993Y182412D01*
X628981Y182376D01*
X628971Y182283D01*
X628916Y181964D01*
X628915Y181792D01*
X628905Y181698D01*
X628905Y100286D01*
X627899Y97859D01*
X617097Y87057D01*
X617023Y86970D01*
X616942Y86889D01*
X616864Y86782D01*
X616778Y86681D01*
X616719Y86583D01*
X616652Y86491D01*
X616592Y86372D01*
X616523Y86258D01*
X616481Y86152D01*
X616429Y86050D01*
X616389Y85923D01*
X616340Y85800D01*
X616315Y85689D01*
X616281Y85580D01*
X616271Y85486D01*
X616233Y85319D01*
X616215Y84994D01*
X616205Y84902D01*
X616205Y11386D01*
X615146Y8831D01*
X615144Y8828D01*
X615041Y8648D01*
X614933Y8469D01*
X614919Y8433D01*
X614900Y8400D01*
X614828Y8204D01*
X614750Y8010D01*
X614742Y7973D01*
X614729Y7937D01*
X614689Y7733D01*
X614643Y7529D01*
X614641Y7491D01*
X614634Y7453D01*
X614627Y7245D01*
X614616Y7036D01*
X614620Y6998D01*
X614618Y6960D01*
X614646Y6754D01*
X614668Y6546D01*
X614678Y6509D01*
X614683Y6471D01*
X614743Y6271D01*
X614798Y6070D01*
X614814Y6035D01*
X614825Y5998D01*
X614917Y5811D01*
X615004Y5622D01*
X615025Y5590D01*
X615042Y5555D01*
X615163Y5385D01*
X615279Y5212D01*
X615306Y5184D01*
X615328Y5153D01*
X615475Y5004D01*
X615617Y4853D01*
X615647Y4829D01*
X615674Y4802D01*
X615843Y4679D01*
X616008Y4552D01*
X616042Y4534D01*
X616073Y4512D01*
X616259Y4418D01*
X616443Y4319D01*
X616480Y4307D01*
X616514Y4289D01*
X616712Y4227D01*
X616910Y4159D01*
X616948Y4153D01*
X616984Y4141D01*
X617077Y4131D01*
X617396Y4076D01*
X617569Y4075D01*
X617662Y4065D01*
X672888Y4065D01*
X672964Y4071D01*
X673040Y4069D01*
X673209Y4091D01*
X673380Y4105D01*
X673454Y4123D01*
X673529Y4133D01*
X673693Y4182D01*
X673859Y4223D01*
X673928Y4253D01*
X674002Y4275D01*
X674155Y4351D01*
X674312Y4418D01*
X674376Y4459D01*
X674445Y4492D01*
X674584Y4591D01*
X674728Y4683D01*
X674785Y4734D01*
X674847Y4778D01*
X674968Y4898D01*
X675096Y5012D01*
X675144Y5071D01*
X675198Y5125D01*
X675299Y5263D01*
X675406Y5396D01*
X675443Y5462D01*
X675488Y5523D01*
X675565Y5676D01*
X675650Y5824D01*
X675676Y5896D01*
X675711Y5964D01*
X675762Y6127D01*
X675821Y6287D01*
X675836Y6362D01*
X675859Y6434D01*
X675871Y6539D01*
X675916Y6771D01*
X675923Y7007D01*
X675935Y7112D01*
X675935Y352888D01*
X675929Y352964D01*
X675931Y353040D01*
X675909Y353209D01*
X675895Y353380D01*
X675877Y353454D01*
X675867Y353529D01*
X675818Y353693D01*
X675777Y353859D01*
X675747Y353928D01*
X675725Y354002D01*
X675649Y354155D01*
X675582Y354312D01*
X675541Y354376D01*
X675508Y354445D01*
X675409Y354584D01*
X675317Y354728D01*
X675266Y354785D01*
X675222Y354847D01*
X675102Y354968D01*
X674988Y355096D01*
X674929Y355144D01*
X674875Y355198D01*
X674737Y355299D01*
X674604Y355406D01*
X674538Y355443D01*
X674477Y355488D01*
X674324Y355565D01*
X674176Y355650D01*
X674104Y355676D01*
X674036Y355711D01*
X673873Y355762D01*
X673713Y355821D01*
X673638Y355836D01*
X673566Y355859D01*
X673461Y355871D01*
X673229Y355916D01*
X672993Y355923D01*
X672888Y355935D01*
X620237Y355935D01*
X620057Y355921D01*
X619877Y355914D01*
X619812Y355901D01*
X619746Y355895D01*
X619570Y355852D01*
X619394Y355816D01*
X619332Y355793D01*
X619267Y355777D01*
X619101Y355705D01*
X618932Y355642D01*
X618875Y355608D01*
X618814Y355582D01*
X618661Y355485D01*
X618505Y355395D01*
X618454Y355353D01*
X618397Y355317D01*
X618263Y355197D01*
X618123Y355082D01*
X618079Y355033D01*
X618030Y354988D01*
X617916Y354848D01*
X617797Y354713D01*
X617761Y354656D01*
X617720Y354604D01*
X617630Y354448D01*
X617534Y354295D01*
X617509Y354234D01*
X617476Y354176D01*
X617413Y354006D01*
X617343Y353840D01*
X617327Y353776D01*
X617304Y353713D01*
X617269Y353536D01*
X617227Y353361D01*
X617222Y353294D01*
X617209Y353229D01*
X617204Y353049D01*
X617190Y352869D01*
X617196Y352802D01*
X617194Y352736D01*
X617218Y352557D01*
X617233Y352377D01*
X617248Y352327D01*
X617258Y352247D01*
X617401Y351775D01*
X617416Y351744D01*
X617422Y351722D01*
X618745Y348529D01*
X618745Y297150D01*
X618754Y297036D01*
X618753Y296922D01*
X618774Y296791D01*
X618785Y296658D01*
X618812Y296548D01*
X618830Y296435D01*
X618871Y296308D01*
X618903Y296180D01*
X618948Y296075D01*
X618984Y295966D01*
X619046Y295848D01*
X619098Y295726D01*
X619159Y295630D01*
X619212Y295529D01*
X619271Y295455D01*
X619363Y295310D01*
X619579Y295068D01*
X619637Y294995D01*
X627051Y287581D01*
X627052Y287581D01*
X630053Y284580D01*
X631445Y281219D01*
X631445Y252181D01*
X630053Y248820D01*
X627480Y246247D01*
X624119Y244855D01*
X620481Y244855D01*
X617120Y246247D01*
X614547Y248820D01*
X613155Y252181D01*
X613155Y274350D01*
X613146Y274464D01*
X613147Y274578D01*
X613126Y274709D01*
X613115Y274842D01*
X613088Y274952D01*
X613070Y275065D01*
X613029Y275192D01*
X612997Y275320D01*
X612952Y275425D01*
X612916Y275534D01*
X612854Y275652D01*
X612802Y275774D01*
X612741Y275870D01*
X612688Y275971D01*
X612629Y276045D01*
X612537Y276190D01*
X612321Y276432D01*
X612263Y276505D01*
X604849Y283919D01*
X604848Y283919D01*
X601847Y286920D01*
X600455Y290281D01*
X600455Y334518D01*
X600449Y334594D01*
X600451Y334670D01*
X600429Y334839D01*
X600415Y335010D01*
X600397Y335084D01*
X600387Y335159D01*
X600338Y335323D01*
X600297Y335489D01*
X600267Y335558D01*
X600245Y335632D01*
X600169Y335785D01*
X600102Y335942D01*
X600061Y336006D01*
X600028Y336075D01*
X599929Y336214D01*
X599837Y336358D01*
X599786Y336415D01*
X599742Y336477D01*
X599622Y336598D01*
X599508Y336726D01*
X599449Y336774D01*
X599395Y336828D01*
X599257Y336929D01*
X599124Y337036D01*
X599058Y337073D01*
X598997Y337118D01*
X598844Y337195D01*
X598696Y337280D01*
X598624Y337306D01*
X598556Y337341D01*
X598393Y337392D01*
X598233Y337451D01*
X598158Y337466D01*
X598086Y337489D01*
X597981Y337501D01*
X597749Y337546D01*
X597513Y337553D01*
X597408Y337565D01*
X434829Y337565D01*
X434649Y337551D01*
X434469Y337544D01*
X434403Y337531D01*
X434337Y337525D01*
X434162Y337482D01*
X433985Y337446D01*
X433923Y337423D01*
X433858Y337407D01*
X433692Y337335D01*
X433524Y337272D01*
X433466Y337238D01*
X433405Y337212D01*
X433253Y337115D01*
X433096Y337025D01*
X433045Y336983D01*
X432989Y336947D01*
X432854Y336827D01*
X432715Y336712D01*
X432671Y336663D01*
X432621Y336618D01*
X432507Y336478D01*
X432388Y336343D01*
X432353Y336286D01*
X432311Y336234D01*
X432222Y336078D01*
X432126Y335925D01*
X432100Y335864D01*
X432067Y335806D01*
X432004Y335636D01*
X431934Y335470D01*
X431919Y335406D01*
X431895Y335343D01*
X431861Y335166D01*
X431818Y334991D01*
X431813Y334924D01*
X431801Y334859D01*
X431795Y334679D01*
X431782Y334499D01*
X431787Y334432D01*
X431785Y334366D01*
X431809Y334187D01*
X431825Y334007D01*
X431839Y333957D01*
X431850Y333877D01*
X431992Y333405D01*
X432007Y333374D01*
X432014Y333352D01*
X432817Y331413D01*
X432817Y256597D01*
X431889Y254356D01*
X430174Y252641D01*
X427933Y251713D01*
X321686Y251713D01*
X321572Y251704D01*
X321458Y251705D01*
X321326Y251684D01*
X321194Y251673D01*
X321083Y251646D01*
X320970Y251628D01*
X320844Y251587D01*
X320715Y251555D01*
X320610Y251510D01*
X320502Y251474D01*
X320384Y251412D01*
X320262Y251360D01*
X320166Y251299D01*
X320064Y251246D01*
X319991Y251187D01*
X319846Y251095D01*
X319604Y250879D01*
X319531Y250821D01*
X317061Y248350D01*
X309105Y245055D01*
X308126Y245055D01*
X308013Y245046D01*
X307898Y245047D01*
X307767Y245026D01*
X307635Y245015D01*
X307524Y244988D01*
X307411Y244970D01*
X307285Y244929D01*
X307156Y244897D01*
X307051Y244852D01*
X306942Y244816D01*
X306825Y244754D01*
X306702Y244702D01*
X306606Y244641D01*
X306505Y244588D01*
X306431Y244529D01*
X306286Y244437D01*
X306044Y244221D01*
X305972Y244163D01*
X266057Y204248D01*
X266049Y204238D01*
X266047Y204236D01*
X266037Y204224D01*
X265983Y204161D01*
X265902Y204081D01*
X265824Y203974D01*
X265738Y203872D01*
X265679Y203774D01*
X265612Y203682D01*
X265552Y203564D01*
X265483Y203450D01*
X265441Y203344D01*
X265389Y203242D01*
X265349Y203115D01*
X265300Y202992D01*
X265275Y202880D01*
X265241Y202771D01*
X265231Y202678D01*
X265193Y202510D01*
X265175Y202186D01*
X265165Y202094D01*
X265165Y58735D01*
X265166Y58726D01*
X265165Y58716D01*
X265185Y58480D01*
X265205Y58244D01*
X265207Y58234D01*
X265208Y58224D01*
X265215Y58201D01*
X265215Y30891D01*
X264596Y29397D01*
X263453Y28254D01*
X261959Y27635D01*
X235712Y27635D01*
X235636Y27629D01*
X235560Y27631D01*
X235391Y27609D01*
X235220Y27595D01*
X235146Y27577D01*
X235071Y27567D01*
X234907Y27518D01*
X234741Y27477D01*
X234672Y27447D01*
X234598Y27425D01*
X234445Y27349D01*
X234288Y27282D01*
X234224Y27241D01*
X234155Y27208D01*
X234016Y27109D01*
X233872Y27017D01*
X233815Y26966D01*
X233753Y26922D01*
X233632Y26802D01*
X233504Y26688D01*
X233456Y26629D01*
X233402Y26575D01*
X233301Y26437D01*
X233194Y26304D01*
X233157Y26238D01*
X233112Y26177D01*
X233035Y26024D01*
X232950Y25876D01*
X232924Y25804D01*
X232889Y25736D01*
X232838Y25573D01*
X232779Y25413D01*
X232764Y25338D01*
X232741Y25266D01*
X232729Y25161D01*
X232684Y24929D01*
X232677Y24693D01*
X232665Y24588D01*
X232665Y24086D01*
X231659Y21659D01*
X229801Y19801D01*
X227374Y18795D01*
X129496Y18795D01*
X127069Y19801D01*
X125211Y21659D01*
X124205Y24086D01*
X124205Y31204D01*
X124202Y31242D01*
X124204Y31280D01*
X124182Y31488D01*
X124165Y31696D01*
X124156Y31733D01*
X124152Y31771D01*
X124097Y31972D01*
X124047Y32175D01*
X124032Y32210D01*
X124021Y32247D01*
X123935Y32436D01*
X123852Y32628D01*
X123832Y32660D01*
X123816Y32695D01*
X123699Y32868D01*
X123587Y33044D01*
X123562Y33073D01*
X123540Y33104D01*
X123397Y33256D01*
X123258Y33412D01*
X123229Y33436D01*
X123203Y33464D01*
X123037Y33591D01*
X122874Y33722D01*
X122841Y33741D01*
X122811Y33764D01*
X122681Y33834D01*
X122681Y90335D01*
X122715Y90351D01*
X122878Y90467D01*
X123046Y90579D01*
X123080Y90610D01*
X123117Y90636D01*
X123260Y90778D01*
X123407Y90915D01*
X123435Y90951D01*
X123468Y90983D01*
X123586Y91146D01*
X123710Y91305D01*
X123731Y91345D01*
X123758Y91382D01*
X123849Y91561D01*
X123945Y91738D01*
X123960Y91781D01*
X123981Y91822D01*
X124041Y92014D01*
X124107Y92204D01*
X124115Y92249D01*
X124129Y92293D01*
X124140Y92391D01*
X124192Y92690D01*
X124193Y92723D01*
X125211Y95181D01*
X127069Y97039D01*
X129496Y98045D01*
X227374Y98045D01*
X227422Y98025D01*
X227593Y97970D01*
X227763Y97907D01*
X227828Y97894D01*
X227891Y97874D01*
X228070Y97847D01*
X228247Y97812D01*
X228313Y97810D01*
X228379Y97800D01*
X228560Y97802D01*
X228740Y97797D01*
X228806Y97805D01*
X228872Y97806D01*
X229050Y97837D01*
X229229Y97861D01*
X229293Y97880D01*
X229358Y97892D01*
X229528Y97951D01*
X229702Y98004D01*
X229761Y98033D01*
X229824Y98055D01*
X229982Y98141D01*
X230145Y98220D01*
X230199Y98259D01*
X230257Y98291D01*
X230400Y98402D01*
X230547Y98506D01*
X230594Y98553D01*
X230647Y98593D01*
X230770Y98726D01*
X230898Y98853D01*
X230937Y98906D01*
X230982Y98955D01*
X231082Y99105D01*
X231188Y99251D01*
X231218Y99311D01*
X231255Y99366D01*
X231329Y99531D01*
X231411Y99692D01*
X231431Y99755D01*
X231458Y99816D01*
X231505Y99990D01*
X231559Y100162D01*
X231565Y100215D01*
X231586Y100292D01*
X231635Y100783D01*
X231633Y100817D01*
X231635Y100840D01*
X231635Y108309D01*
X231632Y108347D01*
X231634Y108385D01*
X231612Y108593D01*
X231595Y108801D01*
X231586Y108838D01*
X231582Y108876D01*
X231527Y109077D01*
X231477Y109280D01*
X231462Y109315D01*
X231451Y109351D01*
X231364Y109541D01*
X231282Y109733D01*
X231262Y109765D01*
X231246Y109800D01*
X231129Y109973D01*
X231017Y110149D01*
X230992Y110178D01*
X230970Y110209D01*
X230827Y110361D01*
X230688Y110517D01*
X230659Y110541D01*
X230633Y110569D01*
X230467Y110696D01*
X230304Y110827D01*
X230271Y110846D01*
X230241Y110869D01*
X230057Y110968D01*
X229876Y111071D01*
X229840Y111084D01*
X229806Y111102D01*
X229609Y111170D01*
X229413Y111243D01*
X229376Y111250D01*
X229340Y111262D01*
X229133Y111297D01*
X228929Y111337D01*
X228891Y111338D01*
X228853Y111345D01*
X228644Y111346D01*
X228436Y111353D01*
X228398Y111348D01*
X228360Y111348D01*
X228153Y111315D01*
X227947Y111288D01*
X227910Y111277D01*
X227873Y111271D01*
X227674Y111206D01*
X227475Y111146D01*
X227440Y111129D01*
X227404Y111117D01*
X227219Y111020D01*
X227031Y110929D01*
X227000Y110907D01*
X226966Y110889D01*
X226894Y110831D01*
X226629Y110643D01*
X226507Y110523D01*
X226433Y110464D01*
X220109Y104139D01*
X218947Y104139D01*
X218947Y114300D01*
X218947Y124461D01*
X220109Y124461D01*
X226433Y118136D01*
X226462Y118111D01*
X226488Y118083D01*
X226650Y117952D01*
X226809Y117817D01*
X226842Y117797D01*
X226872Y117773D01*
X227053Y117670D01*
X227232Y117562D01*
X227267Y117548D01*
X227300Y117529D01*
X227496Y117456D01*
X227690Y117379D01*
X227727Y117371D01*
X227763Y117357D01*
X227968Y117317D01*
X228172Y117272D01*
X228210Y117270D01*
X228247Y117263D01*
X228455Y117256D01*
X228664Y117245D01*
X228702Y117249D01*
X228740Y117247D01*
X228947Y117275D01*
X229155Y117297D01*
X229191Y117307D01*
X229229Y117312D01*
X229429Y117372D01*
X229630Y117427D01*
X229665Y117443D01*
X229702Y117454D01*
X229889Y117546D01*
X230079Y117633D01*
X230111Y117655D01*
X230145Y117671D01*
X230314Y117792D01*
X230488Y117909D01*
X230516Y117935D01*
X230547Y117957D01*
X230695Y118103D01*
X230848Y118246D01*
X230871Y118277D01*
X230898Y118303D01*
X231021Y118472D01*
X231148Y118638D01*
X231166Y118671D01*
X231188Y118702D01*
X231282Y118888D01*
X231381Y119072D01*
X231394Y119109D01*
X231411Y119143D01*
X231473Y119341D01*
X231541Y119539D01*
X231547Y119577D01*
X231559Y119613D01*
X231569Y119706D01*
X231624Y120026D01*
X231625Y120198D01*
X231635Y120291D01*
X231635Y175194D01*
X231626Y175307D01*
X231627Y175422D01*
X231606Y175553D01*
X231595Y175685D01*
X231568Y175796D01*
X231550Y175909D01*
X231509Y176035D01*
X231477Y176164D01*
X231432Y176269D01*
X231396Y176378D01*
X231334Y176496D01*
X231282Y176618D01*
X231221Y176714D01*
X231168Y176815D01*
X231109Y176889D01*
X231017Y177034D01*
X230801Y177276D01*
X230743Y177348D01*
X215448Y192643D01*
X215361Y192717D01*
X215281Y192798D01*
X215174Y192876D01*
X215072Y192962D01*
X214975Y193021D01*
X214882Y193088D01*
X214764Y193148D01*
X214650Y193217D01*
X214544Y193259D01*
X214442Y193311D01*
X214315Y193351D01*
X214192Y193400D01*
X214080Y193425D01*
X213971Y193459D01*
X213878Y193469D01*
X213710Y193507D01*
X213386Y193525D01*
X213294Y193535D01*
X173246Y193535D01*
X173208Y193532D01*
X173170Y193534D01*
X172962Y193512D01*
X172754Y193495D01*
X172717Y193486D01*
X172679Y193482D01*
X172478Y193427D01*
X172276Y193377D01*
X172241Y193362D01*
X172204Y193351D01*
X172014Y193264D01*
X171822Y193182D01*
X171790Y193162D01*
X171755Y193146D01*
X171582Y193029D01*
X171406Y192917D01*
X171378Y192892D01*
X171346Y192870D01*
X171194Y192727D01*
X171038Y192588D01*
X171014Y192559D01*
X170987Y192533D01*
X170859Y192367D01*
X170728Y192204D01*
X170709Y192171D01*
X170686Y192141D01*
X170588Y191957D01*
X170484Y191776D01*
X170471Y191740D01*
X170453Y191706D01*
X170385Y191509D01*
X170313Y191313D01*
X170305Y191276D01*
X170293Y191240D01*
X170258Y191033D01*
X170218Y190829D01*
X170217Y190791D01*
X170210Y190753D01*
X170209Y190544D01*
X170203Y190336D01*
X170208Y190298D01*
X170207Y190260D01*
X170240Y190053D01*
X170267Y189847D01*
X170278Y189810D01*
X170284Y189773D01*
X170349Y189574D01*
X170410Y189375D01*
X170426Y189340D01*
X170438Y189304D01*
X170535Y189119D01*
X170626Y188931D01*
X170648Y188900D01*
X170666Y188866D01*
X170724Y188794D01*
X170912Y188529D01*
X171033Y188407D01*
X171091Y188333D01*
X176785Y182640D01*
X176785Y172407D01*
X176775Y172365D01*
X176741Y172256D01*
X176731Y172162D01*
X176693Y171994D01*
X176675Y171670D01*
X176665Y171578D01*
X176665Y158622D01*
X176674Y158508D01*
X176673Y158394D01*
X176694Y158263D01*
X176705Y158130D01*
X176732Y158020D01*
X176750Y157907D01*
X176785Y157801D01*
X176785Y147560D01*
X169940Y140715D01*
X159707Y140715D01*
X159665Y140725D01*
X159556Y140759D01*
X159462Y140769D01*
X159294Y140807D01*
X158970Y140825D01*
X158878Y140835D01*
X149024Y140835D01*
X149015Y140834D01*
X149005Y140835D01*
X148768Y140814D01*
X148533Y140795D01*
X148523Y140793D01*
X148514Y140792D01*
X148475Y140781D01*
X148210Y140715D01*
X131271Y140715D01*
X129777Y141334D01*
X128634Y142477D01*
X128015Y143971D01*
X128015Y160906D01*
X128055Y161028D01*
X128056Y161037D01*
X128059Y161047D01*
X128063Y161087D01*
X128128Y161516D01*
X128126Y161646D01*
X128135Y161724D01*
X128135Y171578D01*
X128126Y171692D01*
X128127Y171806D01*
X128106Y171937D01*
X128095Y172070D01*
X128068Y172180D01*
X128050Y172293D01*
X128015Y172399D01*
X128015Y182640D01*
X133709Y188333D01*
X133733Y188362D01*
X133762Y188388D01*
X133893Y188550D01*
X134028Y188709D01*
X134048Y188742D01*
X134072Y188772D01*
X134175Y188953D01*
X134283Y189132D01*
X134297Y189167D01*
X134316Y189200D01*
X134388Y189396D01*
X134466Y189590D01*
X134474Y189627D01*
X134487Y189663D01*
X134527Y189868D01*
X134573Y190072D01*
X134575Y190110D01*
X134582Y190147D01*
X134588Y190355D01*
X134600Y190564D01*
X134596Y190602D01*
X134597Y190640D01*
X134570Y190847D01*
X134548Y191055D01*
X134538Y191091D01*
X134533Y191129D01*
X134473Y191329D01*
X134417Y191530D01*
X134401Y191565D01*
X134390Y191602D01*
X134299Y191788D01*
X134212Y191979D01*
X134190Y192011D01*
X134174Y192045D01*
X134053Y192214D01*
X133936Y192388D01*
X133910Y192416D01*
X133888Y192447D01*
X133742Y192595D01*
X133598Y192748D01*
X133568Y192771D01*
X133541Y192798D01*
X133373Y192921D01*
X133207Y193048D01*
X133173Y193066D01*
X133143Y193088D01*
X132957Y193182D01*
X132772Y193281D01*
X132736Y193294D01*
X132702Y193311D01*
X132503Y193373D01*
X132306Y193441D01*
X132268Y193447D01*
X132232Y193459D01*
X132139Y193469D01*
X131819Y193524D01*
X131647Y193525D01*
X131554Y193535D01*
X87085Y193535D01*
X86905Y193521D01*
X86725Y193514D01*
X86660Y193501D01*
X86593Y193495D01*
X86418Y193452D01*
X86241Y193416D01*
X86179Y193393D01*
X86115Y193377D01*
X85949Y193305D01*
X85780Y193242D01*
X85722Y193208D01*
X85661Y193182D01*
X85509Y193085D01*
X85353Y192995D01*
X85301Y192953D01*
X85245Y192917D01*
X85111Y192797D01*
X84971Y192682D01*
X84927Y192633D01*
X84877Y192588D01*
X84764Y192448D01*
X84644Y192313D01*
X84609Y192256D01*
X84567Y192204D01*
X84478Y192048D01*
X84382Y191895D01*
X84356Y191833D01*
X84323Y191776D01*
X84261Y191606D01*
X84190Y191440D01*
X84175Y191376D01*
X84152Y191313D01*
X84117Y191136D01*
X84075Y190961D01*
X84070Y190894D01*
X84057Y190829D01*
X84051Y190649D01*
X84038Y190469D01*
X84044Y190402D01*
X84042Y190336D01*
X84065Y190157D01*
X84081Y189977D01*
X84096Y189927D01*
X84106Y189847D01*
X84249Y189375D01*
X84263Y189344D01*
X84270Y189322D01*
X85345Y186727D01*
X85345Y181573D01*
X83373Y176812D01*
X80165Y173605D01*
X80116Y173547D01*
X80061Y173494D01*
X79957Y173359D01*
X79846Y173229D01*
X79807Y173164D01*
X79760Y173103D01*
X79680Y172953D01*
X79591Y172806D01*
X79563Y172735D01*
X79527Y172668D01*
X79472Y172507D01*
X79408Y172348D01*
X79392Y172274D01*
X79367Y172202D01*
X79338Y172033D01*
X79302Y171866D01*
X79297Y171790D01*
X79285Y171715D01*
X79283Y171544D01*
X79274Y171374D01*
X79282Y171298D01*
X79281Y171222D01*
X79308Y171053D01*
X79326Y170883D01*
X79346Y170810D01*
X79358Y170735D01*
X79412Y170572D01*
X79457Y170408D01*
X79489Y170338D01*
X79512Y170266D01*
X79591Y170115D01*
X79662Y169959D01*
X79705Y169896D01*
X79740Y169828D01*
X79806Y169746D01*
X79938Y169550D01*
X80100Y169378D01*
X80165Y169295D01*
X83373Y166088D01*
X85345Y161327D01*
X85345Y156173D01*
X83373Y151412D01*
X79728Y147767D01*
X74967Y145795D01*
X73340Y145795D01*
X73226Y145786D01*
X73112Y145787D01*
X72981Y145766D01*
X72848Y145755D01*
X72738Y145728D01*
X72625Y145710D01*
X72498Y145669D01*
X72370Y145637D01*
X72265Y145592D01*
X72156Y145556D01*
X72038Y145494D01*
X71916Y145442D01*
X71820Y145381D01*
X71719Y145328D01*
X71645Y145269D01*
X71500Y145177D01*
X71258Y144961D01*
X71185Y144903D01*
X62157Y135875D01*
X62083Y135788D01*
X62002Y135707D01*
X61924Y135600D01*
X61838Y135499D01*
X61779Y135401D01*
X61712Y135309D01*
X61652Y135190D01*
X61583Y135076D01*
X61541Y134970D01*
X61489Y134868D01*
X61449Y134741D01*
X61400Y134618D01*
X61375Y134507D01*
X61341Y134398D01*
X61331Y134304D01*
X61293Y134136D01*
X61275Y133812D01*
X61265Y133720D01*
X61265Y117541D01*
X60646Y116047D01*
X59503Y114904D01*
X58009Y114285D01*
X30891Y114285D01*
X29397Y114904D01*
X28254Y116047D01*
X27635Y117541D01*
X27635Y144659D01*
X28254Y146153D01*
X29397Y147296D01*
X30891Y147915D01*
X36099Y147915D01*
X36137Y147918D01*
X36175Y147916D01*
X36383Y147938D01*
X36591Y147955D01*
X36628Y147964D01*
X36666Y147968D01*
X36867Y148023D01*
X37069Y148073D01*
X37105Y148088D01*
X37141Y148099D01*
X37331Y148186D01*
X37523Y148268D01*
X37555Y148288D01*
X37590Y148304D01*
X37763Y148421D01*
X37939Y148533D01*
X37967Y148558D01*
X37999Y148580D01*
X38151Y148723D01*
X38307Y148862D01*
X38331Y148891D01*
X38359Y148917D01*
X38486Y149083D01*
X38617Y149246D01*
X38636Y149279D01*
X38659Y149309D01*
X38758Y149493D01*
X38861Y149674D01*
X38874Y149710D01*
X38892Y149744D01*
X38960Y149941D01*
X39032Y150137D01*
X39040Y150174D01*
X39052Y150210D01*
X39087Y150417D01*
X39127Y150621D01*
X39128Y150659D01*
X39135Y150697D01*
X39136Y150906D01*
X39142Y151114D01*
X39137Y151152D01*
X39138Y151190D01*
X39105Y151397D01*
X39078Y151603D01*
X39067Y151640D01*
X39061Y151677D01*
X38996Y151876D01*
X38935Y152075D01*
X38919Y152110D01*
X38907Y152146D01*
X38810Y152331D01*
X38719Y152519D01*
X38697Y152550D01*
X38679Y152584D01*
X38621Y152656D01*
X38433Y152921D01*
X38312Y153043D01*
X38254Y153117D01*
X27635Y163735D01*
X27635Y177665D01*
X38316Y188345D01*
X38365Y188403D01*
X38421Y188455D01*
X38524Y188591D01*
X38635Y188721D01*
X38675Y188787D01*
X38721Y188847D01*
X38801Y188997D01*
X38890Y189144D01*
X38918Y189215D01*
X38954Y189282D01*
X39009Y189443D01*
X39073Y189602D01*
X39089Y189676D01*
X39114Y189748D01*
X39143Y189917D01*
X39180Y190083D01*
X39184Y190160D01*
X39197Y190235D01*
X39198Y190406D01*
X39207Y190576D01*
X39199Y190652D01*
X39200Y190728D01*
X39173Y190897D01*
X39155Y191067D01*
X39135Y191140D01*
X39123Y191215D01*
X39070Y191378D01*
X39024Y191542D01*
X38993Y191612D01*
X38969Y191684D01*
X38890Y191835D01*
X38819Y191991D01*
X38776Y192054D01*
X38741Y192122D01*
X38675Y192204D01*
X38543Y192400D01*
X38381Y192573D01*
X38316Y192655D01*
X27635Y203335D01*
X27635Y217265D01*
X38316Y227945D01*
X38365Y228003D01*
X38421Y228055D01*
X38524Y228191D01*
X38635Y228321D01*
X38675Y228387D01*
X38721Y228447D01*
X38801Y228597D01*
X38890Y228744D01*
X38918Y228815D01*
X38954Y228882D01*
X39009Y229043D01*
X39073Y229202D01*
X39089Y229276D01*
X39114Y229348D01*
X39143Y229517D01*
X39180Y229683D01*
X39184Y229760D01*
X39197Y229835D01*
X39198Y230006D01*
X39207Y230176D01*
X39199Y230252D01*
X39200Y230328D01*
X39173Y230497D01*
X39155Y230667D01*
X39135Y230740D01*
X39123Y230815D01*
X39070Y230978D01*
X39024Y231142D01*
X38993Y231212D01*
X38969Y231284D01*
X38890Y231435D01*
X38819Y231591D01*
X38776Y231654D01*
X38741Y231722D01*
X38675Y231804D01*
X38543Y232000D01*
X38381Y232173D01*
X38316Y232255D01*
X27635Y242935D01*
X27635Y256865D01*
X37485Y266715D01*
X51415Y266715D01*
X53272Y264857D01*
X53359Y264783D01*
X53440Y264702D01*
X53547Y264624D01*
X53648Y264538D01*
X53746Y264479D01*
X53838Y264412D01*
X53957Y264352D01*
X54071Y264283D01*
X54177Y264241D01*
X54279Y264189D01*
X54406Y264149D01*
X54529Y264100D01*
X54640Y264075D01*
X54749Y264041D01*
X54843Y264031D01*
X55011Y263993D01*
X55335Y263975D01*
X55427Y263965D01*
X60238Y263965D01*
X65407Y261824D01*
X66023Y261207D01*
X66110Y261133D01*
X66191Y261052D01*
X66298Y260974D01*
X66399Y260888D01*
X66497Y260829D01*
X66589Y260762D01*
X66708Y260702D01*
X66822Y260633D01*
X66928Y260591D01*
X67030Y260539D01*
X67156Y260499D01*
X67280Y260450D01*
X67391Y260425D01*
X67500Y260391D01*
X67594Y260381D01*
X67761Y260343D01*
X68086Y260325D01*
X68178Y260315D01*
X74144Y260315D01*
X74258Y260324D01*
X74372Y260323D01*
X74503Y260344D01*
X74636Y260355D01*
X74746Y260382D01*
X74859Y260400D01*
X74986Y260441D01*
X75114Y260473D01*
X75219Y260518D01*
X75328Y260554D01*
X75446Y260616D01*
X75568Y260668D01*
X75664Y260729D01*
X75765Y260782D01*
X75839Y260841D01*
X75984Y260933D01*
X76226Y261149D01*
X76299Y261207D01*
X77921Y262829D01*
X81748Y264415D01*
X85892Y264415D01*
X89719Y262829D01*
X92649Y259900D01*
X93206Y258556D01*
X93305Y258362D01*
X93401Y258165D01*
X93418Y258142D01*
X93431Y258117D01*
X93560Y257941D01*
X93687Y257763D01*
X93707Y257743D01*
X93724Y257720D01*
X93880Y257567D01*
X94034Y257412D01*
X94057Y257395D01*
X94077Y257375D01*
X94256Y257250D01*
X94432Y257122D01*
X94458Y257109D01*
X94481Y257093D01*
X94678Y256998D01*
X94873Y256899D01*
X94900Y256891D01*
X94926Y256878D01*
X95135Y256817D01*
X95343Y256751D01*
X95367Y256748D01*
X95399Y256739D01*
X95888Y256678D01*
X95968Y256681D01*
X96021Y256675D01*
X104976Y256675D01*
X104985Y256676D01*
X104995Y256675D01*
X105231Y256696D01*
X105467Y256715D01*
X105477Y256717D01*
X105486Y256718D01*
X105525Y256729D01*
X105790Y256795D01*
X122806Y256795D01*
X122928Y256755D01*
X122937Y256754D01*
X122947Y256751D01*
X122987Y256747D01*
X123416Y256682D01*
X123546Y256684D01*
X123624Y256675D01*
X133478Y256675D01*
X133592Y256684D01*
X133706Y256683D01*
X133837Y256704D01*
X133970Y256715D01*
X134081Y256742D01*
X134194Y256760D01*
X134299Y256795D01*
X145093Y256795D01*
X145135Y256785D01*
X145244Y256751D01*
X145338Y256741D01*
X145505Y256703D01*
X145830Y256685D01*
X145922Y256675D01*
X158878Y256675D01*
X158992Y256684D01*
X159106Y256683D01*
X159237Y256704D01*
X159370Y256715D01*
X159481Y256742D01*
X159594Y256760D01*
X159699Y256795D01*
X169940Y256795D01*
X175633Y251101D01*
X175662Y251077D01*
X175688Y251048D01*
X175850Y250917D01*
X176009Y250782D01*
X176042Y250762D01*
X176072Y250738D01*
X176253Y250635D01*
X176432Y250527D01*
X176467Y250513D01*
X176500Y250494D01*
X176696Y250422D01*
X176890Y250344D01*
X176927Y250336D01*
X176963Y250323D01*
X177168Y250283D01*
X177372Y250237D01*
X177410Y250235D01*
X177447Y250228D01*
X177655Y250222D01*
X177864Y250210D01*
X177902Y250214D01*
X177940Y250213D01*
X178147Y250240D01*
X178355Y250262D01*
X178391Y250272D01*
X178429Y250277D01*
X178629Y250337D01*
X178830Y250393D01*
X178865Y250409D01*
X178902Y250420D01*
X179089Y250511D01*
X179279Y250598D01*
X179311Y250620D01*
X179345Y250636D01*
X179514Y250757D01*
X179688Y250874D01*
X179716Y250900D01*
X179747Y250922D01*
X179895Y251068D01*
X180048Y251212D01*
X180071Y251242D01*
X180098Y251269D01*
X180221Y251437D01*
X180348Y251603D01*
X180366Y251637D01*
X180388Y251667D01*
X180482Y251853D01*
X180581Y252038D01*
X180594Y252074D01*
X180611Y252108D01*
X180673Y252307D01*
X180741Y252504D01*
X180747Y252542D01*
X180759Y252578D01*
X180769Y252671D01*
X180824Y252991D01*
X180825Y253163D01*
X180835Y253256D01*
X180835Y273595D01*
X180821Y273775D01*
X180814Y273955D01*
X180801Y274020D01*
X180795Y274087D01*
X180752Y274262D01*
X180716Y274439D01*
X180693Y274501D01*
X180677Y274565D01*
X180605Y274731D01*
X180542Y274900D01*
X180508Y274958D01*
X180482Y275019D01*
X180385Y275171D01*
X180295Y275327D01*
X180253Y275379D01*
X180217Y275435D01*
X180097Y275569D01*
X179982Y275709D01*
X179933Y275753D01*
X179888Y275803D01*
X179748Y275916D01*
X179613Y276036D01*
X179556Y276071D01*
X179504Y276113D01*
X179348Y276202D01*
X179195Y276298D01*
X179133Y276324D01*
X179076Y276357D01*
X178906Y276419D01*
X178740Y276490D01*
X178676Y276505D01*
X178613Y276528D01*
X178436Y276563D01*
X178261Y276605D01*
X178194Y276610D01*
X178129Y276623D01*
X177949Y276629D01*
X177769Y276642D01*
X177702Y276636D01*
X177636Y276638D01*
X177457Y276615D01*
X177277Y276599D01*
X177227Y276584D01*
X177147Y276574D01*
X176675Y276431D01*
X176644Y276417D01*
X176622Y276410D01*
X174027Y275335D01*
X168873Y275335D01*
X164112Y277307D01*
X160905Y280515D01*
X160847Y280564D01*
X160794Y280619D01*
X160659Y280723D01*
X160529Y280834D01*
X160464Y280873D01*
X160403Y280920D01*
X160253Y281000D01*
X160106Y281089D01*
X160035Y281117D01*
X159968Y281153D01*
X159807Y281208D01*
X159648Y281272D01*
X159574Y281288D01*
X159502Y281313D01*
X159333Y281342D01*
X159166Y281378D01*
X159090Y281383D01*
X159015Y281395D01*
X158844Y281397D01*
X158674Y281406D01*
X158598Y281398D01*
X158522Y281399D01*
X158353Y281372D01*
X158183Y281354D01*
X158110Y281334D01*
X158035Y281322D01*
X157872Y281268D01*
X157708Y281223D01*
X157638Y281191D01*
X157566Y281168D01*
X157415Y281089D01*
X157259Y281018D01*
X157196Y280975D01*
X157128Y280940D01*
X157046Y280874D01*
X156850Y280742D01*
X156678Y280580D01*
X156595Y280515D01*
X153388Y277307D01*
X148627Y275335D01*
X143473Y275335D01*
X138712Y277307D01*
X135067Y280952D01*
X133095Y285713D01*
X133095Y287050D01*
X133086Y287164D01*
X133087Y287278D01*
X133066Y287409D01*
X133055Y287542D01*
X133028Y287652D01*
X133010Y287765D01*
X132969Y287892D01*
X132937Y288020D01*
X132892Y288125D01*
X132856Y288234D01*
X132794Y288352D01*
X132742Y288474D01*
X132681Y288570D01*
X132628Y288671D01*
X132569Y288745D01*
X132477Y288890D01*
X132261Y289132D01*
X132203Y289205D01*
X122885Y298523D01*
X122798Y298597D01*
X122717Y298678D01*
X122610Y298756D01*
X122509Y298842D01*
X122411Y298901D01*
X122319Y298968D01*
X122200Y299028D01*
X122086Y299097D01*
X121980Y299139D01*
X121878Y299191D01*
X121751Y299231D01*
X121628Y299280D01*
X121517Y299305D01*
X121408Y299339D01*
X121314Y299349D01*
X121146Y299387D01*
X120822Y299405D01*
X120730Y299415D01*
X104841Y299415D01*
X103347Y300034D01*
X102204Y301177D01*
X101585Y302671D01*
X101585Y329789D01*
X102204Y331283D01*
X103347Y332426D01*
X104841Y333045D01*
X106208Y333045D01*
X106284Y333051D01*
X106360Y333049D01*
X106529Y333071D01*
X106700Y333085D01*
X106774Y333103D01*
X106849Y333113D01*
X107013Y333162D01*
X107179Y333203D01*
X107248Y333233D01*
X107322Y333255D01*
X107475Y333331D01*
X107632Y333398D01*
X107696Y333439D01*
X107765Y333472D01*
X107904Y333571D01*
X108048Y333663D01*
X108105Y333714D01*
X108167Y333758D01*
X108288Y333878D01*
X108416Y333992D01*
X108464Y334051D01*
X108518Y334105D01*
X108619Y334243D01*
X108726Y334376D01*
X108763Y334442D01*
X108808Y334503D01*
X108885Y334656D01*
X108970Y334804D01*
X108996Y334876D01*
X109031Y334944D01*
X109082Y335107D01*
X109141Y335267D01*
X109156Y335342D01*
X109179Y335414D01*
X109191Y335519D01*
X109236Y335751D01*
X109243Y335987D01*
X109255Y336092D01*
X109255Y336119D01*
X110647Y339480D01*
X121901Y350733D01*
X121925Y350762D01*
X121954Y350788D01*
X122085Y350950D01*
X122220Y351109D01*
X122240Y351142D01*
X122264Y351172D01*
X122367Y351352D01*
X122475Y351532D01*
X122489Y351567D01*
X122508Y351600D01*
X122580Y351796D01*
X122658Y351990D01*
X122666Y352027D01*
X122679Y352063D01*
X122719Y352268D01*
X122765Y352472D01*
X122767Y352510D01*
X122774Y352547D01*
X122781Y352755D01*
X122792Y352964D01*
X122788Y353002D01*
X122789Y353040D01*
X122762Y353247D01*
X122740Y353455D01*
X122730Y353491D01*
X122725Y353529D01*
X122665Y353729D01*
X122609Y353930D01*
X122594Y353965D01*
X122583Y354002D01*
X122491Y354189D01*
X122404Y354379D01*
X122382Y354411D01*
X122366Y354445D01*
X122245Y354614D01*
X122128Y354788D01*
X122102Y354816D01*
X122080Y354847D01*
X121934Y354995D01*
X121790Y355148D01*
X121760Y355171D01*
X121733Y355198D01*
X121565Y355321D01*
X121399Y355448D01*
X121366Y355466D01*
X121335Y355488D01*
X121149Y355582D01*
X120964Y355681D01*
X120928Y355694D01*
X120894Y355711D01*
X120695Y355773D01*
X120498Y355841D01*
X120460Y355847D01*
X120424Y355859D01*
X120331Y355869D01*
X120011Y355924D01*
X119839Y355925D01*
X119746Y355935D01*
X7112Y355935D01*
X7036Y355929D01*
X6960Y355931D01*
X6791Y355909D01*
X6620Y355895D01*
X6546Y355877D01*
X6471Y355867D01*
X6307Y355818D01*
X6141Y355777D01*
X6072Y355747D01*
X5998Y355725D01*
X5845Y355649D01*
X5688Y355582D01*
X5624Y355541D01*
X5555Y355508D01*
X5416Y355409D01*
X5272Y355317D01*
X5215Y355266D01*
X5153Y355222D01*
X5032Y355102D01*
X4904Y354988D01*
X4856Y354929D01*
X4802Y354875D01*
X4701Y354737D01*
X4594Y354604D01*
X4557Y354538D01*
X4512Y354477D01*
X4435Y354324D01*
X4350Y354176D01*
X4324Y354104D01*
X4289Y354036D01*
X4238Y353873D01*
X4179Y353713D01*
X4164Y353638D01*
X4141Y353566D01*
X4129Y353461D01*
X4084Y353229D01*
X4077Y352993D01*
X4065Y352888D01*
X4065Y7112D01*
X4071Y7036D01*
X4069Y6960D01*
X4091Y6791D01*
X4105Y6620D01*
X4123Y6546D01*
X4133Y6471D01*
X4182Y6307D01*
X4223Y6141D01*
X4253Y6072D01*
X4275Y5998D01*
X4351Y5845D01*
X4418Y5688D01*
X4459Y5624D01*
X4492Y5555D01*
X4591Y5416D01*
X4683Y5272D01*
X4734Y5215D01*
X4778Y5153D01*
X4898Y5032D01*
X5012Y4904D01*
X5071Y4856D01*
X5125Y4802D01*
X5263Y4701D01*
X5396Y4594D01*
X5462Y4557D01*
X5523Y4512D01*
X5676Y4435D01*
X5824Y4350D01*
X5896Y4324D01*
X5964Y4289D01*
X6127Y4238D01*
X6287Y4179D01*
X6362Y4164D01*
X6434Y4141D01*
X6539Y4129D01*
X6771Y4084D01*
X7007Y4077D01*
X7112Y4065D01*
X271338Y4065D01*
X271376Y4068D01*
G37*
G36*
X426738Y255781D02*
X426738Y255781D01*
X426756Y255779D01*
X426938Y255800D01*
X427121Y255819D01*
X427138Y255824D01*
X427155Y255826D01*
X427330Y255883D01*
X427506Y255937D01*
X427521Y255945D01*
X427538Y255951D01*
X427698Y256041D01*
X427860Y256129D01*
X427873Y256140D01*
X427889Y256149D01*
X428028Y256269D01*
X428169Y256386D01*
X428180Y256400D01*
X428194Y256412D01*
X428306Y256557D01*
X428421Y256700D01*
X428429Y256716D01*
X428440Y256730D01*
X428522Y256895D01*
X428607Y257057D01*
X428612Y257074D01*
X428620Y257091D01*
X428667Y257269D01*
X428718Y257444D01*
X428720Y257462D01*
X428724Y257479D01*
X428751Y257810D01*
X428751Y330200D01*
X428749Y330218D01*
X428751Y330236D01*
X428730Y330418D01*
X428711Y330601D01*
X428706Y330618D01*
X428704Y330635D01*
X428647Y330810D01*
X428593Y330986D01*
X428585Y331001D01*
X428579Y331018D01*
X428489Y331178D01*
X428401Y331340D01*
X428390Y331353D01*
X428381Y331369D01*
X428261Y331508D01*
X428144Y331649D01*
X428130Y331660D01*
X428118Y331674D01*
X427973Y331786D01*
X427830Y331901D01*
X427814Y331909D01*
X427800Y331920D01*
X427635Y332002D01*
X427473Y332087D01*
X427456Y332092D01*
X427440Y332100D01*
X427261Y332147D01*
X427086Y332198D01*
X427068Y332200D01*
X427051Y332204D01*
X426720Y332231D01*
X288290Y332231D01*
X288263Y332229D01*
X288237Y332231D01*
X288063Y332209D01*
X287889Y332191D01*
X287864Y332184D01*
X287837Y332180D01*
X287672Y332125D01*
X287504Y332073D01*
X287481Y332060D01*
X287456Y332052D01*
X287304Y331965D01*
X287150Y331881D01*
X287130Y331864D01*
X287107Y331851D01*
X286854Y331636D01*
X285584Y330366D01*
X285567Y330346D01*
X285547Y330328D01*
X285439Y330190D01*
X285329Y330055D01*
X285316Y330031D01*
X285300Y330010D01*
X285222Y329853D01*
X285140Y329699D01*
X285132Y329674D01*
X285120Y329650D01*
X285075Y329480D01*
X285025Y329313D01*
X285023Y329287D01*
X285016Y329261D01*
X284989Y328930D01*
X284989Y260350D01*
X284991Y260323D01*
X284989Y260297D01*
X285011Y260123D01*
X285029Y259949D01*
X285037Y259924D01*
X285040Y259897D01*
X285096Y259732D01*
X285147Y259564D01*
X285160Y259541D01*
X285168Y259516D01*
X285255Y259364D01*
X285339Y259210D01*
X285356Y259190D01*
X285369Y259167D01*
X285584Y258914D01*
X288124Y256374D01*
X288144Y256357D01*
X288162Y256337D01*
X288300Y256229D01*
X288435Y256119D01*
X288459Y256106D01*
X288480Y256090D01*
X288637Y256012D01*
X288791Y255930D01*
X288816Y255922D01*
X288841Y255910D01*
X289010Y255865D01*
X289177Y255815D01*
X289203Y255813D01*
X289229Y255806D01*
X289560Y255779D01*
X426720Y255779D01*
X426738Y255781D01*
G37*
G36*
X226095Y22864D02*
X226095Y22864D01*
X226129Y22862D01*
X226318Y22884D01*
X226509Y22901D01*
X226542Y22910D01*
X226576Y22914D01*
X226759Y22969D01*
X226943Y23019D01*
X226974Y23034D01*
X227007Y23044D01*
X227178Y23131D01*
X227350Y23213D01*
X227378Y23233D01*
X227409Y23248D01*
X227561Y23364D01*
X227716Y23475D01*
X227740Y23500D01*
X227767Y23520D01*
X227896Y23661D01*
X228030Y23797D01*
X228049Y23826D01*
X228073Y23852D01*
X228175Y24013D01*
X228282Y24170D01*
X228296Y24202D01*
X228314Y24231D01*
X228387Y24408D01*
X228464Y24582D01*
X228472Y24616D01*
X228485Y24648D01*
X228525Y24835D01*
X228571Y25020D01*
X228573Y25054D01*
X228580Y25088D01*
X228599Y25400D01*
X228599Y91440D01*
X228597Y91467D01*
X228598Y91490D01*
X228598Y91496D01*
X228598Y91509D01*
X228576Y91698D01*
X228559Y91889D01*
X228550Y91922D01*
X228546Y91956D01*
X228491Y92139D01*
X228441Y92323D01*
X228426Y92354D01*
X228416Y92387D01*
X228329Y92558D01*
X228247Y92730D01*
X228227Y92758D01*
X228212Y92789D01*
X228096Y92941D01*
X227985Y93096D01*
X227960Y93120D01*
X227940Y93147D01*
X227800Y93276D01*
X227663Y93410D01*
X227634Y93429D01*
X227608Y93453D01*
X227447Y93555D01*
X227290Y93662D01*
X227258Y93676D01*
X227229Y93694D01*
X227052Y93767D01*
X226878Y93844D01*
X226844Y93852D01*
X226812Y93865D01*
X226625Y93905D01*
X226440Y93951D01*
X226406Y93953D01*
X226372Y93960D01*
X226060Y93979D01*
X130810Y93979D01*
X130776Y93976D01*
X130741Y93978D01*
X130552Y93956D01*
X130362Y93939D01*
X130328Y93930D01*
X130294Y93926D01*
X130111Y93871D01*
X129927Y93821D01*
X129896Y93806D01*
X129863Y93796D01*
X129692Y93709D01*
X129521Y93627D01*
X129492Y93607D01*
X129461Y93592D01*
X129309Y93476D01*
X129154Y93365D01*
X129130Y93340D01*
X129103Y93320D01*
X128974Y93180D01*
X128840Y93043D01*
X128821Y93014D01*
X128798Y92988D01*
X128695Y92827D01*
X128588Y92670D01*
X128574Y92638D01*
X128556Y92609D01*
X128483Y92432D01*
X128406Y92258D01*
X128398Y92224D01*
X128385Y92192D01*
X128345Y92005D01*
X128299Y91820D01*
X128297Y91786D01*
X128290Y91752D01*
X128271Y91440D01*
X128271Y25400D01*
X128274Y25366D01*
X128272Y25331D01*
X128294Y25142D01*
X128311Y24952D01*
X128320Y24918D01*
X128324Y24884D01*
X128379Y24701D01*
X128429Y24517D01*
X128444Y24486D01*
X128454Y24453D01*
X128541Y24282D01*
X128623Y24111D01*
X128643Y24082D01*
X128658Y24051D01*
X128774Y23899D01*
X128885Y23744D01*
X128910Y23720D01*
X128930Y23693D01*
X129071Y23564D01*
X129207Y23430D01*
X129236Y23411D01*
X129262Y23388D01*
X129423Y23285D01*
X129580Y23178D01*
X129612Y23164D01*
X129641Y23146D01*
X129818Y23073D01*
X129992Y22996D01*
X130026Y22988D01*
X130058Y22975D01*
X130245Y22935D01*
X130430Y22889D01*
X130464Y22887D01*
X130498Y22880D01*
X130810Y22861D01*
X226060Y22861D01*
X226095Y22864D01*
G37*
G36*
X252741Y239613D02*
X252741Y239613D01*
X252960Y239611D01*
X252988Y239616D01*
X253016Y239616D01*
X253231Y239654D01*
X253447Y239688D01*
X253474Y239697D01*
X253502Y239702D01*
X253708Y239774D01*
X253916Y239842D01*
X253941Y239855D01*
X253968Y239865D01*
X254159Y239969D01*
X254353Y240070D01*
X254372Y240085D01*
X254401Y240101D01*
X254790Y240403D01*
X254845Y240462D01*
X254886Y240495D01*
X280031Y265640D01*
X280105Y265727D01*
X280186Y265807D01*
X280264Y265914D01*
X280350Y266016D01*
X280409Y266113D01*
X280476Y266206D01*
X280536Y266324D01*
X280605Y266438D01*
X280647Y266544D01*
X280699Y266646D01*
X280739Y266773D01*
X280788Y266896D01*
X280813Y267008D01*
X280847Y267117D01*
X280857Y267210D01*
X280895Y267378D01*
X280913Y267702D01*
X280923Y267794D01*
X280923Y330143D01*
X281854Y332390D01*
X281856Y332392D01*
X281884Y332418D01*
X282015Y332580D01*
X282151Y332739D01*
X282170Y332772D01*
X282194Y332802D01*
X282297Y332982D01*
X282405Y333162D01*
X282419Y333197D01*
X282438Y333230D01*
X282511Y333426D01*
X282588Y333620D01*
X282597Y333657D01*
X282610Y333693D01*
X282650Y333898D01*
X282695Y334101D01*
X282697Y334140D01*
X282705Y334177D01*
X282711Y334385D01*
X282723Y334594D01*
X282719Y334632D01*
X282720Y334670D01*
X282693Y334877D01*
X282671Y335085D01*
X282660Y335121D01*
X282656Y335159D01*
X282595Y335359D01*
X282540Y335560D01*
X282524Y335595D01*
X282513Y335632D01*
X282421Y335819D01*
X282334Y336009D01*
X282313Y336041D01*
X282296Y336075D01*
X282176Y336244D01*
X282059Y336418D01*
X282033Y336446D01*
X282011Y336477D01*
X281864Y336625D01*
X281721Y336778D01*
X281691Y336801D01*
X281664Y336828D01*
X281495Y336951D01*
X281330Y337078D01*
X281296Y337096D01*
X281265Y337118D01*
X281079Y337212D01*
X280895Y337311D01*
X280859Y337323D01*
X280825Y337341D01*
X280626Y337403D01*
X280428Y337471D01*
X280391Y337477D01*
X280354Y337489D01*
X280262Y337499D01*
X279942Y337554D01*
X279770Y337555D01*
X279676Y337565D01*
X247001Y337565D01*
X246963Y337562D01*
X246925Y337564D01*
X246717Y337542D01*
X246509Y337525D01*
X246472Y337516D01*
X246434Y337512D01*
X246233Y337457D01*
X246031Y337407D01*
X245995Y337392D01*
X245959Y337381D01*
X245769Y337294D01*
X245577Y337212D01*
X245545Y337192D01*
X245510Y337176D01*
X245337Y337059D01*
X245161Y336947D01*
X245133Y336922D01*
X245101Y336900D01*
X244949Y336757D01*
X244793Y336618D01*
X244769Y336589D01*
X244741Y336563D01*
X244614Y336397D01*
X244483Y336234D01*
X244464Y336201D01*
X244441Y336171D01*
X244342Y335987D01*
X244239Y335806D01*
X244226Y335770D01*
X244208Y335736D01*
X244140Y335539D01*
X244068Y335343D01*
X244060Y335306D01*
X244048Y335270D01*
X244013Y335063D01*
X243973Y334859D01*
X243972Y334821D01*
X243965Y334783D01*
X243964Y334574D01*
X243958Y334366D01*
X243963Y334328D01*
X243962Y334290D01*
X243995Y334083D01*
X244022Y333877D01*
X244033Y333840D01*
X244039Y333803D01*
X244104Y333604D01*
X244165Y333405D01*
X244181Y333370D01*
X244193Y333334D01*
X244290Y333149D01*
X244381Y332961D01*
X244403Y332930D01*
X244421Y332896D01*
X244479Y332824D01*
X244667Y332559D01*
X244788Y332437D01*
X244846Y332363D01*
X254015Y323195D01*
X254015Y309265D01*
X251157Y306408D01*
X251083Y306321D01*
X251002Y306240D01*
X250924Y306133D01*
X250838Y306032D01*
X250779Y305934D01*
X250712Y305842D01*
X250652Y305723D01*
X250583Y305609D01*
X250541Y305503D01*
X250489Y305401D01*
X250449Y305274D01*
X250400Y305151D01*
X250375Y305040D01*
X250341Y304931D01*
X250331Y304837D01*
X250293Y304669D01*
X250275Y304345D01*
X250265Y304253D01*
X250265Y300641D01*
X248276Y295839D01*
X229651Y277214D01*
X224849Y275225D01*
X219651Y275225D01*
X218578Y275670D01*
X218406Y275725D01*
X218237Y275788D01*
X218172Y275801D01*
X218109Y275821D01*
X217930Y275848D01*
X217753Y275883D01*
X217687Y275885D01*
X217621Y275895D01*
X217440Y275892D01*
X217260Y275898D01*
X217194Y275889D01*
X217127Y275888D01*
X216950Y275857D01*
X216771Y275834D01*
X216707Y275814D01*
X216642Y275803D01*
X216471Y275743D01*
X216298Y275691D01*
X216239Y275662D01*
X216176Y275640D01*
X216017Y275553D01*
X215855Y275474D01*
X215801Y275436D01*
X215743Y275404D01*
X215600Y275293D01*
X215453Y275189D01*
X215406Y275142D01*
X215353Y275101D01*
X215230Y274969D01*
X215102Y274842D01*
X215063Y274788D01*
X215018Y274739D01*
X214918Y274589D01*
X214812Y274443D01*
X214782Y274384D01*
X214745Y274328D01*
X214671Y274164D01*
X214589Y274003D01*
X214569Y273939D01*
X214542Y273879D01*
X214495Y273705D01*
X214441Y273532D01*
X214435Y273480D01*
X214414Y273402D01*
X214365Y272911D01*
X214367Y272878D01*
X214365Y272855D01*
X214365Y242812D01*
X214371Y242736D01*
X214369Y242660D01*
X214391Y242491D01*
X214405Y242320D01*
X214423Y242246D01*
X214433Y242171D01*
X214482Y242007D01*
X214523Y241841D01*
X214553Y241772D01*
X214575Y241698D01*
X214651Y241545D01*
X214718Y241388D01*
X214759Y241324D01*
X214792Y241255D01*
X214891Y241116D01*
X214983Y240972D01*
X215034Y240915D01*
X215078Y240853D01*
X215198Y240732D01*
X215312Y240604D01*
X215371Y240556D01*
X215425Y240502D01*
X215563Y240401D01*
X215696Y240294D01*
X215762Y240257D01*
X215823Y240212D01*
X215976Y240135D01*
X216124Y240050D01*
X216196Y240024D01*
X216264Y239989D01*
X216427Y239938D01*
X216587Y239879D01*
X216662Y239864D01*
X216734Y239841D01*
X216839Y239829D01*
X217071Y239784D01*
X217307Y239777D01*
X217412Y239765D01*
X251782Y239765D01*
X251980Y239697D01*
X252008Y239692D01*
X252035Y239684D01*
X252251Y239651D01*
X252466Y239614D01*
X252495Y239614D01*
X252523Y239610D01*
X252741Y239613D01*
G37*
%LPC*%
G36*
X641268Y305435D02*
X641268Y305435D01*
X634077Y308414D01*
X628574Y313917D01*
X625595Y321108D01*
X625595Y328892D01*
X628574Y336083D01*
X634077Y341586D01*
X641268Y344565D01*
X649052Y344565D01*
X656243Y341586D01*
X661746Y336083D01*
X664725Y328892D01*
X664725Y321108D01*
X661746Y313917D01*
X656243Y308414D01*
X649052Y305435D01*
X641268Y305435D01*
G37*
%LPD*%
%LPC*%
G36*
X31668Y305435D02*
X31668Y305435D01*
X24477Y308414D01*
X18974Y313917D01*
X15995Y321108D01*
X15995Y328892D01*
X18974Y336083D01*
X24477Y341586D01*
X31668Y344565D01*
X39452Y344565D01*
X46643Y341586D01*
X52146Y336083D01*
X55125Y328892D01*
X55125Y321108D01*
X52146Y313917D01*
X46643Y308414D01*
X39452Y305435D01*
X31668Y305435D01*
G37*
%LPD*%
%LPC*%
G36*
X641268Y18535D02*
X641268Y18535D01*
X634077Y21514D01*
X628574Y27017D01*
X625595Y34208D01*
X625595Y41992D01*
X628574Y49183D01*
X634077Y54686D01*
X641268Y57665D01*
X649052Y57665D01*
X656243Y54686D01*
X661746Y49183D01*
X664725Y41992D01*
X664725Y34208D01*
X661746Y27017D01*
X656243Y21514D01*
X649052Y18535D01*
X641268Y18535D01*
G37*
%LPD*%
%LPC*%
G36*
X31668Y18535D02*
X31668Y18535D01*
X24477Y21514D01*
X18974Y27017D01*
X15995Y34208D01*
X15995Y41992D01*
X18974Y49183D01*
X24477Y54686D01*
X31668Y57665D01*
X39452Y57665D01*
X46643Y54686D01*
X52146Y49183D01*
X55125Y41992D01*
X55125Y34208D01*
X52146Y27017D01*
X46643Y21514D01*
X39452Y18535D01*
X31668Y18535D01*
G37*
%LPD*%
%LPC*%
G36*
X639271Y89915D02*
X639271Y89915D01*
X637777Y90534D01*
X636634Y91677D01*
X636015Y93171D01*
X636015Y110106D01*
X636055Y110228D01*
X636056Y110237D01*
X636059Y110247D01*
X636063Y110287D01*
X636128Y110716D01*
X636126Y110846D01*
X636135Y110924D01*
X636135Y120778D01*
X636126Y120892D01*
X636127Y121006D01*
X636106Y121137D01*
X636095Y121270D01*
X636068Y121381D01*
X636050Y121494D01*
X636015Y121599D01*
X636015Y131840D01*
X642860Y138685D01*
X652540Y138685D01*
X659385Y131840D01*
X659385Y121607D01*
X659375Y121565D01*
X659341Y121456D01*
X659331Y121362D01*
X659293Y121195D01*
X659275Y120870D01*
X659265Y120778D01*
X659265Y110924D01*
X659266Y110915D01*
X659265Y110905D01*
X659286Y110668D01*
X659305Y110433D01*
X659307Y110423D01*
X659308Y110414D01*
X659319Y110375D01*
X659385Y110110D01*
X659385Y93171D01*
X658766Y91677D01*
X657623Y90534D01*
X656129Y89915D01*
X639271Y89915D01*
G37*
%LPD*%
%LPC*%
G36*
X117347Y117347D02*
X117347Y117347D01*
X117347Y124461D01*
X122255Y124461D01*
X122901Y124288D01*
X123480Y123953D01*
X123953Y123480D01*
X124288Y122901D01*
X124461Y122255D01*
X124461Y120787D01*
X124464Y120749D01*
X124462Y120711D01*
X124484Y120503D01*
X124501Y120295D01*
X124510Y120258D01*
X124514Y120220D01*
X124569Y120019D01*
X124619Y119816D01*
X124634Y119781D01*
X124645Y119745D01*
X124732Y119555D01*
X124814Y119363D01*
X124834Y119331D01*
X124850Y119296D01*
X124967Y119123D01*
X125079Y118947D01*
X125104Y118918D01*
X125126Y118887D01*
X125269Y118735D01*
X125408Y118579D01*
X125437Y118555D01*
X125463Y118527D01*
X125629Y118400D01*
X125792Y118269D01*
X125825Y118250D01*
X125855Y118227D01*
X126039Y118128D01*
X126220Y118025D01*
X126256Y118012D01*
X126290Y117994D01*
X126487Y117926D01*
X126683Y117853D01*
X126720Y117846D01*
X126756Y117834D01*
X126963Y117799D01*
X127167Y117759D01*
X127205Y117758D01*
X127243Y117751D01*
X127452Y117750D01*
X127660Y117743D01*
X127698Y117748D01*
X127736Y117748D01*
X127943Y117781D01*
X128149Y117808D01*
X128186Y117819D01*
X128223Y117825D01*
X128422Y117890D01*
X128621Y117950D01*
X128656Y117967D01*
X128692Y117979D01*
X128877Y118076D01*
X129065Y118167D01*
X129096Y118189D01*
X129130Y118207D01*
X129202Y118265D01*
X129467Y118453D01*
X129589Y118573D01*
X129663Y118632D01*
X135491Y124461D01*
X136653Y124461D01*
X136653Y117347D01*
X117347Y117347D01*
G37*
%LPD*%
%LPC*%
G36*
X117347Y104139D02*
X117347Y104139D01*
X117347Y111253D01*
X136653Y111253D01*
X136653Y104139D01*
X135491Y104139D01*
X129663Y109968D01*
X129634Y109993D01*
X129608Y110021D01*
X129446Y110152D01*
X129287Y110287D01*
X129254Y110307D01*
X129224Y110331D01*
X129043Y110434D01*
X128864Y110542D01*
X128829Y110556D01*
X128796Y110575D01*
X128600Y110648D01*
X128406Y110725D01*
X128369Y110733D01*
X128333Y110747D01*
X128128Y110787D01*
X127924Y110832D01*
X127886Y110834D01*
X127849Y110841D01*
X127641Y110848D01*
X127432Y110859D01*
X127394Y110855D01*
X127356Y110857D01*
X127149Y110829D01*
X126941Y110807D01*
X126905Y110797D01*
X126867Y110792D01*
X126667Y110732D01*
X126466Y110677D01*
X126431Y110661D01*
X126394Y110650D01*
X126207Y110558D01*
X126017Y110471D01*
X125985Y110449D01*
X125951Y110433D01*
X125782Y110312D01*
X125608Y110195D01*
X125580Y110169D01*
X125549Y110147D01*
X125401Y110001D01*
X125248Y109858D01*
X125225Y109827D01*
X125198Y109801D01*
X125075Y109632D01*
X124948Y109466D01*
X124930Y109433D01*
X124908Y109402D01*
X124814Y109216D01*
X124715Y109032D01*
X124702Y108995D01*
X124685Y108961D01*
X124623Y108763D01*
X124555Y108565D01*
X124549Y108527D01*
X124537Y108491D01*
X124527Y108398D01*
X124472Y108078D01*
X124471Y107906D01*
X124461Y107813D01*
X124461Y106345D01*
X124288Y105699D01*
X123953Y105120D01*
X123480Y104647D01*
X122901Y104312D01*
X122255Y104139D01*
X117347Y104139D01*
G37*
%LPD*%
%LPC*%
G36*
X104139Y117347D02*
X104139Y117347D01*
X104139Y122255D01*
X104312Y122901D01*
X104647Y123480D01*
X105120Y123953D01*
X105699Y124288D01*
X106345Y124461D01*
X111253Y124461D01*
X111253Y117347D01*
X104139Y117347D01*
G37*
%LPD*%
%LPC*%
G36*
X106345Y104139D02*
X106345Y104139D01*
X105699Y104312D01*
X105120Y104647D01*
X104647Y105120D01*
X104312Y105699D01*
X104139Y106345D01*
X104139Y111253D01*
X111253Y111253D01*
X111253Y104139D01*
X106345Y104139D01*
G37*
%LPD*%
%LPC*%
G36*
X307158Y33527D02*
X307158Y33527D01*
X307158Y34847D01*
X313333Y41022D01*
X314653Y41022D01*
X314653Y33527D01*
X307158Y33527D01*
G37*
%LPD*%
%LPC*%
G36*
X204008Y117347D02*
X204008Y117347D01*
X204078Y117370D01*
X204242Y117415D01*
X204312Y117447D01*
X204384Y117471D01*
X204535Y117550D01*
X204691Y117621D01*
X204754Y117664D01*
X204822Y117699D01*
X204904Y117764D01*
X205100Y117897D01*
X205273Y118059D01*
X205355Y118124D01*
X211691Y124461D01*
X212853Y124461D01*
X212853Y117347D01*
X204008Y117347D01*
G37*
%LPD*%
%LPC*%
G36*
X178608Y117347D02*
X178608Y117347D01*
X178678Y117370D01*
X178842Y117415D01*
X178912Y117447D01*
X178984Y117471D01*
X179135Y117550D01*
X179291Y117621D01*
X179354Y117664D01*
X179422Y117699D01*
X179504Y117764D01*
X179700Y117897D01*
X179873Y118059D01*
X179955Y118124D01*
X186291Y124461D01*
X187453Y124461D01*
X187453Y117347D01*
X178608Y117347D01*
G37*
%LPD*%
%LPC*%
G36*
X153208Y117347D02*
X153208Y117347D01*
X153278Y117370D01*
X153442Y117415D01*
X153512Y117447D01*
X153584Y117471D01*
X153735Y117550D01*
X153891Y117621D01*
X153954Y117664D01*
X154022Y117699D01*
X154104Y117764D01*
X154300Y117897D01*
X154473Y118059D01*
X154555Y118124D01*
X160891Y124461D01*
X162053Y124461D01*
X162053Y117347D01*
X153208Y117347D01*
G37*
%LPD*%
%LPC*%
G36*
X193547Y104139D02*
X193547Y104139D01*
X193547Y111253D01*
X202392Y111253D01*
X202322Y111230D01*
X202158Y111185D01*
X202088Y111153D01*
X202016Y111129D01*
X201865Y111050D01*
X201709Y110979D01*
X201646Y110936D01*
X201578Y110901D01*
X201496Y110836D01*
X201300Y110703D01*
X201127Y110541D01*
X201045Y110476D01*
X194709Y104139D01*
X193547Y104139D01*
G37*
%LPD*%
%LPC*%
G36*
X142747Y104139D02*
X142747Y104139D01*
X142747Y111253D01*
X151592Y111253D01*
X151522Y111230D01*
X151358Y111185D01*
X151288Y111153D01*
X151216Y111129D01*
X151065Y111050D01*
X150909Y110979D01*
X150846Y110936D01*
X150778Y110901D01*
X150696Y110835D01*
X150500Y110703D01*
X150328Y110542D01*
X150245Y110476D01*
X143909Y104139D01*
X142747Y104139D01*
G37*
%LPD*%
%LPC*%
G36*
X168147Y104139D02*
X168147Y104139D01*
X168147Y111253D01*
X176992Y111253D01*
X176922Y111230D01*
X176758Y111185D01*
X176688Y111153D01*
X176616Y111129D01*
X176465Y111050D01*
X176309Y110979D01*
X176246Y110936D01*
X176178Y110901D01*
X176096Y110835D01*
X175900Y110703D01*
X175728Y110542D01*
X175645Y110476D01*
X169309Y104139D01*
X168147Y104139D01*
G37*
%LPD*%
%LPC*%
G36*
X193547Y117347D02*
X193547Y117347D01*
X193547Y124461D01*
X194709Y124461D01*
X201045Y118124D01*
X201103Y118075D01*
X201155Y118019D01*
X201291Y117915D01*
X201421Y117805D01*
X201487Y117765D01*
X201547Y117719D01*
X201697Y117638D01*
X201844Y117550D01*
X201914Y117522D01*
X201982Y117486D01*
X202143Y117430D01*
X202302Y117367D01*
X202376Y117351D01*
X202385Y117347D01*
X193547Y117347D01*
G37*
%LPD*%
%LPC*%
G36*
X142747Y117347D02*
X142747Y117347D01*
X142747Y124461D01*
X143909Y124461D01*
X150245Y118124D01*
X150303Y118075D01*
X150355Y118019D01*
X150491Y117915D01*
X150621Y117805D01*
X150687Y117765D01*
X150747Y117719D01*
X150897Y117638D01*
X151044Y117550D01*
X151114Y117522D01*
X151182Y117486D01*
X151343Y117430D01*
X151502Y117367D01*
X151576Y117351D01*
X151585Y117347D01*
X142747Y117347D01*
G37*
%LPD*%
%LPC*%
G36*
X168147Y117347D02*
X168147Y117347D01*
X168147Y124461D01*
X169309Y124461D01*
X175645Y118124D01*
X175703Y118075D01*
X175755Y118019D01*
X175891Y117915D01*
X176021Y117805D01*
X176087Y117765D01*
X176147Y117719D01*
X176297Y117638D01*
X176444Y117550D01*
X176514Y117522D01*
X176582Y117486D01*
X176743Y117430D01*
X176902Y117367D01*
X176976Y117351D01*
X176985Y117347D01*
X168147Y117347D01*
G37*
%LPD*%
%LPC*%
G36*
X160891Y104139D02*
X160891Y104139D01*
X154555Y110476D01*
X154497Y110525D01*
X154444Y110581D01*
X154309Y110685D01*
X154179Y110795D01*
X154113Y110835D01*
X154053Y110881D01*
X153903Y110962D01*
X153756Y111050D01*
X153685Y111078D01*
X153618Y111114D01*
X153457Y111170D01*
X153298Y111233D01*
X153224Y111249D01*
X153215Y111253D01*
X162053Y111253D01*
X162053Y104139D01*
X160891Y104139D01*
G37*
%LPD*%
%LPC*%
G36*
X186291Y104139D02*
X186291Y104139D01*
X179955Y110476D01*
X179897Y110525D01*
X179844Y110581D01*
X179709Y110685D01*
X179579Y110795D01*
X179513Y110835D01*
X179453Y110881D01*
X179303Y110962D01*
X179156Y111050D01*
X179085Y111078D01*
X179018Y111114D01*
X178857Y111170D01*
X178698Y111233D01*
X178624Y111249D01*
X178615Y111253D01*
X187453Y111253D01*
X187453Y104139D01*
X186291Y104139D01*
G37*
%LPD*%
%LPC*%
G36*
X211691Y104139D02*
X211691Y104139D01*
X205355Y110476D01*
X205297Y110525D01*
X205245Y110581D01*
X205109Y110685D01*
X204979Y110795D01*
X204913Y110835D01*
X204853Y110881D01*
X204703Y110962D01*
X204556Y111050D01*
X204486Y111078D01*
X204418Y111114D01*
X204257Y111170D01*
X204098Y111233D01*
X204024Y111249D01*
X204015Y111253D01*
X212853Y111253D01*
X212853Y104139D01*
X211691Y104139D01*
G37*
%LPD*%
%LPC*%
G36*
X510939Y33527D02*
X510939Y33527D01*
X510939Y34689D01*
X516891Y40641D01*
X518053Y40641D01*
X518053Y33527D01*
X510939Y33527D01*
G37*
%LPD*%
%LPC*%
G36*
X465691Y116839D02*
X465691Y116839D01*
X459739Y122791D01*
X459739Y123953D01*
X466853Y123953D01*
X466853Y116839D01*
X465691Y116839D01*
G37*
%LPD*%
D10*
X520700Y152400D03*
X520700Y127000D03*
X495300Y152400D03*
X495300Y127000D03*
X469900Y152400D03*
X469900Y127000D03*
D11*
X148070Y44450D03*
D12*
X108470Y44450D03*
D11*
X248400Y44450D03*
D12*
X208800Y44450D03*
D11*
X44450Y131100D03*
D13*
X44450Y170700D03*
X44450Y210300D03*
X44450Y249900D03*
D14*
X342700Y30480D03*
D15*
X317700Y30480D03*
D16*
X571100Y30480D03*
D17*
X546100Y30480D03*
X521100Y30480D03*
D16*
X456800Y30480D03*
D17*
X431800Y30480D03*
X406800Y30480D03*
D11*
X118400Y316230D03*
D18*
X158000Y316230D03*
X197600Y316230D03*
X237200Y316230D03*
D19*
X304800Y110490D03*
X330200Y110490D03*
X355600Y110490D03*
D20*
X72390Y158750D03*
X72390Y184150D03*
X72390Y209550D03*
X72390Y234950D03*
X146050Y288290D03*
X171450Y288290D03*
X196850Y288290D03*
X222250Y288290D03*
D21*
X138430Y82550D02*
X138430Y67310D01*
X113030Y67310D02*
X113030Y82550D01*
X245110Y82550D02*
X245110Y67310D01*
X219710Y67310D02*
X219710Y82550D01*
D16*
X139700Y152400D03*
D22*
X139700Y177800D03*
X165100Y152400D03*
X165100Y177800D03*
D16*
X114300Y245110D03*
D17*
X139700Y245110D03*
X165100Y245110D03*
D16*
X335280Y294640D03*
D22*
X335280Y320040D03*
X360680Y294640D03*
X360680Y320040D03*
X386080Y294640D03*
X386080Y320040D03*
X411480Y294640D03*
X411480Y320040D03*
D16*
X647700Y101600D03*
D10*
X647700Y127000D03*
D16*
X114300Y114300D03*
D17*
X139700Y114300D03*
X165100Y114300D03*
X190500Y114300D03*
X215900Y114300D03*
D23*
X450850Y113030D03*
X438150Y181610D03*
D24*
X495300Y275590D03*
D23*
X266700Y317500D03*
X439420Y321310D03*
X304800Y50800D03*
X330200Y50800D03*
D25*
X360680Y219710D03*
D23*
X15240Y138430D03*
X598170Y127000D03*
X598170Y217170D03*
X598170Y101600D03*
X598170Y148590D03*
X523240Y317500D03*
X544830Y300990D03*
X591820Y300990D03*
X459740Y171450D03*
X355600Y50800D03*
X374650Y50800D03*
X15240Y163830D03*
X15240Y189230D03*
X15240Y214630D03*
X15240Y240030D03*
X474980Y26670D03*
X598170Y171450D03*
X537210Y106680D03*
X463550Y97790D03*
X15240Y265430D03*
X15240Y290830D03*
X40640Y290830D03*
X66040Y290830D03*
X15240Y113030D03*
X15240Y87630D03*
X53340Y87630D03*
X495300Y303530D03*
X600710Y242570D03*
X266700Y292100D03*
X91440Y290830D03*
X78740Y278130D03*
X53340Y278130D03*
X27940Y278130D03*
D25*
X330200Y189230D03*
X314960Y189230D03*
X345440Y189230D03*
D23*
X78740Y303530D03*
X105410Y172720D03*
X105410Y147320D03*
X591820Y326390D03*
X638810Y229870D03*
X638810Y250190D03*
X668020Y128270D03*
X668020Y102870D03*
X664210Y77470D03*
X628650Y77470D03*
X664210Y280670D03*
X600710Y261620D03*
X266700Y266700D03*
X461010Y321310D03*
X113030Y283210D03*
D25*
X360680Y189230D03*
X314960Y234950D03*
X330200Y234950D03*
X345440Y234950D03*
X360680Y234950D03*
X360680Y204470D03*
D23*
X501650Y80010D03*
X473710Y80010D03*
X474980Y48260D03*
X502920Y48260D03*
X502920Y26670D03*
X276860Y109220D03*
X314960Y142240D03*
X334010Y142240D03*
X276860Y124460D03*
X374650Y63500D03*
X374650Y76200D03*
X387350Y76200D03*
X388620Y99060D03*
X77470Y344170D03*
X34290Y87630D03*
X646430Y77470D03*
X21590Y74930D03*
X46990Y74930D03*
X476250Y330200D03*
X514350Y330200D03*
X495300Y330200D03*
X533400Y330200D03*
X544830Y317500D03*
D26*
X179070Y85090D03*
X179070Y30480D03*
X179070Y59690D03*
D27*
X304800Y266700D03*
D28*
X248400Y183400D02*
X221500Y210300D01*
X177800Y210300D02*
X44450Y210300D01*
X177800Y210300D02*
X203200Y210300D01*
X221500Y210300D01*
X197600Y234200D02*
X197600Y316230D01*
X197600Y234200D02*
X221500Y210300D01*
X197600Y230100D02*
X197600Y316230D01*
X197600Y230100D02*
X177800Y210300D01*
X248400Y183400D02*
X248400Y44450D01*
X248400Y210300D02*
X248400Y223000D01*
X248400Y210300D02*
X248400Y183400D01*
X248400Y210300D02*
X304800Y266700D01*
X215900Y223000D02*
X203200Y210300D01*
X215900Y223000D02*
X248400Y223000D01*
D23*
X297180Y292100D03*
X297180Y325120D03*
X297180Y308610D03*
X336550Y269240D03*
X407670Y269240D03*
D29*
X538480Y245110D03*
D30*
X520700Y134620D02*
X520700Y127000D01*
X520700Y134620D02*
X508000Y147320D01*
D31*
X534670Y241300D02*
X538480Y245110D01*
D30*
X534670Y241300D02*
X469900Y241300D01*
X457200Y228600D01*
X457200Y190500D01*
X469900Y177800D01*
X495300Y177800D01*
X508000Y165100D01*
X508000Y147320D01*
D32*
X644420Y182880D03*
X511374Y192206D03*
D31*
X622300Y192412D02*
X622300Y101600D01*
X609600Y88900D01*
X609600Y12700D01*
X279400Y12700D01*
X279400Y85090D01*
X304800Y110490D01*
X511374Y192206D02*
X622094Y192206D01*
X622300Y192412D01*
X634888Y192412D01*
X644420Y182880D01*
D23*
X419100Y190500D03*
D31*
X419100Y123190D01*
X406400Y110490D01*
X355600Y110490D01*
D23*
X388620Y190500D03*
X406400Y139700D03*
D33*
X388620Y144780D02*
X388620Y190500D01*
X393700Y139700D02*
X406400Y139700D01*
X393700Y139700D02*
X388620Y144780D01*
X72100Y158750D02*
X44450Y131100D01*
X72100Y158750D02*
X72390Y158750D01*
D32*
X622300Y254000D03*
D33*
X609600Y292100D02*
X609600Y346710D01*
X622300Y279400D02*
X622300Y254000D01*
X622300Y279400D02*
X609600Y292100D01*
X609600Y346710D02*
X130810Y346710D01*
X118400Y334300D02*
X118400Y316230D01*
X118400Y334300D02*
X130810Y346710D01*
X118400Y315940D02*
X146050Y288290D01*
X118400Y315940D02*
X118400Y316230D01*
D34*
X57440Y249900D02*
X72390Y234950D01*
D35*
X57440Y249900D02*
X44450Y249900D01*
D34*
X222250Y288290D02*
X237200Y303240D01*
X237200Y316230D01*
D23*
X83820Y254000D03*
D36*
X139700Y245110D02*
X165100Y245110D01*
X139700Y245110D02*
X114300Y245110D01*
X82550Y245110D02*
X72390Y234950D01*
X82550Y245110D02*
X114300Y245110D01*
D33*
X83820Y246380D02*
X83820Y254000D01*
X83820Y246380D02*
X82550Y245110D01*
D37*
X79720Y249900D02*
X44450Y249900D01*
X79720Y249900D02*
X83820Y254000D01*
D36*
X139700Y177800D02*
X165100Y177800D01*
X165100Y152400D01*
X139700Y152400D01*
X139700Y177800D01*
X165100Y152400D01*
D32*
X546100Y127000D03*
X473710Y207010D03*
D30*
X533400Y165100D02*
X546100Y152400D01*
X533400Y165100D02*
X520700Y165100D01*
X478790Y207010D02*
X473710Y207010D01*
X478790Y207010D02*
X520700Y165100D01*
X546100Y152400D02*
X546100Y127000D01*
D33*
X57900Y184150D02*
X44450Y170700D01*
X57900Y184150D02*
X72390Y184150D01*
X171450Y302780D02*
X158000Y316230D01*
X171450Y302780D02*
X171450Y288290D01*
D36*
X647700Y127000D02*
X647700Y101600D01*
M02*
