G04 EAGLE Gerber RS-274X export*
G75*
%MOMM*%
%FSLAX34Y34*%
%LPD*%
%INSoldermask Bottom*%
%IPPOS*%
%AMOC8*
5,1,8,0,0,1.08239X$1,22.5*%
G01*
%ADD10C,3.303200*%
%ADD11P,1.869504X8X202.500000*%
%ADD12R,2.753200X2.753200*%
%ADD13P,2.980036X8X292.500000*%
%ADD14P,2.980036X8X202.500000*%
%ADD15R,1.803400X1.803400*%
%ADD16P,1.951982X8X112.500000*%
%ADD17R,1.727200X1.727200*%
%ADD18P,1.869504X8X112.500000*%
%ADD19P,2.980036X8X112.500000*%
%ADD20C,1.727200*%
%ADD21C,1.981200*%
%ADD22C,1.727200*%
%ADD23P,1.869504X8X22.500000*%
%ADD24C,1.511200*%
%ADD25C,1.411200*%
%ADD26C,1.361200*%
%ADD27C,3.719200*%
%ADD28C,1.711200*%


D10*
X35560Y38100D03*
X35560Y325000D03*
X645160Y38100D03*
X645160Y325000D03*
D11*
X520700Y152400D03*
X520700Y127000D03*
X495300Y152400D03*
X495300Y127000D03*
X469900Y152400D03*
X469900Y127000D03*
D12*
X148070Y44450D03*
D13*
X108470Y44450D03*
D12*
X248400Y44450D03*
D13*
X208800Y44450D03*
D12*
X44450Y131100D03*
D14*
X44450Y170700D03*
X44450Y210300D03*
X44450Y249900D03*
D15*
X342700Y30480D03*
D16*
X317700Y30480D03*
D17*
X571100Y30480D03*
D18*
X546100Y30480D03*
X521100Y30480D03*
D17*
X456800Y30480D03*
D18*
X431800Y30480D03*
X406800Y30480D03*
D12*
X118400Y316230D03*
D19*
X158000Y316230D03*
X197600Y316230D03*
X237200Y316230D03*
D20*
X304800Y110490D03*
X330200Y110490D03*
X355600Y110490D03*
D21*
X72390Y158750D03*
X72390Y184150D03*
X72390Y209550D03*
X72390Y234950D03*
X146050Y288290D03*
X171450Y288290D03*
X196850Y288290D03*
X222250Y288290D03*
D22*
X138430Y82550D02*
X138430Y67310D01*
X113030Y67310D02*
X113030Y82550D01*
X245110Y82550D02*
X245110Y67310D01*
X219710Y67310D02*
X219710Y82550D01*
D17*
X139700Y152400D03*
D23*
X139700Y177800D03*
X165100Y152400D03*
X165100Y177800D03*
D17*
X114300Y245110D03*
D18*
X139700Y245110D03*
X165100Y245110D03*
D17*
X335280Y294640D03*
D23*
X335280Y320040D03*
X360680Y294640D03*
X360680Y320040D03*
X386080Y294640D03*
X386080Y320040D03*
X411480Y294640D03*
X411480Y320040D03*
D17*
X647700Y101600D03*
D11*
X647700Y127000D03*
D17*
X114300Y114300D03*
D18*
X139700Y114300D03*
X165100Y114300D03*
X190500Y114300D03*
X215900Y114300D03*
D24*
X495300Y275590D03*
D25*
X360680Y219710D03*
X330200Y189230D03*
X314960Y189230D03*
X345440Y189230D03*
X360680Y189230D03*
X314960Y234950D03*
X330200Y234950D03*
X345440Y234950D03*
X360680Y234950D03*
X360680Y204470D03*
D26*
X179070Y85090D03*
X179070Y30480D03*
X179070Y59690D03*
D27*
X304800Y266700D03*
D28*
X538480Y245110D03*
M02*
