G04 EAGLE Gerber RS-274X export*
G75*
%MOMM*%
%FSLAX34Y34*%
%LPD*%
%INSilkscreen Bottom*%
%IPPOS*%
%AMOC8*
5,1,8,0,0,1.08239X$1,22.5*%
G01*
%ADD10C,0.152400*%
%ADD11C,0.050800*%
%ADD12C,0.025400*%
%ADD13C,0.076200*%


D10*
X494538Y337312D02*
X494538Y353568D01*
X490022Y353568D01*
X489889Y353566D01*
X489757Y353560D01*
X489625Y353550D01*
X489493Y353537D01*
X489361Y353519D01*
X489231Y353498D01*
X489100Y353473D01*
X488971Y353444D01*
X488843Y353411D01*
X488715Y353375D01*
X488589Y353335D01*
X488464Y353291D01*
X488340Y353243D01*
X488218Y353192D01*
X488097Y353137D01*
X487978Y353079D01*
X487860Y353017D01*
X487745Y352952D01*
X487631Y352883D01*
X487520Y352812D01*
X487411Y352736D01*
X487304Y352658D01*
X487199Y352577D01*
X487097Y352492D01*
X486997Y352405D01*
X486900Y352315D01*
X486805Y352222D01*
X486714Y352126D01*
X486625Y352028D01*
X486539Y351927D01*
X486456Y351823D01*
X486376Y351717D01*
X486300Y351609D01*
X486226Y351499D01*
X486156Y351386D01*
X486089Y351272D01*
X486026Y351155D01*
X485966Y351037D01*
X485909Y350917D01*
X485856Y350795D01*
X485807Y350672D01*
X485761Y350548D01*
X485719Y350422D01*
X485681Y350295D01*
X485646Y350167D01*
X485615Y350038D01*
X485588Y349909D01*
X485565Y349778D01*
X485545Y349647D01*
X485530Y349515D01*
X485518Y349383D01*
X485510Y349251D01*
X485506Y349118D01*
X485506Y348986D01*
X485510Y348853D01*
X485518Y348721D01*
X485530Y348589D01*
X485545Y348457D01*
X485565Y348326D01*
X485588Y348195D01*
X485615Y348066D01*
X485646Y347937D01*
X485681Y347809D01*
X485719Y347682D01*
X485761Y347556D01*
X485807Y347432D01*
X485856Y347309D01*
X485909Y347187D01*
X485966Y347067D01*
X486026Y346949D01*
X486089Y346832D01*
X486156Y346718D01*
X486226Y346605D01*
X486300Y346495D01*
X486376Y346387D01*
X486456Y346281D01*
X486539Y346177D01*
X486625Y346076D01*
X486714Y345978D01*
X486805Y345882D01*
X486900Y345789D01*
X486997Y345699D01*
X487097Y345612D01*
X487199Y345527D01*
X487304Y345446D01*
X487411Y345368D01*
X487520Y345292D01*
X487631Y345221D01*
X487745Y345152D01*
X487860Y345087D01*
X487978Y345025D01*
X488097Y344967D01*
X488218Y344912D01*
X488340Y344861D01*
X488464Y344813D01*
X488589Y344769D01*
X488715Y344729D01*
X488843Y344693D01*
X488971Y344660D01*
X489100Y344631D01*
X489231Y344606D01*
X489361Y344585D01*
X489493Y344567D01*
X489625Y344554D01*
X489757Y344544D01*
X489889Y344538D01*
X490022Y344536D01*
X490022Y344537D02*
X494538Y344537D01*
X476165Y337312D02*
X476165Y353568D01*
X471650Y353568D02*
X480681Y353568D01*
X465479Y353568D02*
X465479Y337312D01*
X465479Y353568D02*
X460964Y353568D01*
X460831Y353566D01*
X460699Y353560D01*
X460567Y353550D01*
X460435Y353537D01*
X460303Y353519D01*
X460173Y353498D01*
X460042Y353473D01*
X459913Y353444D01*
X459785Y353411D01*
X459657Y353375D01*
X459531Y353335D01*
X459406Y353291D01*
X459282Y353243D01*
X459160Y353192D01*
X459039Y353137D01*
X458920Y353079D01*
X458802Y353017D01*
X458687Y352952D01*
X458573Y352883D01*
X458462Y352812D01*
X458353Y352736D01*
X458246Y352658D01*
X458141Y352577D01*
X458039Y352492D01*
X457939Y352405D01*
X457842Y352315D01*
X457747Y352222D01*
X457656Y352126D01*
X457567Y352028D01*
X457481Y351927D01*
X457398Y351823D01*
X457318Y351717D01*
X457242Y351609D01*
X457168Y351499D01*
X457098Y351386D01*
X457031Y351272D01*
X456968Y351155D01*
X456908Y351037D01*
X456851Y350917D01*
X456798Y350795D01*
X456749Y350672D01*
X456703Y350548D01*
X456661Y350422D01*
X456623Y350295D01*
X456588Y350167D01*
X456557Y350038D01*
X456530Y349909D01*
X456507Y349778D01*
X456487Y349647D01*
X456472Y349515D01*
X456460Y349383D01*
X456452Y349251D01*
X456448Y349118D01*
X456448Y348986D01*
X456452Y348853D01*
X456460Y348721D01*
X456472Y348589D01*
X456487Y348457D01*
X456507Y348326D01*
X456530Y348195D01*
X456557Y348066D01*
X456588Y347937D01*
X456623Y347809D01*
X456661Y347682D01*
X456703Y347556D01*
X456749Y347432D01*
X456798Y347309D01*
X456851Y347187D01*
X456908Y347067D01*
X456968Y346949D01*
X457031Y346832D01*
X457098Y346718D01*
X457168Y346605D01*
X457242Y346495D01*
X457318Y346387D01*
X457398Y346281D01*
X457481Y346177D01*
X457567Y346076D01*
X457656Y345978D01*
X457747Y345882D01*
X457842Y345789D01*
X457939Y345699D01*
X458039Y345612D01*
X458141Y345527D01*
X458246Y345446D01*
X458353Y345368D01*
X458462Y345292D01*
X458573Y345221D01*
X458687Y345152D01*
X458802Y345087D01*
X458920Y345025D01*
X459039Y344967D01*
X459160Y344912D01*
X459282Y344861D01*
X459406Y344813D01*
X459531Y344769D01*
X459657Y344729D01*
X459785Y344693D01*
X459913Y344660D01*
X460042Y344631D01*
X460173Y344606D01*
X460303Y344585D01*
X460435Y344567D01*
X460567Y344554D01*
X460699Y344544D01*
X460831Y344538D01*
X460964Y344536D01*
X460964Y344537D02*
X465479Y344537D01*
X460060Y344537D02*
X456448Y337312D01*
X446466Y337312D02*
X446466Y353568D01*
X450981Y353568D02*
X441950Y353568D01*
X435841Y337312D02*
X428617Y337312D01*
X435841Y337312D02*
X435841Y353568D01*
X428617Y353568D01*
X430423Y346343D02*
X435841Y346343D01*
X419272Y337312D02*
X415660Y337312D01*
X419272Y337312D02*
X419390Y337314D01*
X419508Y337320D01*
X419626Y337329D01*
X419743Y337343D01*
X419860Y337360D01*
X419977Y337381D01*
X420092Y337406D01*
X420207Y337435D01*
X420321Y337468D01*
X420433Y337504D01*
X420544Y337544D01*
X420654Y337587D01*
X420763Y337634D01*
X420870Y337684D01*
X420975Y337739D01*
X421078Y337796D01*
X421179Y337857D01*
X421279Y337921D01*
X421376Y337988D01*
X421471Y338058D01*
X421563Y338132D01*
X421654Y338208D01*
X421741Y338288D01*
X421826Y338370D01*
X421908Y338455D01*
X421988Y338542D01*
X422064Y338633D01*
X422138Y338725D01*
X422208Y338820D01*
X422275Y338917D01*
X422339Y339017D01*
X422400Y339118D01*
X422457Y339221D01*
X422512Y339326D01*
X422562Y339433D01*
X422609Y339542D01*
X422652Y339652D01*
X422692Y339763D01*
X422728Y339875D01*
X422761Y339989D01*
X422790Y340104D01*
X422815Y340219D01*
X422836Y340336D01*
X422853Y340453D01*
X422867Y340570D01*
X422876Y340688D01*
X422882Y340806D01*
X422884Y340924D01*
X422885Y340924D02*
X422885Y349956D01*
X422884Y349956D02*
X422882Y350074D01*
X422876Y350192D01*
X422867Y350310D01*
X422853Y350427D01*
X422836Y350544D01*
X422815Y350661D01*
X422790Y350776D01*
X422761Y350891D01*
X422728Y351005D01*
X422692Y351117D01*
X422652Y351228D01*
X422609Y351338D01*
X422562Y351447D01*
X422512Y351554D01*
X422457Y351659D01*
X422400Y351762D01*
X422339Y351863D01*
X422275Y351963D01*
X422208Y352060D01*
X422138Y352155D01*
X422064Y352247D01*
X421988Y352338D01*
X421908Y352425D01*
X421826Y352510D01*
X421741Y352592D01*
X421654Y352672D01*
X421563Y352748D01*
X421471Y352822D01*
X421376Y352892D01*
X421279Y352959D01*
X421179Y353023D01*
X421078Y353084D01*
X420975Y353141D01*
X420870Y353196D01*
X420763Y353246D01*
X420654Y353293D01*
X420544Y353336D01*
X420433Y353376D01*
X420321Y353412D01*
X420207Y353445D01*
X420092Y353474D01*
X419977Y353499D01*
X419860Y353520D01*
X419743Y353537D01*
X419626Y353551D01*
X419508Y353560D01*
X419390Y353566D01*
X419272Y353568D01*
X415660Y353568D01*
X409298Y353568D02*
X409298Y337312D01*
X409298Y346343D02*
X400267Y346343D01*
X400267Y353568D02*
X400267Y337312D01*
X384670Y343634D02*
X373833Y343634D01*
X358206Y337312D02*
X358206Y353568D01*
X350982Y353568D01*
X350982Y346343D02*
X358206Y346343D01*
X342262Y343634D02*
X338198Y343634D01*
X342262Y343634D02*
X342374Y343632D01*
X342485Y343626D01*
X342596Y343616D01*
X342707Y343603D01*
X342817Y343585D01*
X342926Y343563D01*
X343035Y343538D01*
X343143Y343509D01*
X343249Y343476D01*
X343355Y343439D01*
X343459Y343399D01*
X343561Y343355D01*
X343662Y343307D01*
X343761Y343256D01*
X343859Y343201D01*
X343954Y343143D01*
X344047Y343082D01*
X344138Y343017D01*
X344227Y342949D01*
X344313Y342878D01*
X344396Y342805D01*
X344477Y342728D01*
X344556Y342648D01*
X344631Y342566D01*
X344703Y342481D01*
X344773Y342394D01*
X344839Y342304D01*
X344902Y342212D01*
X344962Y342117D01*
X345018Y342021D01*
X345071Y341923D01*
X345120Y341823D01*
X345166Y341721D01*
X345208Y341618D01*
X345247Y341513D01*
X345282Y341407D01*
X345313Y341300D01*
X345340Y341192D01*
X345364Y341083D01*
X345383Y340973D01*
X345399Y340863D01*
X345411Y340752D01*
X345419Y340640D01*
X345423Y340529D01*
X345423Y340417D01*
X345419Y340306D01*
X345411Y340194D01*
X345399Y340083D01*
X345383Y339973D01*
X345364Y339863D01*
X345340Y339754D01*
X345313Y339646D01*
X345282Y339539D01*
X345247Y339433D01*
X345208Y339328D01*
X345166Y339225D01*
X345120Y339123D01*
X345071Y339023D01*
X345018Y338925D01*
X344962Y338829D01*
X344902Y338734D01*
X344839Y338642D01*
X344773Y338552D01*
X344703Y338465D01*
X344631Y338380D01*
X344556Y338298D01*
X344477Y338218D01*
X344396Y338141D01*
X344313Y338068D01*
X344227Y337997D01*
X344138Y337929D01*
X344047Y337864D01*
X343954Y337803D01*
X343859Y337745D01*
X343761Y337690D01*
X343662Y337639D01*
X343561Y337591D01*
X343459Y337547D01*
X343355Y337507D01*
X343249Y337470D01*
X343143Y337437D01*
X343035Y337408D01*
X342926Y337383D01*
X342817Y337361D01*
X342707Y337343D01*
X342596Y337330D01*
X342485Y337320D01*
X342374Y337314D01*
X342262Y337312D01*
X338198Y337312D01*
X338198Y345440D01*
X338200Y345541D01*
X338206Y345642D01*
X338215Y345743D01*
X338228Y345844D01*
X338245Y345944D01*
X338266Y346043D01*
X338290Y346141D01*
X338318Y346238D01*
X338350Y346335D01*
X338385Y346430D01*
X338424Y346523D01*
X338466Y346615D01*
X338512Y346706D01*
X338561Y346795D01*
X338613Y346881D01*
X338669Y346966D01*
X338727Y347049D01*
X338789Y347129D01*
X338854Y347207D01*
X338921Y347283D01*
X338991Y347356D01*
X339064Y347426D01*
X339140Y347493D01*
X339218Y347558D01*
X339298Y347620D01*
X339381Y347678D01*
X339466Y347734D01*
X339553Y347786D01*
X339641Y347835D01*
X339732Y347881D01*
X339824Y347923D01*
X339917Y347962D01*
X340012Y347997D01*
X340109Y348029D01*
X340206Y348057D01*
X340304Y348081D01*
X340403Y348102D01*
X340503Y348119D01*
X340604Y348132D01*
X340705Y348141D01*
X340806Y348147D01*
X340907Y348149D01*
X344519Y348149D01*
X330760Y348149D02*
X330760Y337312D01*
X330760Y348149D02*
X326245Y348149D01*
X326141Y348147D01*
X326038Y348141D01*
X325934Y348131D01*
X325831Y348117D01*
X325729Y348099D01*
X325628Y348078D01*
X325527Y348052D01*
X325428Y348023D01*
X325329Y347990D01*
X325232Y347953D01*
X325137Y347912D01*
X325043Y347868D01*
X324951Y347820D01*
X324861Y347769D01*
X324772Y347714D01*
X324686Y347656D01*
X324603Y347594D01*
X324521Y347530D01*
X324443Y347462D01*
X324367Y347392D01*
X324293Y347319D01*
X324223Y347242D01*
X324155Y347164D01*
X324091Y347082D01*
X324029Y346999D01*
X323971Y346913D01*
X323916Y346824D01*
X323865Y346734D01*
X323817Y346642D01*
X323773Y346548D01*
X323732Y346453D01*
X323695Y346356D01*
X323662Y346257D01*
X323633Y346158D01*
X323607Y346057D01*
X323586Y345956D01*
X323568Y345854D01*
X323554Y345751D01*
X323544Y345647D01*
X323538Y345544D01*
X323536Y345440D01*
X323535Y345440D02*
X323535Y337312D01*
X304643Y337312D02*
X301031Y337312D01*
X304643Y337312D02*
X304761Y337314D01*
X304879Y337320D01*
X304997Y337329D01*
X305114Y337343D01*
X305231Y337360D01*
X305348Y337381D01*
X305463Y337406D01*
X305578Y337435D01*
X305692Y337468D01*
X305804Y337504D01*
X305915Y337544D01*
X306025Y337587D01*
X306134Y337634D01*
X306241Y337684D01*
X306346Y337739D01*
X306449Y337796D01*
X306550Y337857D01*
X306650Y337921D01*
X306747Y337988D01*
X306842Y338058D01*
X306934Y338132D01*
X307025Y338208D01*
X307112Y338288D01*
X307197Y338370D01*
X307279Y338455D01*
X307359Y338542D01*
X307435Y338633D01*
X307509Y338725D01*
X307579Y338820D01*
X307646Y338917D01*
X307710Y339017D01*
X307771Y339118D01*
X307828Y339221D01*
X307883Y339326D01*
X307933Y339433D01*
X307980Y339542D01*
X308023Y339652D01*
X308063Y339763D01*
X308099Y339875D01*
X308132Y339989D01*
X308161Y340104D01*
X308186Y340219D01*
X308207Y340336D01*
X308224Y340453D01*
X308238Y340570D01*
X308247Y340688D01*
X308253Y340806D01*
X308255Y340924D01*
X308256Y340924D02*
X308256Y349956D01*
X308255Y349956D02*
X308253Y350074D01*
X308247Y350192D01*
X308238Y350310D01*
X308224Y350427D01*
X308207Y350544D01*
X308186Y350661D01*
X308161Y350776D01*
X308132Y350891D01*
X308099Y351005D01*
X308063Y351117D01*
X308023Y351228D01*
X307980Y351338D01*
X307933Y351447D01*
X307883Y351554D01*
X307828Y351659D01*
X307771Y351762D01*
X307710Y351863D01*
X307646Y351963D01*
X307579Y352060D01*
X307509Y352155D01*
X307435Y352247D01*
X307359Y352338D01*
X307279Y352425D01*
X307197Y352510D01*
X307112Y352592D01*
X307025Y352672D01*
X306934Y352748D01*
X306842Y352822D01*
X306747Y352892D01*
X306650Y352959D01*
X306550Y353023D01*
X306449Y353084D01*
X306346Y353141D01*
X306241Y353196D01*
X306134Y353246D01*
X306025Y353293D01*
X305915Y353336D01*
X305804Y353376D01*
X305692Y353412D01*
X305578Y353445D01*
X305463Y353474D01*
X305348Y353499D01*
X305231Y353520D01*
X305114Y353537D01*
X304997Y353551D01*
X304879Y353560D01*
X304761Y353566D01*
X304643Y353568D01*
X301031Y353568D01*
X295329Y344537D02*
X295329Y340924D01*
X295329Y344537D02*
X295327Y344656D01*
X295321Y344776D01*
X295311Y344895D01*
X295297Y345013D01*
X295280Y345132D01*
X295258Y345249D01*
X295233Y345366D01*
X295203Y345481D01*
X295170Y345596D01*
X295133Y345710D01*
X295093Y345822D01*
X295048Y345933D01*
X295000Y346042D01*
X294949Y346150D01*
X294894Y346256D01*
X294835Y346360D01*
X294773Y346462D01*
X294708Y346562D01*
X294639Y346660D01*
X294567Y346756D01*
X294492Y346849D01*
X294415Y346939D01*
X294334Y347027D01*
X294250Y347112D01*
X294163Y347194D01*
X294074Y347274D01*
X293982Y347350D01*
X293888Y347424D01*
X293791Y347494D01*
X293693Y347561D01*
X293592Y347625D01*
X293488Y347685D01*
X293383Y347742D01*
X293276Y347795D01*
X293168Y347845D01*
X293058Y347891D01*
X292946Y347933D01*
X292833Y347972D01*
X292719Y348007D01*
X292604Y348038D01*
X292487Y348066D01*
X292370Y348089D01*
X292253Y348109D01*
X292134Y348125D01*
X292015Y348137D01*
X291896Y348145D01*
X291777Y348149D01*
X291657Y348149D01*
X291538Y348145D01*
X291419Y348137D01*
X291300Y348125D01*
X291181Y348109D01*
X291064Y348089D01*
X290947Y348066D01*
X290830Y348038D01*
X290715Y348007D01*
X290601Y347972D01*
X290488Y347933D01*
X290376Y347891D01*
X290266Y347845D01*
X290158Y347795D01*
X290051Y347742D01*
X289946Y347685D01*
X289842Y347625D01*
X289741Y347561D01*
X289643Y347494D01*
X289546Y347424D01*
X289452Y347350D01*
X289360Y347274D01*
X289271Y347194D01*
X289184Y347112D01*
X289100Y347027D01*
X289019Y346939D01*
X288942Y346849D01*
X288867Y346756D01*
X288795Y346660D01*
X288726Y346562D01*
X288661Y346462D01*
X288599Y346360D01*
X288540Y346256D01*
X288485Y346150D01*
X288434Y346042D01*
X288386Y345933D01*
X288341Y345822D01*
X288301Y345710D01*
X288264Y345596D01*
X288231Y345481D01*
X288201Y345366D01*
X288176Y345249D01*
X288154Y345132D01*
X288137Y345013D01*
X288123Y344895D01*
X288113Y344776D01*
X288107Y344656D01*
X288105Y344537D01*
X288104Y344537D02*
X288104Y340924D01*
X288105Y340924D02*
X288107Y340805D01*
X288113Y340685D01*
X288123Y340566D01*
X288137Y340448D01*
X288154Y340329D01*
X288176Y340212D01*
X288201Y340095D01*
X288231Y339980D01*
X288264Y339865D01*
X288301Y339751D01*
X288341Y339639D01*
X288386Y339528D01*
X288434Y339419D01*
X288485Y339311D01*
X288540Y339205D01*
X288599Y339101D01*
X288661Y338999D01*
X288726Y338899D01*
X288795Y338801D01*
X288867Y338705D01*
X288942Y338612D01*
X289019Y338522D01*
X289100Y338434D01*
X289184Y338349D01*
X289271Y338267D01*
X289360Y338187D01*
X289452Y338111D01*
X289546Y338037D01*
X289643Y337967D01*
X289741Y337900D01*
X289842Y337836D01*
X289946Y337776D01*
X290051Y337719D01*
X290158Y337666D01*
X290266Y337616D01*
X290376Y337570D01*
X290488Y337528D01*
X290601Y337489D01*
X290715Y337454D01*
X290830Y337423D01*
X290947Y337395D01*
X291064Y337372D01*
X291181Y337352D01*
X291300Y337336D01*
X291419Y337324D01*
X291538Y337316D01*
X291657Y337312D01*
X291777Y337312D01*
X291896Y337316D01*
X292015Y337324D01*
X292134Y337336D01*
X292253Y337352D01*
X292370Y337372D01*
X292487Y337395D01*
X292604Y337423D01*
X292719Y337454D01*
X292833Y337489D01*
X292946Y337528D01*
X293058Y337570D01*
X293168Y337616D01*
X293276Y337666D01*
X293383Y337719D01*
X293488Y337776D01*
X293592Y337836D01*
X293693Y337900D01*
X293791Y337967D01*
X293888Y338037D01*
X293982Y338111D01*
X294074Y338187D01*
X294163Y338267D01*
X294250Y338349D01*
X294334Y338434D01*
X294415Y338522D01*
X294492Y338612D01*
X294567Y338705D01*
X294639Y338801D01*
X294708Y338899D01*
X294773Y338999D01*
X294835Y339101D01*
X294894Y339205D01*
X294949Y339311D01*
X295000Y339419D01*
X295048Y339528D01*
X295093Y339639D01*
X295133Y339751D01*
X295170Y339865D01*
X295203Y339980D01*
X295233Y340095D01*
X295258Y340212D01*
X295280Y340329D01*
X295297Y340448D01*
X295311Y340566D01*
X295321Y340685D01*
X295327Y340805D01*
X295329Y340924D01*
X281261Y337312D02*
X281261Y348149D01*
X276746Y348149D01*
X276642Y348147D01*
X276539Y348141D01*
X276435Y348131D01*
X276332Y348117D01*
X276230Y348099D01*
X276129Y348078D01*
X276028Y348052D01*
X275929Y348023D01*
X275830Y347990D01*
X275733Y347953D01*
X275638Y347912D01*
X275544Y347868D01*
X275452Y347820D01*
X275362Y347769D01*
X275273Y347714D01*
X275187Y347656D01*
X275104Y347594D01*
X275022Y347530D01*
X274944Y347462D01*
X274868Y347392D01*
X274794Y347319D01*
X274724Y347242D01*
X274656Y347164D01*
X274592Y347082D01*
X274530Y346999D01*
X274472Y346913D01*
X274417Y346824D01*
X274366Y346734D01*
X274318Y346642D01*
X274274Y346548D01*
X274233Y346453D01*
X274196Y346356D01*
X274163Y346257D01*
X274134Y346158D01*
X274108Y346057D01*
X274087Y345956D01*
X274069Y345854D01*
X274055Y345751D01*
X274045Y345647D01*
X274039Y345544D01*
X274037Y345440D01*
X274036Y345440D02*
X274036Y337312D01*
X268490Y348149D02*
X263072Y348149D01*
X266684Y353568D02*
X266684Y340021D01*
X266682Y339920D01*
X266676Y339819D01*
X266667Y339718D01*
X266654Y339617D01*
X266637Y339517D01*
X266616Y339418D01*
X266592Y339320D01*
X266564Y339223D01*
X266532Y339126D01*
X266497Y339031D01*
X266458Y338938D01*
X266416Y338846D01*
X266370Y338755D01*
X266321Y338667D01*
X266269Y338580D01*
X266213Y338495D01*
X266155Y338412D01*
X266093Y338332D01*
X266028Y338254D01*
X265961Y338178D01*
X265891Y338105D01*
X265818Y338035D01*
X265742Y337968D01*
X265664Y337903D01*
X265584Y337841D01*
X265501Y337783D01*
X265416Y337727D01*
X265330Y337675D01*
X265241Y337626D01*
X265150Y337580D01*
X265058Y337538D01*
X264965Y337499D01*
X264870Y337464D01*
X264773Y337432D01*
X264676Y337404D01*
X264578Y337380D01*
X264479Y337359D01*
X264379Y337342D01*
X264278Y337329D01*
X264177Y337320D01*
X264076Y337314D01*
X263975Y337312D01*
X263072Y337312D01*
X256688Y337312D02*
X256688Y348149D01*
X251269Y348149D01*
X251269Y346343D01*
X246352Y344537D02*
X246352Y340924D01*
X246351Y344537D02*
X246349Y344656D01*
X246343Y344776D01*
X246333Y344895D01*
X246319Y345013D01*
X246302Y345132D01*
X246280Y345249D01*
X246255Y345366D01*
X246225Y345481D01*
X246192Y345596D01*
X246155Y345710D01*
X246115Y345822D01*
X246070Y345933D01*
X246022Y346042D01*
X245971Y346150D01*
X245916Y346256D01*
X245857Y346360D01*
X245795Y346462D01*
X245730Y346562D01*
X245661Y346660D01*
X245589Y346756D01*
X245514Y346849D01*
X245437Y346939D01*
X245356Y347027D01*
X245272Y347112D01*
X245185Y347194D01*
X245096Y347274D01*
X245004Y347350D01*
X244910Y347424D01*
X244813Y347494D01*
X244715Y347561D01*
X244614Y347625D01*
X244510Y347685D01*
X244405Y347742D01*
X244298Y347795D01*
X244190Y347845D01*
X244080Y347891D01*
X243968Y347933D01*
X243855Y347972D01*
X243741Y348007D01*
X243626Y348038D01*
X243509Y348066D01*
X243392Y348089D01*
X243275Y348109D01*
X243156Y348125D01*
X243037Y348137D01*
X242918Y348145D01*
X242799Y348149D01*
X242679Y348149D01*
X242560Y348145D01*
X242441Y348137D01*
X242322Y348125D01*
X242203Y348109D01*
X242086Y348089D01*
X241969Y348066D01*
X241852Y348038D01*
X241737Y348007D01*
X241623Y347972D01*
X241510Y347933D01*
X241398Y347891D01*
X241288Y347845D01*
X241180Y347795D01*
X241073Y347742D01*
X240968Y347685D01*
X240864Y347625D01*
X240763Y347561D01*
X240665Y347494D01*
X240568Y347424D01*
X240474Y347350D01*
X240382Y347274D01*
X240293Y347194D01*
X240206Y347112D01*
X240122Y347027D01*
X240041Y346939D01*
X239964Y346849D01*
X239889Y346756D01*
X239817Y346660D01*
X239748Y346562D01*
X239683Y346462D01*
X239621Y346360D01*
X239562Y346256D01*
X239507Y346150D01*
X239456Y346042D01*
X239408Y345933D01*
X239363Y345822D01*
X239323Y345710D01*
X239286Y345596D01*
X239253Y345481D01*
X239223Y345366D01*
X239198Y345249D01*
X239176Y345132D01*
X239159Y345013D01*
X239145Y344895D01*
X239135Y344776D01*
X239129Y344656D01*
X239127Y344537D01*
X239127Y340924D01*
X239129Y340805D01*
X239135Y340685D01*
X239145Y340566D01*
X239159Y340448D01*
X239176Y340329D01*
X239198Y340212D01*
X239223Y340095D01*
X239253Y339980D01*
X239286Y339865D01*
X239323Y339751D01*
X239363Y339639D01*
X239408Y339528D01*
X239456Y339419D01*
X239507Y339311D01*
X239562Y339205D01*
X239621Y339101D01*
X239683Y338999D01*
X239748Y338899D01*
X239817Y338801D01*
X239889Y338705D01*
X239964Y338612D01*
X240041Y338522D01*
X240122Y338434D01*
X240206Y338349D01*
X240293Y338267D01*
X240382Y338187D01*
X240474Y338111D01*
X240568Y338037D01*
X240665Y337967D01*
X240763Y337900D01*
X240864Y337836D01*
X240968Y337776D01*
X241073Y337719D01*
X241180Y337666D01*
X241288Y337616D01*
X241398Y337570D01*
X241510Y337528D01*
X241623Y337489D01*
X241737Y337454D01*
X241852Y337423D01*
X241969Y337395D01*
X242086Y337372D01*
X242203Y337352D01*
X242322Y337336D01*
X242441Y337324D01*
X242560Y337316D01*
X242679Y337312D01*
X242799Y337312D01*
X242918Y337316D01*
X243037Y337324D01*
X243156Y337336D01*
X243275Y337352D01*
X243392Y337372D01*
X243509Y337395D01*
X243626Y337423D01*
X243741Y337454D01*
X243855Y337489D01*
X243968Y337528D01*
X244080Y337570D01*
X244190Y337616D01*
X244298Y337666D01*
X244405Y337719D01*
X244510Y337776D01*
X244614Y337836D01*
X244715Y337900D01*
X244813Y337967D01*
X244910Y338037D01*
X245004Y338111D01*
X245096Y338187D01*
X245185Y338267D01*
X245272Y338349D01*
X245356Y338434D01*
X245437Y338522D01*
X245514Y338612D01*
X245589Y338705D01*
X245661Y338801D01*
X245730Y338899D01*
X245795Y338999D01*
X245857Y339101D01*
X245916Y339205D01*
X245971Y339311D01*
X246022Y339419D01*
X246070Y339528D01*
X246115Y339639D01*
X246155Y339751D01*
X246192Y339865D01*
X246225Y339980D01*
X246255Y340095D01*
X246280Y340212D01*
X246302Y340329D01*
X246319Y340448D01*
X246333Y340566D01*
X246343Y340685D01*
X246349Y340805D01*
X246351Y340924D01*
X232568Y340021D02*
X232568Y353568D01*
X232567Y340021D02*
X232565Y339920D01*
X232559Y339819D01*
X232550Y339718D01*
X232537Y339617D01*
X232520Y339517D01*
X232499Y339418D01*
X232475Y339320D01*
X232447Y339223D01*
X232415Y339126D01*
X232380Y339031D01*
X232341Y338938D01*
X232299Y338846D01*
X232253Y338755D01*
X232204Y338667D01*
X232152Y338580D01*
X232096Y338495D01*
X232038Y338412D01*
X231976Y338332D01*
X231911Y338254D01*
X231844Y338178D01*
X231774Y338105D01*
X231701Y338035D01*
X231625Y337968D01*
X231547Y337903D01*
X231467Y337841D01*
X231384Y337783D01*
X231299Y337727D01*
X231213Y337675D01*
X231124Y337626D01*
X231033Y337580D01*
X230941Y337538D01*
X230848Y337499D01*
X230753Y337464D01*
X230656Y337432D01*
X230559Y337404D01*
X230461Y337380D01*
X230362Y337359D01*
X230262Y337342D01*
X230161Y337329D01*
X230060Y337320D01*
X229959Y337314D01*
X229858Y337312D01*
X224231Y340021D02*
X224231Y353568D01*
X224231Y340021D02*
X224229Y339920D01*
X224223Y339819D01*
X224214Y339718D01*
X224201Y339617D01*
X224184Y339517D01*
X224163Y339418D01*
X224139Y339320D01*
X224111Y339223D01*
X224079Y339126D01*
X224044Y339031D01*
X224005Y338938D01*
X223963Y338846D01*
X223917Y338755D01*
X223868Y338667D01*
X223816Y338580D01*
X223760Y338495D01*
X223702Y338412D01*
X223640Y338332D01*
X223575Y338254D01*
X223508Y338178D01*
X223438Y338105D01*
X223365Y338035D01*
X223289Y337968D01*
X223211Y337903D01*
X223131Y337841D01*
X223048Y337783D01*
X222963Y337727D01*
X222877Y337675D01*
X222788Y337626D01*
X222697Y337580D01*
X222605Y337538D01*
X222512Y337499D01*
X222417Y337464D01*
X222320Y337432D01*
X222223Y337404D01*
X222125Y337380D01*
X222026Y337359D01*
X221926Y337342D01*
X221825Y337329D01*
X221724Y337320D01*
X221623Y337314D01*
X221522Y337312D01*
X213422Y337312D02*
X208906Y337312D01*
X213422Y337312D02*
X213523Y337314D01*
X213624Y337320D01*
X213725Y337329D01*
X213826Y337342D01*
X213926Y337359D01*
X214025Y337380D01*
X214123Y337404D01*
X214220Y337432D01*
X214317Y337464D01*
X214412Y337499D01*
X214505Y337538D01*
X214597Y337580D01*
X214688Y337626D01*
X214777Y337675D01*
X214863Y337727D01*
X214948Y337783D01*
X215031Y337841D01*
X215111Y337903D01*
X215189Y337968D01*
X215265Y338035D01*
X215338Y338105D01*
X215408Y338178D01*
X215475Y338254D01*
X215540Y338332D01*
X215602Y338412D01*
X215660Y338495D01*
X215716Y338580D01*
X215768Y338667D01*
X215817Y338755D01*
X215863Y338846D01*
X215905Y338938D01*
X215944Y339031D01*
X215979Y339126D01*
X216011Y339223D01*
X216039Y339320D01*
X216063Y339418D01*
X216084Y339517D01*
X216101Y339617D01*
X216114Y339718D01*
X216123Y339819D01*
X216129Y339920D01*
X216131Y340021D01*
X216131Y344537D01*
X216129Y344656D01*
X216123Y344776D01*
X216113Y344895D01*
X216099Y345013D01*
X216082Y345132D01*
X216060Y345249D01*
X216035Y345366D01*
X216005Y345481D01*
X215972Y345596D01*
X215935Y345710D01*
X215895Y345822D01*
X215850Y345933D01*
X215802Y346042D01*
X215751Y346150D01*
X215696Y346256D01*
X215637Y346360D01*
X215575Y346462D01*
X215510Y346562D01*
X215441Y346660D01*
X215369Y346756D01*
X215294Y346849D01*
X215217Y346939D01*
X215136Y347027D01*
X215052Y347112D01*
X214965Y347194D01*
X214876Y347274D01*
X214784Y347350D01*
X214690Y347424D01*
X214593Y347494D01*
X214495Y347561D01*
X214394Y347625D01*
X214290Y347685D01*
X214185Y347742D01*
X214078Y347795D01*
X213970Y347845D01*
X213860Y347891D01*
X213748Y347933D01*
X213635Y347972D01*
X213521Y348007D01*
X213406Y348038D01*
X213289Y348066D01*
X213172Y348089D01*
X213055Y348109D01*
X212936Y348125D01*
X212817Y348137D01*
X212698Y348145D01*
X212579Y348149D01*
X212459Y348149D01*
X212340Y348145D01*
X212221Y348137D01*
X212102Y348125D01*
X211983Y348109D01*
X211866Y348089D01*
X211749Y348066D01*
X211632Y348038D01*
X211517Y348007D01*
X211403Y347972D01*
X211290Y347933D01*
X211178Y347891D01*
X211068Y347845D01*
X210960Y347795D01*
X210853Y347742D01*
X210748Y347685D01*
X210644Y347625D01*
X210543Y347561D01*
X210445Y347494D01*
X210348Y347424D01*
X210254Y347350D01*
X210162Y347274D01*
X210073Y347194D01*
X209986Y347112D01*
X209902Y347027D01*
X209821Y346939D01*
X209744Y346849D01*
X209669Y346756D01*
X209597Y346660D01*
X209528Y346562D01*
X209463Y346462D01*
X209401Y346360D01*
X209342Y346256D01*
X209287Y346150D01*
X209236Y346042D01*
X209188Y345933D01*
X209143Y345822D01*
X209103Y345710D01*
X209066Y345596D01*
X209033Y345481D01*
X209003Y345366D01*
X208978Y345249D01*
X208956Y345132D01*
X208939Y345013D01*
X208925Y344895D01*
X208915Y344776D01*
X208909Y344656D01*
X208907Y344537D01*
X208906Y344537D02*
X208906Y342731D01*
X216131Y342731D01*
X201978Y337312D02*
X201978Y348149D01*
X196560Y348149D01*
X196560Y346343D01*
X184070Y353568D02*
X178651Y337312D01*
X173232Y353568D01*
X167535Y349956D02*
X163020Y353568D01*
X163020Y337312D01*
X167535Y337312D02*
X158504Y337312D01*
X152530Y337312D02*
X152530Y338215D01*
X151627Y338215D01*
X151627Y337312D01*
X152530Y337312D01*
X145652Y349956D02*
X141136Y353568D01*
X141136Y337312D01*
X136621Y337312D02*
X145652Y337312D01*
D11*
X316766Y43434D02*
X319250Y43434D01*
X319327Y43436D01*
X319405Y43442D01*
X319481Y43451D01*
X319558Y43465D01*
X319633Y43482D01*
X319707Y43503D01*
X319781Y43528D01*
X319853Y43556D01*
X319923Y43588D01*
X319992Y43623D01*
X320059Y43662D01*
X320124Y43704D01*
X320187Y43749D01*
X320248Y43797D01*
X320306Y43848D01*
X320361Y43902D01*
X320414Y43959D01*
X320463Y44018D01*
X320510Y44080D01*
X320554Y44144D01*
X320594Y44210D01*
X320631Y44278D01*
X320665Y44348D01*
X320695Y44419D01*
X320721Y44492D01*
X320744Y44566D01*
X320763Y44641D01*
X320778Y44716D01*
X320790Y44793D01*
X320798Y44870D01*
X320802Y44947D01*
X320802Y45025D01*
X320798Y45102D01*
X320790Y45179D01*
X320778Y45256D01*
X320763Y45331D01*
X320744Y45406D01*
X320721Y45480D01*
X320695Y45553D01*
X320665Y45624D01*
X320631Y45694D01*
X320594Y45762D01*
X320554Y45828D01*
X320510Y45892D01*
X320463Y45954D01*
X320414Y46013D01*
X320361Y46070D01*
X320306Y46124D01*
X320248Y46175D01*
X320187Y46223D01*
X320124Y46268D01*
X320059Y46310D01*
X319992Y46349D01*
X319923Y46384D01*
X319853Y46416D01*
X319781Y46444D01*
X319707Y46469D01*
X319633Y46490D01*
X319558Y46507D01*
X319481Y46521D01*
X319405Y46530D01*
X319327Y46536D01*
X319250Y46538D01*
X316766Y46538D01*
X316689Y46536D01*
X316611Y46530D01*
X316535Y46521D01*
X316458Y46507D01*
X316383Y46490D01*
X316309Y46469D01*
X316235Y46444D01*
X316163Y46416D01*
X316093Y46384D01*
X316024Y46349D01*
X315957Y46310D01*
X315892Y46268D01*
X315829Y46223D01*
X315768Y46175D01*
X315710Y46124D01*
X315655Y46070D01*
X315602Y46013D01*
X315553Y45954D01*
X315506Y45892D01*
X315462Y45828D01*
X315422Y45762D01*
X315385Y45694D01*
X315351Y45624D01*
X315321Y45553D01*
X315295Y45480D01*
X315272Y45406D01*
X315253Y45331D01*
X315238Y45256D01*
X315226Y45179D01*
X315218Y45102D01*
X315214Y45025D01*
X315214Y44947D01*
X315218Y44870D01*
X315226Y44793D01*
X315238Y44716D01*
X315253Y44641D01*
X315272Y44566D01*
X315295Y44492D01*
X315321Y44419D01*
X315351Y44348D01*
X315385Y44278D01*
X315422Y44210D01*
X315462Y44144D01*
X315506Y44080D01*
X315553Y44018D01*
X315602Y43959D01*
X315655Y43902D01*
X315710Y43848D01*
X315768Y43797D01*
X315829Y43749D01*
X315892Y43704D01*
X315957Y43662D01*
X316024Y43623D01*
X316093Y43588D01*
X316163Y43556D01*
X316235Y43528D01*
X316309Y43503D01*
X316383Y43482D01*
X316458Y43465D01*
X316535Y43451D01*
X316611Y43442D01*
X316689Y43436D01*
X316766Y43434D01*
X316766Y49103D02*
X320802Y49103D01*
X316766Y49103D02*
X316689Y49105D01*
X316611Y49111D01*
X316535Y49120D01*
X316458Y49134D01*
X316383Y49151D01*
X316309Y49172D01*
X316235Y49197D01*
X316163Y49225D01*
X316093Y49257D01*
X316024Y49292D01*
X315957Y49331D01*
X315892Y49373D01*
X315829Y49418D01*
X315768Y49466D01*
X315710Y49517D01*
X315655Y49571D01*
X315602Y49628D01*
X315553Y49687D01*
X315506Y49749D01*
X315462Y49813D01*
X315422Y49879D01*
X315385Y49947D01*
X315351Y50017D01*
X315321Y50088D01*
X315295Y50161D01*
X315272Y50235D01*
X315253Y50310D01*
X315238Y50385D01*
X315226Y50462D01*
X315218Y50539D01*
X315214Y50616D01*
X315214Y50694D01*
X315218Y50771D01*
X315226Y50848D01*
X315238Y50925D01*
X315253Y51000D01*
X315272Y51075D01*
X315295Y51149D01*
X315321Y51222D01*
X315351Y51293D01*
X315385Y51363D01*
X315422Y51431D01*
X315462Y51497D01*
X315506Y51561D01*
X315553Y51623D01*
X315602Y51682D01*
X315655Y51739D01*
X315710Y51793D01*
X315768Y51844D01*
X315829Y51892D01*
X315892Y51937D01*
X315957Y51979D01*
X316024Y52018D01*
X316093Y52053D01*
X316163Y52085D01*
X316235Y52113D01*
X316309Y52138D01*
X316383Y52159D01*
X316458Y52176D01*
X316535Y52190D01*
X316611Y52199D01*
X316689Y52205D01*
X316766Y52207D01*
X316766Y52208D02*
X320802Y52208D01*
X320802Y55959D02*
X315214Y55959D01*
X320802Y54407D02*
X320802Y57511D01*
X340614Y45297D02*
X340616Y45367D01*
X340622Y45436D01*
X340632Y45505D01*
X340645Y45573D01*
X340663Y45641D01*
X340684Y45707D01*
X340709Y45772D01*
X340737Y45836D01*
X340769Y45898D01*
X340804Y45958D01*
X340843Y46016D01*
X340885Y46071D01*
X340930Y46125D01*
X340978Y46175D01*
X341028Y46223D01*
X341082Y46268D01*
X341137Y46310D01*
X341195Y46349D01*
X341255Y46384D01*
X341317Y46416D01*
X341381Y46444D01*
X341446Y46469D01*
X341512Y46490D01*
X341580Y46508D01*
X341648Y46521D01*
X341717Y46531D01*
X341786Y46537D01*
X341856Y46539D01*
X340614Y45297D02*
X340616Y45198D01*
X340621Y45100D01*
X340631Y45002D01*
X340644Y44904D01*
X340660Y44807D01*
X340680Y44710D01*
X340704Y44615D01*
X340732Y44520D01*
X340763Y44426D01*
X340797Y44334D01*
X340835Y44243D01*
X340876Y44153D01*
X340921Y44065D01*
X340969Y43979D01*
X341020Y43895D01*
X341074Y43813D01*
X341132Y43732D01*
X341192Y43654D01*
X341255Y43579D01*
X341321Y43505D01*
X341390Y43435D01*
X344960Y43589D02*
X345030Y43591D01*
X345099Y43597D01*
X345168Y43607D01*
X345236Y43620D01*
X345304Y43638D01*
X345370Y43659D01*
X345435Y43684D01*
X345499Y43712D01*
X345561Y43744D01*
X345621Y43779D01*
X345679Y43818D01*
X345734Y43860D01*
X345788Y43905D01*
X345838Y43953D01*
X345886Y44003D01*
X345931Y44057D01*
X345973Y44112D01*
X346012Y44170D01*
X346047Y44230D01*
X346079Y44292D01*
X346107Y44356D01*
X346132Y44421D01*
X346153Y44487D01*
X346171Y44555D01*
X346184Y44623D01*
X346194Y44692D01*
X346200Y44761D01*
X346202Y44831D01*
X346200Y44925D01*
X346194Y45018D01*
X346185Y45111D01*
X346172Y45204D01*
X346155Y45296D01*
X346135Y45387D01*
X346110Y45478D01*
X346083Y45567D01*
X346051Y45655D01*
X346016Y45742D01*
X345978Y45828D01*
X345936Y45911D01*
X345891Y45993D01*
X345843Y46074D01*
X345791Y46152D01*
X345736Y46228D01*
X343874Y44210D02*
X343910Y44151D01*
X343950Y44095D01*
X343993Y44041D01*
X344038Y43989D01*
X344087Y43940D01*
X344138Y43894D01*
X344191Y43851D01*
X344247Y43810D01*
X344305Y43773D01*
X344365Y43738D01*
X344426Y43708D01*
X344489Y43680D01*
X344554Y43656D01*
X344620Y43636D01*
X344687Y43619D01*
X344754Y43606D01*
X344822Y43597D01*
X344891Y43591D01*
X344960Y43589D01*
X342942Y45917D02*
X342906Y45976D01*
X342866Y46032D01*
X342823Y46086D01*
X342778Y46138D01*
X342729Y46187D01*
X342678Y46233D01*
X342625Y46276D01*
X342569Y46317D01*
X342511Y46354D01*
X342451Y46389D01*
X342390Y46419D01*
X342327Y46447D01*
X342262Y46471D01*
X342196Y46491D01*
X342129Y46508D01*
X342062Y46521D01*
X341994Y46530D01*
X341925Y46536D01*
X341856Y46538D01*
X342942Y45918D02*
X343874Y44210D01*
X346202Y49192D02*
X340614Y49192D01*
X340614Y48572D02*
X340614Y49813D01*
X346202Y49813D02*
X346202Y48572D01*
X343718Y54385D02*
X343718Y55317D01*
X340614Y55317D01*
X340614Y53454D01*
X340616Y53384D01*
X340622Y53315D01*
X340632Y53246D01*
X340645Y53178D01*
X340663Y53110D01*
X340684Y53044D01*
X340709Y52979D01*
X340737Y52915D01*
X340769Y52853D01*
X340804Y52793D01*
X340843Y52735D01*
X340885Y52680D01*
X340930Y52626D01*
X340978Y52576D01*
X341028Y52528D01*
X341082Y52483D01*
X341137Y52441D01*
X341195Y52402D01*
X341255Y52367D01*
X341317Y52335D01*
X341381Y52307D01*
X341446Y52282D01*
X341512Y52261D01*
X341580Y52243D01*
X341648Y52230D01*
X341717Y52220D01*
X341786Y52214D01*
X341856Y52212D01*
X344960Y52212D01*
X345030Y52214D01*
X345099Y52220D01*
X345168Y52230D01*
X345236Y52243D01*
X345304Y52261D01*
X345370Y52282D01*
X345435Y52307D01*
X345499Y52335D01*
X345561Y52367D01*
X345621Y52402D01*
X345679Y52441D01*
X345734Y52483D01*
X345788Y52528D01*
X345838Y52576D01*
X345886Y52626D01*
X345931Y52680D01*
X345973Y52735D01*
X346012Y52793D01*
X346047Y52853D01*
X346079Y52915D01*
X346107Y52979D01*
X346132Y53044D01*
X346153Y53110D01*
X346171Y53178D01*
X346184Y53246D01*
X346194Y53315D01*
X346200Y53384D01*
X346202Y53454D01*
X346202Y55317D01*
X404114Y44055D02*
X409702Y44055D01*
X404114Y43434D02*
X404114Y44676D01*
X409702Y44676D02*
X409702Y43434D01*
X409702Y47075D02*
X404114Y47075D01*
X404114Y50179D02*
X409702Y47075D01*
X409702Y50179D02*
X404114Y50179D01*
X404114Y53930D02*
X409702Y53930D01*
X409702Y52378D02*
X409702Y55483D01*
X429514Y45918D02*
X429514Y44676D01*
X429516Y44606D01*
X429522Y44537D01*
X429532Y44468D01*
X429545Y44400D01*
X429563Y44332D01*
X429584Y44266D01*
X429609Y44201D01*
X429637Y44137D01*
X429669Y44075D01*
X429704Y44015D01*
X429743Y43957D01*
X429785Y43902D01*
X429830Y43848D01*
X429878Y43798D01*
X429928Y43750D01*
X429982Y43705D01*
X430037Y43663D01*
X430095Y43624D01*
X430155Y43589D01*
X430217Y43557D01*
X430281Y43529D01*
X430346Y43504D01*
X430412Y43483D01*
X430480Y43465D01*
X430548Y43452D01*
X430617Y43442D01*
X430686Y43436D01*
X430756Y43434D01*
X433860Y43434D01*
X433930Y43436D01*
X433999Y43442D01*
X434068Y43452D01*
X434136Y43465D01*
X434204Y43483D01*
X434270Y43504D01*
X434335Y43529D01*
X434399Y43557D01*
X434461Y43589D01*
X434521Y43624D01*
X434579Y43663D01*
X434634Y43705D01*
X434688Y43750D01*
X434738Y43798D01*
X434786Y43848D01*
X434831Y43902D01*
X434873Y43957D01*
X434912Y44015D01*
X434947Y44075D01*
X434979Y44137D01*
X435007Y44201D01*
X435032Y44266D01*
X435053Y44332D01*
X435071Y44400D01*
X435084Y44468D01*
X435094Y44537D01*
X435100Y44606D01*
X435102Y44676D01*
X435102Y45918D01*
X433550Y48022D02*
X431066Y48022D01*
X433550Y48022D02*
X433627Y48024D01*
X433705Y48030D01*
X433781Y48039D01*
X433858Y48053D01*
X433933Y48070D01*
X434007Y48091D01*
X434081Y48116D01*
X434153Y48144D01*
X434223Y48176D01*
X434292Y48211D01*
X434359Y48250D01*
X434424Y48292D01*
X434487Y48337D01*
X434548Y48385D01*
X434606Y48436D01*
X434661Y48490D01*
X434714Y48547D01*
X434763Y48606D01*
X434810Y48668D01*
X434854Y48732D01*
X434894Y48798D01*
X434931Y48866D01*
X434965Y48936D01*
X434995Y49007D01*
X435021Y49080D01*
X435044Y49154D01*
X435063Y49229D01*
X435078Y49304D01*
X435090Y49381D01*
X435098Y49458D01*
X435102Y49535D01*
X435102Y49613D01*
X435098Y49690D01*
X435090Y49767D01*
X435078Y49844D01*
X435063Y49919D01*
X435044Y49994D01*
X435021Y50068D01*
X434995Y50141D01*
X434965Y50212D01*
X434931Y50282D01*
X434894Y50350D01*
X434854Y50416D01*
X434810Y50480D01*
X434763Y50542D01*
X434714Y50601D01*
X434661Y50658D01*
X434606Y50712D01*
X434548Y50763D01*
X434487Y50811D01*
X434424Y50856D01*
X434359Y50898D01*
X434292Y50937D01*
X434223Y50972D01*
X434153Y51004D01*
X434081Y51032D01*
X434007Y51057D01*
X433933Y51078D01*
X433858Y51095D01*
X433781Y51109D01*
X433705Y51118D01*
X433627Y51124D01*
X433550Y51126D01*
X433550Y51127D02*
X431066Y51127D01*
X431066Y51126D02*
X430989Y51124D01*
X430911Y51118D01*
X430835Y51109D01*
X430758Y51095D01*
X430683Y51078D01*
X430609Y51057D01*
X430535Y51032D01*
X430463Y51004D01*
X430393Y50972D01*
X430324Y50937D01*
X430257Y50898D01*
X430192Y50856D01*
X430129Y50811D01*
X430068Y50763D01*
X430010Y50712D01*
X429955Y50658D01*
X429902Y50601D01*
X429853Y50542D01*
X429806Y50480D01*
X429762Y50416D01*
X429722Y50350D01*
X429685Y50282D01*
X429651Y50212D01*
X429621Y50141D01*
X429595Y50068D01*
X429572Y49994D01*
X429553Y49919D01*
X429538Y49844D01*
X429526Y49767D01*
X429518Y49690D01*
X429514Y49613D01*
X429514Y49535D01*
X429518Y49458D01*
X429526Y49381D01*
X429538Y49304D01*
X429553Y49229D01*
X429572Y49154D01*
X429595Y49080D01*
X429621Y49007D01*
X429651Y48936D01*
X429685Y48866D01*
X429722Y48798D01*
X429762Y48732D01*
X429806Y48668D01*
X429853Y48606D01*
X429902Y48547D01*
X429955Y48490D01*
X430010Y48436D01*
X430068Y48385D01*
X430129Y48337D01*
X430192Y48292D01*
X430257Y48250D01*
X430324Y48211D01*
X430393Y48176D01*
X430463Y48144D01*
X430535Y48116D01*
X430609Y48091D01*
X430683Y48070D01*
X430758Y48053D01*
X430835Y48039D01*
X430911Y48030D01*
X430989Y48024D01*
X431066Y48022D01*
X429514Y53747D02*
X435102Y53747D01*
X431998Y55609D01*
X435102Y57472D01*
X429514Y57472D01*
X454914Y45918D02*
X454914Y43434D01*
X460502Y43434D01*
X460502Y45918D01*
X458018Y45297D02*
X458018Y43434D01*
X454914Y47684D02*
X460502Y51410D01*
X460502Y47684D02*
X454914Y51410D01*
X454914Y54668D02*
X460502Y54668D01*
X460502Y53116D02*
X460502Y56220D01*
X519966Y43434D02*
X522450Y43434D01*
X522527Y43436D01*
X522605Y43442D01*
X522681Y43451D01*
X522758Y43465D01*
X522833Y43482D01*
X522907Y43503D01*
X522981Y43528D01*
X523053Y43556D01*
X523123Y43588D01*
X523192Y43623D01*
X523259Y43662D01*
X523324Y43704D01*
X523387Y43749D01*
X523448Y43797D01*
X523506Y43848D01*
X523561Y43902D01*
X523614Y43959D01*
X523663Y44018D01*
X523710Y44080D01*
X523754Y44144D01*
X523794Y44210D01*
X523831Y44278D01*
X523865Y44348D01*
X523895Y44419D01*
X523921Y44492D01*
X523944Y44566D01*
X523963Y44641D01*
X523978Y44716D01*
X523990Y44793D01*
X523998Y44870D01*
X524002Y44947D01*
X524002Y45025D01*
X523998Y45102D01*
X523990Y45179D01*
X523978Y45256D01*
X523963Y45331D01*
X523944Y45406D01*
X523921Y45480D01*
X523895Y45553D01*
X523865Y45624D01*
X523831Y45694D01*
X523794Y45762D01*
X523754Y45828D01*
X523710Y45892D01*
X523663Y45954D01*
X523614Y46013D01*
X523561Y46070D01*
X523506Y46124D01*
X523448Y46175D01*
X523387Y46223D01*
X523324Y46268D01*
X523259Y46310D01*
X523192Y46349D01*
X523123Y46384D01*
X523053Y46416D01*
X522981Y46444D01*
X522907Y46469D01*
X522833Y46490D01*
X522758Y46507D01*
X522681Y46521D01*
X522605Y46530D01*
X522527Y46536D01*
X522450Y46538D01*
X519966Y46538D01*
X519889Y46536D01*
X519811Y46530D01*
X519735Y46521D01*
X519658Y46507D01*
X519583Y46490D01*
X519509Y46469D01*
X519435Y46444D01*
X519363Y46416D01*
X519293Y46384D01*
X519224Y46349D01*
X519157Y46310D01*
X519092Y46268D01*
X519029Y46223D01*
X518968Y46175D01*
X518910Y46124D01*
X518855Y46070D01*
X518802Y46013D01*
X518753Y45954D01*
X518706Y45892D01*
X518662Y45828D01*
X518622Y45762D01*
X518585Y45694D01*
X518551Y45624D01*
X518521Y45553D01*
X518495Y45480D01*
X518472Y45406D01*
X518453Y45331D01*
X518438Y45256D01*
X518426Y45179D01*
X518418Y45102D01*
X518414Y45025D01*
X518414Y44947D01*
X518418Y44870D01*
X518426Y44793D01*
X518438Y44716D01*
X518453Y44641D01*
X518472Y44566D01*
X518495Y44492D01*
X518521Y44419D01*
X518551Y44348D01*
X518585Y44278D01*
X518622Y44210D01*
X518662Y44144D01*
X518706Y44080D01*
X518753Y44018D01*
X518802Y43959D01*
X518855Y43902D01*
X518910Y43848D01*
X518968Y43797D01*
X519029Y43749D01*
X519092Y43704D01*
X519157Y43662D01*
X519224Y43623D01*
X519293Y43588D01*
X519363Y43556D01*
X519435Y43528D01*
X519509Y43503D01*
X519583Y43482D01*
X519658Y43465D01*
X519735Y43451D01*
X519811Y43442D01*
X519889Y43436D01*
X519966Y43434D01*
X519966Y49103D02*
X524002Y49103D01*
X519966Y49103D02*
X519889Y49105D01*
X519811Y49111D01*
X519735Y49120D01*
X519658Y49134D01*
X519583Y49151D01*
X519509Y49172D01*
X519435Y49197D01*
X519363Y49225D01*
X519293Y49257D01*
X519224Y49292D01*
X519157Y49331D01*
X519092Y49373D01*
X519029Y49418D01*
X518968Y49466D01*
X518910Y49517D01*
X518855Y49571D01*
X518802Y49628D01*
X518753Y49687D01*
X518706Y49749D01*
X518662Y49813D01*
X518622Y49879D01*
X518585Y49947D01*
X518551Y50017D01*
X518521Y50088D01*
X518495Y50161D01*
X518472Y50235D01*
X518453Y50310D01*
X518438Y50385D01*
X518426Y50462D01*
X518418Y50539D01*
X518414Y50616D01*
X518414Y50694D01*
X518418Y50771D01*
X518426Y50848D01*
X518438Y50925D01*
X518453Y51000D01*
X518472Y51075D01*
X518495Y51149D01*
X518521Y51222D01*
X518551Y51293D01*
X518585Y51363D01*
X518622Y51431D01*
X518662Y51497D01*
X518706Y51561D01*
X518753Y51623D01*
X518802Y51682D01*
X518855Y51739D01*
X518910Y51793D01*
X518968Y51844D01*
X519029Y51892D01*
X519092Y51937D01*
X519157Y51979D01*
X519224Y52018D01*
X519293Y52053D01*
X519363Y52085D01*
X519435Y52113D01*
X519509Y52138D01*
X519583Y52159D01*
X519658Y52176D01*
X519735Y52190D01*
X519811Y52199D01*
X519889Y52205D01*
X519966Y52207D01*
X519966Y52208D02*
X524002Y52208D01*
X524002Y55959D02*
X518414Y55959D01*
X524002Y54407D02*
X524002Y57511D01*
X543814Y45297D02*
X543816Y45367D01*
X543822Y45436D01*
X543832Y45505D01*
X543845Y45573D01*
X543863Y45641D01*
X543884Y45707D01*
X543909Y45772D01*
X543937Y45836D01*
X543969Y45898D01*
X544004Y45958D01*
X544043Y46016D01*
X544085Y46071D01*
X544130Y46125D01*
X544178Y46175D01*
X544228Y46223D01*
X544282Y46268D01*
X544337Y46310D01*
X544395Y46349D01*
X544455Y46384D01*
X544517Y46416D01*
X544581Y46444D01*
X544646Y46469D01*
X544712Y46490D01*
X544780Y46508D01*
X544848Y46521D01*
X544917Y46531D01*
X544986Y46537D01*
X545056Y46539D01*
X543814Y45297D02*
X543816Y45198D01*
X543821Y45100D01*
X543831Y45002D01*
X543844Y44904D01*
X543860Y44807D01*
X543880Y44710D01*
X543904Y44615D01*
X543932Y44520D01*
X543963Y44426D01*
X543997Y44334D01*
X544035Y44243D01*
X544076Y44153D01*
X544121Y44065D01*
X544169Y43979D01*
X544220Y43895D01*
X544274Y43813D01*
X544332Y43732D01*
X544392Y43654D01*
X544455Y43579D01*
X544521Y43505D01*
X544590Y43435D01*
X548160Y43589D02*
X548230Y43591D01*
X548299Y43597D01*
X548368Y43607D01*
X548436Y43620D01*
X548504Y43638D01*
X548570Y43659D01*
X548635Y43684D01*
X548699Y43712D01*
X548761Y43744D01*
X548821Y43779D01*
X548879Y43818D01*
X548934Y43860D01*
X548988Y43905D01*
X549038Y43953D01*
X549086Y44003D01*
X549131Y44057D01*
X549173Y44112D01*
X549212Y44170D01*
X549247Y44230D01*
X549279Y44292D01*
X549307Y44356D01*
X549332Y44421D01*
X549353Y44487D01*
X549371Y44555D01*
X549384Y44623D01*
X549394Y44692D01*
X549400Y44761D01*
X549402Y44831D01*
X549400Y44925D01*
X549394Y45018D01*
X549385Y45111D01*
X549372Y45204D01*
X549355Y45296D01*
X549335Y45387D01*
X549310Y45478D01*
X549283Y45567D01*
X549251Y45655D01*
X549216Y45742D01*
X549178Y45828D01*
X549136Y45911D01*
X549091Y45993D01*
X549043Y46074D01*
X548991Y46152D01*
X548936Y46228D01*
X547074Y44210D02*
X547110Y44151D01*
X547150Y44095D01*
X547193Y44041D01*
X547238Y43989D01*
X547287Y43940D01*
X547338Y43894D01*
X547391Y43851D01*
X547447Y43810D01*
X547505Y43773D01*
X547565Y43738D01*
X547626Y43708D01*
X547689Y43680D01*
X547754Y43656D01*
X547820Y43636D01*
X547887Y43619D01*
X547954Y43606D01*
X548022Y43597D01*
X548091Y43591D01*
X548160Y43589D01*
X546142Y45917D02*
X546106Y45976D01*
X546066Y46032D01*
X546023Y46086D01*
X545978Y46138D01*
X545929Y46187D01*
X545878Y46233D01*
X545825Y46276D01*
X545769Y46317D01*
X545711Y46354D01*
X545651Y46389D01*
X545590Y46419D01*
X545527Y46447D01*
X545462Y46471D01*
X545396Y46491D01*
X545329Y46508D01*
X545262Y46521D01*
X545194Y46530D01*
X545125Y46536D01*
X545056Y46538D01*
X546142Y45918D02*
X547074Y44210D01*
X549402Y49192D02*
X543814Y49192D01*
X543814Y48572D02*
X543814Y49813D01*
X549402Y49813D02*
X549402Y48572D01*
X546918Y54385D02*
X546918Y55317D01*
X543814Y55317D01*
X543814Y53454D01*
X543816Y53384D01*
X543822Y53315D01*
X543832Y53246D01*
X543845Y53178D01*
X543863Y53110D01*
X543884Y53044D01*
X543909Y52979D01*
X543937Y52915D01*
X543969Y52853D01*
X544004Y52793D01*
X544043Y52735D01*
X544085Y52680D01*
X544130Y52626D01*
X544178Y52576D01*
X544228Y52528D01*
X544282Y52483D01*
X544337Y52441D01*
X544395Y52402D01*
X544455Y52367D01*
X544517Y52335D01*
X544581Y52307D01*
X544646Y52282D01*
X544712Y52261D01*
X544780Y52243D01*
X544848Y52230D01*
X544917Y52220D01*
X544986Y52214D01*
X545056Y52212D01*
X548160Y52212D01*
X548230Y52214D01*
X548299Y52220D01*
X548368Y52230D01*
X548436Y52243D01*
X548504Y52261D01*
X548570Y52282D01*
X548635Y52307D01*
X548699Y52335D01*
X548761Y52367D01*
X548821Y52402D01*
X548879Y52441D01*
X548934Y52483D01*
X548988Y52528D01*
X549038Y52576D01*
X549086Y52626D01*
X549131Y52680D01*
X549173Y52735D01*
X549212Y52793D01*
X549247Y52853D01*
X549279Y52915D01*
X549307Y52979D01*
X549332Y53044D01*
X549353Y53110D01*
X549371Y53178D01*
X549384Y53246D01*
X549394Y53315D01*
X549400Y53384D01*
X549402Y53454D01*
X549402Y55317D01*
X569214Y45297D02*
X569216Y45367D01*
X569222Y45436D01*
X569232Y45505D01*
X569245Y45573D01*
X569263Y45641D01*
X569284Y45707D01*
X569309Y45772D01*
X569337Y45836D01*
X569369Y45898D01*
X569404Y45958D01*
X569443Y46016D01*
X569485Y46071D01*
X569530Y46125D01*
X569578Y46175D01*
X569628Y46223D01*
X569682Y46268D01*
X569737Y46310D01*
X569795Y46349D01*
X569855Y46384D01*
X569917Y46416D01*
X569981Y46444D01*
X570046Y46469D01*
X570112Y46490D01*
X570180Y46508D01*
X570248Y46521D01*
X570317Y46531D01*
X570386Y46537D01*
X570456Y46539D01*
X569214Y45297D02*
X569216Y45198D01*
X569221Y45100D01*
X569231Y45002D01*
X569244Y44904D01*
X569260Y44807D01*
X569280Y44710D01*
X569304Y44615D01*
X569332Y44520D01*
X569363Y44426D01*
X569397Y44334D01*
X569435Y44243D01*
X569476Y44153D01*
X569521Y44065D01*
X569569Y43979D01*
X569620Y43895D01*
X569674Y43813D01*
X569732Y43732D01*
X569792Y43654D01*
X569855Y43579D01*
X569921Y43505D01*
X569990Y43435D01*
X573560Y43589D02*
X573630Y43591D01*
X573699Y43597D01*
X573768Y43607D01*
X573836Y43620D01*
X573904Y43638D01*
X573970Y43659D01*
X574035Y43684D01*
X574099Y43712D01*
X574161Y43744D01*
X574221Y43779D01*
X574279Y43818D01*
X574334Y43860D01*
X574388Y43905D01*
X574438Y43953D01*
X574486Y44003D01*
X574531Y44057D01*
X574573Y44112D01*
X574612Y44170D01*
X574647Y44230D01*
X574679Y44292D01*
X574707Y44356D01*
X574732Y44421D01*
X574753Y44487D01*
X574771Y44555D01*
X574784Y44623D01*
X574794Y44692D01*
X574800Y44761D01*
X574802Y44831D01*
X574800Y44925D01*
X574794Y45018D01*
X574785Y45111D01*
X574772Y45204D01*
X574755Y45296D01*
X574735Y45387D01*
X574710Y45478D01*
X574683Y45567D01*
X574651Y45655D01*
X574616Y45742D01*
X574578Y45828D01*
X574536Y45911D01*
X574491Y45993D01*
X574443Y46074D01*
X574391Y46152D01*
X574336Y46228D01*
X572474Y44210D02*
X572510Y44151D01*
X572550Y44095D01*
X572593Y44041D01*
X572638Y43989D01*
X572687Y43940D01*
X572738Y43894D01*
X572791Y43851D01*
X572847Y43810D01*
X572905Y43773D01*
X572965Y43738D01*
X573026Y43708D01*
X573089Y43680D01*
X573154Y43656D01*
X573220Y43636D01*
X573287Y43619D01*
X573354Y43606D01*
X573422Y43597D01*
X573491Y43591D01*
X573560Y43589D01*
X571542Y45917D02*
X571506Y45976D01*
X571466Y46032D01*
X571423Y46086D01*
X571378Y46138D01*
X571329Y46187D01*
X571278Y46233D01*
X571225Y46276D01*
X571169Y46317D01*
X571111Y46354D01*
X571051Y46389D01*
X570990Y46419D01*
X570927Y46447D01*
X570862Y46471D01*
X570796Y46491D01*
X570729Y46508D01*
X570662Y46521D01*
X570594Y46530D01*
X570525Y46536D01*
X570456Y46538D01*
X571542Y45918D02*
X572474Y44210D01*
X574802Y48538D02*
X569214Y49779D01*
X572939Y51021D01*
X569214Y52263D01*
X574802Y53505D01*
X107498Y14788D02*
X107498Y13857D01*
X107498Y14788D02*
X104394Y14788D01*
X104394Y12926D01*
X104396Y12856D01*
X104402Y12787D01*
X104412Y12718D01*
X104425Y12650D01*
X104443Y12582D01*
X104464Y12516D01*
X104489Y12451D01*
X104517Y12387D01*
X104549Y12325D01*
X104584Y12265D01*
X104623Y12207D01*
X104665Y12152D01*
X104710Y12098D01*
X104758Y12048D01*
X104808Y12000D01*
X104862Y11955D01*
X104917Y11913D01*
X104975Y11874D01*
X105035Y11839D01*
X105097Y11807D01*
X105161Y11779D01*
X105226Y11754D01*
X105292Y11733D01*
X105360Y11715D01*
X105428Y11702D01*
X105497Y11692D01*
X105566Y11686D01*
X105636Y11684D01*
X108740Y11684D01*
X108810Y11686D01*
X108879Y11692D01*
X108948Y11702D01*
X109016Y11715D01*
X109084Y11733D01*
X109150Y11754D01*
X109215Y11779D01*
X109279Y11807D01*
X109341Y11839D01*
X109401Y11874D01*
X109459Y11913D01*
X109514Y11955D01*
X109568Y12000D01*
X109618Y12048D01*
X109666Y12098D01*
X109711Y12152D01*
X109753Y12207D01*
X109792Y12265D01*
X109827Y12325D01*
X109859Y12387D01*
X109887Y12451D01*
X109912Y12516D01*
X109933Y12582D01*
X109951Y12650D01*
X109964Y12718D01*
X109974Y12787D01*
X109980Y12856D01*
X109982Y12926D01*
X109982Y14788D01*
X109982Y17536D02*
X104394Y17536D01*
X104394Y20641D02*
X109982Y17536D01*
X109982Y20641D02*
X104394Y20641D01*
X104394Y23388D02*
X109982Y23388D01*
X109982Y24940D01*
X109980Y25016D01*
X109975Y25092D01*
X109965Y25168D01*
X109952Y25243D01*
X109935Y25317D01*
X109915Y25391D01*
X109891Y25463D01*
X109864Y25534D01*
X109833Y25604D01*
X109799Y25672D01*
X109761Y25738D01*
X109720Y25802D01*
X109677Y25865D01*
X109630Y25925D01*
X109580Y25982D01*
X109527Y26037D01*
X109472Y26090D01*
X109415Y26140D01*
X109355Y26187D01*
X109292Y26230D01*
X109228Y26271D01*
X109162Y26309D01*
X109094Y26343D01*
X109024Y26374D01*
X108953Y26401D01*
X108880Y26425D01*
X108807Y26445D01*
X108733Y26462D01*
X108658Y26475D01*
X108582Y26485D01*
X108506Y26490D01*
X108430Y26492D01*
X108430Y26493D02*
X105946Y26493D01*
X105946Y26492D02*
X105867Y26490D01*
X105789Y26484D01*
X105711Y26474D01*
X105634Y26460D01*
X105557Y26442D01*
X105481Y26421D01*
X105407Y26395D01*
X105334Y26366D01*
X105263Y26333D01*
X105193Y26297D01*
X105125Y26257D01*
X105059Y26214D01*
X104996Y26167D01*
X104935Y26118D01*
X104877Y26065D01*
X104821Y26009D01*
X104768Y25951D01*
X104719Y25890D01*
X104672Y25827D01*
X104629Y25761D01*
X104589Y25693D01*
X104553Y25624D01*
X104520Y25552D01*
X104491Y25479D01*
X104465Y25405D01*
X104444Y25329D01*
X104426Y25252D01*
X104412Y25175D01*
X104402Y25097D01*
X104396Y25019D01*
X104394Y24940D01*
X104394Y23388D01*
X142494Y13547D02*
X148082Y11684D01*
X148082Y15409D02*
X142494Y13547D01*
X142494Y18706D02*
X142494Y19948D01*
X142494Y18706D02*
X142496Y18636D01*
X142502Y18567D01*
X142512Y18498D01*
X142525Y18430D01*
X142543Y18362D01*
X142564Y18296D01*
X142589Y18231D01*
X142617Y18167D01*
X142649Y18105D01*
X142684Y18045D01*
X142723Y17987D01*
X142765Y17932D01*
X142810Y17878D01*
X142858Y17828D01*
X142908Y17780D01*
X142962Y17735D01*
X143017Y17693D01*
X143075Y17654D01*
X143135Y17619D01*
X143197Y17587D01*
X143261Y17559D01*
X143326Y17534D01*
X143392Y17513D01*
X143460Y17495D01*
X143528Y17482D01*
X143597Y17472D01*
X143666Y17466D01*
X143736Y17464D01*
X143736Y17465D02*
X146840Y17465D01*
X146840Y17464D02*
X146910Y17466D01*
X146979Y17472D01*
X147048Y17482D01*
X147116Y17495D01*
X147184Y17513D01*
X147250Y17534D01*
X147315Y17559D01*
X147379Y17587D01*
X147441Y17619D01*
X147501Y17654D01*
X147559Y17693D01*
X147614Y17735D01*
X147668Y17780D01*
X147718Y17828D01*
X147766Y17878D01*
X147811Y17932D01*
X147853Y17987D01*
X147892Y18045D01*
X147927Y18105D01*
X147959Y18167D01*
X147987Y18231D01*
X148012Y18296D01*
X148033Y18362D01*
X148051Y18430D01*
X148064Y18498D01*
X148074Y18567D01*
X148080Y18636D01*
X148082Y18706D01*
X148082Y19948D01*
X142494Y23278D02*
X142494Y24520D01*
X142494Y23278D02*
X142496Y23208D01*
X142502Y23139D01*
X142512Y23070D01*
X142525Y23002D01*
X142543Y22934D01*
X142564Y22868D01*
X142589Y22803D01*
X142617Y22739D01*
X142649Y22677D01*
X142684Y22617D01*
X142723Y22559D01*
X142765Y22504D01*
X142810Y22450D01*
X142858Y22400D01*
X142908Y22352D01*
X142962Y22307D01*
X143017Y22265D01*
X143075Y22226D01*
X143135Y22191D01*
X143197Y22159D01*
X143261Y22131D01*
X143326Y22106D01*
X143392Y22085D01*
X143460Y22067D01*
X143528Y22054D01*
X143597Y22044D01*
X143666Y22038D01*
X143736Y22036D01*
X146840Y22036D01*
X146910Y22038D01*
X146979Y22044D01*
X147048Y22054D01*
X147116Y22067D01*
X147184Y22085D01*
X147250Y22106D01*
X147315Y22131D01*
X147379Y22159D01*
X147441Y22191D01*
X147501Y22226D01*
X147559Y22265D01*
X147614Y22307D01*
X147668Y22352D01*
X147718Y22400D01*
X147766Y22450D01*
X147811Y22504D01*
X147853Y22559D01*
X147892Y22617D01*
X147927Y22677D01*
X147959Y22739D01*
X147987Y22803D01*
X148012Y22868D01*
X148033Y22934D01*
X148051Y23002D01*
X148064Y23070D01*
X148074Y23139D01*
X148080Y23208D01*
X148082Y23278D01*
X148082Y24520D01*
X205994Y13547D02*
X211582Y11684D01*
X211582Y15409D02*
X205994Y13547D01*
X205994Y18706D02*
X205994Y19948D01*
X205994Y18706D02*
X205996Y18636D01*
X206002Y18567D01*
X206012Y18498D01*
X206025Y18430D01*
X206043Y18362D01*
X206064Y18296D01*
X206089Y18231D01*
X206117Y18167D01*
X206149Y18105D01*
X206184Y18045D01*
X206223Y17987D01*
X206265Y17932D01*
X206310Y17878D01*
X206358Y17828D01*
X206408Y17780D01*
X206462Y17735D01*
X206517Y17693D01*
X206575Y17654D01*
X206635Y17619D01*
X206697Y17587D01*
X206761Y17559D01*
X206826Y17534D01*
X206892Y17513D01*
X206960Y17495D01*
X207028Y17482D01*
X207097Y17472D01*
X207166Y17466D01*
X207236Y17464D01*
X207236Y17465D02*
X210340Y17465D01*
X210340Y17464D02*
X210410Y17466D01*
X210479Y17472D01*
X210548Y17482D01*
X210616Y17495D01*
X210684Y17513D01*
X210750Y17534D01*
X210815Y17559D01*
X210879Y17587D01*
X210941Y17619D01*
X211001Y17654D01*
X211059Y17693D01*
X211114Y17735D01*
X211168Y17780D01*
X211218Y17828D01*
X211266Y17878D01*
X211311Y17932D01*
X211353Y17987D01*
X211392Y18045D01*
X211427Y18105D01*
X211459Y18167D01*
X211487Y18231D01*
X211512Y18296D01*
X211533Y18362D01*
X211551Y18430D01*
X211564Y18498D01*
X211574Y18567D01*
X211580Y18636D01*
X211582Y18706D01*
X211582Y19948D01*
X205994Y23278D02*
X205994Y24520D01*
X205994Y23278D02*
X205996Y23208D01*
X206002Y23139D01*
X206012Y23070D01*
X206025Y23002D01*
X206043Y22934D01*
X206064Y22868D01*
X206089Y22803D01*
X206117Y22739D01*
X206149Y22677D01*
X206184Y22617D01*
X206223Y22559D01*
X206265Y22504D01*
X206310Y22450D01*
X206358Y22400D01*
X206408Y22352D01*
X206462Y22307D01*
X206517Y22265D01*
X206575Y22226D01*
X206635Y22191D01*
X206697Y22159D01*
X206761Y22131D01*
X206826Y22106D01*
X206892Y22085D01*
X206960Y22067D01*
X207028Y22054D01*
X207097Y22044D01*
X207166Y22038D01*
X207236Y22036D01*
X210340Y22036D01*
X210410Y22038D01*
X210479Y22044D01*
X210548Y22054D01*
X210616Y22067D01*
X210684Y22085D01*
X210750Y22106D01*
X210815Y22131D01*
X210879Y22159D01*
X210941Y22191D01*
X211001Y22226D01*
X211059Y22265D01*
X211114Y22307D01*
X211168Y22352D01*
X211218Y22400D01*
X211266Y22450D01*
X211311Y22504D01*
X211353Y22559D01*
X211392Y22617D01*
X211427Y22677D01*
X211459Y22739D01*
X211487Y22803D01*
X211512Y22868D01*
X211533Y22934D01*
X211551Y23002D01*
X211564Y23070D01*
X211574Y23139D01*
X211580Y23208D01*
X211582Y23278D01*
X211582Y24520D01*
X245364Y4657D02*
X250952Y2794D01*
X250952Y6519D02*
X245364Y4657D01*
X245364Y9816D02*
X245364Y11058D01*
X245364Y9816D02*
X245366Y9746D01*
X245372Y9677D01*
X245382Y9608D01*
X245395Y9540D01*
X245413Y9472D01*
X245434Y9406D01*
X245459Y9341D01*
X245487Y9277D01*
X245519Y9215D01*
X245554Y9155D01*
X245593Y9097D01*
X245635Y9042D01*
X245680Y8988D01*
X245728Y8938D01*
X245778Y8890D01*
X245832Y8845D01*
X245887Y8803D01*
X245945Y8764D01*
X246005Y8729D01*
X246067Y8697D01*
X246131Y8669D01*
X246196Y8644D01*
X246262Y8623D01*
X246330Y8605D01*
X246398Y8592D01*
X246467Y8582D01*
X246536Y8576D01*
X246606Y8574D01*
X246606Y8575D02*
X249710Y8575D01*
X249710Y8574D02*
X249780Y8576D01*
X249849Y8582D01*
X249918Y8592D01*
X249986Y8605D01*
X250054Y8623D01*
X250120Y8644D01*
X250185Y8669D01*
X250249Y8697D01*
X250311Y8729D01*
X250371Y8764D01*
X250429Y8803D01*
X250484Y8845D01*
X250538Y8890D01*
X250588Y8938D01*
X250636Y8988D01*
X250681Y9042D01*
X250723Y9097D01*
X250762Y9155D01*
X250797Y9215D01*
X250829Y9277D01*
X250857Y9341D01*
X250882Y9406D01*
X250903Y9472D01*
X250921Y9540D01*
X250934Y9608D01*
X250944Y9677D01*
X250950Y9746D01*
X250952Y9816D01*
X250952Y11058D01*
X245364Y14388D02*
X245364Y15630D01*
X245364Y14388D02*
X245366Y14318D01*
X245372Y14249D01*
X245382Y14180D01*
X245395Y14112D01*
X245413Y14044D01*
X245434Y13978D01*
X245459Y13913D01*
X245487Y13849D01*
X245519Y13787D01*
X245554Y13727D01*
X245593Y13669D01*
X245635Y13614D01*
X245680Y13560D01*
X245728Y13510D01*
X245778Y13462D01*
X245832Y13417D01*
X245887Y13375D01*
X245945Y13336D01*
X246005Y13301D01*
X246067Y13269D01*
X246131Y13241D01*
X246196Y13216D01*
X246262Y13195D01*
X246330Y13177D01*
X246398Y13164D01*
X246467Y13154D01*
X246536Y13148D01*
X246606Y13146D01*
X249710Y13146D01*
X249780Y13148D01*
X249849Y13154D01*
X249918Y13164D01*
X249986Y13177D01*
X250054Y13195D01*
X250120Y13216D01*
X250185Y13241D01*
X250249Y13269D01*
X250311Y13301D01*
X250371Y13336D01*
X250429Y13375D01*
X250484Y13417D01*
X250538Y13462D01*
X250588Y13510D01*
X250636Y13560D01*
X250681Y13614D01*
X250723Y13669D01*
X250762Y13727D01*
X250797Y13787D01*
X250829Y13849D01*
X250857Y13913D01*
X250882Y13978D01*
X250903Y14044D01*
X250921Y14112D01*
X250934Y14180D01*
X250944Y14249D01*
X250950Y14318D01*
X250952Y14388D01*
X250952Y15630D01*
X251573Y19980D02*
X244743Y17497D01*
X250952Y23831D02*
X250950Y23904D01*
X250944Y23977D01*
X250935Y24050D01*
X250921Y24121D01*
X250904Y24193D01*
X250884Y24263D01*
X250859Y24332D01*
X250831Y24399D01*
X250800Y24465D01*
X250765Y24530D01*
X250727Y24592D01*
X250685Y24652D01*
X250641Y24710D01*
X250593Y24766D01*
X250543Y24819D01*
X250490Y24869D01*
X250434Y24917D01*
X250376Y24961D01*
X250316Y25003D01*
X250254Y25041D01*
X250189Y25076D01*
X250123Y25107D01*
X250056Y25135D01*
X249987Y25160D01*
X249917Y25180D01*
X249845Y25197D01*
X249774Y25211D01*
X249701Y25220D01*
X249628Y25226D01*
X249555Y25228D01*
X250952Y23831D02*
X250950Y23747D01*
X250944Y23664D01*
X250935Y23581D01*
X250921Y23499D01*
X250904Y23417D01*
X250882Y23336D01*
X250857Y23256D01*
X250829Y23178D01*
X250797Y23100D01*
X250761Y23025D01*
X250722Y22951D01*
X250679Y22879D01*
X250633Y22809D01*
X250584Y22742D01*
X250531Y22676D01*
X250476Y22614D01*
X250418Y22554D01*
X250357Y22496D01*
X250294Y22442D01*
X250228Y22390D01*
X250160Y22342D01*
X250089Y22297D01*
X250017Y22255D01*
X249942Y22217D01*
X249866Y22182D01*
X249789Y22151D01*
X249710Y22123D01*
X248469Y24762D02*
X248522Y24816D01*
X248579Y24867D01*
X248638Y24915D01*
X248699Y24960D01*
X248762Y25001D01*
X248828Y25040D01*
X248895Y25075D01*
X248964Y25107D01*
X249035Y25135D01*
X249106Y25159D01*
X249179Y25180D01*
X249253Y25197D01*
X249328Y25211D01*
X249403Y25220D01*
X249479Y25226D01*
X249555Y25228D01*
X248468Y24763D02*
X245364Y22124D01*
X245364Y25228D01*
X100443Y234498D02*
X99512Y234498D01*
X99512Y231394D01*
X101374Y231394D01*
X101444Y231396D01*
X101513Y231402D01*
X101582Y231412D01*
X101650Y231425D01*
X101718Y231443D01*
X101784Y231464D01*
X101849Y231489D01*
X101913Y231517D01*
X101975Y231549D01*
X102035Y231584D01*
X102093Y231623D01*
X102148Y231665D01*
X102202Y231710D01*
X102252Y231758D01*
X102300Y231808D01*
X102345Y231862D01*
X102387Y231917D01*
X102426Y231975D01*
X102461Y232035D01*
X102493Y232097D01*
X102521Y232161D01*
X102546Y232226D01*
X102567Y232292D01*
X102585Y232360D01*
X102598Y232428D01*
X102608Y232497D01*
X102614Y232566D01*
X102616Y232636D01*
X102616Y235740D01*
X102614Y235810D01*
X102608Y235879D01*
X102598Y235948D01*
X102585Y236016D01*
X102567Y236084D01*
X102546Y236150D01*
X102521Y236215D01*
X102493Y236279D01*
X102461Y236341D01*
X102426Y236401D01*
X102387Y236459D01*
X102345Y236514D01*
X102300Y236568D01*
X102252Y236618D01*
X102202Y236666D01*
X102148Y236711D01*
X102093Y236753D01*
X102035Y236792D01*
X101975Y236827D01*
X101913Y236859D01*
X101849Y236887D01*
X101784Y236912D01*
X101718Y236933D01*
X101650Y236951D01*
X101582Y236964D01*
X101513Y236974D01*
X101444Y236980D01*
X101374Y236982D01*
X99512Y236982D01*
X96764Y236982D02*
X96764Y231394D01*
X93659Y231394D02*
X96764Y236982D01*
X93659Y236982D02*
X93659Y231394D01*
X90912Y231394D02*
X90912Y236982D01*
X89360Y236982D01*
X89284Y236980D01*
X89208Y236975D01*
X89132Y236965D01*
X89057Y236952D01*
X88983Y236935D01*
X88909Y236915D01*
X88837Y236891D01*
X88766Y236864D01*
X88696Y236833D01*
X88628Y236799D01*
X88562Y236761D01*
X88498Y236720D01*
X88435Y236677D01*
X88375Y236630D01*
X88318Y236580D01*
X88263Y236527D01*
X88210Y236472D01*
X88160Y236415D01*
X88113Y236355D01*
X88070Y236292D01*
X88029Y236228D01*
X87991Y236162D01*
X87957Y236094D01*
X87926Y236024D01*
X87899Y235953D01*
X87875Y235881D01*
X87855Y235807D01*
X87838Y235733D01*
X87825Y235658D01*
X87815Y235582D01*
X87810Y235506D01*
X87808Y235430D01*
X87807Y235430D02*
X87807Y232946D01*
X87808Y232946D02*
X87810Y232870D01*
X87815Y232794D01*
X87825Y232718D01*
X87838Y232643D01*
X87855Y232569D01*
X87875Y232495D01*
X87899Y232423D01*
X87926Y232352D01*
X87957Y232282D01*
X87991Y232214D01*
X88029Y232148D01*
X88070Y232084D01*
X88113Y232021D01*
X88160Y231961D01*
X88210Y231904D01*
X88263Y231849D01*
X88318Y231796D01*
X88375Y231746D01*
X88435Y231699D01*
X88498Y231656D01*
X88562Y231615D01*
X88628Y231577D01*
X88696Y231543D01*
X88766Y231512D01*
X88837Y231485D01*
X88909Y231461D01*
X88983Y231441D01*
X89057Y231424D01*
X89132Y231411D01*
X89208Y231401D01*
X89284Y231396D01*
X89360Y231394D01*
X90912Y231394D01*
X101346Y212852D02*
X99483Y207264D01*
X97621Y212852D01*
X94324Y207264D02*
X93082Y207264D01*
X94324Y207264D02*
X94394Y207266D01*
X94463Y207272D01*
X94532Y207282D01*
X94600Y207295D01*
X94668Y207313D01*
X94734Y207334D01*
X94799Y207359D01*
X94863Y207387D01*
X94925Y207419D01*
X94985Y207454D01*
X95043Y207493D01*
X95098Y207535D01*
X95152Y207580D01*
X95202Y207628D01*
X95250Y207678D01*
X95295Y207732D01*
X95337Y207787D01*
X95376Y207845D01*
X95411Y207905D01*
X95443Y207967D01*
X95471Y208031D01*
X95496Y208096D01*
X95517Y208162D01*
X95535Y208230D01*
X95548Y208298D01*
X95558Y208367D01*
X95564Y208436D01*
X95566Y208506D01*
X95565Y208506D02*
X95565Y211610D01*
X95566Y211610D02*
X95564Y211680D01*
X95558Y211749D01*
X95548Y211818D01*
X95535Y211886D01*
X95517Y211954D01*
X95496Y212020D01*
X95471Y212085D01*
X95443Y212149D01*
X95411Y212211D01*
X95376Y212271D01*
X95337Y212329D01*
X95295Y212384D01*
X95250Y212438D01*
X95202Y212488D01*
X95152Y212536D01*
X95098Y212581D01*
X95043Y212623D01*
X94985Y212662D01*
X94925Y212697D01*
X94863Y212729D01*
X94799Y212757D01*
X94734Y212782D01*
X94668Y212803D01*
X94600Y212821D01*
X94532Y212834D01*
X94463Y212844D01*
X94394Y212850D01*
X94324Y212852D01*
X93082Y212852D01*
X89752Y207264D02*
X88510Y207264D01*
X89752Y207264D02*
X89822Y207266D01*
X89891Y207272D01*
X89960Y207282D01*
X90028Y207295D01*
X90096Y207313D01*
X90162Y207334D01*
X90227Y207359D01*
X90291Y207387D01*
X90353Y207419D01*
X90413Y207454D01*
X90471Y207493D01*
X90526Y207535D01*
X90580Y207580D01*
X90630Y207628D01*
X90678Y207678D01*
X90723Y207732D01*
X90765Y207787D01*
X90804Y207845D01*
X90839Y207905D01*
X90871Y207967D01*
X90899Y208031D01*
X90924Y208096D01*
X90945Y208162D01*
X90963Y208230D01*
X90976Y208298D01*
X90986Y208367D01*
X90992Y208436D01*
X90994Y208506D01*
X90994Y211610D01*
X90992Y211680D01*
X90986Y211749D01*
X90976Y211818D01*
X90963Y211886D01*
X90945Y211954D01*
X90924Y212020D01*
X90899Y212085D01*
X90871Y212149D01*
X90839Y212211D01*
X90804Y212271D01*
X90765Y212329D01*
X90723Y212384D01*
X90678Y212438D01*
X90630Y212488D01*
X90580Y212536D01*
X90526Y212581D01*
X90471Y212623D01*
X90413Y212662D01*
X90353Y212697D01*
X90291Y212729D01*
X90227Y212757D01*
X90162Y212782D01*
X90096Y212803D01*
X90028Y212821D01*
X89960Y212834D01*
X89891Y212844D01*
X89822Y212850D01*
X89752Y212852D01*
X88510Y212852D01*
X102616Y187452D02*
X102616Y181864D01*
X102616Y187452D02*
X101064Y187452D01*
X100987Y187450D01*
X100909Y187444D01*
X100833Y187435D01*
X100756Y187421D01*
X100681Y187404D01*
X100607Y187383D01*
X100533Y187358D01*
X100461Y187330D01*
X100391Y187298D01*
X100322Y187263D01*
X100255Y187224D01*
X100190Y187182D01*
X100127Y187137D01*
X100066Y187089D01*
X100008Y187038D01*
X99953Y186984D01*
X99900Y186927D01*
X99851Y186868D01*
X99804Y186806D01*
X99760Y186742D01*
X99720Y186676D01*
X99683Y186608D01*
X99649Y186538D01*
X99619Y186467D01*
X99593Y186394D01*
X99570Y186320D01*
X99551Y186245D01*
X99536Y186170D01*
X99524Y186093D01*
X99516Y186016D01*
X99512Y185939D01*
X99512Y185861D01*
X99516Y185784D01*
X99524Y185707D01*
X99536Y185630D01*
X99551Y185555D01*
X99570Y185480D01*
X99593Y185406D01*
X99619Y185333D01*
X99649Y185262D01*
X99683Y185192D01*
X99720Y185124D01*
X99760Y185058D01*
X99804Y184994D01*
X99851Y184932D01*
X99900Y184873D01*
X99953Y184816D01*
X100008Y184762D01*
X100066Y184711D01*
X100127Y184663D01*
X100190Y184618D01*
X100255Y184576D01*
X100322Y184537D01*
X100391Y184502D01*
X100461Y184470D01*
X100533Y184442D01*
X100607Y184417D01*
X100681Y184396D01*
X100756Y184379D01*
X100833Y184365D01*
X100909Y184356D01*
X100987Y184350D01*
X101064Y184348D01*
X102616Y184348D01*
X100753Y184348D02*
X99512Y181864D01*
X96900Y181864D02*
X96900Y187452D01*
X95348Y187452D01*
X95271Y187450D01*
X95193Y187444D01*
X95117Y187435D01*
X95040Y187421D01*
X94965Y187404D01*
X94891Y187383D01*
X94817Y187358D01*
X94745Y187330D01*
X94675Y187298D01*
X94606Y187263D01*
X94539Y187224D01*
X94474Y187182D01*
X94411Y187137D01*
X94350Y187089D01*
X94292Y187038D01*
X94237Y186984D01*
X94184Y186927D01*
X94135Y186868D01*
X94088Y186806D01*
X94044Y186742D01*
X94004Y186676D01*
X93967Y186608D01*
X93933Y186538D01*
X93903Y186467D01*
X93877Y186394D01*
X93854Y186320D01*
X93835Y186245D01*
X93820Y186170D01*
X93808Y186093D01*
X93800Y186016D01*
X93796Y185939D01*
X93796Y185861D01*
X93800Y185784D01*
X93808Y185707D01*
X93820Y185630D01*
X93835Y185555D01*
X93854Y185480D01*
X93877Y185406D01*
X93903Y185333D01*
X93933Y185262D01*
X93967Y185192D01*
X94004Y185124D01*
X94044Y185058D01*
X94088Y184994D01*
X94135Y184932D01*
X94184Y184873D01*
X94237Y184816D01*
X94292Y184762D01*
X94350Y184711D01*
X94411Y184663D01*
X94474Y184618D01*
X94539Y184576D01*
X94606Y184537D01*
X94675Y184502D01*
X94745Y184470D01*
X94817Y184442D01*
X94891Y184417D01*
X94965Y184396D01*
X95040Y184379D01*
X95117Y184365D01*
X95193Y184356D01*
X95271Y184350D01*
X95348Y184348D01*
X96900Y184348D01*
X91441Y181864D02*
X91441Y187452D01*
X89579Y184348D01*
X87716Y187452D01*
X87716Y181864D01*
X103886Y162052D02*
X103886Y156464D01*
X103886Y162052D02*
X102334Y162052D01*
X102257Y162050D01*
X102179Y162044D01*
X102103Y162035D01*
X102026Y162021D01*
X101951Y162004D01*
X101877Y161983D01*
X101803Y161958D01*
X101731Y161930D01*
X101661Y161898D01*
X101592Y161863D01*
X101525Y161824D01*
X101460Y161782D01*
X101397Y161737D01*
X101336Y161689D01*
X101278Y161638D01*
X101223Y161584D01*
X101170Y161527D01*
X101121Y161468D01*
X101074Y161406D01*
X101030Y161342D01*
X100990Y161276D01*
X100953Y161208D01*
X100919Y161138D01*
X100889Y161067D01*
X100863Y160994D01*
X100840Y160920D01*
X100821Y160845D01*
X100806Y160770D01*
X100794Y160693D01*
X100786Y160616D01*
X100782Y160539D01*
X100782Y160461D01*
X100786Y160384D01*
X100794Y160307D01*
X100806Y160230D01*
X100821Y160155D01*
X100840Y160080D01*
X100863Y160006D01*
X100889Y159933D01*
X100919Y159862D01*
X100953Y159792D01*
X100990Y159724D01*
X101030Y159658D01*
X101074Y159594D01*
X101121Y159532D01*
X101170Y159473D01*
X101223Y159416D01*
X101278Y159362D01*
X101336Y159311D01*
X101397Y159263D01*
X101460Y159218D01*
X101525Y159176D01*
X101592Y159137D01*
X101661Y159102D01*
X101731Y159070D01*
X101803Y159042D01*
X101877Y159017D01*
X101951Y158996D01*
X102026Y158979D01*
X102103Y158965D01*
X102179Y158956D01*
X102257Y158950D01*
X102334Y158948D01*
X103886Y158948D01*
X98865Y162052D02*
X97624Y156464D01*
X96382Y160189D01*
X95140Y156464D01*
X93898Y162052D01*
X91478Y162052D02*
X91478Y156464D01*
X89615Y158948D02*
X91478Y162052D01*
X89615Y158948D02*
X87753Y162052D01*
X87753Y156464D01*
X154686Y265684D02*
X154686Y271272D01*
X153134Y271272D01*
X153057Y271270D01*
X152979Y271264D01*
X152903Y271255D01*
X152826Y271241D01*
X152751Y271224D01*
X152677Y271203D01*
X152603Y271178D01*
X152531Y271150D01*
X152461Y271118D01*
X152392Y271083D01*
X152325Y271044D01*
X152260Y271002D01*
X152197Y270957D01*
X152136Y270909D01*
X152078Y270858D01*
X152023Y270804D01*
X151970Y270747D01*
X151921Y270688D01*
X151874Y270626D01*
X151830Y270562D01*
X151790Y270496D01*
X151753Y270428D01*
X151719Y270358D01*
X151689Y270287D01*
X151663Y270214D01*
X151640Y270140D01*
X151621Y270065D01*
X151606Y269990D01*
X151594Y269913D01*
X151586Y269836D01*
X151582Y269759D01*
X151582Y269681D01*
X151586Y269604D01*
X151594Y269527D01*
X151606Y269450D01*
X151621Y269375D01*
X151640Y269300D01*
X151663Y269226D01*
X151689Y269153D01*
X151719Y269082D01*
X151753Y269012D01*
X151790Y268944D01*
X151830Y268878D01*
X151874Y268814D01*
X151921Y268752D01*
X151970Y268693D01*
X152023Y268636D01*
X152078Y268582D01*
X152136Y268531D01*
X152197Y268483D01*
X152260Y268438D01*
X152325Y268396D01*
X152392Y268357D01*
X152461Y268322D01*
X152531Y268290D01*
X152603Y268262D01*
X152677Y268237D01*
X152751Y268216D01*
X152826Y268199D01*
X152903Y268185D01*
X152979Y268176D01*
X153057Y268170D01*
X153134Y268168D01*
X154686Y268168D01*
X149665Y271272D02*
X148424Y265684D01*
X147182Y269409D01*
X145940Y265684D01*
X144698Y271272D01*
X142278Y271272D02*
X142278Y265684D01*
X140415Y268168D02*
X142278Y271272D01*
X140415Y268168D02*
X138553Y271272D01*
X138553Y265684D01*
X178816Y265684D02*
X178816Y271272D01*
X177264Y271272D01*
X177187Y271270D01*
X177109Y271264D01*
X177033Y271255D01*
X176956Y271241D01*
X176881Y271224D01*
X176807Y271203D01*
X176733Y271178D01*
X176661Y271150D01*
X176591Y271118D01*
X176522Y271083D01*
X176455Y271044D01*
X176390Y271002D01*
X176327Y270957D01*
X176266Y270909D01*
X176208Y270858D01*
X176153Y270804D01*
X176100Y270747D01*
X176051Y270688D01*
X176004Y270626D01*
X175960Y270562D01*
X175920Y270496D01*
X175883Y270428D01*
X175849Y270358D01*
X175819Y270287D01*
X175793Y270214D01*
X175770Y270140D01*
X175751Y270065D01*
X175736Y269990D01*
X175724Y269913D01*
X175716Y269836D01*
X175712Y269759D01*
X175712Y269681D01*
X175716Y269604D01*
X175724Y269527D01*
X175736Y269450D01*
X175751Y269375D01*
X175770Y269300D01*
X175793Y269226D01*
X175819Y269153D01*
X175849Y269082D01*
X175883Y269012D01*
X175920Y268944D01*
X175960Y268878D01*
X176004Y268814D01*
X176051Y268752D01*
X176100Y268693D01*
X176153Y268636D01*
X176208Y268582D01*
X176266Y268531D01*
X176327Y268483D01*
X176390Y268438D01*
X176455Y268396D01*
X176522Y268357D01*
X176591Y268322D01*
X176661Y268290D01*
X176733Y268262D01*
X176807Y268237D01*
X176881Y268216D01*
X176956Y268199D01*
X177033Y268185D01*
X177109Y268176D01*
X177187Y268170D01*
X177264Y268168D01*
X178816Y268168D01*
X176953Y268168D02*
X175712Y265684D01*
X173100Y265684D02*
X173100Y271272D01*
X171548Y271272D01*
X171471Y271270D01*
X171393Y271264D01*
X171317Y271255D01*
X171240Y271241D01*
X171165Y271224D01*
X171091Y271203D01*
X171017Y271178D01*
X170945Y271150D01*
X170875Y271118D01*
X170806Y271083D01*
X170739Y271044D01*
X170674Y271002D01*
X170611Y270957D01*
X170550Y270909D01*
X170492Y270858D01*
X170437Y270804D01*
X170384Y270747D01*
X170335Y270688D01*
X170288Y270626D01*
X170244Y270562D01*
X170204Y270496D01*
X170167Y270428D01*
X170133Y270358D01*
X170103Y270287D01*
X170077Y270214D01*
X170054Y270140D01*
X170035Y270065D01*
X170020Y269990D01*
X170008Y269913D01*
X170000Y269836D01*
X169996Y269759D01*
X169996Y269681D01*
X170000Y269604D01*
X170008Y269527D01*
X170020Y269450D01*
X170035Y269375D01*
X170054Y269300D01*
X170077Y269226D01*
X170103Y269153D01*
X170133Y269082D01*
X170167Y269012D01*
X170204Y268944D01*
X170244Y268878D01*
X170288Y268814D01*
X170335Y268752D01*
X170384Y268693D01*
X170437Y268636D01*
X170492Y268582D01*
X170550Y268531D01*
X170611Y268483D01*
X170674Y268438D01*
X170739Y268396D01*
X170806Y268357D01*
X170875Y268322D01*
X170945Y268290D01*
X171017Y268262D01*
X171091Y268237D01*
X171165Y268216D01*
X171240Y268199D01*
X171317Y268185D01*
X171393Y268176D01*
X171471Y268170D01*
X171548Y268168D01*
X173100Y268168D01*
X167641Y265684D02*
X167641Y271272D01*
X165779Y268168D01*
X163916Y271272D01*
X163916Y265684D01*
X201083Y265684D02*
X202946Y271272D01*
X199221Y271272D02*
X201083Y265684D01*
X195924Y265684D02*
X194682Y265684D01*
X195924Y265684D02*
X195994Y265686D01*
X196063Y265692D01*
X196132Y265702D01*
X196200Y265715D01*
X196268Y265733D01*
X196334Y265754D01*
X196399Y265779D01*
X196463Y265807D01*
X196525Y265839D01*
X196585Y265874D01*
X196643Y265913D01*
X196698Y265955D01*
X196752Y266000D01*
X196802Y266048D01*
X196850Y266098D01*
X196895Y266152D01*
X196937Y266207D01*
X196976Y266265D01*
X197011Y266325D01*
X197043Y266387D01*
X197071Y266451D01*
X197096Y266516D01*
X197117Y266582D01*
X197135Y266650D01*
X197148Y266718D01*
X197158Y266787D01*
X197164Y266856D01*
X197166Y266926D01*
X197165Y266926D02*
X197165Y270030D01*
X197166Y270030D02*
X197164Y270100D01*
X197158Y270169D01*
X197148Y270238D01*
X197135Y270306D01*
X197117Y270374D01*
X197096Y270440D01*
X197071Y270505D01*
X197043Y270569D01*
X197011Y270631D01*
X196976Y270691D01*
X196937Y270749D01*
X196895Y270804D01*
X196850Y270858D01*
X196802Y270908D01*
X196752Y270956D01*
X196698Y271001D01*
X196643Y271043D01*
X196585Y271082D01*
X196525Y271117D01*
X196463Y271149D01*
X196399Y271177D01*
X196334Y271202D01*
X196268Y271223D01*
X196200Y271241D01*
X196132Y271254D01*
X196063Y271264D01*
X195994Y271270D01*
X195924Y271272D01*
X194682Y271272D01*
X191352Y265684D02*
X190110Y265684D01*
X191352Y265684D02*
X191422Y265686D01*
X191491Y265692D01*
X191560Y265702D01*
X191628Y265715D01*
X191696Y265733D01*
X191762Y265754D01*
X191827Y265779D01*
X191891Y265807D01*
X191953Y265839D01*
X192013Y265874D01*
X192071Y265913D01*
X192126Y265955D01*
X192180Y266000D01*
X192230Y266048D01*
X192278Y266098D01*
X192323Y266152D01*
X192365Y266207D01*
X192404Y266265D01*
X192439Y266325D01*
X192471Y266387D01*
X192499Y266451D01*
X192524Y266516D01*
X192545Y266582D01*
X192563Y266650D01*
X192576Y266718D01*
X192586Y266787D01*
X192592Y266856D01*
X192594Y266926D01*
X192594Y270030D01*
X192592Y270100D01*
X192586Y270169D01*
X192576Y270238D01*
X192563Y270306D01*
X192545Y270374D01*
X192524Y270440D01*
X192499Y270505D01*
X192471Y270569D01*
X192439Y270631D01*
X192404Y270691D01*
X192365Y270749D01*
X192323Y270804D01*
X192278Y270858D01*
X192230Y270908D01*
X192180Y270956D01*
X192126Y271001D01*
X192071Y271043D01*
X192013Y271082D01*
X191953Y271117D01*
X191891Y271149D01*
X191827Y271177D01*
X191762Y271202D01*
X191696Y271223D01*
X191628Y271241D01*
X191560Y271254D01*
X191491Y271264D01*
X191422Y271270D01*
X191352Y271272D01*
X190110Y271272D01*
X226512Y268788D02*
X227443Y268788D01*
X226512Y268788D02*
X226512Y265684D01*
X228374Y265684D01*
X228444Y265686D01*
X228513Y265692D01*
X228582Y265702D01*
X228650Y265715D01*
X228718Y265733D01*
X228784Y265754D01*
X228849Y265779D01*
X228913Y265807D01*
X228975Y265839D01*
X229035Y265874D01*
X229093Y265913D01*
X229148Y265955D01*
X229202Y266000D01*
X229252Y266048D01*
X229300Y266098D01*
X229345Y266152D01*
X229387Y266207D01*
X229426Y266265D01*
X229461Y266325D01*
X229493Y266387D01*
X229521Y266451D01*
X229546Y266516D01*
X229567Y266582D01*
X229585Y266650D01*
X229598Y266718D01*
X229608Y266787D01*
X229614Y266856D01*
X229616Y266926D01*
X229616Y270030D01*
X229614Y270100D01*
X229608Y270169D01*
X229598Y270238D01*
X229585Y270306D01*
X229567Y270374D01*
X229546Y270440D01*
X229521Y270505D01*
X229493Y270569D01*
X229461Y270631D01*
X229426Y270691D01*
X229387Y270749D01*
X229345Y270804D01*
X229300Y270858D01*
X229252Y270908D01*
X229202Y270956D01*
X229148Y271001D01*
X229093Y271043D01*
X229035Y271082D01*
X228975Y271117D01*
X228913Y271149D01*
X228849Y271177D01*
X228784Y271202D01*
X228718Y271223D01*
X228650Y271241D01*
X228582Y271254D01*
X228513Y271264D01*
X228444Y271270D01*
X228374Y271272D01*
X226512Y271272D01*
X223764Y271272D02*
X223764Y265684D01*
X220659Y265684D02*
X223764Y271272D01*
X220659Y271272D02*
X220659Y265684D01*
X217912Y265684D02*
X217912Y271272D01*
X216360Y271272D01*
X216284Y271270D01*
X216208Y271265D01*
X216132Y271255D01*
X216057Y271242D01*
X215983Y271225D01*
X215909Y271205D01*
X215837Y271181D01*
X215766Y271154D01*
X215696Y271123D01*
X215628Y271089D01*
X215562Y271051D01*
X215498Y271010D01*
X215435Y270967D01*
X215375Y270920D01*
X215318Y270870D01*
X215263Y270817D01*
X215210Y270762D01*
X215160Y270705D01*
X215113Y270645D01*
X215070Y270582D01*
X215029Y270518D01*
X214991Y270452D01*
X214957Y270384D01*
X214926Y270314D01*
X214899Y270243D01*
X214875Y270171D01*
X214855Y270097D01*
X214838Y270023D01*
X214825Y269948D01*
X214815Y269872D01*
X214810Y269796D01*
X214808Y269720D01*
X214807Y269720D02*
X214807Y267236D01*
X214808Y267236D02*
X214810Y267160D01*
X214815Y267084D01*
X214825Y267008D01*
X214838Y266933D01*
X214855Y266859D01*
X214875Y266785D01*
X214899Y266713D01*
X214926Y266642D01*
X214957Y266572D01*
X214991Y266504D01*
X215029Y266438D01*
X215070Y266374D01*
X215113Y266311D01*
X215160Y266251D01*
X215210Y266194D01*
X215263Y266139D01*
X215318Y266086D01*
X215375Y266036D01*
X215435Y265989D01*
X215498Y265946D01*
X215562Y265905D01*
X215628Y265867D01*
X215696Y265833D01*
X215766Y265802D01*
X215837Y265775D01*
X215909Y265751D01*
X215983Y265731D01*
X216057Y265714D01*
X216132Y265701D01*
X216208Y265691D01*
X216284Y265686D01*
X216360Y265684D01*
X217912Y265684D01*
D12*
X471480Y112480D02*
X472115Y112480D01*
X471480Y112480D02*
X471480Y110363D01*
X472750Y110363D01*
X472805Y110365D01*
X472861Y110370D01*
X472915Y110379D01*
X472969Y110392D01*
X473022Y110408D01*
X473074Y110427D01*
X473125Y110450D01*
X473174Y110476D01*
X473221Y110506D01*
X473266Y110538D01*
X473308Y110573D01*
X473349Y110611D01*
X473387Y110652D01*
X473422Y110694D01*
X473454Y110739D01*
X473484Y110787D01*
X473510Y110835D01*
X473533Y110886D01*
X473552Y110938D01*
X473568Y110991D01*
X473581Y111045D01*
X473590Y111099D01*
X473595Y111155D01*
X473597Y111210D01*
X473596Y111210D02*
X473596Y113326D01*
X473597Y113326D02*
X473595Y113384D01*
X473589Y113441D01*
X473579Y113498D01*
X473566Y113555D01*
X473548Y113610D01*
X473527Y113663D01*
X473502Y113716D01*
X473474Y113766D01*
X473442Y113814D01*
X473407Y113861D01*
X473369Y113904D01*
X473328Y113945D01*
X473285Y113983D01*
X473238Y114018D01*
X473190Y114050D01*
X473140Y114078D01*
X473087Y114103D01*
X473034Y114124D01*
X472979Y114142D01*
X472922Y114155D01*
X472865Y114165D01*
X472808Y114171D01*
X472750Y114173D01*
X471480Y114173D01*
X469695Y114173D02*
X469695Y110363D01*
X467578Y110363D02*
X469695Y114173D01*
X467578Y114173D02*
X467578Y110363D01*
X465794Y110363D02*
X465794Y114173D01*
X464735Y114173D01*
X464671Y114171D01*
X464607Y114165D01*
X464544Y114156D01*
X464482Y114142D01*
X464420Y114125D01*
X464360Y114104D01*
X464301Y114080D01*
X464243Y114052D01*
X464188Y114020D01*
X464134Y113986D01*
X464083Y113948D01*
X464033Y113907D01*
X463987Y113863D01*
X463943Y113817D01*
X463902Y113768D01*
X463864Y113716D01*
X463830Y113662D01*
X463798Y113607D01*
X463770Y113549D01*
X463746Y113490D01*
X463725Y113430D01*
X463708Y113368D01*
X463694Y113306D01*
X463685Y113243D01*
X463679Y113179D01*
X463677Y113115D01*
X463677Y111421D01*
X463679Y111357D01*
X463685Y111293D01*
X463694Y111230D01*
X463708Y111168D01*
X463725Y111106D01*
X463746Y111046D01*
X463770Y110987D01*
X463798Y110929D01*
X463830Y110874D01*
X463864Y110820D01*
X463902Y110769D01*
X463943Y110719D01*
X463987Y110673D01*
X464033Y110629D01*
X464083Y110588D01*
X464134Y110550D01*
X464188Y110516D01*
X464243Y110484D01*
X464301Y110456D01*
X464360Y110432D01*
X464420Y110411D01*
X464482Y110394D01*
X464544Y110380D01*
X464608Y110371D01*
X464671Y110365D01*
X464735Y110363D01*
X465794Y110363D01*
X521733Y110363D02*
X523003Y110363D01*
X521733Y110363D02*
X521678Y110365D01*
X521622Y110370D01*
X521568Y110379D01*
X521514Y110392D01*
X521461Y110408D01*
X521409Y110427D01*
X521358Y110450D01*
X521310Y110476D01*
X521262Y110506D01*
X521217Y110538D01*
X521175Y110573D01*
X521134Y110611D01*
X521096Y110652D01*
X521061Y110694D01*
X521029Y110739D01*
X520999Y110787D01*
X520973Y110835D01*
X520950Y110886D01*
X520931Y110938D01*
X520915Y110991D01*
X520902Y111045D01*
X520893Y111099D01*
X520888Y111155D01*
X520886Y111210D01*
X520886Y111633D01*
X520888Y111688D01*
X520893Y111744D01*
X520902Y111798D01*
X520915Y111852D01*
X520931Y111905D01*
X520950Y111957D01*
X520973Y112008D01*
X520999Y112057D01*
X521029Y112104D01*
X521061Y112149D01*
X521096Y112191D01*
X521134Y112232D01*
X521175Y112270D01*
X521217Y112305D01*
X521262Y112337D01*
X521310Y112367D01*
X521358Y112393D01*
X521409Y112416D01*
X521461Y112435D01*
X521514Y112451D01*
X521568Y112464D01*
X521622Y112473D01*
X521678Y112478D01*
X521733Y112480D01*
X523003Y112480D01*
X523003Y114173D01*
X520886Y114173D01*
X519557Y114173D02*
X518287Y110363D01*
X517017Y114173D01*
X499863Y114173D02*
X499863Y110363D01*
X498593Y112056D02*
X499863Y114173D01*
X498593Y112056D02*
X497323Y114173D01*
X497323Y110363D01*
X495628Y111421D02*
X495628Y113115D01*
X495626Y113179D01*
X495620Y113243D01*
X495611Y113306D01*
X495597Y113368D01*
X495580Y113430D01*
X495559Y113490D01*
X495535Y113549D01*
X495507Y113607D01*
X495475Y113662D01*
X495441Y113716D01*
X495403Y113767D01*
X495362Y113817D01*
X495318Y113863D01*
X495272Y113907D01*
X495222Y113948D01*
X495171Y113986D01*
X495117Y114020D01*
X495062Y114052D01*
X495004Y114080D01*
X494945Y114104D01*
X494885Y114125D01*
X494823Y114142D01*
X494761Y114156D01*
X494698Y114165D01*
X494634Y114171D01*
X494570Y114173D01*
X494506Y114171D01*
X494442Y114165D01*
X494379Y114156D01*
X494317Y114142D01*
X494255Y114125D01*
X494195Y114104D01*
X494136Y114080D01*
X494078Y114052D01*
X494023Y114020D01*
X493969Y113986D01*
X493918Y113948D01*
X493868Y113907D01*
X493822Y113863D01*
X493778Y113817D01*
X493737Y113767D01*
X493699Y113716D01*
X493665Y113662D01*
X493633Y113607D01*
X493605Y113549D01*
X493581Y113490D01*
X493560Y113430D01*
X493543Y113368D01*
X493529Y113306D01*
X493520Y113243D01*
X493514Y113179D01*
X493512Y113115D01*
X493512Y111421D01*
X493514Y111357D01*
X493520Y111293D01*
X493529Y111230D01*
X493543Y111168D01*
X493560Y111106D01*
X493581Y111046D01*
X493605Y110987D01*
X493633Y110929D01*
X493665Y110874D01*
X493699Y110820D01*
X493737Y110769D01*
X493778Y110719D01*
X493822Y110673D01*
X493868Y110629D01*
X493918Y110588D01*
X493969Y110550D01*
X494023Y110516D01*
X494078Y110484D01*
X494136Y110456D01*
X494195Y110432D01*
X494255Y110411D01*
X494317Y110394D01*
X494379Y110380D01*
X494442Y110371D01*
X494506Y110365D01*
X494570Y110363D01*
X494634Y110365D01*
X494698Y110371D01*
X494761Y110380D01*
X494823Y110394D01*
X494885Y110411D01*
X494945Y110432D01*
X495004Y110456D01*
X495062Y110484D01*
X495117Y110516D01*
X495171Y110550D01*
X495222Y110588D01*
X495272Y110629D01*
X495318Y110673D01*
X495362Y110719D01*
X495403Y110769D01*
X495441Y110820D01*
X495475Y110874D01*
X495507Y110929D01*
X495535Y110987D01*
X495559Y111046D01*
X495580Y111106D01*
X495597Y111168D01*
X495611Y111230D01*
X495620Y111293D01*
X495626Y111357D01*
X495628Y111421D01*
X490823Y110363D02*
X490768Y110365D01*
X490712Y110370D01*
X490658Y110379D01*
X490604Y110392D01*
X490551Y110408D01*
X490499Y110427D01*
X490448Y110450D01*
X490400Y110476D01*
X490352Y110506D01*
X490307Y110538D01*
X490265Y110573D01*
X490224Y110611D01*
X490186Y110652D01*
X490151Y110694D01*
X490119Y110739D01*
X490089Y110787D01*
X490063Y110835D01*
X490040Y110886D01*
X490021Y110938D01*
X490005Y110991D01*
X489992Y111045D01*
X489983Y111099D01*
X489978Y111155D01*
X489976Y111210D01*
X490823Y110363D02*
X490906Y110365D01*
X490989Y110371D01*
X491071Y110380D01*
X491153Y110394D01*
X491235Y110411D01*
X491315Y110432D01*
X491394Y110457D01*
X491473Y110485D01*
X491549Y110517D01*
X491624Y110553D01*
X491698Y110591D01*
X491769Y110634D01*
X491839Y110679D01*
X491906Y110728D01*
X491971Y110780D01*
X492033Y110835D01*
X492093Y110892D01*
X491987Y113326D02*
X491985Y113381D01*
X491980Y113437D01*
X491971Y113491D01*
X491958Y113545D01*
X491942Y113598D01*
X491923Y113650D01*
X491900Y113701D01*
X491874Y113750D01*
X491844Y113797D01*
X491812Y113842D01*
X491777Y113884D01*
X491739Y113925D01*
X491698Y113963D01*
X491656Y113998D01*
X491611Y114030D01*
X491564Y114060D01*
X491515Y114086D01*
X491464Y114109D01*
X491412Y114128D01*
X491359Y114144D01*
X491305Y114157D01*
X491251Y114166D01*
X491195Y114171D01*
X491140Y114173D01*
X491140Y114174D02*
X491061Y114172D01*
X490983Y114166D01*
X490905Y114157D01*
X490828Y114143D01*
X490751Y114126D01*
X490675Y114104D01*
X490601Y114080D01*
X490527Y114051D01*
X490456Y114019D01*
X490386Y113983D01*
X490317Y113944D01*
X490251Y113902D01*
X490187Y113856D01*
X491564Y112585D02*
X491611Y112615D01*
X491656Y112648D01*
X491699Y112684D01*
X491739Y112722D01*
X491777Y112763D01*
X491812Y112806D01*
X491844Y112852D01*
X491874Y112899D01*
X491900Y112949D01*
X491923Y113000D01*
X491942Y113052D01*
X491958Y113105D01*
X491971Y113160D01*
X491980Y113215D01*
X491985Y113270D01*
X491987Y113326D01*
X490399Y111951D02*
X490352Y111921D01*
X490307Y111888D01*
X490264Y111852D01*
X490224Y111814D01*
X490186Y111773D01*
X490151Y111730D01*
X490119Y111684D01*
X490089Y111637D01*
X490063Y111587D01*
X490040Y111536D01*
X490021Y111484D01*
X490005Y111431D01*
X489992Y111376D01*
X489983Y111321D01*
X489978Y111266D01*
X489976Y111210D01*
X490399Y111951D02*
X491564Y112586D01*
X488230Y114173D02*
X488230Y110363D01*
X487807Y110363D02*
X488654Y110363D01*
X488654Y114173D02*
X487807Y114173D01*
X526437Y163703D02*
X526437Y167513D01*
X525167Y165396D01*
X523897Y167513D01*
X523897Y163703D01*
X521875Y163703D02*
X521875Y167513D01*
X522298Y163703D02*
X521452Y163703D01*
X521452Y167513D02*
X522298Y167513D01*
X518859Y163703D02*
X518804Y163705D01*
X518748Y163710D01*
X518694Y163719D01*
X518640Y163732D01*
X518587Y163748D01*
X518535Y163767D01*
X518484Y163790D01*
X518436Y163816D01*
X518388Y163846D01*
X518343Y163878D01*
X518301Y163913D01*
X518260Y163951D01*
X518222Y163992D01*
X518187Y164034D01*
X518155Y164079D01*
X518125Y164127D01*
X518099Y164175D01*
X518076Y164226D01*
X518057Y164278D01*
X518041Y164331D01*
X518028Y164385D01*
X518019Y164439D01*
X518014Y164495D01*
X518012Y164550D01*
X518859Y163703D02*
X518942Y163705D01*
X519025Y163711D01*
X519107Y163720D01*
X519189Y163734D01*
X519271Y163751D01*
X519351Y163772D01*
X519430Y163797D01*
X519509Y163825D01*
X519585Y163857D01*
X519660Y163893D01*
X519734Y163931D01*
X519805Y163974D01*
X519875Y164019D01*
X519942Y164068D01*
X520007Y164120D01*
X520069Y164175D01*
X520129Y164232D01*
X520024Y166666D02*
X520022Y166721D01*
X520017Y166777D01*
X520008Y166831D01*
X519995Y166885D01*
X519979Y166938D01*
X519960Y166990D01*
X519937Y167041D01*
X519911Y167090D01*
X519881Y167137D01*
X519849Y167182D01*
X519814Y167224D01*
X519776Y167265D01*
X519735Y167303D01*
X519693Y167338D01*
X519648Y167370D01*
X519601Y167400D01*
X519552Y167426D01*
X519501Y167449D01*
X519449Y167468D01*
X519396Y167484D01*
X519342Y167497D01*
X519288Y167506D01*
X519232Y167511D01*
X519177Y167513D01*
X519177Y167514D02*
X519098Y167512D01*
X519020Y167506D01*
X518942Y167497D01*
X518865Y167483D01*
X518788Y167466D01*
X518712Y167444D01*
X518638Y167420D01*
X518564Y167391D01*
X518493Y167359D01*
X518423Y167323D01*
X518354Y167284D01*
X518288Y167242D01*
X518224Y167196D01*
X519601Y165925D02*
X519648Y165955D01*
X519693Y165988D01*
X519736Y166024D01*
X519776Y166062D01*
X519814Y166103D01*
X519849Y166146D01*
X519881Y166192D01*
X519911Y166239D01*
X519937Y166289D01*
X519960Y166340D01*
X519979Y166392D01*
X519995Y166445D01*
X520008Y166500D01*
X520017Y166555D01*
X520022Y166610D01*
X520024Y166666D01*
X518436Y165291D02*
X518389Y165261D01*
X518344Y165228D01*
X518301Y165192D01*
X518261Y165154D01*
X518223Y165113D01*
X518188Y165070D01*
X518156Y165024D01*
X518126Y164977D01*
X518100Y164927D01*
X518077Y164876D01*
X518058Y164824D01*
X518042Y164771D01*
X518029Y164716D01*
X518020Y164661D01*
X518015Y164606D01*
X518013Y164550D01*
X518436Y165291D02*
X519600Y165926D01*
X516594Y166455D02*
X516594Y164761D01*
X516593Y166455D02*
X516591Y166519D01*
X516585Y166583D01*
X516576Y166646D01*
X516562Y166708D01*
X516545Y166770D01*
X516524Y166830D01*
X516500Y166889D01*
X516472Y166947D01*
X516440Y167002D01*
X516406Y167056D01*
X516368Y167107D01*
X516327Y167157D01*
X516283Y167203D01*
X516237Y167247D01*
X516187Y167288D01*
X516136Y167326D01*
X516082Y167360D01*
X516027Y167392D01*
X515969Y167420D01*
X515910Y167444D01*
X515850Y167465D01*
X515788Y167482D01*
X515726Y167496D01*
X515663Y167505D01*
X515599Y167511D01*
X515535Y167513D01*
X515471Y167511D01*
X515407Y167505D01*
X515344Y167496D01*
X515282Y167482D01*
X515220Y167465D01*
X515160Y167444D01*
X515101Y167420D01*
X515043Y167392D01*
X514988Y167360D01*
X514934Y167326D01*
X514883Y167288D01*
X514833Y167247D01*
X514787Y167203D01*
X514743Y167157D01*
X514702Y167107D01*
X514664Y167056D01*
X514630Y167002D01*
X514598Y166947D01*
X514570Y166889D01*
X514546Y166830D01*
X514525Y166770D01*
X514508Y166708D01*
X514494Y166646D01*
X514485Y166583D01*
X514479Y166519D01*
X514477Y166455D01*
X514477Y164761D01*
X514479Y164697D01*
X514485Y164633D01*
X514494Y164570D01*
X514508Y164508D01*
X514525Y164446D01*
X514546Y164386D01*
X514570Y164327D01*
X514598Y164269D01*
X514630Y164214D01*
X514664Y164160D01*
X514702Y164109D01*
X514743Y164059D01*
X514787Y164013D01*
X514833Y163969D01*
X514883Y163928D01*
X514934Y163890D01*
X514988Y163856D01*
X515043Y163824D01*
X515101Y163796D01*
X515160Y163772D01*
X515220Y163751D01*
X515282Y163734D01*
X515344Y163720D01*
X515407Y163711D01*
X515471Y163705D01*
X515535Y163703D01*
X515599Y163705D01*
X515663Y163711D01*
X515726Y163720D01*
X515788Y163734D01*
X515850Y163751D01*
X515910Y163772D01*
X515969Y163796D01*
X516027Y163824D01*
X516082Y163856D01*
X516136Y163890D01*
X516187Y163928D01*
X516237Y163969D01*
X516283Y164013D01*
X516327Y164059D01*
X516368Y164109D01*
X516406Y164160D01*
X516440Y164214D01*
X516472Y164269D01*
X516500Y164327D01*
X516524Y164386D01*
X516545Y164446D01*
X516562Y164508D01*
X516576Y164570D01*
X516585Y164633D01*
X516591Y164697D01*
X516593Y164761D01*
X497947Y164973D02*
X497892Y164975D01*
X497836Y164980D01*
X497782Y164989D01*
X497728Y165002D01*
X497675Y165018D01*
X497623Y165037D01*
X497572Y165060D01*
X497524Y165086D01*
X497476Y165116D01*
X497431Y165148D01*
X497389Y165183D01*
X497348Y165221D01*
X497310Y165262D01*
X497275Y165304D01*
X497243Y165349D01*
X497213Y165397D01*
X497187Y165445D01*
X497164Y165496D01*
X497145Y165548D01*
X497129Y165601D01*
X497116Y165655D01*
X497107Y165709D01*
X497102Y165765D01*
X497100Y165820D01*
X497947Y164973D02*
X498030Y164975D01*
X498113Y164981D01*
X498195Y164990D01*
X498277Y165004D01*
X498359Y165021D01*
X498439Y165042D01*
X498518Y165067D01*
X498597Y165095D01*
X498673Y165127D01*
X498748Y165163D01*
X498822Y165201D01*
X498893Y165244D01*
X498963Y165289D01*
X499030Y165338D01*
X499095Y165390D01*
X499157Y165445D01*
X499217Y165502D01*
X499112Y167936D02*
X499110Y167991D01*
X499105Y168047D01*
X499096Y168101D01*
X499083Y168155D01*
X499067Y168208D01*
X499048Y168260D01*
X499025Y168311D01*
X498999Y168360D01*
X498969Y168407D01*
X498937Y168452D01*
X498902Y168494D01*
X498864Y168535D01*
X498823Y168573D01*
X498781Y168608D01*
X498736Y168640D01*
X498689Y168670D01*
X498640Y168696D01*
X498589Y168719D01*
X498537Y168738D01*
X498484Y168754D01*
X498430Y168767D01*
X498376Y168776D01*
X498320Y168781D01*
X498265Y168783D01*
X498265Y168784D02*
X498186Y168782D01*
X498108Y168776D01*
X498030Y168767D01*
X497953Y168753D01*
X497876Y168736D01*
X497800Y168714D01*
X497726Y168690D01*
X497652Y168661D01*
X497581Y168629D01*
X497511Y168593D01*
X497442Y168554D01*
X497376Y168512D01*
X497312Y168466D01*
X498689Y167195D02*
X498736Y167225D01*
X498781Y167258D01*
X498824Y167294D01*
X498864Y167332D01*
X498902Y167373D01*
X498937Y167416D01*
X498969Y167462D01*
X498999Y167509D01*
X499025Y167559D01*
X499048Y167610D01*
X499067Y167662D01*
X499083Y167715D01*
X499096Y167770D01*
X499105Y167825D01*
X499110Y167880D01*
X499112Y167936D01*
X497524Y166561D02*
X497477Y166531D01*
X497432Y166498D01*
X497389Y166462D01*
X497349Y166424D01*
X497311Y166383D01*
X497276Y166340D01*
X497244Y166294D01*
X497214Y166247D01*
X497188Y166197D01*
X497165Y166146D01*
X497146Y166094D01*
X497130Y166041D01*
X497117Y165986D01*
X497108Y165931D01*
X497103Y165876D01*
X497101Y165820D01*
X497524Y166561D02*
X498688Y167196D01*
X494845Y164973D02*
X493998Y164973D01*
X494845Y164973D02*
X494900Y164975D01*
X494956Y164980D01*
X495010Y164989D01*
X495064Y165002D01*
X495117Y165018D01*
X495169Y165037D01*
X495220Y165060D01*
X495269Y165086D01*
X495316Y165116D01*
X495361Y165148D01*
X495403Y165183D01*
X495444Y165221D01*
X495482Y165262D01*
X495517Y165304D01*
X495549Y165349D01*
X495579Y165397D01*
X495605Y165445D01*
X495628Y165496D01*
X495647Y165548D01*
X495663Y165601D01*
X495676Y165655D01*
X495685Y165709D01*
X495690Y165765D01*
X495692Y165820D01*
X495691Y165820D02*
X495691Y167936D01*
X495692Y167936D02*
X495690Y167994D01*
X495684Y168051D01*
X495674Y168108D01*
X495661Y168165D01*
X495643Y168220D01*
X495622Y168273D01*
X495597Y168326D01*
X495569Y168376D01*
X495537Y168424D01*
X495502Y168471D01*
X495464Y168514D01*
X495423Y168555D01*
X495380Y168593D01*
X495333Y168628D01*
X495285Y168660D01*
X495235Y168688D01*
X495182Y168713D01*
X495129Y168734D01*
X495074Y168752D01*
X495017Y168765D01*
X494960Y168775D01*
X494903Y168781D01*
X494845Y168783D01*
X493998Y168783D01*
X492464Y168783D02*
X492464Y164973D01*
X492464Y166455D02*
X490347Y168783D01*
X491617Y167301D02*
X490347Y164973D01*
X478940Y164973D02*
X478940Y168783D01*
X477882Y168783D01*
X477818Y168781D01*
X477754Y168775D01*
X477691Y168766D01*
X477629Y168752D01*
X477567Y168735D01*
X477507Y168714D01*
X477448Y168690D01*
X477390Y168662D01*
X477335Y168630D01*
X477281Y168596D01*
X477230Y168558D01*
X477180Y168517D01*
X477134Y168473D01*
X477090Y168427D01*
X477049Y168377D01*
X477011Y168326D01*
X476977Y168272D01*
X476945Y168217D01*
X476917Y168159D01*
X476893Y168100D01*
X476872Y168040D01*
X476855Y167978D01*
X476841Y167916D01*
X476832Y167853D01*
X476826Y167789D01*
X476824Y167725D01*
X476826Y167661D01*
X476832Y167597D01*
X476841Y167534D01*
X476855Y167472D01*
X476872Y167410D01*
X476893Y167350D01*
X476917Y167291D01*
X476945Y167233D01*
X476977Y167178D01*
X477011Y167124D01*
X477049Y167073D01*
X477090Y167023D01*
X477134Y166977D01*
X477180Y166933D01*
X477230Y166892D01*
X477281Y166854D01*
X477335Y166820D01*
X477390Y166788D01*
X477448Y166760D01*
X477507Y166736D01*
X477567Y166715D01*
X477629Y166698D01*
X477691Y166684D01*
X477754Y166675D01*
X477818Y166669D01*
X477882Y166667D01*
X477882Y166666D02*
X478940Y166666D01*
X477670Y166666D02*
X476823Y164973D01*
X475175Y164973D02*
X473482Y164973D01*
X475175Y164973D02*
X475175Y168783D01*
X473482Y168783D01*
X473905Y167090D02*
X475175Y167090D01*
X470985Y164973D02*
X470930Y164975D01*
X470874Y164980D01*
X470820Y164989D01*
X470766Y165002D01*
X470713Y165018D01*
X470661Y165037D01*
X470610Y165060D01*
X470562Y165086D01*
X470514Y165116D01*
X470469Y165148D01*
X470427Y165183D01*
X470386Y165221D01*
X470348Y165262D01*
X470313Y165304D01*
X470281Y165349D01*
X470251Y165397D01*
X470225Y165445D01*
X470202Y165496D01*
X470183Y165548D01*
X470167Y165601D01*
X470154Y165655D01*
X470145Y165709D01*
X470140Y165765D01*
X470138Y165820D01*
X470985Y164973D02*
X471068Y164975D01*
X471151Y164981D01*
X471233Y164990D01*
X471315Y165004D01*
X471397Y165021D01*
X471477Y165042D01*
X471556Y165067D01*
X471635Y165095D01*
X471711Y165127D01*
X471786Y165163D01*
X471860Y165201D01*
X471931Y165244D01*
X472001Y165289D01*
X472068Y165338D01*
X472133Y165390D01*
X472195Y165445D01*
X472255Y165502D01*
X472150Y167936D02*
X472148Y167991D01*
X472143Y168047D01*
X472134Y168101D01*
X472121Y168155D01*
X472105Y168208D01*
X472086Y168260D01*
X472063Y168311D01*
X472037Y168360D01*
X472007Y168407D01*
X471975Y168452D01*
X471940Y168494D01*
X471902Y168535D01*
X471861Y168573D01*
X471819Y168608D01*
X471774Y168640D01*
X471727Y168670D01*
X471678Y168696D01*
X471627Y168719D01*
X471575Y168738D01*
X471522Y168754D01*
X471468Y168767D01*
X471414Y168776D01*
X471358Y168781D01*
X471303Y168783D01*
X471303Y168784D02*
X471224Y168782D01*
X471146Y168776D01*
X471068Y168767D01*
X470991Y168753D01*
X470914Y168736D01*
X470838Y168714D01*
X470764Y168690D01*
X470690Y168661D01*
X470619Y168629D01*
X470549Y168593D01*
X470480Y168554D01*
X470414Y168512D01*
X470350Y168466D01*
X471727Y167195D02*
X471774Y167225D01*
X471819Y167258D01*
X471862Y167294D01*
X471902Y167332D01*
X471940Y167373D01*
X471975Y167416D01*
X472007Y167462D01*
X472037Y167509D01*
X472063Y167559D01*
X472086Y167610D01*
X472105Y167662D01*
X472121Y167715D01*
X472134Y167770D01*
X472143Y167825D01*
X472148Y167880D01*
X472150Y167936D01*
X470562Y166561D02*
X470515Y166531D01*
X470470Y166498D01*
X470427Y166462D01*
X470387Y166424D01*
X470349Y166383D01*
X470314Y166340D01*
X470282Y166294D01*
X470252Y166247D01*
X470226Y166197D01*
X470203Y166146D01*
X470184Y166094D01*
X470168Y166041D01*
X470155Y165986D01*
X470146Y165931D01*
X470141Y165876D01*
X470139Y165820D01*
X470562Y166561D02*
X471726Y167196D01*
X468591Y164973D02*
X466898Y164973D01*
X468591Y164973D02*
X468591Y168783D01*
X466898Y168783D01*
X467321Y167090D02*
X468591Y167090D01*
X464735Y168783D02*
X464735Y164973D01*
X465794Y168783D02*
X463677Y168783D01*
D13*
X343464Y212753D02*
X342237Y212753D01*
X342237Y208661D01*
X344692Y208661D01*
X344770Y208663D01*
X344848Y208668D01*
X344925Y208678D01*
X345002Y208691D01*
X345078Y208707D01*
X345153Y208727D01*
X345227Y208751D01*
X345300Y208778D01*
X345372Y208809D01*
X345442Y208843D01*
X345511Y208880D01*
X345577Y208921D01*
X345642Y208965D01*
X345704Y209011D01*
X345764Y209061D01*
X345822Y209113D01*
X345877Y209168D01*
X345929Y209226D01*
X345979Y209286D01*
X346025Y209348D01*
X346069Y209413D01*
X346110Y209480D01*
X346147Y209548D01*
X346181Y209618D01*
X346212Y209690D01*
X346239Y209763D01*
X346263Y209837D01*
X346283Y209912D01*
X346299Y209988D01*
X346312Y210065D01*
X346322Y210142D01*
X346327Y210220D01*
X346329Y210298D01*
X346329Y214390D01*
X346327Y214468D01*
X346322Y214546D01*
X346312Y214623D01*
X346299Y214700D01*
X346283Y214776D01*
X346263Y214851D01*
X346239Y214925D01*
X346212Y214998D01*
X346181Y215070D01*
X346147Y215140D01*
X346110Y215209D01*
X346069Y215275D01*
X346025Y215340D01*
X345979Y215402D01*
X345929Y215462D01*
X345877Y215520D01*
X345822Y215575D01*
X345764Y215627D01*
X345704Y215677D01*
X345642Y215723D01*
X345577Y215767D01*
X345511Y215808D01*
X345442Y215845D01*
X345372Y215879D01*
X345300Y215910D01*
X345227Y215937D01*
X345153Y215961D01*
X345078Y215981D01*
X345002Y215997D01*
X344925Y216010D01*
X344848Y216020D01*
X344770Y216025D01*
X344692Y216027D01*
X342237Y216027D01*
X338526Y216027D02*
X338526Y208661D01*
X334434Y208661D02*
X338526Y216027D01*
X334434Y216027D02*
X334434Y208661D01*
X330723Y208661D02*
X330723Y216027D01*
X328677Y216027D01*
X328588Y216025D01*
X328499Y216019D01*
X328410Y216009D01*
X328322Y215996D01*
X328234Y215979D01*
X328147Y215957D01*
X328062Y215932D01*
X327977Y215904D01*
X327894Y215871D01*
X327812Y215835D01*
X327732Y215796D01*
X327654Y215753D01*
X327578Y215707D01*
X327503Y215657D01*
X327431Y215604D01*
X327362Y215548D01*
X327295Y215489D01*
X327230Y215428D01*
X327169Y215363D01*
X327110Y215296D01*
X327054Y215227D01*
X327001Y215155D01*
X326951Y215080D01*
X326905Y215004D01*
X326862Y214926D01*
X326823Y214846D01*
X326787Y214764D01*
X326754Y214681D01*
X326726Y214596D01*
X326701Y214511D01*
X326679Y214424D01*
X326662Y214336D01*
X326649Y214248D01*
X326639Y214159D01*
X326633Y214070D01*
X326631Y213981D01*
X326631Y210707D01*
X326633Y210618D01*
X326639Y210529D01*
X326649Y210440D01*
X326662Y210352D01*
X326679Y210264D01*
X326701Y210177D01*
X326726Y210092D01*
X326754Y210007D01*
X326787Y209924D01*
X326823Y209842D01*
X326862Y209762D01*
X326905Y209684D01*
X326951Y209608D01*
X327001Y209533D01*
X327054Y209461D01*
X327110Y209392D01*
X327169Y209325D01*
X327230Y209260D01*
X327295Y209199D01*
X327362Y209140D01*
X327431Y209084D01*
X327503Y209031D01*
X327578Y208981D01*
X327654Y208935D01*
X327732Y208892D01*
X327812Y208853D01*
X327894Y208817D01*
X327977Y208784D01*
X328062Y208756D01*
X328147Y208731D01*
X328234Y208709D01*
X328322Y208692D01*
X328410Y208679D01*
X328499Y208669D01*
X328588Y208663D01*
X328677Y208661D01*
X330723Y208661D01*
D11*
X540693Y258318D02*
X542555Y258318D01*
X540693Y258318D02*
X540623Y258320D01*
X540554Y258326D01*
X540485Y258336D01*
X540417Y258349D01*
X540349Y258367D01*
X540283Y258388D01*
X540218Y258413D01*
X540154Y258441D01*
X540092Y258473D01*
X540032Y258508D01*
X539974Y258547D01*
X539919Y258589D01*
X539865Y258634D01*
X539815Y258682D01*
X539767Y258732D01*
X539722Y258786D01*
X539680Y258841D01*
X539641Y258899D01*
X539606Y258959D01*
X539574Y259021D01*
X539546Y259085D01*
X539521Y259150D01*
X539500Y259216D01*
X539482Y259284D01*
X539469Y259352D01*
X539459Y259421D01*
X539453Y259490D01*
X539451Y259560D01*
X539451Y260181D01*
X539453Y260251D01*
X539459Y260320D01*
X539469Y260389D01*
X539482Y260457D01*
X539500Y260525D01*
X539521Y260591D01*
X539546Y260656D01*
X539574Y260720D01*
X539606Y260782D01*
X539641Y260842D01*
X539680Y260900D01*
X539722Y260955D01*
X539767Y261009D01*
X539815Y261059D01*
X539865Y261107D01*
X539919Y261152D01*
X539974Y261194D01*
X540032Y261233D01*
X540092Y261268D01*
X540154Y261300D01*
X540218Y261328D01*
X540283Y261353D01*
X540349Y261374D01*
X540417Y261392D01*
X540485Y261405D01*
X540554Y261415D01*
X540623Y261421D01*
X540693Y261423D01*
X540693Y261422D02*
X542555Y261422D01*
X542555Y263906D01*
X539451Y263906D01*
X537379Y263906D02*
X535517Y258318D01*
X533654Y263906D01*
X500570Y261422D02*
X499638Y261422D01*
X499638Y258318D01*
X501501Y258318D01*
X501571Y258320D01*
X501640Y258326D01*
X501709Y258336D01*
X501777Y258349D01*
X501845Y258367D01*
X501911Y258388D01*
X501976Y258413D01*
X502040Y258441D01*
X502102Y258473D01*
X502162Y258508D01*
X502220Y258547D01*
X502275Y258589D01*
X502329Y258634D01*
X502379Y258682D01*
X502427Y258732D01*
X502472Y258786D01*
X502514Y258841D01*
X502553Y258899D01*
X502588Y258959D01*
X502620Y259021D01*
X502648Y259085D01*
X502673Y259150D01*
X502694Y259216D01*
X502712Y259284D01*
X502725Y259352D01*
X502735Y259421D01*
X502741Y259490D01*
X502743Y259560D01*
X502743Y262664D01*
X502741Y262734D01*
X502735Y262803D01*
X502725Y262872D01*
X502712Y262940D01*
X502694Y263008D01*
X502673Y263074D01*
X502648Y263139D01*
X502620Y263203D01*
X502588Y263265D01*
X502553Y263325D01*
X502514Y263383D01*
X502472Y263438D01*
X502427Y263492D01*
X502379Y263542D01*
X502329Y263590D01*
X502275Y263635D01*
X502220Y263677D01*
X502162Y263716D01*
X502102Y263751D01*
X502040Y263783D01*
X501976Y263811D01*
X501911Y263836D01*
X501845Y263857D01*
X501777Y263875D01*
X501709Y263888D01*
X501640Y263898D01*
X501571Y263904D01*
X501501Y263906D01*
X499638Y263906D01*
X496891Y263906D02*
X496891Y258318D01*
X493786Y258318D02*
X496891Y263906D01*
X493786Y263906D02*
X493786Y258318D01*
X491038Y258318D02*
X491038Y263906D01*
X489486Y263906D01*
X489410Y263904D01*
X489334Y263899D01*
X489258Y263889D01*
X489183Y263876D01*
X489109Y263859D01*
X489035Y263839D01*
X488963Y263815D01*
X488892Y263788D01*
X488822Y263757D01*
X488754Y263723D01*
X488688Y263685D01*
X488624Y263644D01*
X488561Y263601D01*
X488501Y263554D01*
X488444Y263504D01*
X488389Y263451D01*
X488336Y263396D01*
X488286Y263339D01*
X488239Y263279D01*
X488196Y263216D01*
X488155Y263152D01*
X488117Y263086D01*
X488083Y263018D01*
X488052Y262948D01*
X488025Y262877D01*
X488001Y262805D01*
X487981Y262731D01*
X487964Y262657D01*
X487951Y262582D01*
X487941Y262506D01*
X487936Y262430D01*
X487934Y262354D01*
X487934Y259870D01*
X487936Y259794D01*
X487941Y259718D01*
X487951Y259642D01*
X487964Y259567D01*
X487981Y259493D01*
X488001Y259419D01*
X488025Y259347D01*
X488052Y259276D01*
X488083Y259206D01*
X488117Y259138D01*
X488155Y259072D01*
X488196Y259008D01*
X488239Y258945D01*
X488286Y258885D01*
X488336Y258828D01*
X488389Y258773D01*
X488444Y258720D01*
X488501Y258670D01*
X488561Y258623D01*
X488624Y258580D01*
X488688Y258539D01*
X488754Y258501D01*
X488822Y258467D01*
X488892Y258436D01*
X488963Y258409D01*
X489035Y258385D01*
X489109Y258365D01*
X489183Y258348D01*
X489258Y258335D01*
X489334Y258325D01*
X489410Y258320D01*
X489486Y258318D01*
X491038Y258318D01*
X360426Y129032D02*
X360426Y123444D01*
X360426Y129032D02*
X358874Y129032D01*
X358798Y129030D01*
X358722Y129025D01*
X358646Y129015D01*
X358571Y129002D01*
X358497Y128985D01*
X358423Y128965D01*
X358351Y128941D01*
X358280Y128914D01*
X358210Y128883D01*
X358142Y128849D01*
X358076Y128811D01*
X358012Y128770D01*
X357949Y128727D01*
X357889Y128680D01*
X357832Y128630D01*
X357777Y128577D01*
X357724Y128522D01*
X357674Y128465D01*
X357627Y128405D01*
X357584Y128342D01*
X357543Y128278D01*
X357505Y128212D01*
X357471Y128144D01*
X357440Y128074D01*
X357413Y128003D01*
X357389Y127931D01*
X357369Y127857D01*
X357352Y127783D01*
X357339Y127708D01*
X357329Y127632D01*
X357324Y127556D01*
X357322Y127480D01*
X357322Y124996D01*
X357324Y124920D01*
X357329Y124844D01*
X357339Y124768D01*
X357352Y124693D01*
X357369Y124619D01*
X357389Y124545D01*
X357413Y124473D01*
X357440Y124402D01*
X357471Y124332D01*
X357505Y124264D01*
X357543Y124198D01*
X357584Y124134D01*
X357627Y124071D01*
X357674Y124011D01*
X357724Y123954D01*
X357777Y123899D01*
X357832Y123846D01*
X357889Y123796D01*
X357949Y123749D01*
X358012Y123706D01*
X358076Y123665D01*
X358142Y123627D01*
X358210Y123593D01*
X358280Y123562D01*
X358351Y123535D01*
X358423Y123511D01*
X358497Y123491D01*
X358571Y123474D01*
X358646Y123461D01*
X358722Y123451D01*
X358798Y123446D01*
X358874Y123444D01*
X360426Y123444D01*
X353531Y123444D02*
X352290Y123444D01*
X353531Y123444D02*
X353601Y123446D01*
X353670Y123452D01*
X353739Y123462D01*
X353807Y123475D01*
X353875Y123493D01*
X353941Y123514D01*
X354006Y123539D01*
X354070Y123567D01*
X354132Y123599D01*
X354192Y123634D01*
X354250Y123673D01*
X354305Y123715D01*
X354359Y123760D01*
X354409Y123808D01*
X354457Y123858D01*
X354502Y123912D01*
X354544Y123967D01*
X354583Y124025D01*
X354618Y124085D01*
X354650Y124147D01*
X354678Y124211D01*
X354703Y124276D01*
X354724Y124342D01*
X354742Y124410D01*
X354755Y124478D01*
X354765Y124547D01*
X354771Y124616D01*
X354773Y124686D01*
X354773Y127790D01*
X354771Y127860D01*
X354765Y127929D01*
X354755Y127998D01*
X354742Y128066D01*
X354724Y128134D01*
X354703Y128200D01*
X354678Y128265D01*
X354650Y128329D01*
X354618Y128391D01*
X354583Y128451D01*
X354544Y128509D01*
X354502Y128564D01*
X354457Y128618D01*
X354409Y128668D01*
X354359Y128716D01*
X354305Y128761D01*
X354250Y128803D01*
X354192Y128842D01*
X354132Y128877D01*
X354070Y128909D01*
X354006Y128937D01*
X353941Y128962D01*
X353875Y128983D01*
X353807Y129001D01*
X353739Y129014D01*
X353670Y129024D01*
X353601Y129030D01*
X353531Y129032D01*
X352290Y129032D01*
X337255Y123444D02*
X336013Y123444D01*
X337255Y123444D02*
X337325Y123446D01*
X337394Y123452D01*
X337463Y123462D01*
X337531Y123475D01*
X337599Y123493D01*
X337665Y123514D01*
X337730Y123539D01*
X337794Y123567D01*
X337856Y123599D01*
X337916Y123634D01*
X337974Y123673D01*
X338029Y123715D01*
X338083Y123760D01*
X338133Y123808D01*
X338181Y123858D01*
X338226Y123912D01*
X338268Y123967D01*
X338307Y124025D01*
X338342Y124085D01*
X338374Y124147D01*
X338402Y124211D01*
X338427Y124276D01*
X338448Y124342D01*
X338466Y124410D01*
X338479Y124478D01*
X338489Y124547D01*
X338495Y124616D01*
X338497Y124686D01*
X338497Y127790D01*
X338495Y127860D01*
X338489Y127929D01*
X338479Y127998D01*
X338466Y128066D01*
X338448Y128134D01*
X338427Y128200D01*
X338402Y128265D01*
X338374Y128329D01*
X338342Y128391D01*
X338307Y128451D01*
X338268Y128509D01*
X338226Y128564D01*
X338181Y128618D01*
X338133Y128668D01*
X338083Y128716D01*
X338029Y128761D01*
X337974Y128803D01*
X337916Y128842D01*
X337856Y128877D01*
X337794Y128909D01*
X337730Y128937D01*
X337665Y128962D01*
X337599Y128983D01*
X337531Y129001D01*
X337463Y129014D01*
X337394Y129024D01*
X337325Y129030D01*
X337255Y129032D01*
X336013Y129032D01*
X333909Y127480D02*
X333909Y124996D01*
X333909Y127480D02*
X333907Y127557D01*
X333901Y127635D01*
X333892Y127711D01*
X333878Y127788D01*
X333861Y127863D01*
X333840Y127937D01*
X333815Y128011D01*
X333787Y128083D01*
X333755Y128153D01*
X333720Y128222D01*
X333681Y128289D01*
X333639Y128354D01*
X333594Y128417D01*
X333546Y128478D01*
X333495Y128536D01*
X333441Y128591D01*
X333384Y128644D01*
X333325Y128693D01*
X333263Y128740D01*
X333199Y128784D01*
X333133Y128824D01*
X333065Y128861D01*
X332995Y128895D01*
X332924Y128925D01*
X332851Y128951D01*
X332777Y128974D01*
X332702Y128993D01*
X332627Y129008D01*
X332550Y129020D01*
X332473Y129028D01*
X332396Y129032D01*
X332318Y129032D01*
X332241Y129028D01*
X332164Y129020D01*
X332087Y129008D01*
X332012Y128993D01*
X331937Y128974D01*
X331863Y128951D01*
X331790Y128925D01*
X331719Y128895D01*
X331649Y128861D01*
X331581Y128824D01*
X331515Y128784D01*
X331451Y128740D01*
X331389Y128693D01*
X331330Y128644D01*
X331273Y128591D01*
X331219Y128536D01*
X331168Y128478D01*
X331120Y128417D01*
X331075Y128354D01*
X331033Y128289D01*
X330994Y128222D01*
X330959Y128153D01*
X330927Y128083D01*
X330899Y128011D01*
X330874Y127937D01*
X330853Y127863D01*
X330836Y127788D01*
X330822Y127711D01*
X330813Y127635D01*
X330807Y127557D01*
X330805Y127480D01*
X330804Y127480D02*
X330804Y124996D01*
X330805Y124996D02*
X330807Y124919D01*
X330813Y124841D01*
X330822Y124765D01*
X330836Y124688D01*
X330853Y124613D01*
X330874Y124539D01*
X330899Y124465D01*
X330927Y124393D01*
X330959Y124323D01*
X330994Y124254D01*
X331033Y124187D01*
X331075Y124122D01*
X331120Y124059D01*
X331168Y123998D01*
X331219Y123940D01*
X331273Y123885D01*
X331330Y123832D01*
X331389Y123783D01*
X331451Y123736D01*
X331515Y123692D01*
X331581Y123652D01*
X331649Y123615D01*
X331719Y123581D01*
X331790Y123551D01*
X331863Y123525D01*
X331937Y123502D01*
X332012Y123483D01*
X332087Y123468D01*
X332164Y123456D01*
X332241Y123448D01*
X332318Y123444D01*
X332396Y123444D01*
X332473Y123448D01*
X332550Y123456D01*
X332627Y123468D01*
X332702Y123483D01*
X332777Y123502D01*
X332851Y123525D01*
X332924Y123551D01*
X332995Y123581D01*
X333065Y123615D01*
X333133Y123652D01*
X333199Y123692D01*
X333263Y123736D01*
X333325Y123783D01*
X333384Y123832D01*
X333441Y123885D01*
X333495Y123940D01*
X333546Y123998D01*
X333594Y124059D01*
X333639Y124122D01*
X333681Y124187D01*
X333720Y124254D01*
X333755Y124323D01*
X333787Y124393D01*
X333815Y124465D01*
X333840Y124539D01*
X333861Y124613D01*
X333878Y124688D01*
X333892Y124765D01*
X333901Y124841D01*
X333907Y124919D01*
X333909Y124996D01*
X328184Y123444D02*
X328184Y129032D01*
X326322Y125928D01*
X324459Y129032D01*
X324459Y123444D01*
X312795Y123444D02*
X312795Y129032D01*
X311243Y129032D01*
X311166Y129030D01*
X311088Y129024D01*
X311012Y129015D01*
X310935Y129001D01*
X310860Y128984D01*
X310786Y128963D01*
X310712Y128938D01*
X310640Y128910D01*
X310570Y128878D01*
X310501Y128843D01*
X310434Y128804D01*
X310369Y128762D01*
X310306Y128717D01*
X310245Y128669D01*
X310187Y128618D01*
X310132Y128564D01*
X310079Y128507D01*
X310030Y128448D01*
X309983Y128386D01*
X309939Y128322D01*
X309899Y128256D01*
X309862Y128188D01*
X309828Y128118D01*
X309798Y128047D01*
X309772Y127974D01*
X309749Y127900D01*
X309730Y127825D01*
X309715Y127750D01*
X309703Y127673D01*
X309695Y127596D01*
X309691Y127519D01*
X309691Y127441D01*
X309695Y127364D01*
X309703Y127287D01*
X309715Y127210D01*
X309730Y127135D01*
X309749Y127060D01*
X309772Y126986D01*
X309798Y126913D01*
X309828Y126842D01*
X309862Y126772D01*
X309899Y126704D01*
X309939Y126638D01*
X309983Y126574D01*
X310030Y126512D01*
X310079Y126453D01*
X310132Y126396D01*
X310187Y126342D01*
X310245Y126291D01*
X310306Y126243D01*
X310369Y126198D01*
X310434Y126156D01*
X310501Y126117D01*
X310570Y126082D01*
X310640Y126050D01*
X310712Y126022D01*
X310786Y125997D01*
X310860Y125976D01*
X310935Y125959D01*
X311012Y125945D01*
X311088Y125936D01*
X311166Y125930D01*
X311243Y125928D01*
X312795Y125928D01*
X307774Y129032D02*
X306532Y123444D01*
X305291Y127169D01*
X304049Y123444D01*
X302807Y129032D01*
X300387Y129032D02*
X300387Y123444D01*
X298524Y125928D02*
X300387Y129032D01*
X298524Y125928D02*
X296661Y129032D01*
X296661Y123444D01*
D13*
X238464Y215011D02*
X240919Y222377D01*
X236008Y222377D02*
X238464Y215011D01*
X231581Y215011D02*
X229944Y215011D01*
X231581Y215011D02*
X231659Y215013D01*
X231737Y215018D01*
X231814Y215028D01*
X231891Y215041D01*
X231967Y215057D01*
X232042Y215077D01*
X232116Y215101D01*
X232189Y215128D01*
X232261Y215159D01*
X232331Y215193D01*
X232400Y215230D01*
X232466Y215271D01*
X232531Y215315D01*
X232593Y215361D01*
X232653Y215411D01*
X232711Y215463D01*
X232766Y215518D01*
X232818Y215576D01*
X232868Y215636D01*
X232914Y215698D01*
X232958Y215763D01*
X232999Y215830D01*
X233036Y215898D01*
X233070Y215968D01*
X233101Y216040D01*
X233128Y216113D01*
X233152Y216187D01*
X233172Y216262D01*
X233188Y216338D01*
X233201Y216415D01*
X233211Y216492D01*
X233216Y216570D01*
X233218Y216648D01*
X233218Y220740D01*
X233216Y220818D01*
X233211Y220896D01*
X233201Y220973D01*
X233188Y221050D01*
X233172Y221126D01*
X233152Y221201D01*
X233128Y221275D01*
X233101Y221348D01*
X233070Y221420D01*
X233036Y221490D01*
X232999Y221559D01*
X232958Y221625D01*
X232914Y221690D01*
X232868Y221752D01*
X232818Y221812D01*
X232766Y221870D01*
X232711Y221925D01*
X232653Y221977D01*
X232593Y222027D01*
X232531Y222073D01*
X232466Y222117D01*
X232400Y222158D01*
X232331Y222195D01*
X232261Y222229D01*
X232189Y222260D01*
X232116Y222287D01*
X232042Y222311D01*
X231967Y222331D01*
X231891Y222347D01*
X231814Y222360D01*
X231737Y222370D01*
X231659Y222375D01*
X231581Y222377D01*
X229944Y222377D01*
X225485Y215011D02*
X223848Y215011D01*
X225485Y215011D02*
X225563Y215013D01*
X225641Y215018D01*
X225718Y215028D01*
X225795Y215041D01*
X225871Y215057D01*
X225946Y215077D01*
X226020Y215101D01*
X226093Y215128D01*
X226165Y215159D01*
X226235Y215193D01*
X226304Y215230D01*
X226370Y215271D01*
X226435Y215315D01*
X226497Y215361D01*
X226557Y215411D01*
X226615Y215463D01*
X226670Y215518D01*
X226722Y215576D01*
X226772Y215636D01*
X226818Y215698D01*
X226862Y215763D01*
X226903Y215830D01*
X226940Y215898D01*
X226974Y215968D01*
X227005Y216040D01*
X227032Y216113D01*
X227056Y216187D01*
X227076Y216262D01*
X227092Y216338D01*
X227105Y216415D01*
X227115Y216492D01*
X227120Y216570D01*
X227122Y216648D01*
X227122Y220740D01*
X227120Y220818D01*
X227115Y220896D01*
X227105Y220973D01*
X227092Y221050D01*
X227076Y221126D01*
X227056Y221201D01*
X227032Y221275D01*
X227005Y221348D01*
X226974Y221420D01*
X226940Y221490D01*
X226903Y221559D01*
X226862Y221625D01*
X226818Y221690D01*
X226772Y221752D01*
X226722Y221812D01*
X226670Y221870D01*
X226615Y221925D01*
X226557Y221977D01*
X226497Y222027D01*
X226435Y222073D01*
X226370Y222117D01*
X226304Y222158D01*
X226235Y222195D01*
X226165Y222229D01*
X226093Y222260D01*
X226020Y222287D01*
X225946Y222311D01*
X225871Y222331D01*
X225795Y222347D01*
X225718Y222360D01*
X225641Y222370D01*
X225563Y222375D01*
X225485Y222377D01*
X223848Y222377D01*
X218051Y223195D02*
X221325Y214193D01*
X212900Y222378D02*
X212815Y222376D01*
X212730Y222370D01*
X212646Y222360D01*
X212562Y222347D01*
X212478Y222329D01*
X212396Y222308D01*
X212315Y222283D01*
X212235Y222254D01*
X212156Y222221D01*
X212079Y222185D01*
X212004Y222145D01*
X211930Y222102D01*
X211859Y222056D01*
X211790Y222006D01*
X211723Y221953D01*
X211659Y221897D01*
X211598Y221838D01*
X211539Y221777D01*
X211483Y221713D01*
X211430Y221646D01*
X211380Y221577D01*
X211334Y221506D01*
X211291Y221432D01*
X211251Y221357D01*
X211215Y221280D01*
X211182Y221201D01*
X211153Y221121D01*
X211128Y221040D01*
X211107Y220958D01*
X211089Y220874D01*
X211076Y220790D01*
X211066Y220706D01*
X211060Y220621D01*
X211058Y220536D01*
X212900Y222377D02*
X212996Y222375D01*
X213092Y222369D01*
X213187Y222359D01*
X213282Y222346D01*
X213377Y222328D01*
X213470Y222307D01*
X213563Y222282D01*
X213654Y222253D01*
X213745Y222221D01*
X213834Y222185D01*
X213921Y222145D01*
X214007Y222102D01*
X214091Y222056D01*
X214173Y222006D01*
X214253Y221952D01*
X214330Y221896D01*
X214405Y221836D01*
X214478Y221774D01*
X214548Y221708D01*
X214616Y221640D01*
X214681Y221569D01*
X214742Y221496D01*
X214801Y221420D01*
X214857Y221341D01*
X214909Y221261D01*
X214958Y221178D01*
X215004Y221094D01*
X215046Y221008D01*
X215084Y220920D01*
X215119Y220831D01*
X215151Y220740D01*
X211672Y219104D02*
X211612Y219163D01*
X211555Y219225D01*
X211500Y219289D01*
X211449Y219356D01*
X211400Y219425D01*
X211354Y219495D01*
X211311Y219568D01*
X211271Y219642D01*
X211235Y219718D01*
X211202Y219796D01*
X211172Y219875D01*
X211145Y219955D01*
X211122Y220036D01*
X211103Y220118D01*
X211087Y220200D01*
X211074Y220284D01*
X211065Y220368D01*
X211060Y220452D01*
X211058Y220536D01*
X211672Y219103D02*
X215151Y215011D01*
X211058Y215011D01*
X291804Y240411D02*
X294259Y247777D01*
X289348Y247777D02*
X291804Y240411D01*
X284921Y240411D02*
X283284Y240411D01*
X284921Y240411D02*
X284999Y240413D01*
X285077Y240418D01*
X285154Y240428D01*
X285231Y240441D01*
X285307Y240457D01*
X285382Y240477D01*
X285456Y240501D01*
X285529Y240528D01*
X285601Y240559D01*
X285671Y240593D01*
X285740Y240630D01*
X285806Y240671D01*
X285871Y240715D01*
X285933Y240761D01*
X285993Y240811D01*
X286051Y240863D01*
X286106Y240918D01*
X286158Y240976D01*
X286208Y241036D01*
X286254Y241098D01*
X286298Y241163D01*
X286339Y241230D01*
X286376Y241298D01*
X286410Y241368D01*
X286441Y241440D01*
X286468Y241513D01*
X286492Y241587D01*
X286512Y241662D01*
X286528Y241738D01*
X286541Y241815D01*
X286551Y241892D01*
X286556Y241970D01*
X286558Y242048D01*
X286558Y246140D01*
X286556Y246218D01*
X286551Y246296D01*
X286541Y246373D01*
X286528Y246450D01*
X286512Y246526D01*
X286492Y246601D01*
X286468Y246675D01*
X286441Y246748D01*
X286410Y246820D01*
X286376Y246890D01*
X286339Y246959D01*
X286298Y247025D01*
X286254Y247090D01*
X286208Y247152D01*
X286158Y247212D01*
X286106Y247270D01*
X286051Y247325D01*
X285993Y247377D01*
X285933Y247427D01*
X285871Y247473D01*
X285806Y247517D01*
X285740Y247558D01*
X285671Y247595D01*
X285601Y247629D01*
X285529Y247660D01*
X285456Y247687D01*
X285382Y247711D01*
X285307Y247731D01*
X285231Y247747D01*
X285154Y247760D01*
X285077Y247770D01*
X284999Y247775D01*
X284921Y247777D01*
X283284Y247777D01*
X278825Y240411D02*
X277188Y240411D01*
X278825Y240411D02*
X278903Y240413D01*
X278981Y240418D01*
X279058Y240428D01*
X279135Y240441D01*
X279211Y240457D01*
X279286Y240477D01*
X279360Y240501D01*
X279433Y240528D01*
X279505Y240559D01*
X279575Y240593D01*
X279644Y240630D01*
X279710Y240671D01*
X279775Y240715D01*
X279837Y240761D01*
X279897Y240811D01*
X279955Y240863D01*
X280010Y240918D01*
X280062Y240976D01*
X280112Y241036D01*
X280158Y241098D01*
X280202Y241163D01*
X280243Y241230D01*
X280280Y241298D01*
X280314Y241368D01*
X280345Y241440D01*
X280372Y241513D01*
X280396Y241587D01*
X280416Y241662D01*
X280432Y241738D01*
X280445Y241815D01*
X280455Y241892D01*
X280460Y241970D01*
X280462Y242048D01*
X280462Y246140D01*
X280460Y246218D01*
X280455Y246296D01*
X280445Y246373D01*
X280432Y246450D01*
X280416Y246526D01*
X280396Y246601D01*
X280372Y246675D01*
X280345Y246748D01*
X280314Y246820D01*
X280280Y246890D01*
X280243Y246959D01*
X280202Y247025D01*
X280158Y247090D01*
X280112Y247152D01*
X280062Y247212D01*
X280010Y247270D01*
X279955Y247325D01*
X279897Y247377D01*
X279837Y247427D01*
X279775Y247473D01*
X279710Y247517D01*
X279644Y247558D01*
X279575Y247595D01*
X279505Y247629D01*
X279433Y247660D01*
X279360Y247687D01*
X279286Y247711D01*
X279211Y247731D01*
X279135Y247747D01*
X279058Y247760D01*
X278981Y247770D01*
X278903Y247775D01*
X278825Y247777D01*
X277188Y247777D01*
X271391Y248595D02*
X274665Y239593D01*
X266240Y247778D02*
X266155Y247776D01*
X266070Y247770D01*
X265986Y247760D01*
X265902Y247747D01*
X265818Y247729D01*
X265736Y247708D01*
X265655Y247683D01*
X265575Y247654D01*
X265496Y247621D01*
X265419Y247585D01*
X265344Y247545D01*
X265270Y247502D01*
X265199Y247456D01*
X265130Y247406D01*
X265063Y247353D01*
X264999Y247297D01*
X264938Y247238D01*
X264879Y247177D01*
X264823Y247113D01*
X264770Y247046D01*
X264720Y246977D01*
X264674Y246906D01*
X264631Y246832D01*
X264591Y246757D01*
X264555Y246680D01*
X264522Y246601D01*
X264493Y246521D01*
X264468Y246440D01*
X264447Y246358D01*
X264429Y246274D01*
X264416Y246190D01*
X264406Y246106D01*
X264400Y246021D01*
X264398Y245936D01*
X266240Y247777D02*
X266336Y247775D01*
X266432Y247769D01*
X266527Y247759D01*
X266622Y247746D01*
X266717Y247728D01*
X266810Y247707D01*
X266903Y247682D01*
X266994Y247653D01*
X267085Y247621D01*
X267174Y247585D01*
X267261Y247545D01*
X267347Y247502D01*
X267431Y247456D01*
X267513Y247406D01*
X267593Y247352D01*
X267670Y247296D01*
X267745Y247236D01*
X267818Y247174D01*
X267888Y247108D01*
X267956Y247040D01*
X268021Y246969D01*
X268082Y246896D01*
X268141Y246820D01*
X268197Y246741D01*
X268249Y246661D01*
X268298Y246578D01*
X268344Y246494D01*
X268386Y246408D01*
X268424Y246320D01*
X268459Y246231D01*
X268491Y246140D01*
X265012Y244504D02*
X264952Y244563D01*
X264895Y244625D01*
X264840Y244689D01*
X264789Y244756D01*
X264740Y244825D01*
X264694Y244895D01*
X264651Y244968D01*
X264611Y245042D01*
X264575Y245118D01*
X264542Y245196D01*
X264512Y245275D01*
X264485Y245355D01*
X264462Y245436D01*
X264443Y245518D01*
X264427Y245600D01*
X264414Y245684D01*
X264405Y245768D01*
X264400Y245852D01*
X264398Y245936D01*
X265012Y244503D02*
X268491Y240411D01*
X264398Y240411D01*
D11*
X312674Y295487D02*
X318262Y293624D01*
X318262Y297349D02*
X312674Y295487D01*
X312674Y300646D02*
X312674Y301888D01*
X312674Y300646D02*
X312676Y300576D01*
X312682Y300507D01*
X312692Y300438D01*
X312705Y300370D01*
X312723Y300302D01*
X312744Y300236D01*
X312769Y300171D01*
X312797Y300107D01*
X312829Y300045D01*
X312864Y299985D01*
X312903Y299927D01*
X312945Y299872D01*
X312990Y299818D01*
X313038Y299768D01*
X313088Y299720D01*
X313142Y299675D01*
X313197Y299633D01*
X313255Y299594D01*
X313315Y299559D01*
X313377Y299527D01*
X313441Y299499D01*
X313506Y299474D01*
X313572Y299453D01*
X313640Y299435D01*
X313708Y299422D01*
X313777Y299412D01*
X313846Y299406D01*
X313916Y299404D01*
X313916Y299405D02*
X317020Y299405D01*
X317020Y299404D02*
X317090Y299406D01*
X317159Y299412D01*
X317228Y299422D01*
X317296Y299435D01*
X317364Y299453D01*
X317430Y299474D01*
X317495Y299499D01*
X317559Y299527D01*
X317621Y299559D01*
X317681Y299594D01*
X317739Y299633D01*
X317794Y299675D01*
X317848Y299720D01*
X317898Y299768D01*
X317946Y299818D01*
X317991Y299872D01*
X318033Y299927D01*
X318072Y299985D01*
X318107Y300045D01*
X318139Y300107D01*
X318167Y300171D01*
X318192Y300236D01*
X318213Y300302D01*
X318231Y300370D01*
X318244Y300438D01*
X318254Y300507D01*
X318260Y300576D01*
X318262Y300646D01*
X318262Y301888D01*
X312674Y305218D02*
X312674Y306460D01*
X312674Y305218D02*
X312676Y305148D01*
X312682Y305079D01*
X312692Y305010D01*
X312705Y304942D01*
X312723Y304874D01*
X312744Y304808D01*
X312769Y304743D01*
X312797Y304679D01*
X312829Y304617D01*
X312864Y304557D01*
X312903Y304499D01*
X312945Y304444D01*
X312990Y304390D01*
X313038Y304340D01*
X313088Y304292D01*
X313142Y304247D01*
X313197Y304205D01*
X313255Y304166D01*
X313315Y304131D01*
X313377Y304099D01*
X313441Y304071D01*
X313506Y304046D01*
X313572Y304025D01*
X313640Y304007D01*
X313708Y303994D01*
X313777Y303984D01*
X313846Y303978D01*
X313916Y303976D01*
X317020Y303976D01*
X317090Y303978D01*
X317159Y303984D01*
X317228Y303994D01*
X317296Y304007D01*
X317364Y304025D01*
X317430Y304046D01*
X317495Y304071D01*
X317559Y304099D01*
X317621Y304131D01*
X317681Y304166D01*
X317739Y304205D01*
X317794Y304247D01*
X317848Y304292D01*
X317898Y304340D01*
X317946Y304390D01*
X317991Y304444D01*
X318033Y304499D01*
X318072Y304557D01*
X318107Y304617D01*
X318139Y304679D01*
X318167Y304743D01*
X318192Y304808D01*
X318213Y304874D01*
X318231Y304942D01*
X318244Y305010D01*
X318254Y305079D01*
X318260Y305148D01*
X318262Y305218D01*
X318262Y306460D01*
X312053Y308327D02*
X312053Y310810D01*
X312674Y313148D02*
X312674Y315631D01*
X312674Y313148D02*
X318262Y313148D01*
X318262Y315631D01*
X315778Y315010D02*
X315778Y313148D01*
X312674Y317398D02*
X318262Y321123D01*
X318262Y317398D02*
X312674Y321123D01*
X312674Y324381D02*
X318262Y324381D01*
X318262Y322829D02*
X318262Y325934D01*
D12*
X631317Y95377D02*
X635127Y95377D01*
X635127Y96435D01*
X635125Y96499D01*
X635119Y96563D01*
X635110Y96626D01*
X635096Y96688D01*
X635079Y96750D01*
X635058Y96810D01*
X635034Y96869D01*
X635006Y96927D01*
X634974Y96982D01*
X634940Y97036D01*
X634902Y97087D01*
X634861Y97137D01*
X634817Y97183D01*
X634771Y97227D01*
X634721Y97268D01*
X634670Y97306D01*
X634616Y97340D01*
X634561Y97372D01*
X634503Y97400D01*
X634444Y97424D01*
X634384Y97445D01*
X634322Y97462D01*
X634260Y97476D01*
X634197Y97485D01*
X634133Y97491D01*
X634069Y97493D01*
X634005Y97491D01*
X633941Y97485D01*
X633878Y97476D01*
X633816Y97462D01*
X633754Y97445D01*
X633694Y97424D01*
X633635Y97400D01*
X633577Y97372D01*
X633522Y97340D01*
X633468Y97306D01*
X633417Y97268D01*
X633367Y97227D01*
X633321Y97183D01*
X633277Y97137D01*
X633236Y97087D01*
X633198Y97036D01*
X633164Y96982D01*
X633132Y96927D01*
X633104Y96869D01*
X633080Y96810D01*
X633059Y96750D01*
X633042Y96688D01*
X633028Y96626D01*
X633019Y96563D01*
X633013Y96499D01*
X633011Y96435D01*
X633010Y96435D02*
X633010Y95377D01*
X635127Y98717D02*
X631317Y99564D01*
X633857Y100410D01*
X631317Y101257D01*
X635127Y102104D01*
X635127Y103651D02*
X631317Y103651D01*
X633010Y104921D02*
X635127Y103651D01*
X633010Y104921D02*
X635127Y106191D01*
X631317Y106191D01*
X630894Y107732D02*
X630894Y109426D01*
X633434Y112416D02*
X633434Y113051D01*
X631317Y113051D01*
X631317Y111781D01*
X631319Y111726D01*
X631324Y111670D01*
X631333Y111616D01*
X631346Y111562D01*
X631362Y111509D01*
X631381Y111457D01*
X631404Y111406D01*
X631430Y111358D01*
X631460Y111310D01*
X631492Y111265D01*
X631527Y111223D01*
X631565Y111182D01*
X631606Y111144D01*
X631648Y111109D01*
X631693Y111077D01*
X631741Y111047D01*
X631789Y111021D01*
X631840Y110998D01*
X631892Y110979D01*
X631945Y110963D01*
X631999Y110950D01*
X632053Y110941D01*
X632109Y110936D01*
X632164Y110934D01*
X634280Y110934D01*
X634338Y110936D01*
X634395Y110942D01*
X634452Y110952D01*
X634509Y110965D01*
X634564Y110983D01*
X634617Y111004D01*
X634670Y111029D01*
X634720Y111057D01*
X634768Y111089D01*
X634815Y111124D01*
X634858Y111162D01*
X634899Y111203D01*
X634937Y111246D01*
X634972Y111293D01*
X635004Y111341D01*
X635032Y111391D01*
X635057Y111444D01*
X635078Y111497D01*
X635096Y111552D01*
X635109Y111609D01*
X635119Y111666D01*
X635125Y111723D01*
X635127Y111781D01*
X635127Y113051D01*
X635127Y115772D02*
X631317Y114502D01*
X631317Y117042D02*
X635127Y115772D01*
X632270Y116725D02*
X632270Y114820D01*
X631317Y119186D02*
X635127Y119186D01*
X635127Y118128D02*
X635127Y120244D01*
X631317Y121670D02*
X631317Y123363D01*
X631317Y121670D02*
X635127Y121670D01*
X635127Y123363D01*
X633434Y122940D02*
X633434Y121670D01*
X630894Y124557D02*
X630894Y126250D01*
X631317Y127766D02*
X631317Y129459D01*
X631317Y127766D02*
X635127Y127766D01*
X635127Y129459D01*
X633434Y129036D02*
X633434Y127766D01*
X631317Y130596D02*
X635127Y133136D01*
X635127Y130596D02*
X631317Y133136D01*
X631317Y135279D02*
X635127Y135279D01*
X635127Y134221D02*
X635127Y136338D01*
D11*
X190246Y145517D02*
X184658Y145517D01*
X190246Y145517D02*
X190246Y148001D01*
X187762Y148001D02*
X187762Y145517D01*
X184658Y149768D02*
X190246Y151630D01*
X184658Y153493D01*
X186055Y153027D02*
X186055Y150233D01*
X184658Y155747D02*
X190246Y155747D01*
X184658Y158852D01*
X190246Y158852D01*
X186831Y161472D02*
X186831Y165197D01*
X187762Y169990D02*
X187762Y170922D01*
X184658Y170922D01*
X184658Y169059D01*
X184660Y168989D01*
X184666Y168920D01*
X184676Y168851D01*
X184689Y168783D01*
X184707Y168715D01*
X184728Y168649D01*
X184753Y168584D01*
X184781Y168520D01*
X184813Y168458D01*
X184848Y168398D01*
X184887Y168340D01*
X184929Y168285D01*
X184974Y168231D01*
X185022Y168181D01*
X185072Y168133D01*
X185126Y168088D01*
X185181Y168046D01*
X185239Y168007D01*
X185299Y167972D01*
X185361Y167940D01*
X185425Y167912D01*
X185490Y167887D01*
X185556Y167866D01*
X185624Y167848D01*
X185692Y167835D01*
X185761Y167825D01*
X185830Y167819D01*
X185900Y167817D01*
X189004Y167817D01*
X189074Y167819D01*
X189143Y167825D01*
X189212Y167835D01*
X189280Y167848D01*
X189348Y167866D01*
X189414Y167887D01*
X189479Y167912D01*
X189543Y167940D01*
X189605Y167972D01*
X189665Y168007D01*
X189723Y168046D01*
X189778Y168088D01*
X189832Y168133D01*
X189882Y168181D01*
X189930Y168231D01*
X189975Y168285D01*
X190017Y168340D01*
X190056Y168398D01*
X190091Y168458D01*
X190123Y168520D01*
X190151Y168584D01*
X190176Y168649D01*
X190197Y168715D01*
X190215Y168783D01*
X190228Y168851D01*
X190238Y168920D01*
X190244Y168989D01*
X190246Y169059D01*
X190246Y170922D01*
X190246Y173669D02*
X184658Y173669D01*
X184658Y176774D02*
X190246Y173669D01*
X190246Y176774D02*
X184658Y176774D01*
X184658Y179522D02*
X190246Y179522D01*
X190246Y181074D01*
X190244Y181150D01*
X190239Y181226D01*
X190229Y181302D01*
X190216Y181377D01*
X190199Y181451D01*
X190179Y181525D01*
X190155Y181597D01*
X190128Y181668D01*
X190097Y181738D01*
X190063Y181806D01*
X190025Y181872D01*
X189984Y181936D01*
X189941Y181999D01*
X189894Y182059D01*
X189844Y182116D01*
X189791Y182171D01*
X189736Y182224D01*
X189679Y182274D01*
X189619Y182321D01*
X189556Y182364D01*
X189492Y182405D01*
X189426Y182443D01*
X189358Y182477D01*
X189288Y182508D01*
X189217Y182535D01*
X189144Y182559D01*
X189071Y182579D01*
X188997Y182596D01*
X188922Y182609D01*
X188846Y182619D01*
X188770Y182624D01*
X188694Y182626D01*
X186210Y182626D01*
X186131Y182624D01*
X186053Y182618D01*
X185975Y182608D01*
X185898Y182594D01*
X185821Y182576D01*
X185745Y182555D01*
X185671Y182529D01*
X185598Y182500D01*
X185527Y182467D01*
X185457Y182431D01*
X185389Y182391D01*
X185323Y182348D01*
X185260Y182301D01*
X185199Y182252D01*
X185141Y182199D01*
X185085Y182143D01*
X185032Y182085D01*
X184983Y182024D01*
X184936Y181961D01*
X184893Y181895D01*
X184853Y181827D01*
X184817Y181758D01*
X184784Y181686D01*
X184755Y181613D01*
X184729Y181539D01*
X184708Y181463D01*
X184690Y181386D01*
X184676Y181309D01*
X184666Y181231D01*
X184660Y181153D01*
X184658Y181074D01*
X184658Y179522D01*
X175514Y160869D02*
X175514Y158385D01*
X181102Y158385D01*
X181102Y160869D01*
X178618Y160248D02*
X178618Y158385D01*
X175514Y162635D02*
X181102Y166361D01*
X181102Y162635D02*
X175514Y166361D01*
X175514Y169619D02*
X181102Y169619D01*
X181102Y171171D02*
X181102Y168066D01*
X386503Y273304D02*
X388366Y278892D01*
X384641Y278892D02*
X386503Y273304D01*
X381344Y273304D02*
X380102Y273304D01*
X381344Y273304D02*
X381414Y273306D01*
X381483Y273312D01*
X381552Y273322D01*
X381620Y273335D01*
X381688Y273353D01*
X381754Y273374D01*
X381819Y273399D01*
X381883Y273427D01*
X381945Y273459D01*
X382005Y273494D01*
X382063Y273533D01*
X382118Y273575D01*
X382172Y273620D01*
X382222Y273668D01*
X382270Y273718D01*
X382315Y273772D01*
X382357Y273827D01*
X382396Y273885D01*
X382431Y273945D01*
X382463Y274007D01*
X382491Y274071D01*
X382516Y274136D01*
X382537Y274202D01*
X382555Y274270D01*
X382568Y274338D01*
X382578Y274407D01*
X382584Y274476D01*
X382586Y274546D01*
X382585Y274546D02*
X382585Y277650D01*
X382586Y277650D02*
X382584Y277720D01*
X382578Y277789D01*
X382568Y277858D01*
X382555Y277926D01*
X382537Y277994D01*
X382516Y278060D01*
X382491Y278125D01*
X382463Y278189D01*
X382431Y278251D01*
X382396Y278311D01*
X382357Y278369D01*
X382315Y278424D01*
X382270Y278478D01*
X382222Y278528D01*
X382172Y278576D01*
X382118Y278621D01*
X382063Y278663D01*
X382005Y278702D01*
X381945Y278737D01*
X381883Y278769D01*
X381819Y278797D01*
X381754Y278822D01*
X381688Y278843D01*
X381620Y278861D01*
X381552Y278874D01*
X381483Y278884D01*
X381414Y278890D01*
X381344Y278892D01*
X380102Y278892D01*
X376772Y273304D02*
X375530Y273304D01*
X376772Y273304D02*
X376842Y273306D01*
X376911Y273312D01*
X376980Y273322D01*
X377048Y273335D01*
X377116Y273353D01*
X377182Y273374D01*
X377247Y273399D01*
X377311Y273427D01*
X377373Y273459D01*
X377433Y273494D01*
X377491Y273533D01*
X377546Y273575D01*
X377600Y273620D01*
X377650Y273668D01*
X377698Y273718D01*
X377743Y273772D01*
X377785Y273827D01*
X377824Y273885D01*
X377859Y273945D01*
X377891Y274007D01*
X377919Y274071D01*
X377944Y274136D01*
X377965Y274202D01*
X377983Y274270D01*
X377996Y274338D01*
X378006Y274407D01*
X378012Y274476D01*
X378014Y274546D01*
X378014Y277650D01*
X378012Y277720D01*
X378006Y277789D01*
X377996Y277858D01*
X377983Y277926D01*
X377965Y277994D01*
X377944Y278060D01*
X377919Y278125D01*
X377891Y278189D01*
X377859Y278251D01*
X377824Y278311D01*
X377785Y278369D01*
X377743Y278424D01*
X377698Y278478D01*
X377650Y278528D01*
X377600Y278576D01*
X377546Y278621D01*
X377491Y278663D01*
X377433Y278702D01*
X377373Y278737D01*
X377311Y278769D01*
X377247Y278797D01*
X377182Y278822D01*
X377116Y278843D01*
X377048Y278861D01*
X376980Y278874D01*
X376911Y278884D01*
X376842Y278890D01*
X376772Y278892D01*
X375530Y278892D01*
X373664Y272683D02*
X371180Y272683D01*
X368842Y273304D02*
X366359Y273304D01*
X368842Y273304D02*
X368842Y278892D01*
X366359Y278892D01*
X366980Y276408D02*
X368842Y276408D01*
X364592Y273304D02*
X360867Y278892D01*
X364592Y278892D02*
X360867Y273304D01*
X357609Y273304D02*
X357609Y278892D01*
X359161Y278892D02*
X356056Y278892D01*
D13*
X504261Y184277D02*
X504261Y176911D01*
X505079Y176911D02*
X503442Y176911D01*
X503442Y184277D02*
X505079Y184277D01*
X498841Y176911D02*
X497204Y176911D01*
X498841Y176911D02*
X498919Y176913D01*
X498997Y176918D01*
X499074Y176928D01*
X499151Y176941D01*
X499227Y176957D01*
X499302Y176977D01*
X499376Y177001D01*
X499449Y177028D01*
X499521Y177059D01*
X499591Y177093D01*
X499660Y177130D01*
X499726Y177171D01*
X499791Y177215D01*
X499853Y177261D01*
X499913Y177311D01*
X499971Y177363D01*
X500026Y177418D01*
X500078Y177476D01*
X500128Y177536D01*
X500174Y177598D01*
X500218Y177663D01*
X500259Y177730D01*
X500296Y177798D01*
X500330Y177868D01*
X500361Y177940D01*
X500388Y178013D01*
X500412Y178087D01*
X500432Y178162D01*
X500448Y178238D01*
X500461Y178315D01*
X500471Y178392D01*
X500476Y178470D01*
X500478Y178548D01*
X500478Y182640D01*
X500476Y182718D01*
X500471Y182796D01*
X500461Y182873D01*
X500448Y182950D01*
X500432Y183026D01*
X500412Y183101D01*
X500388Y183175D01*
X500361Y183248D01*
X500330Y183320D01*
X500296Y183390D01*
X500259Y183459D01*
X500218Y183525D01*
X500174Y183590D01*
X500128Y183652D01*
X500078Y183712D01*
X500026Y183770D01*
X499971Y183825D01*
X499913Y183877D01*
X499853Y183927D01*
X499791Y183973D01*
X499726Y184017D01*
X499660Y184058D01*
X499591Y184095D01*
X499521Y184129D01*
X499449Y184160D01*
X499376Y184187D01*
X499302Y184211D01*
X499227Y184231D01*
X499151Y184247D01*
X499074Y184260D01*
X498997Y184270D01*
X498919Y184275D01*
X498841Y184277D01*
X497204Y184277D01*
X490510Y178548D02*
X490512Y178470D01*
X490517Y178392D01*
X490527Y178315D01*
X490540Y178238D01*
X490556Y178162D01*
X490576Y178087D01*
X490600Y178013D01*
X490627Y177940D01*
X490658Y177868D01*
X490692Y177798D01*
X490729Y177729D01*
X490770Y177663D01*
X490814Y177598D01*
X490860Y177536D01*
X490910Y177476D01*
X490962Y177418D01*
X491017Y177363D01*
X491075Y177311D01*
X491135Y177261D01*
X491197Y177215D01*
X491262Y177171D01*
X491329Y177130D01*
X491397Y177093D01*
X491467Y177059D01*
X491539Y177028D01*
X491612Y177001D01*
X491686Y176977D01*
X491761Y176957D01*
X491837Y176941D01*
X491914Y176928D01*
X491991Y176918D01*
X492069Y176913D01*
X492147Y176911D01*
X492261Y176913D01*
X492374Y176918D01*
X492488Y176928D01*
X492601Y176941D01*
X492713Y176958D01*
X492825Y176978D01*
X492936Y177002D01*
X493047Y177030D01*
X493156Y177061D01*
X493264Y177096D01*
X493371Y177135D01*
X493477Y177177D01*
X493581Y177222D01*
X493684Y177271D01*
X493785Y177324D01*
X493884Y177379D01*
X493982Y177438D01*
X494077Y177500D01*
X494170Y177565D01*
X494262Y177633D01*
X494350Y177704D01*
X494437Y177778D01*
X494521Y177855D01*
X494602Y177934D01*
X494398Y182640D02*
X494396Y182718D01*
X494391Y182796D01*
X494381Y182873D01*
X494368Y182950D01*
X494352Y183026D01*
X494332Y183101D01*
X494308Y183175D01*
X494281Y183248D01*
X494250Y183320D01*
X494216Y183390D01*
X494179Y183459D01*
X494138Y183525D01*
X494094Y183590D01*
X494048Y183652D01*
X493998Y183712D01*
X493946Y183770D01*
X493891Y183825D01*
X493833Y183877D01*
X493773Y183927D01*
X493711Y183973D01*
X493646Y184017D01*
X493580Y184058D01*
X493511Y184095D01*
X493441Y184129D01*
X493369Y184160D01*
X493296Y184187D01*
X493222Y184211D01*
X493147Y184231D01*
X493071Y184247D01*
X492994Y184260D01*
X492917Y184270D01*
X492839Y184275D01*
X492761Y184277D01*
X492651Y184275D01*
X492542Y184269D01*
X492432Y184259D01*
X492324Y184246D01*
X492215Y184228D01*
X492108Y184207D01*
X492001Y184181D01*
X491895Y184152D01*
X491790Y184120D01*
X491687Y184083D01*
X491585Y184043D01*
X491484Y183999D01*
X491385Y183951D01*
X491288Y183901D01*
X491193Y183846D01*
X491100Y183788D01*
X491009Y183727D01*
X490920Y183663D01*
X493579Y181207D02*
X493646Y181249D01*
X493711Y181293D01*
X493773Y181341D01*
X493833Y181391D01*
X493891Y181444D01*
X493946Y181500D01*
X493998Y181559D01*
X494048Y181619D01*
X494095Y181683D01*
X494138Y181748D01*
X494179Y181815D01*
X494216Y181884D01*
X494250Y181955D01*
X494281Y182027D01*
X494308Y182101D01*
X494332Y182175D01*
X494352Y182251D01*
X494368Y182328D01*
X494381Y182405D01*
X494391Y182483D01*
X494396Y182562D01*
X494398Y182640D01*
X491329Y179980D02*
X491263Y179939D01*
X491198Y179894D01*
X491136Y179847D01*
X491076Y179796D01*
X491018Y179743D01*
X490963Y179687D01*
X490910Y179629D01*
X490861Y179568D01*
X490814Y179505D01*
X490771Y179440D01*
X490730Y179373D01*
X490693Y179304D01*
X490659Y179233D01*
X490628Y179161D01*
X490601Y179087D01*
X490577Y179012D01*
X490557Y178937D01*
X490541Y178860D01*
X490528Y178783D01*
X490518Y178705D01*
X490513Y178626D01*
X490511Y178548D01*
X491329Y179980D02*
X493579Y181208D01*
X487170Y184277D02*
X487170Y176911D01*
X487170Y184277D02*
X485123Y184277D01*
X485034Y184275D01*
X484945Y184269D01*
X484856Y184259D01*
X484768Y184246D01*
X484680Y184229D01*
X484593Y184207D01*
X484508Y184182D01*
X484423Y184154D01*
X484340Y184121D01*
X484258Y184085D01*
X484178Y184046D01*
X484100Y184003D01*
X484024Y183957D01*
X483949Y183907D01*
X483877Y183854D01*
X483808Y183798D01*
X483741Y183739D01*
X483676Y183678D01*
X483615Y183613D01*
X483556Y183546D01*
X483500Y183477D01*
X483447Y183405D01*
X483397Y183330D01*
X483351Y183254D01*
X483308Y183176D01*
X483269Y183096D01*
X483233Y183014D01*
X483200Y182931D01*
X483172Y182846D01*
X483147Y182761D01*
X483125Y182674D01*
X483108Y182586D01*
X483095Y182498D01*
X483085Y182409D01*
X483079Y182320D01*
X483077Y182231D01*
X483079Y182142D01*
X483085Y182053D01*
X483095Y181964D01*
X483108Y181876D01*
X483125Y181788D01*
X483147Y181701D01*
X483172Y181616D01*
X483200Y181531D01*
X483233Y181448D01*
X483269Y181366D01*
X483308Y181286D01*
X483351Y181208D01*
X483397Y181132D01*
X483447Y181057D01*
X483500Y180985D01*
X483556Y180916D01*
X483615Y180849D01*
X483676Y180784D01*
X483741Y180723D01*
X483808Y180664D01*
X483877Y180608D01*
X483949Y180555D01*
X484024Y180505D01*
X484100Y180459D01*
X484178Y180416D01*
X484258Y180377D01*
X484340Y180341D01*
X484423Y180308D01*
X484508Y180280D01*
X484593Y180255D01*
X484680Y180233D01*
X484768Y180216D01*
X484856Y180203D01*
X484945Y180193D01*
X485034Y180187D01*
X485123Y180185D01*
X487170Y180185D01*
D11*
X98862Y98918D02*
X98862Y97987D01*
X98862Y98918D02*
X95758Y98918D01*
X95758Y97055D01*
X95760Y96985D01*
X95766Y96916D01*
X95776Y96847D01*
X95789Y96779D01*
X95807Y96711D01*
X95828Y96645D01*
X95853Y96580D01*
X95881Y96516D01*
X95913Y96454D01*
X95948Y96394D01*
X95987Y96336D01*
X96029Y96281D01*
X96074Y96227D01*
X96122Y96177D01*
X96172Y96129D01*
X96226Y96084D01*
X96281Y96042D01*
X96339Y96003D01*
X96399Y95968D01*
X96461Y95936D01*
X96525Y95908D01*
X96590Y95883D01*
X96656Y95862D01*
X96724Y95844D01*
X96792Y95831D01*
X96861Y95821D01*
X96930Y95815D01*
X97000Y95813D01*
X97000Y95814D02*
X100104Y95814D01*
X100104Y95813D02*
X100174Y95815D01*
X100243Y95821D01*
X100312Y95831D01*
X100380Y95844D01*
X100448Y95862D01*
X100514Y95883D01*
X100579Y95908D01*
X100643Y95936D01*
X100705Y95968D01*
X100765Y96003D01*
X100823Y96042D01*
X100878Y96084D01*
X100932Y96129D01*
X100982Y96177D01*
X101030Y96227D01*
X101075Y96281D01*
X101117Y96336D01*
X101156Y96394D01*
X101191Y96454D01*
X101223Y96516D01*
X101251Y96580D01*
X101276Y96645D01*
X101297Y96711D01*
X101315Y96779D01*
X101328Y96847D01*
X101338Y96916D01*
X101344Y96985D01*
X101346Y97055D01*
X101346Y98918D01*
X101346Y101666D02*
X95758Y101666D01*
X95758Y104770D02*
X101346Y101666D01*
X101346Y104770D02*
X95758Y104770D01*
X95758Y107518D02*
X101346Y107518D01*
X101346Y109070D01*
X101344Y109146D01*
X101339Y109222D01*
X101329Y109298D01*
X101316Y109373D01*
X101299Y109447D01*
X101279Y109521D01*
X101255Y109593D01*
X101228Y109664D01*
X101197Y109734D01*
X101163Y109802D01*
X101125Y109868D01*
X101084Y109932D01*
X101041Y109995D01*
X100994Y110055D01*
X100944Y110112D01*
X100891Y110167D01*
X100836Y110220D01*
X100779Y110270D01*
X100719Y110317D01*
X100656Y110360D01*
X100592Y110401D01*
X100526Y110439D01*
X100458Y110473D01*
X100388Y110504D01*
X100317Y110531D01*
X100244Y110555D01*
X100171Y110575D01*
X100097Y110592D01*
X100022Y110605D01*
X99946Y110615D01*
X99870Y110620D01*
X99794Y110622D01*
X97310Y110622D01*
X97231Y110620D01*
X97153Y110614D01*
X97075Y110604D01*
X96998Y110590D01*
X96921Y110572D01*
X96845Y110551D01*
X96771Y110525D01*
X96698Y110496D01*
X96627Y110463D01*
X96557Y110427D01*
X96489Y110387D01*
X96423Y110344D01*
X96360Y110297D01*
X96299Y110248D01*
X96241Y110195D01*
X96185Y110139D01*
X96132Y110081D01*
X96083Y110020D01*
X96036Y109957D01*
X95993Y109891D01*
X95953Y109823D01*
X95917Y109754D01*
X95884Y109682D01*
X95855Y109609D01*
X95829Y109535D01*
X95808Y109459D01*
X95790Y109382D01*
X95776Y109305D01*
X95766Y109227D01*
X95760Y109149D01*
X95758Y109070D01*
X95758Y107518D01*
X95137Y112949D02*
X95137Y115432D01*
X95758Y117770D02*
X95758Y120254D01*
X95758Y117770D02*
X101346Y117770D01*
X101346Y120254D01*
X98862Y119633D02*
X98862Y117770D01*
X95758Y122021D02*
X101346Y125746D01*
X101346Y122021D02*
X95758Y125746D01*
X95758Y129004D02*
X101346Y129004D01*
X101346Y127452D02*
X101346Y130556D01*
X232212Y100188D02*
X232212Y99257D01*
X232212Y100188D02*
X229108Y100188D01*
X229108Y98325D01*
X229110Y98255D01*
X229116Y98186D01*
X229126Y98117D01*
X229139Y98049D01*
X229157Y97981D01*
X229178Y97915D01*
X229203Y97850D01*
X229231Y97786D01*
X229263Y97724D01*
X229298Y97664D01*
X229337Y97606D01*
X229379Y97551D01*
X229424Y97497D01*
X229472Y97447D01*
X229522Y97399D01*
X229576Y97354D01*
X229631Y97312D01*
X229689Y97273D01*
X229749Y97238D01*
X229811Y97206D01*
X229875Y97178D01*
X229940Y97153D01*
X230006Y97132D01*
X230074Y97114D01*
X230142Y97101D01*
X230211Y97091D01*
X230280Y97085D01*
X230350Y97083D01*
X230350Y97084D02*
X233454Y97084D01*
X233454Y97083D02*
X233524Y97085D01*
X233593Y97091D01*
X233662Y97101D01*
X233730Y97114D01*
X233798Y97132D01*
X233864Y97153D01*
X233929Y97178D01*
X233993Y97206D01*
X234055Y97238D01*
X234115Y97273D01*
X234173Y97312D01*
X234228Y97354D01*
X234282Y97399D01*
X234332Y97447D01*
X234380Y97497D01*
X234425Y97551D01*
X234467Y97606D01*
X234506Y97664D01*
X234541Y97724D01*
X234573Y97786D01*
X234601Y97850D01*
X234626Y97915D01*
X234647Y97981D01*
X234665Y98049D01*
X234678Y98117D01*
X234688Y98186D01*
X234694Y98255D01*
X234696Y98325D01*
X234696Y100188D01*
X234696Y102936D02*
X229108Y102936D01*
X229108Y106040D02*
X234696Y102936D01*
X234696Y106040D02*
X229108Y106040D01*
X229108Y108788D02*
X234696Y108788D01*
X234696Y110340D01*
X234694Y110416D01*
X234689Y110492D01*
X234679Y110568D01*
X234666Y110643D01*
X234649Y110717D01*
X234629Y110791D01*
X234605Y110863D01*
X234578Y110934D01*
X234547Y111004D01*
X234513Y111072D01*
X234475Y111138D01*
X234434Y111202D01*
X234391Y111265D01*
X234344Y111325D01*
X234294Y111382D01*
X234241Y111437D01*
X234186Y111490D01*
X234129Y111540D01*
X234069Y111587D01*
X234006Y111630D01*
X233942Y111671D01*
X233876Y111709D01*
X233808Y111743D01*
X233738Y111774D01*
X233667Y111801D01*
X233594Y111825D01*
X233521Y111845D01*
X233447Y111862D01*
X233372Y111875D01*
X233296Y111885D01*
X233220Y111890D01*
X233144Y111892D01*
X230660Y111892D01*
X230581Y111890D01*
X230503Y111884D01*
X230425Y111874D01*
X230348Y111860D01*
X230271Y111842D01*
X230195Y111821D01*
X230121Y111795D01*
X230048Y111766D01*
X229977Y111733D01*
X229907Y111697D01*
X229839Y111657D01*
X229773Y111614D01*
X229710Y111567D01*
X229649Y111518D01*
X229591Y111465D01*
X229535Y111409D01*
X229482Y111351D01*
X229433Y111290D01*
X229386Y111227D01*
X229343Y111161D01*
X229303Y111093D01*
X229267Y111024D01*
X229234Y110952D01*
X229205Y110879D01*
X229179Y110805D01*
X229158Y110729D01*
X229140Y110652D01*
X229126Y110575D01*
X229116Y110497D01*
X229110Y110419D01*
X229108Y110340D01*
X229108Y108788D01*
X228487Y114219D02*
X228487Y116702D01*
X229108Y119040D02*
X229108Y121524D01*
X229108Y119040D02*
X234696Y119040D01*
X234696Y121524D01*
X232212Y120903D02*
X232212Y119040D01*
X229108Y123291D02*
X234696Y127016D01*
X234696Y123291D02*
X229108Y127016D01*
X229108Y130274D02*
X234696Y130274D01*
X234696Y128722D02*
X234696Y131826D01*
D12*
X151003Y228473D02*
X151003Y232283D01*
X149310Y232283D01*
X149310Y230590D02*
X151003Y230590D01*
X148173Y228473D02*
X146903Y232283D01*
X145633Y228473D01*
X145951Y229426D02*
X147856Y229426D01*
X144182Y228473D02*
X144182Y232283D01*
X142065Y228473D01*
X142065Y232283D01*
X140370Y229955D02*
X137830Y229955D01*
X134654Y230590D02*
X134019Y230590D01*
X134019Y228473D01*
X135289Y228473D01*
X135344Y228475D01*
X135400Y228480D01*
X135454Y228489D01*
X135508Y228502D01*
X135561Y228518D01*
X135613Y228537D01*
X135664Y228560D01*
X135713Y228586D01*
X135760Y228616D01*
X135805Y228648D01*
X135847Y228683D01*
X135888Y228721D01*
X135926Y228762D01*
X135961Y228804D01*
X135993Y228849D01*
X136023Y228897D01*
X136049Y228945D01*
X136072Y228996D01*
X136091Y229048D01*
X136107Y229101D01*
X136120Y229155D01*
X136129Y229209D01*
X136134Y229265D01*
X136136Y229320D01*
X136135Y229320D02*
X136135Y231436D01*
X136136Y231436D02*
X136134Y231494D01*
X136128Y231551D01*
X136118Y231608D01*
X136105Y231665D01*
X136087Y231720D01*
X136066Y231773D01*
X136041Y231826D01*
X136013Y231876D01*
X135981Y231924D01*
X135946Y231971D01*
X135908Y232014D01*
X135867Y232055D01*
X135824Y232093D01*
X135777Y232128D01*
X135729Y232160D01*
X135679Y232188D01*
X135626Y232213D01*
X135573Y232234D01*
X135518Y232252D01*
X135461Y232265D01*
X135404Y232275D01*
X135347Y232281D01*
X135289Y232283D01*
X134019Y232283D01*
X132234Y232283D02*
X132234Y228473D01*
X130117Y228473D02*
X132234Y232283D01*
X130117Y232283D02*
X130117Y228473D01*
X128333Y228473D02*
X128333Y232283D01*
X127274Y232283D01*
X127210Y232281D01*
X127146Y232275D01*
X127083Y232266D01*
X127021Y232252D01*
X126959Y232235D01*
X126899Y232214D01*
X126840Y232190D01*
X126782Y232162D01*
X126727Y232130D01*
X126673Y232096D01*
X126622Y232058D01*
X126572Y232017D01*
X126526Y231973D01*
X126482Y231927D01*
X126441Y231878D01*
X126403Y231826D01*
X126369Y231772D01*
X126337Y231717D01*
X126309Y231659D01*
X126285Y231600D01*
X126264Y231540D01*
X126247Y231478D01*
X126233Y231416D01*
X126224Y231353D01*
X126218Y231289D01*
X126216Y231225D01*
X126216Y229531D01*
X126218Y229467D01*
X126224Y229403D01*
X126233Y229340D01*
X126247Y229278D01*
X126264Y229216D01*
X126285Y229156D01*
X126309Y229097D01*
X126337Y229039D01*
X126369Y228984D01*
X126403Y228930D01*
X126441Y228879D01*
X126482Y228829D01*
X126526Y228783D01*
X126572Y228739D01*
X126622Y228698D01*
X126673Y228660D01*
X126727Y228626D01*
X126782Y228594D01*
X126840Y228566D01*
X126899Y228542D01*
X126959Y228521D01*
X127021Y228504D01*
X127083Y228490D01*
X127147Y228481D01*
X127210Y228475D01*
X127274Y228473D01*
X128333Y228473D01*
X140737Y222377D02*
X142430Y222377D01*
X142430Y226187D01*
X140737Y226187D01*
X141160Y224494D02*
X142430Y224494D01*
X139600Y222377D02*
X137060Y226187D01*
X139600Y226187D02*
X137060Y222377D01*
X134917Y222377D02*
X134917Y226187D01*
X135975Y226187D02*
X133858Y226187D01*
M02*
