G04 EAGLE Gerber RS-274X export*
G75*
%MOMM*%
%FSLAX34Y34*%
%LPD*%
%INSoldermask Top*%
%IPPOS*%
%AMOC8*
5,1,8,0,0,1.08239X$1,22.5*%
G01*
%ADD10C,3.303200*%
%ADD11R,2.003200X1.803200*%
%ADD12R,3.003200X2.603200*%
%ADD13R,1.503200X1.703200*%
%ADD14P,1.869504X8X202.500000*%
%ADD15R,1.703200X1.503200*%
%ADD16R,1.203200X1.603200*%
%ADD17R,1.752600X0.736600*%
%ADD18R,2.403200X0.803200*%
%ADD19R,2.753200X2.753200*%
%ADD20P,2.980036X8X292.500000*%
%ADD21P,2.980036X8X202.500000*%
%ADD22R,1.803400X1.803400*%
%ADD23P,1.951982X8X112.500000*%
%ADD24R,1.727200X1.727200*%
%ADD25P,1.869504X8X112.500000*%
%ADD26C,1.152381*%
%ADD27C,0.360637*%
%ADD28P,2.980036X8X112.500000*%
%ADD29C,1.727200*%
%ADD30R,1.371600X1.803400*%
%ADD31C,1.981200*%
%ADD32C,1.727200*%
%ADD33R,0.703200X0.903200*%
%ADD34R,1.403200X1.403200*%
%ADD35R,0.838200X1.473200*%
%ADD36P,1.869504X8X22.500000*%
%ADD37R,1.103200X1.803200*%
%ADD38R,1.503200X1.503200*%
%ADD39R,2.203200X1.803200*%
%ADD40C,1.511200*%
%ADD41C,1.411200*%
%ADD42C,1.361200*%
%ADD43C,3.719200*%
%ADD44C,1.711200*%

G36*
X203355Y134630D02*
X203355Y134630D01*
X203510Y134630D01*
X203672Y134650D01*
X203836Y134661D01*
X203988Y134690D01*
X204142Y134709D01*
X204301Y134749D01*
X204462Y134780D01*
X204609Y134828D01*
X204759Y134866D01*
X204912Y134926D01*
X205068Y134977D01*
X205208Y135043D01*
X205352Y135099D01*
X205496Y135178D01*
X205644Y135248D01*
X205775Y135330D01*
X205911Y135405D01*
X206044Y135501D01*
X206183Y135589D01*
X206302Y135687D01*
X206428Y135778D01*
X206547Y135890D01*
X206674Y135994D01*
X206780Y136107D01*
X206893Y136213D01*
X206998Y136339D01*
X207110Y136458D01*
X207202Y136584D01*
X207301Y136703D01*
X207389Y136841D01*
X207485Y136974D01*
X207560Y137109D01*
X207644Y137240D01*
X207714Y137388D01*
X207793Y137531D01*
X207850Y137675D01*
X207917Y137815D01*
X207968Y137971D01*
X208028Y138124D01*
X208067Y138274D01*
X208116Y138421D01*
X208147Y138582D01*
X208188Y138740D01*
X208207Y138894D01*
X208237Y139046D01*
X208247Y139205D01*
X208269Y139372D01*
X208269Y139541D01*
X208279Y139700D01*
X208279Y236220D01*
X208270Y236374D01*
X208270Y236515D01*
X208270Y236530D01*
X208250Y236692D01*
X208239Y236856D01*
X208210Y237008D01*
X208191Y237162D01*
X208151Y237321D01*
X208120Y237482D01*
X208072Y237629D01*
X208034Y237779D01*
X207974Y237932D01*
X207923Y238088D01*
X207858Y238228D01*
X207801Y238372D01*
X207722Y238516D01*
X207652Y238664D01*
X207570Y238795D01*
X207495Y238931D01*
X207399Y239064D01*
X207311Y239203D01*
X207213Y239322D01*
X207122Y239448D01*
X207010Y239567D01*
X206906Y239694D01*
X206793Y239800D01*
X206687Y239913D01*
X206561Y240018D01*
X206442Y240130D01*
X206316Y240222D01*
X206197Y240321D01*
X206059Y240409D01*
X205927Y240505D01*
X205791Y240580D01*
X205660Y240664D01*
X205512Y240734D01*
X205369Y240813D01*
X205225Y240870D01*
X205085Y240937D01*
X204929Y240988D01*
X204776Y241048D01*
X204626Y241087D01*
X204479Y241136D01*
X204318Y241167D01*
X204160Y241208D01*
X204006Y241227D01*
X203854Y241257D01*
X203695Y241267D01*
X203528Y241289D01*
X203359Y241289D01*
X203200Y241299D01*
X161290Y241299D01*
X161136Y241290D01*
X160980Y241290D01*
X160818Y241270D01*
X160654Y241259D01*
X160502Y241230D01*
X160348Y241211D01*
X160189Y241171D01*
X160028Y241140D01*
X159881Y241092D01*
X159731Y241054D01*
X159578Y240994D01*
X159422Y240943D01*
X159282Y240878D01*
X159138Y240821D01*
X158994Y240742D01*
X158846Y240672D01*
X158715Y240590D01*
X158579Y240515D01*
X158446Y240419D01*
X158307Y240331D01*
X158188Y240233D01*
X158062Y240142D01*
X157943Y240030D01*
X157816Y239926D01*
X157710Y239813D01*
X157597Y239707D01*
X157492Y239581D01*
X157380Y239462D01*
X157288Y239336D01*
X157189Y239217D01*
X157101Y239079D01*
X157005Y238947D01*
X156930Y238811D01*
X156846Y238680D01*
X156776Y238532D01*
X156697Y238389D01*
X156640Y238245D01*
X156573Y238105D01*
X156522Y237949D01*
X156462Y237796D01*
X156423Y237646D01*
X156375Y237499D01*
X156343Y237338D01*
X156302Y237180D01*
X156283Y237026D01*
X156253Y236874D01*
X156243Y236715D01*
X156221Y236548D01*
X156221Y236379D01*
X156211Y236220D01*
X156211Y139700D01*
X156220Y139546D01*
X156220Y139390D01*
X156240Y139228D01*
X156251Y139064D01*
X156280Y138912D01*
X156299Y138758D01*
X156339Y138599D01*
X156370Y138438D01*
X156418Y138291D01*
X156456Y138141D01*
X156516Y137988D01*
X156567Y137832D01*
X156633Y137692D01*
X156689Y137548D01*
X156768Y137404D01*
X156838Y137256D01*
X156920Y137125D01*
X156995Y136989D01*
X157091Y136856D01*
X157179Y136717D01*
X157277Y136598D01*
X157368Y136472D01*
X157480Y136353D01*
X157584Y136226D01*
X157697Y136120D01*
X157803Y136007D01*
X157929Y135902D01*
X158048Y135790D01*
X158174Y135698D01*
X158293Y135599D01*
X158431Y135511D01*
X158564Y135415D01*
X158699Y135340D01*
X158830Y135256D01*
X158978Y135186D01*
X159121Y135107D01*
X159265Y135050D01*
X159405Y134983D01*
X159561Y134932D01*
X159714Y134872D01*
X159864Y134833D01*
X160011Y134785D01*
X160172Y134753D01*
X160330Y134712D01*
X160484Y134693D01*
X160636Y134663D01*
X160795Y134653D01*
X160962Y134631D01*
X161131Y134631D01*
X161290Y134621D01*
X203200Y134621D01*
X203355Y134630D01*
G37*
D10*
X35560Y38100D03*
X35560Y325000D03*
X645160Y38100D03*
X645160Y325000D03*
D11*
X441960Y265400D03*
X441960Y293400D03*
D12*
X566420Y261870D03*
X566420Y324870D03*
D13*
X559460Y228600D03*
X578460Y228600D03*
D14*
X520700Y152400D03*
X520700Y127000D03*
X495300Y152400D03*
X495300Y127000D03*
X469900Y152400D03*
X469900Y127000D03*
D13*
X578460Y160020D03*
X559460Y160020D03*
X578460Y182880D03*
X559460Y182880D03*
D15*
X434340Y238100D03*
X434340Y219100D03*
D16*
X622300Y154100D03*
X612800Y176100D03*
X631800Y176100D03*
D17*
X458216Y222250D03*
X458216Y209550D03*
X458216Y196850D03*
X458216Y184150D03*
X532384Y184150D03*
X532384Y196850D03*
X532384Y209550D03*
X532384Y222250D03*
D18*
X521300Y273050D03*
X469300Y273050D03*
X521300Y260350D03*
X521300Y285750D03*
X521300Y298450D03*
X469300Y260350D03*
X469300Y285750D03*
X469300Y298450D03*
D19*
X148070Y44450D03*
D20*
X108470Y44450D03*
D19*
X248400Y44450D03*
D20*
X208800Y44450D03*
D19*
X44450Y131100D03*
D21*
X44450Y170700D03*
X44450Y210300D03*
X44450Y249900D03*
D22*
X342700Y30480D03*
D23*
X317700Y30480D03*
D24*
X571100Y30480D03*
D25*
X546100Y30480D03*
X521100Y30480D03*
D24*
X456800Y30480D03*
D25*
X431800Y30480D03*
X406800Y30480D03*
D26*
X276954Y140706D02*
X276954Y235214D01*
X276954Y140706D02*
X192446Y140706D01*
X192446Y235214D01*
X276954Y235214D01*
X276954Y151654D02*
X192446Y151654D01*
X192446Y162602D02*
X276954Y162602D01*
X276954Y173550D02*
X192446Y173550D01*
X192446Y184498D02*
X276954Y184498D01*
X276954Y195446D02*
X192446Y195446D01*
X192446Y206394D02*
X276954Y206394D01*
X276954Y217342D02*
X192446Y217342D01*
X192446Y228290D02*
X276954Y228290D01*
D27*
X345913Y169773D02*
X345913Y155347D01*
X307487Y155347D01*
X307487Y169773D01*
X345913Y169773D01*
X345913Y158773D02*
X307487Y158773D01*
X307487Y162199D02*
X345913Y162199D01*
X345913Y165625D02*
X307487Y165625D01*
X307487Y169051D02*
X345913Y169051D01*
X345913Y206147D02*
X345913Y220573D01*
X345913Y206147D02*
X307487Y206147D01*
X307487Y220573D01*
X345913Y220573D01*
X345913Y209573D02*
X307487Y209573D01*
X307487Y212999D02*
X345913Y212999D01*
X345913Y216425D02*
X307487Y216425D01*
X307487Y219851D02*
X345913Y219851D01*
D15*
X383540Y160630D03*
X383540Y141630D03*
D13*
X441300Y162560D03*
X422300Y162560D03*
D15*
X411480Y238100D03*
X411480Y219100D03*
D13*
X559460Y205740D03*
X578460Y205740D03*
D15*
X388620Y219100D03*
X388620Y238100D03*
D13*
X422300Y139700D03*
X441300Y139700D03*
D19*
X118400Y316230D03*
D28*
X158000Y316230D03*
X197600Y316230D03*
X237200Y316230D03*
D16*
X622300Y226900D03*
X631800Y204900D03*
X612800Y204900D03*
D13*
X559460Y114300D03*
X578460Y114300D03*
X559460Y137160D03*
X578460Y137160D03*
D29*
X304800Y110490D03*
X330200Y110490D03*
X355600Y110490D03*
D30*
X314960Y77470D03*
X330200Y77470D03*
X345440Y77470D03*
D31*
X72390Y158750D03*
X72390Y184150D03*
X72390Y209550D03*
X72390Y234950D03*
X146050Y288290D03*
X171450Y288290D03*
X196850Y288290D03*
X222250Y288290D03*
D30*
X416560Y77470D03*
X431800Y77470D03*
X447040Y77470D03*
D32*
X138430Y82550D02*
X138430Y67310D01*
X113030Y67310D02*
X113030Y82550D01*
X245110Y82550D02*
X245110Y67310D01*
X219710Y67310D02*
X219710Y82550D01*
D33*
X495300Y288720D03*
X485800Y260170D03*
X504800Y260170D03*
D15*
X566420Y283870D03*
X566420Y302870D03*
D34*
X657860Y193970D03*
X657860Y214970D03*
X657860Y154600D03*
X657860Y175600D03*
D15*
X657860Y253340D03*
X657860Y234340D03*
D35*
X298704Y187960D03*
X290576Y187960D03*
X298704Y146050D03*
X290576Y146050D03*
X298704Y232410D03*
X290576Y232410D03*
D24*
X139700Y152400D03*
D36*
X139700Y177800D03*
X165100Y152400D03*
X165100Y177800D03*
D24*
X114300Y245110D03*
D25*
X139700Y245110D03*
X165100Y245110D03*
D24*
X335280Y294640D03*
D36*
X335280Y320040D03*
X360680Y294640D03*
X360680Y320040D03*
X386080Y294640D03*
X386080Y320040D03*
X411480Y294640D03*
X411480Y320040D03*
D24*
X647700Y101600D03*
D14*
X647700Y127000D03*
D24*
X114300Y114300D03*
D25*
X139700Y114300D03*
X165100Y114300D03*
X190500Y114300D03*
X215900Y114300D03*
D37*
X375890Y95800D03*
X403890Y95800D03*
D38*
X389890Y120100D03*
D39*
X524180Y85090D03*
X578180Y85090D03*
D40*
X495300Y275590D03*
D41*
X360680Y219710D03*
X330200Y189230D03*
X314960Y189230D03*
X345440Y189230D03*
X360680Y189230D03*
X314960Y234950D03*
X330200Y234950D03*
X345440Y234950D03*
X360680Y234950D03*
X360680Y204470D03*
D42*
X179070Y85090D03*
X179070Y30480D03*
X179070Y59690D03*
D43*
X304800Y266700D03*
D44*
X538480Y245110D03*
M02*
