G04 EAGLE Gerber RS-274X export*
G75*
%MOMM*%
%FSLAX34Y34*%
%LPD*%
%INSolderpaste Top*%
%IPPOS*%
%AMOC8*
5,1,8,0,0,1.08239X$1,22.5*%
G01*
%ADD10R,1.800000X1.600000*%
%ADD11R,2.800000X2.400000*%
%ADD12R,1.300000X1.500000*%
%ADD13R,1.500000X1.300000*%
%ADD14R,1.000000X1.400000*%
%ADD15R,1.549400X0.533400*%
%ADD16R,2.200000X0.600000*%
%ADD17C,0.940000*%
%ADD18C,0.160000*%
%ADD19R,1.168400X1.600200*%
%ADD20R,0.500000X0.700000*%
%ADD21R,1.200000X1.200000*%
%ADD22R,0.900000X1.600000*%
%ADD23R,1.300000X1.300000*%
%ADD24R,2.000000X1.600000*%


D10*
X441960Y265400D03*
X441960Y293400D03*
D11*
X566420Y261870D03*
X566420Y324870D03*
D12*
X559460Y228600D03*
X578460Y228600D03*
X578460Y160020D03*
X559460Y160020D03*
X578460Y182880D03*
X559460Y182880D03*
D13*
X434340Y238100D03*
X434340Y219100D03*
D14*
X622300Y154100D03*
X612800Y176100D03*
X631800Y176100D03*
D15*
X458216Y222250D03*
X458216Y209550D03*
X458216Y196850D03*
X458216Y184150D03*
X532384Y184150D03*
X532384Y196850D03*
X532384Y209550D03*
X532384Y222250D03*
D16*
X521300Y273050D03*
X469300Y273050D03*
X521300Y260350D03*
X521300Y285750D03*
X521300Y298450D03*
X469300Y260350D03*
X469300Y285750D03*
X469300Y298450D03*
D17*
X277000Y235260D02*
X277000Y140660D01*
X192400Y140660D01*
X192400Y235260D01*
X277000Y235260D01*
X277000Y149590D02*
X192400Y149590D01*
X192400Y158520D02*
X277000Y158520D01*
X277000Y167450D02*
X192400Y167450D01*
X192400Y176380D02*
X277000Y176380D01*
X277000Y185310D02*
X192400Y185310D01*
X192400Y194240D02*
X277000Y194240D01*
X277000Y203170D02*
X192400Y203170D01*
X192400Y212100D02*
X277000Y212100D01*
X277000Y221030D02*
X192400Y221030D01*
X192400Y229960D02*
X277000Y229960D01*
D18*
X345900Y169760D02*
X345900Y155360D01*
X307500Y155360D01*
X307500Y169760D01*
X345900Y169760D01*
X345900Y156880D02*
X307500Y156880D01*
X307500Y158400D02*
X345900Y158400D01*
X345900Y159920D02*
X307500Y159920D01*
X307500Y161440D02*
X345900Y161440D01*
X345900Y162960D02*
X307500Y162960D01*
X307500Y164480D02*
X345900Y164480D01*
X345900Y166000D02*
X307500Y166000D01*
X307500Y167520D02*
X345900Y167520D01*
X345900Y169040D02*
X307500Y169040D01*
X345900Y206160D02*
X345900Y220560D01*
X345900Y206160D02*
X307500Y206160D01*
X307500Y220560D01*
X345900Y220560D01*
X345900Y207680D02*
X307500Y207680D01*
X307500Y209200D02*
X345900Y209200D01*
X345900Y210720D02*
X307500Y210720D01*
X307500Y212240D02*
X345900Y212240D01*
X345900Y213760D02*
X307500Y213760D01*
X307500Y215280D02*
X345900Y215280D01*
X345900Y216800D02*
X307500Y216800D01*
X307500Y218320D02*
X345900Y218320D01*
X345900Y219840D02*
X307500Y219840D01*
D13*
X383540Y160630D03*
X383540Y141630D03*
D12*
X441300Y162560D03*
X422300Y162560D03*
D13*
X411480Y238100D03*
X411480Y219100D03*
D12*
X559460Y205740D03*
X578460Y205740D03*
D13*
X388620Y219100D03*
X388620Y238100D03*
D12*
X422300Y139700D03*
X441300Y139700D03*
D14*
X622300Y226900D03*
X631800Y204900D03*
X612800Y204900D03*
D12*
X559460Y114300D03*
X578460Y114300D03*
X559460Y137160D03*
X578460Y137160D03*
D19*
X314960Y77470D03*
X330200Y77470D03*
X345440Y77470D03*
X416560Y77470D03*
X431800Y77470D03*
X447040Y77470D03*
D20*
X495300Y288720D03*
X485800Y260170D03*
X504800Y260170D03*
D13*
X566420Y283870D03*
X566420Y302870D03*
D21*
X657860Y193970D03*
X657860Y214970D03*
X657860Y154600D03*
X657860Y175600D03*
D13*
X657860Y253340D03*
X657860Y234340D03*
D22*
X375890Y95800D03*
X403890Y95800D03*
D23*
X389890Y120100D03*
D24*
X524180Y85090D03*
X578180Y85090D03*
M02*
